<?xml version="1.0" standalone="no"?><!DOCTYPE svg PUBLIC "-//W3C//DTD SVG 1.1//EN" "http://www.w3.org/Graphics/SVG/1.1/DTD/svg11.dtd"><svg t="1641880027273" class="icon" viewBox="0 0 1024 1024" version="1.1" xmlns="http://www.w3.org/2000/svg" p-id="16729" xmlns:xlink="http://www.w3.org/1999/xlink" width="512" height="512"><defs><style type="text/css"></style></defs><path d="M912.64 19.968H111.488c-61.568 0-111.488 49.92-111.488 111.488 0 61.568 49.92 111.488 111.488 111.488h801.152c61.568 0 111.488-49.92 111.488-111.488-0.128-61.568-50.048-111.488-111.488-111.488zM163.968 659.2c0 191.104 155.904 345.856 347.904 345.856 192.256 0 347.904-154.752 347.904-345.856V288.64H163.968V659.2zM458.752 448.64c32.512-10.752 68.224-12.16 102.144-4.48l-4.096-7.936c-8.576-15.616-2.688-37.248 12.928-46.336 7.552-4.352 17.152-5.504 26.112-3.072 9.088 2.432 16.64 8.32 20.736 16l45.696 83.072c2.56 3.584 4.608 8.192 5.504 13.056 3.2 15.616-6.656 33.92-20.736 38.272l-86.4 48.256c-7.68 4.352-17.152 5.504-25.856 3.2-8.704-2.432-16.128-8.192-20.736-16.256-8.96-16-3.072-37.376 12.928-46.592l10.24-5.504c-17.92-3.072-36.608-1.792-53.76 3.84-28.672 9.344-51.968 29.312-65.664 56.192-13.696 26.88-16 57.472-6.784 86.144 15.232 46.592 58.368 77.952 107.392 77.952 11.904 0 23.552-1.92 34.944-5.632 30.592-9.984 55.552-32.64 68.48-62.336 8.448-19.456 32.512-29.184 52.224-20.48 20.096 8.704 29.184 32.128 20.48 52.224-22.016 50.304-64.512 88.96-116.608 105.984-19.328 6.272-39.296 9.472-59.52 9.472-83.584 0-157.184-53.376-182.912-132.736-32.896-100.608 22.4-209.408 123.264-242.304z" p-id="16730"></path></svg>