<?xml version="1.0" standalone="no"?><!DOCTYPE svg PUBLIC "-//W3C//DTD SVG 1.1//EN" "http://www.w3.org/Graphics/SVG/1.1/DTD/svg11.dtd"><svg class="icon" width="200px" height="162.15px" viewBox="0 0 1263 1024" version="1.1" xmlns="http://www.w3.org/2000/svg"><path d="M869.346933 783.961179l-79.278012-78.936093c32.163952-64.846678 21.222549-146.258735-32.08142-199.326898-65.070694-64.752356-168.353766-62.559359-230.830593 4.822235S466.755175 684.993358 531.743336 749.769294c55.944998 55.673821 140.151357 61.722247 202.415958 19.454003l77.379773 77.085015a40.723714 40.723714 0 0 0 58.951525-1.261563 44.284386 44.284386 0 0 0-1.143659-61.08557z m-296.856302-78.169723c-41.631567-41.419342-42.952081-109.968176-2.982947-153.097112s106.112746-44.496611 147.744313-3.08906 42.975662 109.956385 2.947576 153.097112-106.112746 44.520192-147.708942 3.08906z m0 0" fill="#298A7E" /><path d="M441.099471 648.632057H153.026947a32.777048 32.777048 0 0 1 0-65.495145H442.490727a36.832913 36.832913 0 0 1 6.402136 0.601305 227.765114 227.765114 0 0 1 255.165782-165.064271l0.424451-354.168975A64.103889 64.103889 0 0 0 640.214143 0.000212H64.847255A64.587291 64.587291 0 0 0 0.554721 64.4696L0.000577 780.777796a64.103889 64.103889 0 0 0 64.292533 64.351485h501.347354a226.916212 226.916212 0 0 1-124.540993-196.497224zM129.906158 238.812842a32.541242 32.541242 0 0 1 23.120789-9.538357h132.747045a32.777048 32.777048 0 1 1 0.117903 65.495145H153.203801a32.682726 32.682726 0 0 1-32.659145-32.84779 31.739501 31.739501 0 0 1 9.361502-23.120788z m23.120789 157.612798H480.455509a32.800629 32.800629 0 0 1 0 65.554097H153.026947a32.777048 32.777048 0 0 1 0-65.554097z m0 0" fill="#298A7E" /></svg>