<svg width="24.000000" height="24.000000" viewBox="0 0 24 24" fill="none" xmlns="http://www.w3.org/2000/svg" xmlns:xlink="http://www.w3.org/1999/xlink">
	<desc>
			Created with Pixso.
	</desc>
	<rect id="矩形 57" rx="5.000000" width="24.000000" height="24.000000" fill="#309BFF" fill-opacity="0.25"/>
	<g clip-path="url(#clip266_504)">
		<path id="path" d="M19.2826 8.93965C18.8854 8.00273 18.3193 7.16074 17.5951 6.43828C16.8727 5.71582 16.0306 5.14804 15.0938 4.75078C14.1234 4.33945 13.0916 4.13203 12.0299 4.13203C10.9681 4.13203 9.93634 4.33945 8.96423 4.75078C8.02734 5.14804 7.18536 5.71407 6.46289 6.43828C5.74042 7.16074 5.17267 8.00273 4.77539 8.93965C4.36407 9.90996 4.15662 10.9418 4.15662 12.0035C4.15662 13.0652 4.36407 14.0971 4.77539 15.0674C5.17267 16.0043 5.73865 16.8463 6.46289 17.5688C7.18536 18.2912 8.02734 18.859 8.96423 19.2563C9.93457 19.6676 10.9664 19.875 12.0281 19.875C13.0898 19.875 14.1217 19.6676 15.092 19.2563C16.0289 18.859 16.8709 18.293 17.5934 17.5688C18.3158 16.8463 18.8836 16.0043 19.2809 15.0674C19.6922 14.0971 19.8996 13.0652 19.8996 12.0035C19.9014 10.9418 19.6922 9.90996 19.2826 8.93965ZM12.0299 18.4529C8.47382 18.4529 5.58044 15.5596 5.58044 12.0035C5.58044 8.44746 8.47382 5.55411 12.0299 5.55411C15.5859 5.55411 18.4793 8.44746 18.4793 12.0035C18.4793 15.5596 15.5859 18.4529 12.0299 18.4529ZM15.2291 11.2477L12.7858 11.2477L12.7858 8.80429C12.7858 8.38945 12.4465 8.04843 12.0299 8.04843C11.6151 8.04843 11.274 8.3877 11.274 8.80429L11.274 11.2477L8.83069 11.2477C8.41583 11.2477 8.07483 11.5869 8.07483 12.0035C8.07483 12.4201 8.41406 12.7594 8.83069 12.7594L11.274 12.7594L11.274 15.2027C11.274 15.6193 11.6133 15.9586 12.0299 15.9586C12.4447 15.9586 12.7858 15.6193 12.7858 15.2027L12.7858 12.7594L15.2291 12.7594C15.6439 12.7594 15.985 12.4201 15.985 12.0035C15.985 11.5869 15.6439 11.2477 15.2291 11.2477Z" fill-rule="nonzero" fill="#99C9FF"/>
	</g>
	<defs>
		<clipPath id="clip266_504">
			<rect id="new" width="18.000000" height="18.000000" transform="translate(3.000000 3.000000)" fill="white"/>
		</clipPath>
	</defs>
</svg>
