<svg width="24.000000" height="24.000000" viewBox="0 0 24 24" fill="none" xmlns="http://www.w3.org/2000/svg" xmlns:xlink="http://www.w3.org/1999/xlink">
	<desc>
			Created with Pixso.
	</desc>
	<defs>
		<clipPath id="clip657_753">
			<rect id="删除" width="18.000000" height="18.000000" transform="translate(3.000000 3.000000)" fill="white"/>
		</clipPath>
		<clipPath id="clip657_751">
			<rect id="状态或审核" width="16.000000" height="16.000000" transform="translate(4.000000 4.000000)" fill="white"/>
		</clipPath>
	</defs>
	<rect id="矩形 56" rx="5.000000" width="24.000000" height="24.000000" fill="#309BFF" fill-opacity="0.25"/>
	<g clip-path="url(#clip657_751)">
		<g clip-path="url(#clip657_753)">
			<path id="path" d="M6.5625 7.5L5.8125 7.5C5.4375 7.5 5.25 7.3125 5.25 6.9375C5.25 6.5625 5.4375 6.375 5.8125 6.375L18.1875 6.375C18.5625 6.375 18.75 6.5625 18.75 6.9375C18.75 7.3125 18.5625 7.5 18.1875 7.5L7.6875 7.5L7.6875 17.4375C7.6875 18.0625 8 18.375 8.625 18.375L15.375 18.375C16 18.375 16.3125 18.0625 16.3125 17.4375L16.3125 9.1875C16.3125 8.8125 16.5 8.625 16.875 8.625C17.25 8.625 17.4375 8.8125 17.4375 9.1875L17.4375 17.4375C17.4375 18.5766 16.5142 19.5 15.375 19.5L8.625 19.5C7.48584 19.5 6.5625 18.5766 6.5625 17.4375L6.5625 7.5ZM10.5 5.625C10.125 5.625 9.9375 5.4375 9.9375 5.0625C9.9375 4.6875 10.125 4.5 10.5 4.5L13.5 4.5C13.875 4.5 14.0625 4.6875 14.0625 5.0625C14.0625 5.4375 13.875 5.625 13.5 5.625L10.5 5.625ZM9.9375 10.6875C9.9375 10.3125 10.125 10.125 10.5 10.125C10.875 10.125 11.0625 10.3125 11.0625 10.6875L11.0625 15.1875C11.0625 15.5625 10.875 15.75 10.5 15.75C10.125 15.75 9.9375 15.5625 9.9375 15.1875L9.9375 10.6875ZM12.9375 10.6875C12.9375 10.3125 13.125 10.125 13.5 10.125C13.875 10.125 14.0625 10.3125 14.0625 10.6875L14.0625 15.1875C14.0625 15.5625 13.875 15.75 13.5 15.75C13.125 15.75 12.9375 15.5625 12.9375 15.1875L12.9375 10.6875Z" fill-rule="nonzero" fill="#99C9FF"/>
		</g>
	</g>
</svg>
