<svg width="24.000000" height="24.000000" viewBox="0 0 24 24" fill="none" xmlns="http://www.w3.org/2000/svg" xmlns:xlink="http://www.w3.org/1999/xlink">
	<desc>
			Created with Pixso.
	</desc>
	<rect id="矩形 56" rx="5.000000" width="24.000000" height="24.000000" fill="#309BFF" fill-opacity="0.25"/>
	<g clip-path="url(#clip291_1055)">
		<path id="path" d="M6.2406 18.1125C6.24377 18.2578 6.27344 18.4781 6.28436 18.6219C6.3078 18.8469 6.50781 19.0188 6.73438 19.0188C6.96094 19.0188 7.15155 18.8469 7.17499 18.6219C7.16248 18.4688 7.14374 18.3219 7.14374 18.1672C7.14374 16.8438 7.66876 15.575 8.60468 14.6391C9.54065 13.7031 10.8094 13.1781 12.1328 13.1781L12.5875 13.1328C14.6234 12.9047 16.2141 11.1953 16.2141 9.09688C16.2141 6.84375 14.3875 5.01718 12.1344 5.01562C11.0516 5.01562 10.0109 5.44376 9.2453 6.20938C8.47968 6.97501 8.04999 8.01407 8.04999 9.09688C8.04999 10.6234 8.89844 11.9406 10.1422 12.6406C7.88751 13.4531 6.26251 15.5828 6.2406 18.1125ZM8.95782 9.09531C8.95782 7.34062 10.3797 5.91875 12.1344 5.91875C13.889 5.91875 15.3109 7.34062 15.3109 9.09531C15.3109 10.85 13.889 12.2719 12.1344 12.2719C10.3797 12.2719 8.95782 10.85 8.95782 9.09531ZM12.8219 18.8172C12.9 18.8922 13 18.9297 13.1 18.9297C13.2015 18.9297 13.3016 18.8922 13.3781 18.8172L17.6234 14.675C17.7766 14.525 17.7766 14.2812 17.6234 14.1328C17.4703 13.9828 17.2203 13.9828 17.0672 14.1328L13.1 18.0031L11.0656 16.0172C10.9125 15.8672 10.6641 15.8672 10.5094 16.0172C10.4344 16.0906 10.3969 16.1875 10.3953 16.2828C10.3969 16.3797 10.4344 16.4844 10.5094 16.5578L12.8219 18.8172Z" fill-rule="nonzero" fill="#99C9FF"/>
		<path id="path" d="M6.28436 18.6219C6.3078 18.8469 6.50781 19.0188 6.73438 19.0188C6.96094 19.0188 7.15155 18.8469 7.17499 18.6219C7.16248 18.4688 7.14374 18.3219 7.14374 18.1672C7.14374 16.8438 7.66876 15.575 8.60468 14.6391C9.54065 13.7031 10.8094 13.1781 12.1328 13.1781L12.5875 13.1328C14.6234 12.9047 16.2141 11.1953 16.2141 9.09688C16.2141 6.84375 14.3875 5.01718 12.1344 5.01562C11.0516 5.01562 10.0109 5.44376 9.2453 6.20938C8.47968 6.97501 8.04999 8.01407 8.04999 9.09688C8.04999 10.6234 8.89844 11.9406 10.1422 12.6406C7.88751 13.4531 6.26251 15.5828 6.2406 18.1125C6.24377 18.2578 6.27344 18.4781 6.28436 18.6219ZM12.1344 5.91875C13.889 5.91875 15.3109 7.34062 15.3109 9.09531C15.3109 10.85 13.889 12.2719 12.1344 12.2719C10.3797 12.2719 8.95782 10.85 8.95782 9.09531C8.95782 7.34062 10.3797 5.91875 12.1344 5.91875ZM13.1 18.9297C13.2015 18.9297 13.3016 18.8922 13.3781 18.8172L17.6234 14.675C17.7766 14.525 17.7766 14.2812 17.6234 14.1328C17.4703 13.9828 17.2203 13.9828 17.0672 14.1328L13.1 18.0031L11.0656 16.0172C10.9125 15.8672 10.6641 15.8672 10.5094 16.0172C10.4344 16.0906 10.3969 16.1875 10.3953 16.2828C10.3969 16.3797 10.4344 16.4844 10.5094 16.5578L12.8219 18.8172C12.9 18.8922 13 18.9297 13.1 18.9297Z" stroke="#99C9FF" stroke-width="0.500000"/>
	</g>
	<defs>
		<clipPath id="clip291_1055">
			<rect id="状态或审核" width="16.000000" height="16.000000" transform="translate(4.000000 4.000000)" fill="white"/>
		</clipPath>
	</defs>
</svg>
