<svg width="24.000000" height="24.000000" viewBox="0 0 24 24" fill="none" xmlns="http://www.w3.org/2000/svg" xmlns:xlink="http://www.w3.org/1999/xlink">
	<desc>
			Created with Pixso.
	</desc>
	<rect id="矩形 56" rx="5.000000" width="24.000000" height="24.000000" fill="#309BFF" fill-opacity="0.25"/>
	<g clip-path="url(#clip266_499)">
		<path id="path" d="M19.6 18.9L18 17.3C18.3 16.8 18.5 16.2 18.5 15.6C18.5 13.9 17.1 12.5 15.4 12.5C13.7 12.5 12.3 13.9 12.3 15.6C12.3 17.3 13.7 18.7 15.4 18.7C16.1 18.7 16.7 18.5 17.2 18.1L18.8 19.7C19 19.9 19.4 19.9 19.6 19.7C19.8 19.5 19.8 19.1 19.6 18.9ZM15.3 17.5C14.2 17.5 13.4 16.6 13.4 15.6C13.4 14.5 14.3 13.7 15.3 13.7C16.4 13.7 17.2 14.6 17.2 15.6C17.3 16.7 16.4 17.5 15.3 17.5ZM7.29999 20C6.5 20 4.79999 19.5 4.79999 17.8L4.79999 7.10001C4.79999 5.10001 6.09998 4.10001 7.29999 4.10001L16 4.10001C17.5 4.10001 18.5 5.10001 18.5 6.7L18.5 10.3C18.5 10.6 18.3 11 17.9 11C17.4 10.9 17.2 10.7 17.2 10.3L17.2 6.89999C17.2 5.8 16.2 5.39999 15.8 5.39999L7.29999 5.39999C6.79999 5.39999 6 6 6 7.3L6 17.3C6 18.8 7 18.8 7.40002 18.8L10.4 18.8C10.8 18.7 11 19.1 11 19.4C11 19.7 10.8 20 10.3 20L7.29999 20ZM8.20001 6.8L15 6.8C15.3 6.8 15.5 7 15.5 7.3C15.5 7.60001 15.3 7.8 15 7.8L8.20001 7.8C7.90002 7.8 7.70001 7.60001 7.70001 7.3C7.70001 7 7.79999 6.8 8.20001 6.8ZM8.20001 9.7L15 9.7C15.3 9.7 15.5 9.89999 15.5 10.2C15.5 10.5 15.3 10.7 15 10.7L8.20001 10.7C7.90002 10.7 7.70001 10.5 7.70001 10.2C7.70001 10 7.79999 9.7 8.20001 9.7ZM8.20001 12.7L11.1 12.7C11.4 12.7 11.6 12.9 11.6 13.2C11.6 13.5 11.3 13.7 11.1 13.7L8.20001 13.7C7.90002 13.7 7.70001 13.5 7.70001 13.2C7.70001 12.9 7.79999 12.7 8.20001 12.7Z" fill-rule="nonzero" fill="#99C9FF"/>
	</g>
	<defs>
		<clipPath id="clip266_499">
			<rect id="查看" width="16.000000" height="16.000000" transform="translate(4.000000 4.000000)" fill="white"/>
		</clipPath>
	</defs>
</svg>
