<?xml version="1.0" encoding="utf-8"?>
<!-- Generator: Adobe Illustrator 26.0.1, SVG Export Plug-In . SVG Version: 6.00 Build 0)  -->
<svg version="1.1" id="图层_1" xmlns="http://www.w3.org/2000/svg" xmlns:xlink="http://www.w3.org/1999/xlink" x="0px" y="0px"
	 viewBox="0 0 32.2 33.5" style="enable-background:new 0 0 32.2 33.5;" xml:space="preserve">
<style type="text/css">
	.st0{fill:#FF6868;}
	.st1{fill:#3377FF;}
	.st2{fill:#41398C;}
	.st3{fill:#F7F8F8;}
	.st4{fill:#FFFFFF;}
</style>
<g transform="matrix(1 0 0 1 -62 -97 )">
	<path class="st0" d="M90.2,125.1c0,2.8-2.3,5.1-5,5.1H66.7c-2.8,0-5-2.3-4.4-5.1v-19.2c-0.6-2.8,1.7-5.1,4.4-4.5h18.5
		c2.8-0.6,5,1.7,5,4.5V125.1z"/>
</g>
<g transform="matrix(1 0 0 1 -68 -93 )">
	<path class="st1" d="M90.9,98.7c0,2.2-1.7,3.9-3.8,3.9h-9.8c-2.1,0-3.8-1.8-3.8-3.9v-1.5c0-2.2,1.7-3.9,3.8-3.9h9.8
		c2.1,0,3.8,1.8,3.8,3.9V98.7z"/>
</g>
<g transform="matrix(1 0 0 1 -68 -97 )">
	<path class="st2" d="M90.9,101.2H73.5v1.3c0,2.3,1.7,4.2,3.8,4.2h9.8c2.1,0,3.8-1.9,3.8-4.2V101.2z"/>
</g>
<g transform="matrix(1 0 0 1 -68 -106 )">
	<path class="st3" d="M81.2,132.5c0,0.8-0.7,1.5-1.6,1.5h-4.9c-0.9,0-1.6-0.7-1.6-1.5s0.7-1.5,1.6-1.5h4.9
		C80.5,131,81.2,131.7,81.2,132.5z M82.4,126.3c0,0.8-0.7,1.5-1.6,1.5h-6.1c-0.9,0-1.6-0.7-1.6-1.5c0-0.8,0.7-1.5,1.6-1.5h6.1
		C81.7,124.8,82.4,125.5,82.4,126.3z M91.3,120.2c0,0.8-0.7,1.5-1.6,1.5h-15c-0.9,0-1.6-0.7-1.6-1.5s0.7-1.5,1.6-1.5h15
		C90.6,118.7,91.3,119.3,91.3,120.2z"/>
</g>
<g transform="matrix(1 0 0 1 -77 -110 )">
	<path class="st1" d="M94.4,129.1c-1.7,1.6-2.5,3.6-2.5,5.9c0,2.3,0.8,4.3,2.5,5.9c1.7,1.6,3.7,2.5,6,2.5c2.4,0,4.4-0.8,6-2.5
		c1.7-1.6,2.5-3.6,2.5-5.9c0-2.3-0.8-4.3-2.5-5.9c-1.7-1.6-3.7-2.5-6-2.5C98.1,126.6,96.1,127.4,94.4,129.1z"/>
</g>
<g transform="matrix(1 0 0 1 -77 -110 )">
	<path class="st2" d="M105.2,128c-1.5-0.9-3.1-1.4-4.8-1.4c-4.8,0-8.6,3.8-8.6,8.4c0,4,2.8,7.3,6.7,8.2h1.5c2.9,0,5.2-2.3,5.2-5V128
		z"/>
</g>
<g transform="matrix(1 0 0 1 -628 -115 )">
	<path class="st4" d="M657.1,142c0,0.2-0.1,0.4-0.2,0.5c-0.1,0.1-0.3,0.2-0.5,0.2l-4.8-0.1l-1.5,0c-0.2,0-0.4-0.1-0.5-0.2
		s-0.2-0.3-0.2-0.5l0-1.5l0-3.9c0-0.2,0.1-0.4,0.2-0.5c0.1-0.1,0.3-0.2,0.5-0.2l1.5,0c0.2,0,0.4,0.1,0.5,0.2s0.2,0.3,0.2,0.5l0,3.2
		l4.1,0.1c0.2,0,0.4,0.1,0.5,0.2s0.2,0.3,0.2,0.5L657.1,142z"/>
</g>
</svg>
