<?xml version="1.0" encoding="utf-8"?>
<!-- Generator: Adobe Illustrator 23.0.0, SVG Export Plug-In . SVG Version: 6.00 Build 0)  -->
<svg version="1.1" id="图层_1" xmlns="http://www.w3.org/2000/svg" xmlns:xlink="http://www.w3.org/1999/xlink" x="0px" y="0px"
	 viewBox="0 0 2000 2000" style="enable-background:new 0 0 2000 2000;" xml:space="preserve">
<style type="text/css">
	.st0{fill:url(#SVGID_1_);}
	.st1{display:none;fill:#FFFFFF;}
	.st2{opacity:0.57;}
	.st3{fill:url(#SVGID_2_);}
	.st4{fill:url(#SVGID_3_);}
	.st5{fill:url(#SVGID_4_);}
	.st6{fill:url(#SVGID_5_);}
	.st7{fill:url(#SVGID_6_);}
	.st8{fill:url(#SVGID_7_);}
	.st9{opacity:0.79;}
	.st10{fill:url(#SVGID_8_);}
	.st11{fill:url(#SVGID_9_);}
	.st12{fill:url(#SVGID_10_);}
	.st13{fill:url(#SVGID_11_);}
	.st14{fill:url(#SVGID_12_);}
	.st15{fill:url(#SVGID_13_);}
	.st16{fill:url(#SVGID_14_);}
	.st17{opacity:0.68;}
	.st18{fill:url(#SVGID_15_);}
	.st19{display:none;}
	.st20{display:inline;opacity:0.68;}
	.st21{fill:url(#SVGID_16_);}
	.st22{display:inline;fill:url(#SVGID_17_);}
	.st23{display:inline;fill:url(#SVGID_18_);}
	.st24{display:inline;fill:url(#SVGID_19_);}
	.st25{display:inline;fill:url(#SVGID_20_);}
	.st26{display:inline;fill:url(#SVGID_21_);}
	.st27{display:inline;fill:url(#SVGID_22_);}
	.st28{display:inline;fill:url(#SVGID_23_);}
	.st29{display:inline;fill:#FFFFFF;}
	.st30{fill:url(#SVGID_24_);}
	.st31{fill:url(#SVGID_25_);}
	.st32{fill:url(#SVGID_26_);}
	.st33{fill:url(#SVGID_27_);}
	.st34{fill:url(#SVGID_28_);}
	.st35{fill:url(#SVGID_29_);}
	.st36{fill:url(#SVGID_30_);}
	.st37{fill:url(#SVGID_31_);}
	.st38{fill:#FFFFFF;}
	.st39{fill:#E9F1FF;}
	.st40{fill:url(#SVGID_32_);}
	.st41{display:inline;}
	.st42{fill:url(#SVGID_33_);}
	.st43{fill:url(#SVGID_34_);}
	.st44{fill:url(#SVGID_35_);}
	.st45{fill:url(#SVGID_36_);}
	.st46{fill:url(#SVGID_37_);}
	.st47{fill:url(#SVGID_38_);}
	.st48{fill:url(#SVGID_39_);}
	.st49{fill:url(#SVGID_40_);}
	.st50{fill:url(#SVGID_41_);}
	.st51{fill:url(#SVGID_42_);}
	.st52{fill:url(#SVGID_43_);}
	.st53{fill:url(#SVGID_44_);}
	.st54{fill:url(#SVGID_45_);}
	.st55{fill:url(#SVGID_46_);}
	.st56{fill:url(#SVGID_47_);}
	.st57{fill:url(#SVGID_48_);}
	.st58{display:inline;fill:url(#SVGID_49_);}
	.st59{opacity:0.8034;fill:url(#SVGID_50_);enable-background:new    ;}
	.st60{fill:url(#SVGID_51_);}
	.st61{fill:url(#SVGID_52_);}
	.st62{fill:url(#SVGID_53_);}
	.st63{fill:url(#SVGID_54_);}
	.st64{fill:url(#SVGID_55_);}
	.st65{fill:url(#SVGID_56_);}
	.st66{fill:url(#SVGID_57_);}
	.st67{fill:url(#SVGID_58_);}
	.st68{fill:url(#SVGID_59_);}
	.st69{fill:url(#SVGID_60_);}
	.st70{fill:url(#SVGID_61_);}
	.st71{fill:url(#SVGID_62_);}
	.st72{fill:url(#SVGID_63_);}
	.st73{fill:url(#SVGID_64_);}
	.st74{fill:url(#SVGID_65_);}
	.st75{fill:url(#SVGID_66_);}
	.st76{fill:url(#SVGID_67_);}
	.st77{fill:url(#SVGID_68_);}
	.st78{fill:url(#SVGID_69_);}
	.st79{fill:url(#SVGID_70_);}
	.st80{fill:url(#SVGID_71_);}
	.st81{fill:url(#SVGID_72_);}
	.st82{fill:url(#SVGID_73_);}
	.st83{fill:url(#SVGID_74_);}
	.st84{fill:#8E8A8A;}
	.st85{fill:#E5E5E5;}
	.st86{fill:url(#SVGID_75_);}
	.st87{fill:#020202;}
	.st88{fill:url(#SVGID_76_);}
	.st89{fill:url(#SVGID_77_);}
	.st90{fill:url(#SVGID_78_);}
	.st91{fill:url(#SVGID_79_);}
	.st92{fill:url(#SVGID_80_);}
	.st93{display:inline;fill:url(#SVGID_81_);}
	.st94{display:inline;fill:url(#SVGID_82_);}
	.st95{fill:url(#SVGID_83_);}
	.st96{display:inline;fill:url(#SVGID_84_);}
	.st97{display:inline;fill:url(#SVGID_85_);}
	.st98{display:inline;fill:url(#SVGID_86_);}
	.st99{display:inline;opacity:0.6;}
	.st100{fill:url(#SVGID_87_);}
	.st101{fill:url(#SVGID_88_);}
	.st102{fill:url(#SVGID_89_);}
	.st103{fill:url(#SVGID_90_);}
	.st104{fill:url(#SVGID_91_);}
	.st105{fill:url(#SVGID_92_);}
	.st106{fill:url(#SVGID_93_);}
	.st107{fill:url(#SVGID_94_);}
	.st108{fill:url(#SVGID_95_);}
	.st109{fill:url(#SVGID_96_);}
	.st110{fill:url(#SVGID_97_);}
	.st111{fill:url(#SVGID_98_);}
	.st112{fill:url(#SVGID_99_);}
	.st113{display:inline;fill:url(#SVGID_100_);}
	.st114{display:inline;fill:url(#SVGID_101_);}
	.st115{display:inline;fill:url(#减去_46_1_);}
	.st116{display:inline;fill:#E9F1FF;}
	.st117{display:inline;fill:url(#路径_203_1_);}
	.st118{fill:url(#SVGID_102_);}
	.st119{fill:url(#SVGID_103_);}
	.st120{fill:url(#SVGID_104_);}
	.st121{fill:url(#SVGID_105_);}
	.st122{fill:url(#SVGID_106_);}
	.st123{fill:url(#SVGID_107_);}
	.st124{fill:url(#SVGID_108_);}
	.st125{fill:url(#SVGID_109_);}
	.st126{display:inline;fill:url(#SVGID_110_);}
	.st127{display:inline;fill:url(#SVGID_111_);}
	.st128{fill:url(#SVGID_112_);}
	.st129{display:inline;fill:url(#SVGID_113_);}
	.st130{display:inline;fill:url(#SVGID_114_);}
	.st131{display:inline;fill:url(#SVGID_115_);}
	.st132{display:inline;fill:url(#SVGID_116_);}
</style>
<g transform="matrix(1 0 0 1 -1635 -215 )">
	
		<linearGradient id="SVGID_1_" gradientUnits="userSpaceOnUse" x1="4272.0352" y1="1965.8596" x2="4272.0352" y2="-10.1111" gradientTransform="matrix(1 0 0 -1 -1635 2215)">
		<stop  offset="0" style="stop-color:#EAF5FF"/>
		<stop  offset="1" style="stop-color:#F2F9FF;stop-opacity:0.2039"/>
	</linearGradient>
	<path class="st0" d="M1639.1,1227.1c0-551.2,446.8-998,998-998s998,446.8,998,998s-446.8,998-998,998l0,0
		C2085.9,2225.1,1639.1,1778.3,1639.1,1227.1L1639.1,1227.1z"/>
</g>
<g>
	<rect y="2" class="st1" width="2000" height="2000"/>
	<g class="st2">
		
			<linearGradient id="SVGID_2_" gradientUnits="userSpaceOnUse" x1="1575.27" y1="666.4736" x2="1575.27" y2="2990.6653" gradientTransform="matrix(1 0 0 -1 0 2000)">
			<stop  offset="0.2597" style="stop-color:#FFFFFF"/>
			<stop  offset="1" style="stop-color:#6397F7"/>
		</linearGradient>
		<ellipse class="st3" cx="1575.3" cy="810.6" rx="355.3" ry="555.6"/>
	</g>
	<g class="st2">
		
			<linearGradient id="SVGID_3_" gradientUnits="userSpaceOnUse" x1="1367.02" y1="514.6603" x2="1367.02" y2="2838.8521" gradientTransform="matrix(1 0 0 -1 0 2000)">
			<stop  offset="0.2597" style="stop-color:#FFFFFF"/>
			<stop  offset="1" style="stop-color:#6397F7"/>
		</linearGradient>
		<ellipse class="st4" cx="1367" cy="962.4" rx="355.3" ry="555.7"/>
	</g>
	<g>
		
			<linearGradient id="SVGID_4_" gradientUnits="userSpaceOnUse" x1="237.765" y1="307.4331" x2="237.765" y2="1777.2329" gradientTransform="matrix(1 0 0 -1 0 2000)">
			<stop  offset="0.2597" style="stop-color:#FFFFFF"/>
			<stop  offset="1" style="stop-color:#6397F7"/>
		</linearGradient>
		<path class="st5" d="M306.2,1010.5H169.3c-14.6,0-26.5,11.9-26.5,26.5v649.7c0,14.7,11.9,26.5,26.5,26.5h136.9
			c14.6,0,26.5-11.9,26.5-26.5V1037C332.8,1022.3,320.9,1010.5,306.2,1010.5z M217.8,1259.6h-28.3v-58.1h28.3V1259.6z M217.8,1143.3
			h-28.3v-58.1h28.3V1143.3z"/>
		
			<linearGradient id="SVGID_5_" gradientUnits="userSpaceOnUse" x1="663.385" y1="323.9816" x2="663.385" y2="2010.8862" gradientTransform="matrix(1 0 0 -1 0 2000)">
			<stop  offset="0.2597" style="stop-color:#FFFFFF"/>
			<stop  offset="1" style="stop-color:#6397F7"/>
		</linearGradient>
		<path class="st6" d="M663.9,893.2L568.4,997v702.8h190l0,0V997L663.9,893.2z M641.1,1111.8h-31.1v-63.9h31.1V1111.8z"/>
		
			<linearGradient id="SVGID_6_" gradientUnits="userSpaceOnUse" x1="439.155" y1="448.1844" x2="439.155" y2="2109.0366" gradientTransform="matrix(1 0 0 -1 0 2000)">
			<stop  offset="0.2597" style="stop-color:#FFFFFF"/>
			<stop  offset="1" style="stop-color:#6397F7"/>
		</linearGradient>
		<path class="st7" d="M555.4,781H323c-14.6,0-26.5,11.9-26.5,26.5v741.1c0,14.7,11.9,26.5,26.5,26.5h232.4
			c14.7,0,26.5-11.9,26.5-26.5V807.6C581.9,792.9,570,781,555.4,781z M342.1,861h39.5v81h-39.5V861z M420,1127.8h-39.5v-81H420
			V1127.8z"/>
	</g>
	<g>
		
			<linearGradient id="SVGID_7_" gradientUnits="userSpaceOnUse" x1="175.2018" y1="1347.0862" x2="186.4204" y2="1764.4493" gradientTransform="matrix(1 0 0 -1 0 2000)">
			<stop  offset="0" style="stop-color:#FFFFFF"/>
			<stop  offset="1" style="stop-color:#6397F7"/>
		</linearGradient>
		<path class="st8" d="M310.5,585.2c0-31.7-25.6-57.4-57.3-57.5c-9.8-33-40.3-57.1-76.5-57.1c-31.6,0-58.8,18.3-71.8,44.9
			c-34,1.3-61.2,29.3-61.2,63.6c0,35.1,28.5,63.6,63.6,63.6c0.2,0,0.3,0,0.4,0v0.9h146v-0.9C285.2,642.3,310.5,616.7,310.5,585.2z"
			/>
	</g>
	<g class="st9">
		
			<linearGradient id="SVGID_8_" gradientUnits="userSpaceOnUse" x1="1201.255" y1="1778.1896" x2="1201.255" y2="2053.2876" gradientTransform="matrix(1 0 0 -1 0 2000)">
			<stop  offset="0" style="stop-color:#FFFFFF"/>
			<stop  offset="1" style="stop-color:#6397F7"/>
		</linearGradient>
		<path class="st10" d="M1298.1,197.4c0-16.5-13.4-29.9-29.9-29.9c-2.1,0-4.1,0.2-6,0.6c-6.8-12.1-19.8-20.2-34.6-20.2
			c-0.4,0-0.8,0-1.2,0c-0.7-22.7-19.3-40.9-42.2-40.9c-22.9,0-41.5,18.2-42.2,40.9c-20.9,1.1-37.5,18.5-37.5,39.7
			c0,20.8,16,37.9,36.4,39.6v0.1h127.6v0C1284.8,227.2,1298.1,213.9,1298.1,197.4z"/>
	</g>
	<g>
		<g>
			
				<linearGradient id="SVGID_9_" gradientUnits="userSpaceOnUse" x1="1562.275" y1="504.9644" x2="1562.275" y2="633.1606" gradientTransform="matrix(1 0 0 -1 0 2000)">
				<stop  offset="0" style="stop-color:#FFFFFF"/>
				<stop  offset="1" style="stop-color:#6397F7"/>
			</linearGradient>
			<rect x="1555.1" y="1435.5" class="st11" width="14.3" height="61.3"/>
		</g>
		<g>
			
				<linearGradient id="SVGID_10_" gradientUnits="userSpaceOnUse" x1="1562.656" y1="665.6628" x2="1560.5657" y2="400.7446" gradientTransform="matrix(1 0 0 -1 0 2000)">
				<stop  offset="0" style="stop-color:#FFFFFF"/>
				<stop  offset="1" style="stop-color:#6397F7"/>
			</linearGradient>
			<path class="st12" d="M1592.5,1372c-4.4-12.4-16.3-21.3-30.2-21.3c-15.5,0-28.4,10.9-31.4,25.5c-14.1,3.4-24.5,16.1-24.5,31.2
				c0,17.7,14.4,32.1,32.1,32.1c0.6,0,1.3,0,1.9-0.1c5.6,4.6,12.7,7.4,20.5,7.4c9.8,0,18.6-4.4,24.5-11.4c0.1,0,0.3,0,0.4,0
				c17.7,0,32.1-14.4,32.1-32.1C1617.9,1388,1607,1375.1,1592.5,1372z"/>
		</g>
	</g>
	<g>
		<g>
			
				<linearGradient id="SVGID_11_" gradientUnits="userSpaceOnUse" x1="503.785" y1="444.8916" x2="503.785" y2="571.29" gradientTransform="matrix(1 0 0 -1 0 2000)">
				<stop  offset="0" style="stop-color:#FFFFFF"/>
				<stop  offset="1" style="stop-color:#6397F7"/>
			</linearGradient>
			<rect x="497.8" y="1494.9" class="st13" width="12.1" height="51.7"/>
		</g>
		<g>
			
				<linearGradient id="SVGID_12_" gradientUnits="userSpaceOnUse" x1="504.0981" y1="590.4274" x2="502.3356" y2="367.0402" gradientTransform="matrix(1 0 0 -1 0 2000)">
				<stop  offset="0" style="stop-color:#FFFFFF"/>
				<stop  offset="1" style="stop-color:#6397F7"/>
			</linearGradient>
			<path class="st14" d="M529.3,1441.3c-3.8-10.4-13.8-17.9-25.5-17.9c-13,0-23.9,9.2-26.5,21.5c-11.9,2.9-20.7,13.6-20.7,26.3
				c0,15,12.1,27.1,27.1,27.1c0.5,0,1.1,0,1.6-0.1c4.7,3.9,10.7,6.2,17.3,6.2c8.3,0,15.7-3.7,20.7-9.6c0.1,0,0.2,0,0.4,0
				c15,0,27.1-12.1,27.1-27.1C550.7,1454.8,541.5,1444,529.3,1441.3z"/>
		</g>
	</g>
	<g>
		<g>
			
				<linearGradient id="SVGID_13_" gradientUnits="userSpaceOnUse" x1="226.2" y1="131.2858" x2="226.2" y2="293.5886" gradientTransform="matrix(1 0 0 -1 0 2000)">
				<stop  offset="0" style="stop-color:#FFFFFF"/>
				<stop  offset="1" style="stop-color:#6397F7"/>
			</linearGradient>
			<rect x="217.1" y="1793.4" class="st15" width="18.1" height="77.6"/>
		</g>
		<g>
			
				<linearGradient id="SVGID_14_" gradientUnits="userSpaceOnUse" x1="226.6853" y1="334.738" x2="224.039" y2="-0.6614" gradientTransform="matrix(1 0 0 -1 0 2000)">
				<stop  offset="0" style="stop-color:#FFFFFF"/>
				<stop  offset="1" style="stop-color:#6397F7"/>
			</linearGradient>
			<path class="st16" d="M264.5,1713c-5.6-15.7-20.6-26.9-38.3-26.9c-19.6,0-35.9,13.8-39.8,32.3c-17.8,4.3-31.1,20.4-31.1,39.5
				c0,22.5,18.2,40.7,40.7,40.7c0.8,0,1.6,0,2.4-0.1c7,5.8,16.1,9.4,26,9.4c12.4,0,23.6-5.6,31.1-14.4c0.2,0,0.4,0,0.6,0
				c22.5,0,40.7-18.2,40.7-40.7C296.6,1733.2,282.8,1716.9,264.5,1713z"/>
		</g>
	</g>
	<g class="st17">
		
			<linearGradient id="SVGID_15_" gradientUnits="userSpaceOnUse" x1="1001.285" y1="19.3961" x2="1001.285" y2="1540.6757" gradientTransform="matrix(1 0 0 -1 0 2000)">
			<stop  offset="0.2597" style="stop-color:#FFFFFF"/>
			<stop  offset="1" style="stop-color:#6397F7"/>
		</linearGradient>
		<path class="st18" d="M1939.6,2002c31.2-54.1,48-111.8,48-171.7c0-306.9-441.6-555.7-986.3-555.7S15,1523.4,15,1830.3
			c0,59.9,16.9,117.7,48,171.7H1939.6z"/>
	</g>
</g>
<g id="空空如也" class="st19">
	<g class="st20">
		
			<linearGradient id="SVGID_16_" gradientUnits="userSpaceOnUse" x1="1118.2078" y1="491.8939" x2="1118.2078" y2="189.2317" gradientTransform="matrix(1 0 0 -1 0 2000)">
			<stop  offset="0" style="stop-color:#5A91F7"/>
			<stop  offset="0.2039" style="stop-color:#A2C1FB;stop-opacity:0.8034"/>
			<stop  offset="0.9749" style="stop-color:#FFFFFF;stop-opacity:0.54"/>
		</linearGradient>
		<path class="st21" d="M1325,1504.8c-12.8-12.1-33.4-18.4-50.8-18.3c-190.1,0-380.1,0-570.2,0c-7.8,1-30,6.1-14.6,18.3
			c31.7,32,63.4,64.1,95.1,96.1c0.5,0,0.8,0,1.4,0c1.2,2.1,3.2,4.3,6.2,6.6c78.4,60.6,156.8,121.2,235.2,181.8
			c12,8.6,28.1,13.9,43,13.8c154.8,0,309.7,0,464.5,0c14.5,0,21.1-5.8,15.6-13.8c-41.6-60.6-83.2-121.2-124.7-181.8
			c-1.6-2.3-3.9-4.5-6.9-6.6c0.5,0,0.8,0,1.4,0C1388.4,1568.8,1356.7,1536.8,1325,1504.8z M935.2,1600.9c0,0.1,0.1,0.2,0.1,0.3
			c-0.5,0-0.8,0-1.3,0c0-0.1-0.1-0.2-0.1-0.3C934.3,1600.9,934.6,1600.9,935.2,1600.9z M933.2,1600.9c0.1,0.1,0.2,0.2,0.3,0.3
			c-0.2,0-0.4,0-0.6,0c-0.1-0.1-0.2-0.2-0.3-0.3C932.8,1600.9,933,1600.9,933.2,1600.9z"/>
	</g>
	
		<linearGradient id="SVGID_17_" gradientUnits="userSpaceOnUse" x1="996.775" y1="1045.286" x2="996.775" y2="774.6597" gradientTransform="matrix(1 0 0 -1 0 2000)">
		<stop  offset="0" style="stop-color:#5A91F7"/>
		<stop  offset="0.8751" style="stop-color:#2B62BA"/>
	</linearGradient>
	<polygon class="st22" points="1256.2,1300.7 737.4,1299.2 790.9,972.5 1204.6,973.8 	"/>
	
		<linearGradient id="SVGID_18_" gradientUnits="userSpaceOnUse" x1="735.6304" y1="871.891" x2="842.9857" y2="871.891" gradientTransform="matrix(1 2.228313e-05 -2.226995e-05 -0.9925 -4.704279e-03 2001.5698)">
		<stop  offset="0" style="stop-color:#5A91F7"/>
		<stop  offset="0.8751" style="stop-color:#2B62BA"/>
	</linearGradient>
	<polygon class="st23" points="798.4,1298.3 735.6,1299.3 790.1,973.2 843,1068.9 	"/>
	
		<linearGradient id="SVGID_19_" gradientUnits="userSpaceOnUse" x1="-2007.8899" y1="871.8294" x2="-1902.2548" y2="871.8294" gradientTransform="matrix(-1 2.228308e-05 2.226999e-05 -0.9925 -749.0357 2001.5698)">
		<stop  offset="0" style="stop-color:#5A91F7"/>
		<stop  offset="0.8751" style="stop-color:#2B62BA"/>
	</linearGradient>
	<polygon class="st24" points="1196.1,1298.3 1258.9,1299.3 1204.3,973.2 1153.2,1068.9 	"/>
	
		<linearGradient id="SVGID_20_" gradientUnits="userSpaceOnUse" x1="997.27" y1="671.7206" x2="997.27" y2="470.5601" gradientTransform="matrix(1 0 0 -1 0 2000)">
		<stop  offset="0" style="stop-color:#5A91F7"/>
		<stop  offset="1" style="stop-color:#2B62BA"/>
	</linearGradient>
	<path class="st25" d="M1298.3,1506.3h-602c-11,0-20-8.9-20-20v-186.3h642v186.3C1318.3,1497.3,1309.3,1506.3,1298.3,1506.3z"/>
	
		<linearGradient id="SVGID_21_" gradientUnits="userSpaceOnUse" x1="826.45" y1="639.65" x2="1164.79" y2="639.65" gradientTransform="matrix(1 0 0 -1 0 2000)">
		<stop  offset="0" style="stop-color:#91D3F8"/>
		<stop  offset="1" style="stop-color:#D9F3FF"/>
	</linearGradient>
	<polygon class="st26" points="1134.4,1397.7 856.8,1397.7 826.5,1298.3 826.5,1298.3 826.5,1323.1 826.5,1323.1 856.8,1422.4 
		1134.4,1422.4 1164.7,1323.1 1164.8,1323.1 1164.8,1298.3 1164.7,1298.3 	"/>
	
		<linearGradient id="SVGID_22_" gradientUnits="userSpaceOnUse" x1="997.275" y1="906.2493" x2="997.275" y2="598.7722" gradientTransform="matrix(1 0 0 -1 0 2000)">
		<stop  offset="0" style="stop-color:#91D3F8"/>
		<stop  offset="0.8519" style="stop-color:#5A91F7"/>
	</linearGradient>
	<polygon class="st27" points="1194.5,1298.3 1152.4,1069.4 842.6,1068.4 800,1296.7 827.5,1296.8 857.5,1398.6 1135.2,1398.6 
		1164.6,1298.2 	"/>
	
		<linearGradient id="SVGID_23_" gradientUnits="userSpaceOnUse" x1="997.2701" y1="1123.2053" x2="997.2701" y2="707.2026" gradientTransform="matrix(1 0 0 -1 0 2000)">
		<stop  offset="0" style="stop-color:#91D3F8"/>
		<stop  offset="1" style="stop-color:#D9F3FF"/>
	</linearGradient>
	<path class="st28" d="M1164.3,1323.1h123.4c18.6,0,32.7-16.7,29.6-35l-55.8-327.9c-2.4-14.4-14.9-25-29.6-25H762.6
		c-14.6,0-27.1,10.5-29.6,25L677.3,1288c-3.1,18.3,11,35,29.6,35h118.1l1-25.3l-53.3-0.2c-18.5-0.1-32.5-16.7-29.5-34.9l43.6-263.4
		c2.4-14.5,15-25.1,29.7-25.1l362.7,1.1c14.7,0,27.2,10.7,29.5,25.3l42,263.6c2.9,18.3-11.2,34.8-29.7,34.7l-58.6-0.2L1164.3,1323.1
		z"/>
	<polygon class="st29" points="937.2,1036.6 950.6,1073.7 987.7,1087 950.6,1100.4 937.2,1137.5 923.8,1100.4 886.7,1087 
		923.8,1073.7 	"/>
	<polygon class="st29" points="1093.8,1123.6 1103.8,1151.2 1131.3,1161.1 1103.8,1171.1 1093.8,1198.7 1083.9,1171.1 
		1056.3,1161.1 1083.9,1151.2 	"/>
	<polygon class="st29" points="993.1,1205.4 999.3,1222.5 1016.3,1228.6 999.3,1234.8 993.1,1251.8 987,1234.8 969.9,1228.6 
		987,1222.5 	"/>
</g>
<g id="暂无消息">
	<g class="st17">
		
			<linearGradient id="SVGID_24_" gradientUnits="userSpaceOnUse" x1="1212.6726" y1="651.2372" x2="1212.6726" y2="202.6698" gradientTransform="matrix(1 0 0 -1 0 2000)">
			<stop  offset="0" style="stop-color:#5A91F7"/>
			<stop  offset="0.2039" style="stop-color:#A2C1FB;stop-opacity:0.8034"/>
			<stop  offset="0.9749" style="stop-color:#FFFFFF;stop-opacity:0.54"/>
		</linearGradient>
		<path class="st30" d="M1611.7,1762.8c-141.5,0-283,0-424.6,0c-28-0.6-54.7-4.7-81.8-11.4c-41.9-10.1-88.3-27.3-119.4-58.4
			c-39.6-40-79.1-79.9-118.7-119.9c-37.7,0-75.4,0-113.1,0c-5.9,0-13.2-2.6-16.5-5.9c-3.2-3.3-1.1-5.9,4.8-5.9
			c117.7,0,235.5,0,353.2,0c1.9,0,4,0.3,6.1,0.8c2.2,0,3.3,0,5.5,0c19.8,0,39.5,0,59.3,0c-67.2-67.9-134.5-135.9-201.7-203.8
			c28,0,55.9,0,83.8,0c67.2,67.9,134.5,135.9,201.7,203.8c81.6,0,163.1,0,244.7,0c25.6,0.3,57.7,8.4,76.2,27.2
			c33.3,33.6,66.6,67.3,99.8,100.9c13.8,13.7,25.3,33.5,12.1,51.2C1668.2,1761.8,1634.1,1762.1,1611.7,1762.8z"/>
	</g>
	<g>
		
			<linearGradient id="SVGID_25_" gradientUnits="userSpaceOnUse" x1="1007.08" y1="667.701" x2="1007.08" y2="976.9319" gradientTransform="matrix(1 0 0 -1 0 2000)">
			<stop  offset="0" style="stop-color:#99C0FF"/>
			<stop  offset="1" style="stop-color:#2B62BA"/>
		</linearGradient>
		<polygon class="st31" points="1048.8,947.5 1048.8,1358.1 965.4,1358.1 965.4,947.5 		"/>
		
			<linearGradient id="SVGID_26_" gradientUnits="userSpaceOnUse" x1="999.43" y1="1388.2146" x2="999.43" y2="1017.1622" gradientTransform="matrix(1 0 0 -1 0 2000)">
			<stop  offset="0" style="stop-color:#91D3F8"/>
			<stop  offset="0.9944" style="stop-color:#5A91F7"/>
		</linearGradient>
		<path class="st32" d="M750.2,630h498.4c51.1,0,92.6,41.4,92.6,92.6v233.9c0,19.2-15.6,34.7-34.7,34.7H692.4
			c-19.2,0-34.7-15.5-34.7-34.7V722.6C657.7,671.5,699.1,630,750.2,630z"/>
		
			<linearGradient id="SVGID_27_" gradientUnits="userSpaceOnUse" x1="960.94" y1="1231.1649" x2="1296.88" y2="1231.1649" gradientTransform="matrix(1 0 0 -1 0 2000)">
			<stop  offset="0" style="stop-color:#91D3F8"/>
			<stop  offset="1" style="stop-color:#D9F3FF"/>
		</linearGradient>
		<path class="st33" d="M962.9,751.3h321.6c6.8,0,12.4,5.5,12.4,12.4v10.2c0,6.8-5.6,12.4-12.4,12.4H962.9c-1.1,0-1.9-0.9-1.9-1.9
			v-31.2C960.9,752.2,961.8,751.3,962.9,751.3z"/>
		
			<linearGradient id="SVGID_28_" gradientUnits="userSpaceOnUse" x1="960.94" y1="1233.495" x2="1292.22" y2="1233.495" gradientTransform="matrix(1 0 0 -1 0 2000)">
			<stop  offset="0" style="stop-color:#5A91F7"/>
			<stop  offset="1" style="stop-color:#2B62BA"/>
		</linearGradient>
		<path class="st34" d="M960.9,751.3h320.5c5.9,0,10.8,4.8,10.8,10.8v8.8c0,5.9-4.8,10.8-10.8,10.8H960.9V751.3z"/>
		
			<linearGradient id="SVGID_29_" gradientUnits="userSpaceOnUse" x1="656.83" y1="1187.035" x2="906.45" y2="1187.035" gradientTransform="matrix(1 0 0 -1 0 2000)">
			<stop  offset="0" style="stop-color:#91D3F8"/>
			<stop  offset="1" style="stop-color:#D9F3FF"/>
		</linearGradient>
		<path class="st35" d="M742.6,634.7h78.1c47.3,0,85.7,38.4,85.7,85.7v270.8H656.8V720.4C656.8,673.1,695.2,634.7,742.6,634.7z"/>
		
			<linearGradient id="SVGID_30_" gradientUnits="userSpaceOnUse" x1="696.1974" y1="1184.895" x2="902.4661" y2="1184.895" gradientTransform="matrix(1 0 0 -1 0 2000)">
			<stop  offset="0" style="stop-color:#5A91F7"/>
			<stop  offset="1" style="stop-color:#2B62BA"/>
		</linearGradient>
		<path class="st36" d="M745.7,645.4h66.6c44.7,0,81,36.3,81,81v258.5H664.7V726.4C664.7,681.6,700.9,645.4,745.7,645.4z"/>
		
			<linearGradient id="SVGID_31_" gradientUnits="userSpaceOnUse" x1="533.76" y1="1017.9301" x2="906.26" y2="1017.9301" gradientTransform="matrix(1 0 0 -1 0 2000)">
			<stop  offset="0" style="stop-color:#5A91F7"/>
			<stop  offset="1" style="stop-color:#2B62BA"/>
		</linearGradient>
		<path class="st37" d="M541.3,971.5h357.5c4.1,0,7.5,3.4,7.5,7.5v6.2c0,4.1-3.4,7.5-7.5,7.5H541.3c-4.1,0-7.5-3.4-7.5-7.5V979
			C533.8,974.8,537.1,971.5,541.3,971.5z"/>
		<polygon class="st38" points="683.5,681.4 694.9,713.1 726.6,724.6 694.9,736 683.5,767.7 672,736 640.3,724.6 672,713.1 		"/>
		<polygon class="st38" points="775,784 783.5,807.6 807.1,816.1 783.5,824.6 775,848.2 766.5,824.6 743,816.1 766.5,807.6 		"/>
		<polygon class="st38" points="704.5,837.7 709.7,852.3 724.3,857.5 709.7,862.8 704.5,877.4 699.2,862.8 684.6,857.5 699.2,852.3 
					"/>
		<g>
			<path class="st39" d="M1228.9,857.8c-10.5,0-19-8.5-19-19c0-10.5,8.5-19,19-19s19,8.5,19,19
				C1247.8,849.3,1239.3,857.8,1228.9,857.8L1228.9,857.8z M1228.9,826.6c-6.8,0-12.3,5.5-12.3,12.3c0,6.8,5.5,12.3,12.3,12.3
				c6.8,0,12.3-5.5,12.3-12.3C1241.1,832.1,1235.6,826.6,1228.9,826.6L1228.9,826.6z"/>
			<path class="st39" d="M1207.2,931h-151.8c-15.7,0-28.5-12.8-28.5-28.5v-41.9c0-15.7,12.8-28.5,28.5-28.5h142.4
				c1.8,0,3.3,1.5,3.3,3.3s-1.5,3.3-3.3,3.3h-142.5c-12,0-21.8,9.8-21.8,21.8v41.9c0,12,9.8,21.8,21.8,21.8h151.8
				c5.8,0,11.3-2.3,15.4-6.4c4.1-4.1,6.4-9.6,6.4-15.4v-32.4c0-1.8,1.5-3.3,3.3-3.3s3.3,1.5,3.3,3.3v32.4
				C1235.6,918.2,1222.9,930.9,1207.2,931L1207.2,931z"/>
			<g>
				<path class="st39" d="M1145.9,905.9c-2,1.1-4,1.9-6.1,2.4c-2.1,0.5-4.3,0.8-6.6,0.8c-3.3,0-6.4-0.5-9.4-1.5s-5.6-2.5-7.8-4.5
					c-2.2-2-4-4.6-5.3-7.7c-1.3-3.1-2-6.7-2-10.8c0-4.5,0.8-8.7,2.3-12.4c1.6-3.7,3.7-6.9,6.3-9.5c2.7-2.7,5.7-4.7,9.3-6.1
					c3.5-1.4,7.3-2.2,11.2-2.2c3.5,0,6.6,0.6,9.5,1.7c2.8,1.1,5.2,2.7,7.2,4.7c2,2,3.5,4.5,4.6,7.3c1.1,2.8,1.6,5.9,1.6,9.3
					c0,3-0.4,5.6-1.3,7.8c-0.9,2.2-2,4.1-3.4,5.6s-2.9,2.6-4.7,3.4c-1.7,0.8-3.4,1.1-5.1,1.1c-1.9,0-3.5-0.4-4.8-1.3
					c-1.4-0.8-2.2-2.1-2.5-3.7h-0.1c-0.5,0.7-1,1.3-1.7,1.8c-0.6,0.5-1.3,1-2,1.4c-0.7,0.4-1.4,0.7-2.2,0.9s-1.4,0.3-2.2,0.3
					c-2.5,0-4.6-0.9-6.1-2.6c-1.6-1.7-2.3-4.1-2.3-7.1c0-1.9,0.3-3.8,1-5.7s1.6-3.6,2.7-5.1s2.5-2.7,4.2-3.7s3.4-1.4,5.3-1.4
					c1.1,0,2.1,0.3,3,0.8s1.6,1.3,2.1,2.5h0.1l0.9-2.7h5.3l-2.8,14.2c-1,4.1,0,6.2,3.1,6.2c1,0,2-0.3,3-0.9s1.8-1.4,2.6-2.5
					c0.8-1.1,1.4-2.3,1.9-3.9c0.5-1.5,0.7-3.2,0.7-5.1c0-2.4-0.3-4.8-1-6.9c-0.7-2.2-1.8-4.1-3.3-5.7s-3.3-2.9-5.6-3.9
					s-5-1.4-8.2-1.4c-2.8,0-5.6,0.6-8.3,1.7c-2.7,1.2-5.1,2.8-7.3,5c-2.1,2.2-3.8,4.7-5.1,7.8c-1.3,3-1.9,6.4-1.9,10.2
					c0,3.3,0.5,6.1,1.5,8.5s2.4,4.4,4.2,6.1s3.8,2.8,6.2,3.7c2.4,0.8,4.8,1.2,7.5,1.2c1.8,0,3.6-0.3,5.4-0.8s3.4-1.1,4.8-1.9
					L1145.9,905.9z M1128.6,884.5c0,1.6,0.4,2.8,1.1,3.6c0.7,0.8,1.6,1.2,2.8,1.2c0.8,0,1.5-0.3,2.3-0.8s1.6-1.3,2.5-2.5l1.7-9.3
					c-0.8-1.4-2-2.2-3.4-2.2c-1,0-2,0.3-2.8,1s-1.6,1.4-2.2,2.4c-0.6,1-1.1,2-1.4,3.2C1128.7,882.4,1128.6,883.5,1128.6,884.5z"/>
			</g>
		</g>
	</g>
</g>
<g id="暂无任务" class="st19">
	<g class="st20">
		
			<linearGradient id="SVGID_32_" gradientUnits="userSpaceOnUse" x1="1103.6058" y1="580.4922" x2="1103.6058" y2="298.9089" gradientTransform="matrix(1 0 0 -1 0 2000)">
			<stop  offset="0" style="stop-color:#5A91F7"/>
			<stop  offset="0.2039" style="stop-color:#A2C1FB;stop-opacity:0.8034"/>
			<stop  offset="0.9749" style="stop-color:#FFFFFF;stop-opacity:0.54"/>
		</linearGradient>
		<path class="st40" d="M1298.8,1456.5L1298.8,1456.5c-11.1-11.2-22.2-22.4-33.3-33.7c-18.5-17.3-47.6-24.5-72.3-24.8
			c-34.8,0-69.7,0-104.5,0c-82.6,0-165.2,0-247.8,0c-32,0-63.9,0-95.8,0l0,0c-1,0-1.5,0-2.5,0c0,0,0,0,0,0
			c-12.1,1.5-38.3,7.7-20.7,24.6c28,28.3,56.1,56.7,84.1,85c31.6,0,63.3,0,94.9,0c-0.5-0.5-0.8-0.8-1.3-1.3c0.2,0,0.4,0,0.6,0
			c45.4,45.9,90.9,91.8,136.3,137.7c18.3,17,47.7,24.9,72.3,24.8c117.4,0,234.9,0,352.3,0c10.9-0.8,43.8-7.3,23.3-24.8
			c-0.1-0.1-0.1-0.1-0.2-0.2l0,0C1422.5,1581.4,1360.7,1518.9,1298.8,1456.5z"/>
	</g>
	<g class="st41">
		
			<linearGradient id="SVGID_33_" gradientUnits="userSpaceOnUse" x1="741.9343" y1="605.3992" x2="741.9343" y2="1152.9312" gradientTransform="matrix(-1 0 0 -1 1765.0243 2000)">
			<stop  offset="0" style="stop-color:#91D3F8"/>
			<stop  offset="0.9944" style="stop-color:#5A91F7"/>
		</linearGradient>
		<path class="st42" d="M852.7,1421.3h279.9h118c29.8,0,54-24.2,54-54V885c0-29.8-24.2-54-54-54h-398c-29.8,0-54,24.2-54,54v300.2
			h-57.1v236.1L852.7,1421.3L852.7,1421.3z"/>
		
			<linearGradient id="SVGID_34_" gradientUnits="userSpaceOnUse" x1="1075.4302" y1="698.14" x2="968.1902" y2="698.14" gradientTransform="matrix(-1 0 0 -1 1765.0243 2000)">
			<stop  offset="0" style="stop-color:#5A91F7"/>
			<stop  offset="1" style="stop-color:#2B62BA"/>
		</linearGradient>
		<path class="st43" d="M760,1421.3h-31.2c-21,0-38-17-38-38v-200.9H798v200.9C798,1404.3,781,1421.3,760,1421.3z"/>
		
			<linearGradient id="SVGID_35_" gradientUnits="userSpaceOnUse" x1="671.3693" y1="1161.9211" x2="671.3693" y2="740.0321" gradientTransform="matrix(-1 0 0 -1 1765.0243 2000)">
			<stop  offset="0" style="stop-color:#91D3F8"/>
			<stop  offset="1" style="stop-color:#D9F3FF"/>
		</linearGradient>
		<path class="st44" d="M1304.6,885.5V1294c-13.4,1.4-27.1,2.2-40.9,2.2c-210.4,0-381-170.6-381-381c0-28.8,3.2-56.8,9.2-83.7h358.7
			C1280.4,831.5,1304.6,855.7,1304.6,885.5z"/>
		<g>
			<path class="st39" d="M919,1352.3h8.6c5.6,0,10.1,4.5,10.1,10.1l0,0c0,5.6-4.5,10.1-10.1,10.1H919c-5.6,0-10.1-4.5-10.1-10.1l0,0
				C908.9,1356.8,913.4,1352.3,919,1352.3z"/>
		</g>
		<g>
			<path class="st39" d="M879.5,1352.3h8.6c5.6,0,10.1,4.5,10.1,10.1l0,0c0,5.6-4.5,10.1-10.1,10.1h-8.6c-5.6,0-10.1-4.5-10.1-10.1
				l0,0C869.4,1356.8,873.9,1352.3,879.5,1352.3z"/>
		</g>
		<g>
			<path class="st39" d="M1125,1017H853.2c-5.6,0-10.1,4.5-10.1,10.1l0,0c0,5.6,4.5,10.1,10.1,10.1H1125c5.6,0,10.1-4.5,10.1-10.1
				l0,0C1135.1,1021.5,1130.6,1017,1125,1017z"/>
		</g>
		<g>
			<path class="st39" d="M1125,966.6H853.2c-5.6,0-10.1,4.5-10.1,10.1l0,0c0,5.6,4.5,10.1,10.1,10.1H1125c5.6,0,10.1-4.5,10.1-10.1
				l0,0C1135.1,971.2,1130.6,966.6,1125,966.6z"/>
		</g>
		<g>
			<path class="st39" d="M1003.5,916.3H853.2c-5.6,0-10.1,4.5-10.1,10.1l0,0c0,5.6,4.5,10.1,10.1,10.1h150.3
				c5.6,0,10.1-4.5,10.1-10.1l0,0C1013.6,920.8,1009.1,916.3,1003.5,916.3z"/>
		</g>
		
			<linearGradient id="SVGID_36_" gradientUnits="userSpaceOnUse" x1="1007.0797" y1="759.7434" x2="1252.4037" y2="759.7434" gradientTransform="matrix(1 0 0 -1 0 2000)">
			<stop  offset="0" style="stop-color:#5A91F7"/>
			<stop  offset="1" style="stop-color:#2B62BA"/>
		</linearGradient>
		<path class="st45" d="M1202.9,1145.1c-38.1-47.4-107.3-55-154.7-16.9c-47.4,38.1-55,107.3-16.9,154.7
			c32.5,40.5,87.9,51.9,132.8,30.6c0.6,0.9,1.2,1.8,1.8,2.6l40.5,50.9c8.9,11.1,25.2,12.9,36.3,4l0,0c11.1-8.9,12.9-25.2,4-36.3
			l-40.5-50.9c-0.7-0.8-1.4-1.6-2.2-2.3C1234.6,1242.1,1235.4,1185.6,1202.9,1145.1z M1169.6,1279.3c-36.1,29-88.9,23.2-117.9-12.9
			s-23.2-88.9,12.9-117.9s88.9-23.2,117.9,12.9C1211.5,1197.6,1205.8,1250.3,1169.6,1279.3z"/>
		
			<linearGradient id="SVGID_37_" gradientUnits="userSpaceOnUse" x1="994.3796" y1="759.7434" x2="1239.7037" y2="759.7434" gradientTransform="matrix(1 0 0 -1 0 2000)">
			<stop  offset="0" style="stop-color:#91D3F8"/>
			<stop  offset="0.9944" style="stop-color:#5A91F7"/>
		</linearGradient>
		<path class="st46" d="M1190.2,1145.1c-38.1-47.4-107.3-55-154.7-16.9c-47.4,38.1-55,107.3-16.9,154.7
			c32.5,40.5,87.9,51.9,132.8,30.6c0.6,0.9,1.2,1.8,1.8,2.6l40.5,50.9c8.9,11.1,25.2,12.9,36.3,4l0,0c11.1-8.9,12.9-25.2,4-36.3
			l-40.5-50.9c-0.7-0.8-1.4-1.6-2.2-2.3C1221.9,1242.1,1222.8,1185.6,1190.2,1145.1z M1156.9,1279.3c-36.1,29-88.9,23.2-117.9-12.9
			s-23.2-88.9,12.9-117.9s88.9-23.2,117.9,12.9C1198.8,1197.6,1193.1,1250.3,1156.9,1279.3z"/>
	</g>
	<g class="st41">
		<polygon class="st38" points="1201,1096 1211.1,1124 1239.1,1134.1 1211.1,1144.2 1201,1172.2 1190.9,1144.2 1162.9,1134.1 
			1190.9,1124 		"/>
		<polygon class="st38" points="1121.1,1152 1126.3,1166.6 1140.9,1171.9 1126.3,1177.1 1121.1,1191.7 1115.8,1177.1 1101.3,1171.9 
			1115.8,1166.6 		"/>
	</g>
</g>
<g id="暂无带货视频" class="st19">
	<g class="st20">
		
			<linearGradient id="SVGID_38_" gradientUnits="userSpaceOnUse" x1="1273.86" y1="640.8854" x2="1273.86" y2="171.0967" gradientTransform="matrix(1 0 0 -1 0 2000)">
			<stop  offset="0" style="stop-color:#5A91F7"/>
			<stop  offset="0.2039" style="stop-color:#A2C1FB;stop-opacity:0.8034"/>
			<stop  offset="0.9749" style="stop-color:#FFFFFF;stop-opacity:0.54"/>
		</linearGradient>
		<path class="st47" d="M1785.2,1727.4c5.1,5.8,1.4,10.4-8.8,10.6c-67.6,1.1-135.3,2.2-202.9,3.3c-11-0.1-22.8-3.6-31.2-10.9
			c-4.5-4.3-6.8-6.5-11.3-10.9c-0.4-0.4-0.8-0.8-1.1-1.2c-67-39.9-134-79.9-201-119.8c0.6,3,0.4,5.8-0.3,8.4
			c6.3,23.7-27.3,26.4-42,27.4c-90.9,0-181.7,0-272.6,0c-41.8-0.1-92.2-16.8-122.2-46.8c-24-24.2-47.9-48.4-71.9-72.6
			c-6.3-7.9-15.5-17.6-12.3-29c-7.7-23.2,29.1-26.6,42-27.4c90.9,0,181.7,0,272.6,0c39.3,0.1,82.5,14.6,113.4,39
			c1.5,0.7,2.9,1.4,4.3,2.2c111.6,66.5,223.2,133,334.7,199.5c3.8-0.1,5.8-0.1,9.6-0.2c-139.5-84.4-278.9-168.9-418.4-253.4
			c-1.9-1.1-3.5-2.3-4.7-3.4c-120.8,0-241.5,0-362.3,0c-10.5-0.2-21.8-3.6-29.7-10.7c-2.2-2.3-3.3-3.4-5.6-5.6
			c-3.5-3.6-3.5-6.7-0.7-8.7c-5.3-5.8-1.5-10.3,8.8-10.3c20.2,0,40.5,0,60.7,0c-8.3-3.4-17.5-8.9-23.9-15.4
			c-8.7-8.8-8.9-16.5-2-20.9c2.6-4.8,10.1-7.9,21.6-7.8c22.4,0.1,48.7,8.8,64.7,24.8c7.8,7.7,8.8,14.8,4,19.3
			c60.4,0,120.8,0,181.2,0c-10-4.6-20.2-9.1-28.1-17.1c-8.7-8.8-8.9-16.5-2-20.9c2.6-4.8,10.1-7.9,21.6-7.8
			c22.4,0.1,48.7,8.8,64.7,24.8c8.7,8.7,8.9,16.5,2,20.9c0,0.1-0.1,0.1-0.1,0.2c12.5,0,25,0,37.5,0c10.5,0.2,21.8,3.6,29.7,10.7
			c2.2,2.3,3.3,3.4,5.6,5.6c1.3,1.3,2.1,2.6,2.5,3.7c149.2,90.3,298.4,180.6,447.6,270.8c27.6-0.4,55.2-0.9,82.7-1.3
			c11,0.1,22.8,3.6,31.2,10.9c4.5,4.3,6.8,6.5,11.3,10.9C1787.8,1721.9,1788,1725.3,1785.2,1727.4z"/>
	</g>
	<g class="st41">
		
			<linearGradient id="SVGID_39_" gradientUnits="userSpaceOnUse" x1="811.8" y1="715.6179" x2="811.8" y2="643.1495" gradientTransform="matrix(1 0 0 -1 0 2000)">
			<stop  offset="0" style="stop-color:#5A91F7"/>
			<stop  offset="1" style="stop-color:#2B62BA"/>
		</linearGradient>
		<circle class="st48" cx="811.8" cy="1319.9" r="41.7"/>
		
			<linearGradient id="SVGID_40_" gradientUnits="userSpaceOnUse" x1="819.87" y1="638.4683" x2="819.87" y2="710.9366" gradientTransform="matrix(1 0 0 -1 0 2000)">
			<stop  offset="0" style="stop-color:#5A91F7"/>
			<stop  offset="1" style="stop-color:#2B62BA"/>
		</linearGradient>
		<circle class="st49" cx="819.9" cy="1326.6" r="41.7"/>
		
			<linearGradient id="SVGID_41_" gradientUnits="userSpaceOnUse" x1="1063.98" y1="712.6969" x2="1063.98" y2="640.2286" gradientTransform="matrix(1 0 0 -1 0 2000)">
			<stop  offset="0" style="stop-color:#5A91F7"/>
			<stop  offset="1" style="stop-color:#2B62BA"/>
		</linearGradient>
		<circle class="st50" cx="1064" cy="1322.8" r="41.7"/>
		
			<linearGradient id="SVGID_42_" gradientUnits="userSpaceOnUse" x1="1072.04" y1="635.5474" x2="1072.04" y2="708.0156" gradientTransform="matrix(1 0 0 -1 0 2000)">
			<stop  offset="0" style="stop-color:#5A91F7"/>
			<stop  offset="1" style="stop-color:#2B62BA"/>
		</linearGradient>
		<circle class="st51" cx="1072" cy="1329.5" r="41.7"/>
		
			<linearGradient id="SVGID_43_" gradientUnits="userSpaceOnUse" x1="1063.4843" y1="764.5016" x2="1063.4843" y2="1241.645" gradientTransform="matrix(1 0 0 -1 0 2000)">
			<stop  offset="0" style="stop-color:#91D3F8"/>
			<stop  offset="1" style="stop-color:#D9F3FF"/>
		</linearGradient>
		<path class="st52" d="M1418.7,736.2l-213.9-5.6c-11.4-0.3-20.9,7.9-21.2,18.3l-0.6,18.3c0,0.7,0,1.4,0.1,2l-141.7,334.2
			c-4.1,9.7,1.2,20.6,11.8,24.4l18.7,6.6c10.6,3.8,22.6-1.1,26.7-10.8l142.5-336.1l23.7,0.6l-179.4,440.5c-0.8,1.9-1.3,3.9-1.4,5.8
			H708.1c-10.9,0-19.8,8.1-19.8,18.1v9.5c0,10,8.8,18.1,19.8,18.1h416.9c10.9,0,19.8-8.1,19.8-18.1v-9.5c0-2.2-0.4-4.3-1.2-6.3
			l186.2-456.3l87.2,2.3c11.4,0.3,20.9-7.9,21.2-18.3l0.6-18.3C1439,745.1,1430,736.5,1418.7,736.2z"/>
		
			<linearGradient id="SVGID_44_" gradientUnits="userSpaceOnUse" x1="1071.5543" y1="1181.985" x2="1071.5543" y2="704.8417" gradientTransform="matrix(1 0 0 -1 0 2000)">
			<stop  offset="0" style="stop-color:#91D3F8"/>
			<stop  offset="0.5708" style="stop-color:#5A91F7"/>
		</linearGradient>
		<path class="st53" d="M1426.7,750.1l-213.9-5.6c-11.4-0.3-20.9,7.9-21.2,18.3l-0.6,18.3c0,0.7,0,1.4,0.1,2l-141.7,334.2
			c-4.1,9.7,1.2,20.6,11.8,24.4l18.7,6.6c10.6,3.8,22.6-1.1,26.7-10.8L1249,801.5l23.7,0.6l-179.4,440.5c-0.8,1.9-1.3,3.9-1.4,5.8
			H716.1c-10.9,0-19.8,8.1-19.8,18.1v9.5c0,10,8.8,18.1,19.8,18.1H1133c10.9,0,19.8-8.1,19.8-18.1v-9.5c0-2.2-0.4-4.3-1.2-6.3
			l186.2-456.3l87.2,2.3c11.4,0.3,20.9-7.9,21.2-18.3l0.6-18.3C1447.1,759.1,1438.1,750.4,1426.7,750.1z"/>
		
			<linearGradient id="SVGID_45_" gradientUnits="userSpaceOnUse" x1="875.3699" y1="832.0598" x2="875.3699" y2="1075.1544" gradientTransform="matrix(1 0 0 -1 0 2000)">
			<stop  offset="0" style="stop-color:#91D3F8"/>
			<stop  offset="1" style="stop-color:#D9F3FF"/>
		</linearGradient>
		<path class="st54" d="M1039.7,1190.6H711c-30.8,0-55.8-25-55.8-55.8V966.5c0-30.8,25-55.8,55.8-55.8h328.7
			c30.8,0,55.8,25,55.8,55.8v168.3C1095.6,1165.6,1070.6,1190.6,1039.7,1190.6z"/>
		
			<linearGradient id="SVGID_46_" gradientUnits="userSpaceOnUse" x1="885.33" y1="1057.8567" x2="885.33" y2="814.7621" gradientTransform="matrix(1 0 0 -1 0 2000)">
			<stop  offset="0" style="stop-color:#91D3F8"/>
			<stop  offset="0.9944" style="stop-color:#5A91F7"/>
		</linearGradient>
		<path class="st55" d="M1049.7,1206.9H721c-30.8,0-55.8-25-55.8-55.8V982.8c0-30.8,25-55.8,55.8-55.8h328.7
			c30.8,0,55.8,25,55.8,55.8v168.3C1105.5,1181.9,1080.5,1206.9,1049.7,1206.9z"/>
		
			<linearGradient id="SVGID_47_" gradientUnits="userSpaceOnUse" x1="886.7621" y1="1037.5753" x2="883.6437" y2="808.4284" gradientTransform="matrix(1 0 0 -1 0 2000)">
			<stop  offset="0" style="stop-color:#5A91F7"/>
			<stop  offset="1" style="stop-color:#2B62BA"/>
		</linearGradient>
		<path class="st56" d="M1050.3,1186.2h-330c-18.7,0-33.9-15.2-33.9-33.9V981.6c0-18.7,15.2-33.9,33.9-33.9h330
			c18.7,0,33.9,15.2,33.9,33.9v170.7C1084.2,1171,1069.1,1186.2,1050.3,1186.2z"/>
		
			<linearGradient id="SVGID_48_" gradientUnits="userSpaceOnUse" x1="905.3042" y1="916.4911" x2="1056.7347" y2="1046.0165" gradientTransform="matrix(1 0 0 -1 0 2000)">
			<stop  offset="0" style="stop-color:#91D3F8"/>
			<stop  offset="0.9944" style="stop-color:#5A91F7"/>
		</linearGradient>
		<path class="st57" d="M1037.7,946.5h-216c-1.3,8.9-2,18.1-2,27.4c0,101.3,82.1,183.4,183.4,183.4c29.6,0,57.6-7,82.4-19.5
			c0-0.2,0-0.4,0-0.6V994.3C1085.5,967.9,1064.1,946.5,1037.7,946.5z"/>
		<path class="st39" d="M936.4,1052l-53.7-30.3c-11.5-6.5-25.7,1.8-25.7,15v60.7c0,13.2,14.2,21.5,25.7,15l53.7-30.3
			C948,1075.4,948,1058.6,936.4,1052z"/>
	</g>
</g>
<g id="网络异常" class="st19">
	
		<linearGradient id="SVGID_49_" gradientUnits="userSpaceOnUse" x1="7676.6768" y1="13567.2168" x2="7708.3711" y2="12907.9082" gradientTransform="matrix(-0.7071 -0.7071 -0.1061 0.1061 7917.8369 4984.7876)">
		<stop  offset="0" style="stop-color:#91D3F8"/>
		<stop  offset="1" style="stop-color:#D9F3FF"/>
	</linearGradient>
	<path class="st58" d="M820.1,755.9c19.3-19.3,139.5,69.5,268.4,198.3s217.7,249.1,198.3,268.4L820.1,755.9z"/>
	<g class="st20">
		
			<linearGradient id="SVGID_50_" gradientUnits="userSpaceOnUse" x1="1250.6799" y1="618.028" x2="1250.6799" y2="251.6476" gradientTransform="matrix(1 0 0 -1 0 2000)">
			<stop  offset="0" style="stop-color:#5A91F7"/>
			<stop  offset="0.2039" style="stop-color:#A2C1FB;stop-opacity:0.8034"/>
			<stop  offset="0.9749" style="stop-color:#FFFFFF;stop-opacity:0.54"/>
		</linearGradient>
		<path class="st59" d="M1739.1,1715c-46.8-11.1-93.7-22.2-140.5-33.3c-7.3-1.7-10.9-2.6-18.2-4.3c9.8-4.2,14.6-6.3,24.4-10.6
			c7.6,1.6,11.3,2.4,18.9,4c-0.3-7.5-1.9-15.3-5-23.1c-10.2-25.5-29.9-45.2-50.3-62.7c-2.9-2.5-7.8-4.6-13-5.8c-5.3-2-11.7-3-17-2.6
			c-4.2,0.3-6.9,1.5-7.8,3.2c-1,1.7-0.2,3.8,2.4,6c16.8,14.5,32.9,30.4,42.9,51.2c1.8,0.1,2.7,0.1,4.5,0.2c0.2,0.5,0.5,0.9,0.7,1.4
			c4.1,0.2,6.2,0.2,10.3,0.4c3.3,10.5,5,15.8,8.3,26.3c-8.1,4.1-12.1,6.1-20.2,10.2c-1.9-10.2-2.9-15.3-4.9-25.4
			c-6.1-0.4-9.2-0.6-15.3-0.9c-17.4-1.1-34.9-2.2-52.3-3.3c-8.6-0.5-12.9-0.8-21.6-1.3c0-4.7,0-7,0-11.6c13.8,0.5,20.7,0.8,34.5,1.3
			c-8-18.8-22.2-32.8-37-45.6c-2.9-2.5-7.8-4.6-13-5.8c-5.3-2-11.7-3-17-2.6c-8.3,0.7-10.5,4.8-5.4,9.3
			c12.9,11.4,26.8,24.5,32.8,41.9c1.8,5.3,2.7,7.9,4.6,13.1c-5.2-0.3-7.8-0.5-13-0.8c-16.8-1.1-33.7-2.1-50.5-3.1
			c-14.3-0.9-21.5-1.3-35.8-2.2c-0.9-0.1-1.4-0.1-2.3-0.2c2.5-4.1,3.8-6.2,6.3-10.3c0.8-0.2,1.3-0.3,2.1-0.6c0,0,0.7-0.1,1.5-0.2
			c0.8,0,1.2,0,1.9,0.1c0.1,0.5,0.1,0.9,0.2,1.4c14.1,0.5,21.1,0.8,35.1,1.3c-3.5-13.8-14.5-24.2-24.3-32.8c-2.8-2.5-7.8-4.6-13-5.8
			c-5.3-2-11.7-3-17-2.6c-8.3,0.7-10.8,4.8-5.4,9.3c12,9.9,18.5,19.9,19.3,28.9c-0.2,0.4-0.3,0.5-0.5,0.9c-3.1,4.2-4.6,6.3-7.7,10.4
			c-8.5-0.5-12.8-0.8-21.3-1.3c5.2,1.2,7.8,1.8,12.9,3.1c-7.9-0.5-11.8-0.7-19.6-1.2c-11.4-2-17.1-2.9-28.4-4.9
			c-2.6-0.6-4-0.9-6.6-1.6c-3.9-0.9-5.8-1.4-9.7-2.3c-2.7-0.6-4.1-1-6.8-1.6c-1.8-0.4-2.8-0.7-4.6-1.1c1.9,0.1,2.8,0.2,4.8,0.3
			c2.7,0.2,4.1,0.3,6.8,0.4c3.8,0.2,5.8,0.4,9.6,0.6c2.7,0.2,4,0.3,6.7,0.4c4,0.3,6,0.4,9.9,0.6c0.5,0,0.7,0,1.2,0.1
			c-0.8-2.8-2.8-5.8-6.2-8.9c-6.6-6-17.1-11.3-29-15c43.3-38.9,86.7-77.8,130-116.6c5.3-4.7-1.7-12.4-15.5-17.2
			c-13.8-4.7-29.4-4.7-34.7,0c-2.3,2.1-3.5,3.1-5.8,5.2c-98.6-29.3-202.7-47.2-305.8-41.4c1.8-15.2,3.6-30.3,5.4-45.5
			c-12.5-4.2-18.8-6.3-31.3-10.5c-105.5,0-176,28.6-281.5,28.6c61.9,32.2,88.7,35.7,150.6,67.9c-5,3.3-9.5,6.8-13.7,10.5
			c-111.9,99.8,135,215.8,197.6,240.5c-2.3,2.1-3.5,3.1-5.8,5.2c-5.3,4.7,1.7,12.4,15.5,17.2c13.8,4.7,29.4,4.7,34.7,0
			c41.4-37.2,82.9-74.4,124.3-111.6c14.6,5.4,30.4,8.3,45.9,7.6c10-0.4,17.3-2.7,21.6-5.9c-1.6-0.1-2.3-0.2-3.9-0.2
			c-0.3-1.7-0.5-2.6-0.8-4.3c11.8,1.7,17.7,2.6,29.5,4.4c7.9,1.9,11.8,2.8,19.8,4.7c-3.3,4.4-4.9,6.7-8.2,11.1c0.2,0,0.3,0,0.5,0
			c0,0,0,0.1,0,0.1c-0.2,0-0.3-0.1-0.4-0.1c-0.9,2.6-2.4,5.2-4.5,7.3c-14.8,15.5-39.8,17.5-60.3,18.6c-4.3,0.2-7.5,1.2-8.8,2.7
			c-1.4,1.6-1.1,3.6,1.2,5.9c0.5,0.5,1.1,0.9,1.7,1.4c0.2,0.3,0.5,0.6,0.8,0.9c4.6,4.5,15.6,8,24.2,7.6c25.7-1.2,59.3-3.5,78-24
			c2.6-2.8,4.5-6,5.7-9.2c-1.3-0.3-1.9-0.5-3.2-0.8c0.2-0.5,0.5-1,0.7-1.5c-12.8-3.2-19.2-4.8-32-8.1c-0.1-0.3-0.2-0.4-0.3-0.7
			c0.1,0,0.1,0,0.2,0c2.7-4.3,4-6.5,6.7-10.9c13.8,3.3,20.7,4.9,34.6,8.2c16.9,4,33.9,8,50.8,12c14.3,3.4,21.5,5.1,35.8,8.5
			c5.1,1.2,7.7,1.8,12.8,3c0,0,0,0,0,0c-9.5,4.9-14.2,7.4-23.7,12.3c-0.5-0.1-0.7-0.2-1.1-0.3c0.2-0.5,0.4-1,0.6-1.5
			c-14.2-3.6-21.4-5.4-35.6-8.9c-18.4,41.1-80.1,44.8-117.7,46.4c-4.3,0.2-7.5,1.2-8.8,2.7c-1.4,1.6-1.1,3.6,1.2,5.9
			c0.5,0.5,1.1,0.9,1.7,1.4c0.2,0.3,0.5,0.6,0.8,0.9c4.6,4.5,15.5,8,24.2,7.6c40.9-1.7,97.9-5.5,127.6-39.3c4-4.6,7.1-9.4,9.1-14.5
			c-0.8-0.2-1.1-0.3-1.9-0.5c9.6-4.2,14.3-6.3,23.9-10.5c1.9,10.1,2.9,15.2,4.8,25.3c10.1,0.6,15.1,0.9,25.2,1.6
			c9.1,0.6,13.7,0.8,22.8,1.4c-0.1,0.6-0.1,0.9-0.2,1.6c0.8,5.5,1.1,8.3,1.9,13.8c-15.2-1.2-22.8-1.8-37.9-2.9
			c-37.2,39.2-103.1,44.2-152.8,46.2c-8.7,0.3-12.2,4.1-7.6,8.6c0.5,0.5,1.1,0.9,1.7,1.4c0.2,0.3,0.5,0.6,0.8,0.9
			c4.6,4.5,15.5,8,24.2,7.6c36.3-1.4,73.8-4.7,107.9-16.1c22.7-7.6,47.4-18,63.9-36.8c1.8-2.1,3.5-4.2,5.1-6.4
			c-1.6-0.1-2.4-0.2-4-0.3c0.5-0.7,1-1.3,1.5-2c-1.1-0.1-1.6-0.1-2.6-0.2c-0.5-6.1-0.8-9.2-1.3-15.3c6.8,0.4,10.1,0.6,16.9,1.1
			c49.5,3.1,99.1,6.2,148.6,9.2c-5.2-1.2-7.8-1.8-12.9-3.1C1727.3,1714.3,1731.2,1714.5,1739.1,1715z"/>
	</g>
	<g class="st41">
		
			<linearGradient id="SVGID_51_" gradientUnits="userSpaceOnUse" x1="928.3116" y1="585.1671" x2="932.1518" y2="819.1653" gradientTransform="matrix(1 0 0 -1 0 2000)">
			<stop  offset="0" style="stop-color:#91D3F8"/>
			<stop  offset="1" style="stop-color:#D9F3FF"/>
		</linearGradient>
		<polygon class="st60" points="1074.8,1388.7 928.7,1100.4 782.7,1388.7 1032.2,1388.7 1054.6,1408.3 		"/>
		
			<linearGradient id="SVGID_52_" gradientUnits="userSpaceOnUse" x1="908.4061" y1="581.127" x2="912.0569" y2="803.5818" gradientTransform="matrix(1 0 0 -1 0 2000)">
			<stop  offset="0" style="stop-color:#99C0FF"/>
			<stop  offset="1" style="stop-color:#2B62BA"/>
		</linearGradient>
		<polygon class="st61" points="908.6,1119.9 762.6,1408.3 1054.6,1408.3 		"/>
		
			<linearGradient id="SVGID_53_" gradientUnits="userSpaceOnUse" x1="-390.806" y1="321.6438" x2="-359.1117" y2="-337.6648" gradientTransform="matrix(0.7071 0.7071 0.7071 -0.7071 1148.8579 1441.3907)">
			<stop  offset="0" style="stop-color:#91D3F8"/>
			<stop  offset="0.5708" style="stop-color:#5A91F7"/>
		</linearGradient>
		<path class="st62" d="M1298.9,1209.2c-128.9,128.9-337.8,128.9-466.7,0s-128.9-337.8,0-466.7L1298.9,1209.2z"/>
		<g>
			
				<linearGradient id="SVGID_54_" gradientUnits="userSpaceOnUse" x1="-419.9684" y1="31.8354" x2="-394.6633" y2="31.8354" gradientTransform="matrix(0.6374 0.7705 0.7705 -0.6374 1404.4249 1254.1322)">
				<stop  offset="0" style="stop-color:#91D3F8"/>
				<stop  offset="0.9944" style="stop-color:#5A91F7"/>
			</linearGradient>
			<path class="st63" d="M1185.7,923l-31.1,4.1c-1.3-2.7-2.6-5.3-4.1-7.8l25.9-15.7C1180,909.8,1183.1,916.3,1185.7,923z"/>
			
				<linearGradient id="SVGID_55_" gradientUnits="userSpaceOnUse" x1="-441.8501" y1="171.8574" x2="-323.1884" y2="171.8574" gradientTransform="matrix(0.6374 0.7705 0.7705 -0.6374 1404.4249 1254.1322)">
				<stop  offset="0" style="stop-color:#91D3F8"/>
				<stop  offset="0.9944" style="stop-color:#5A91F7"/>
			</linearGradient>
			<path class="st64" d="M1319.2,905.2l-13.3,1.8c-10.3-37.3-28.7-71.6-53.3-100.6l35.1-4.7c10.5,14.1,19.7,29,27.4,44.7l-13.6,8.3
				L1319.2,905.2z"/>
			<g>
				
					<linearGradient id="SVGID_56_" gradientUnits="userSpaceOnUse" x1="-482.2128" y1="90.6615" x2="-430.2674" y2="38.7161" gradientTransform="matrix(0.6638 0.7479 0.7479 -0.6638 1344.6781 1240.6954)">
					<stop  offset="0" style="stop-color:#91D3F8"/>
					<stop  offset="1" style="stop-color:#D9F3FF"/>
				</linearGradient>
				<path class="st65" d="M1150.7,878.9l-25.3,16.6c-3-4.8-6.4-9.3-10.2-13.6c-18.3-20.6-43.6-32.9-71.1-34.5
					c-4.2-0.3-7.8-2.2-10.4-5c-2.6-2.9-4-6.8-3.8-10.9c0.5-8.3,7.7-14.7,16-14.2c35.6,2.1,68.2,18,91.9,44.6
					C1142.6,867.2,1146.9,872.9,1150.7,878.9z"/>
				
					<linearGradient id="SVGID_57_" gradientUnits="userSpaceOnUse" x1="-561.4713" y1="231.2885" x2="-487.0244" y2="156.8415" gradientTransform="matrix(0.6638 0.7479 0.7479 -0.6638 1344.6781 1240.6954)">
					<stop  offset="0" style="stop-color:#91D3F8"/>
					<stop  offset="1" style="stop-color:#D9F3FF"/>
				</linearGradient>
				<path class="st66" d="M1255.8,771.4l-34.9,5.9c-44.8-49.2-107.9-81.6-179.4-85.9c-8.3-0.5-14.7-7.7-14.2-16
					c0.5-8.3,7.7-14.7,16-14.2c39.6,2.3,77.6,12.4,112.9,29.9c34.1,16.9,64.2,39.9,89.6,68.5
					C1249.3,763.4,1252.6,767.4,1255.8,771.4z"/>
				
					<linearGradient id="SVGID_58_" gradientUnits="userSpaceOnUse" x1="-522.8073" y1="162.7623" x2="-446.6388" y2="86.5939" gradientTransform="matrix(0.6638 0.7479 0.7479 -0.6638 1344.6781 1240.6954)">
					<stop  offset="0" style="stop-color:#91D3F8"/>
					<stop  offset="1" style="stop-color:#D9F3FF"/>
				</linearGradient>
				<path class="st67" d="M1209.6,836.8l-25.4,16.6c-31.4-48.9-84.9-82.7-147.2-86.4c-4.2-0.3-7.8-2.2-10.4-5.1
					c-2.6-2.9-4-6.8-3.8-10.9c0.5-8.3,7.7-14.7,16-14.2c58.2,3.5,111.6,29.4,150.3,73C1196.8,818.4,1203.6,827.4,1209.6,836.8z"/>
			</g>
			<g>
				
					<linearGradient id="SVGID_59_" gradientUnits="userSpaceOnUse" x1="-485.0806" y1="93.7357" x2="-433.1353" y2="41.7904" gradientTransform="matrix(0.6638 0.7479 0.7479 -0.6638 1344.6781 1240.6954)">
					<stop  offset="0" style="stop-color:#91D3F8"/>
					<stop  offset="0.9944" style="stop-color:#5A91F7"/>
				</linearGradient>
				<path class="st68" d="M1151.1,874.7l-25.3,16.6c-3-4.8-6.4-9.3-10.2-13.6c-18.3-20.6-43.6-32.9-71.1-34.5
					c-4.2-0.3-7.8-2.2-10.4-5c-2.6-2.9-4-6.8-3.8-10.9c0.5-8.3,7.7-14.7,16-14.2c35.6,2.1,68.2,18,91.9,44.6
					C1143,863,1147.3,868.7,1151.1,874.7z"/>
				
					<linearGradient id="SVGID_60_" gradientUnits="userSpaceOnUse" x1="-564.3843" y1="234.4088" x2="-489.9375" y2="159.9619" gradientTransform="matrix(0.6638 0.7479 0.7479 -0.6638 1344.6781 1240.6954)">
					<stop  offset="0" style="stop-color:#91D3F8"/>
					<stop  offset="0.9944" style="stop-color:#5A91F7"/>
				</linearGradient>
				<path class="st69" d="M1256.2,767.1l-34.9,5.9c-44.8-49.2-107.9-81.6-179.4-85.9c-8.3-0.5-14.7-7.7-14.2-16
					c0.5-8.3,7.7-14.7,16-14.2c39.6,2.3,77.6,12.4,112.9,29.9c34.1,16.9,64.2,39.9,89.6,68.5C1249.7,759.2,1253,763.1,1256.2,767.1z
					"/>
				
					<linearGradient id="SVGID_61_" gradientUnits="userSpaceOnUse" x1="-525.7279" y1="165.8893" x2="-449.5594" y2="89.7208" gradientTransform="matrix(0.6638 0.7479 0.7479 -0.6638 1344.6781 1240.6954)">
					<stop  offset="0" style="stop-color:#91D3F8"/>
					<stop  offset="0.9944" style="stop-color:#5A91F7"/>
				</linearGradient>
				<path class="st70" d="M1210,832.5l-25.4,16.6c-31.4-48.9-84.9-82.7-147.2-86.4c-4.2-0.3-7.8-2.2-10.4-5.1
					c-2.6-2.9-4-6.8-3.8-10.9c0.5-8.3,7.7-14.7,16-14.2c58.2,3.5,111.6,29.4,150.3,73C1197.2,814.1,1204,823.1,1210,832.5z"/>
			</g>
			<g>
				
					<linearGradient id="SVGID_62_" gradientUnits="userSpaceOnUse" x1="-451.8772" y1="-65.3563" x2="-398.9701" y2="-118.2634" gradientTransform="matrix(0.5939 0.8045 0.8045 -0.5939 1512.2739 1269.2345)">
					<stop  offset="0" style="stop-color:#91D3F8"/>
					<stop  offset="1" style="stop-color:#D9F3FF"/>
				</linearGradient>
				<path class="st71" d="M1187.3,1019.6c-8.3-1.3-13.9-9-12.7-17.2c2.8-18.6,0.6-37.2-6.4-54.2l31.3-2.4c6.3,19.5,8.1,40.3,5,61.1
					C1203.3,1015.1,1195.6,1020.8,1187.3,1019.6z"/>
				
					<linearGradient id="SVGID_63_" gradientUnits="userSpaceOnUse" x1="-410.7624" y1="112.8511" x2="-290.5641" y2="-7.3472" gradientTransform="matrix(0.5939 0.8045 0.8045 -0.5939 1512.2739 1269.2345)">
					<stop  offset="0" style="stop-color:#91D3F8"/>
					<stop  offset="1" style="stop-color:#D9F3FF"/>
				</linearGradient>
				<path class="st72" d="M1346.9,1041.8c-4.1-0.6-7.6-2.9-9.9-6c-2.3-3.1-3.4-7.1-2.8-11.2c4.9-32.6,3.6-64.7-3-95.2l13.4-1
					l-15-51.5l14.1-7.5c6,13.9,10.8,28.3,14.6,43c9.8,38.2,11.7,77.4,5.8,116.7C1362.9,1037.4,1355.2,1043.1,1346.9,1041.8z"/>
				
					<linearGradient id="SVGID_64_" gradientUnits="userSpaceOnUse" x1="-410.4375" y1="3.9992" x2="-340.8023" y2="-65.6361" gradientTransform="matrix(0.5939 0.8045 0.8045 -0.5939 1512.2739 1269.2345)">
					<stop  offset="0" style="stop-color:#91D3F8"/>
					<stop  offset="1" style="stop-color:#D9F3FF"/>
				</linearGradient>
				<path class="st73" d="M1265.1,1035.3c-8.3-1.2-13.9-8.9-12.7-17.2c4.1-26.9,2.2-53.3-4.7-78l30.8-2.4
					c6.8,27.4,8.1,56.1,3.8,84.9C1281.1,1030.8,1273.4,1036.5,1265.1,1035.3z"/>
			</g>
			<g>
				
					<linearGradient id="SVGID_65_" gradientUnits="userSpaceOnUse" x1="-452.1295" y1="-60.8319" x2="-399.2224" y2="-113.7391" gradientTransform="matrix(0.5939 0.8045 0.8045 -0.5939 1512.2739 1269.2345)">
					<stop  offset="0" style="stop-color:#5A91F7"/>
					<stop  offset="1" style="stop-color:#2B62BA"/>
				</linearGradient>
				<path class="st74" d="M1190.8,1016.7c-8.3-1.3-13.9-9-12.7-17.2c2.8-18.6,0.6-37.2-6.4-54.2l31.3-2.4c6.3,19.5,8.1,40.3,5,61.1
					C1206.7,1012.2,1199,1017.9,1190.8,1016.7z"/>
				
					<linearGradient id="SVGID_66_" gradientUnits="userSpaceOnUse" x1="-411.0087" y1="117.3834" x2="-290.8104" y2="-2.8148" gradientTransform="matrix(0.5939 0.8045 0.8045 -0.5939 1512.2739 1269.2345)">
					<stop  offset="0" style="stop-color:#5A91F7"/>
					<stop  offset="1" style="stop-color:#2B62BA"/>
				</linearGradient>
				<path class="st75" d="M1350.4,1038.9c-4.1-0.6-7.6-2.9-9.9-6c-2.3-3.1-3.4-7.1-2.8-11.2c4.9-32.6,3.6-64.7-3-95.2l13.4-1
					l-15-51.5l14.1-7.5c6,13.9,10.8,28.3,14.6,43c9.8,38.2,11.7,77.4,5.8,116.7C1366.4,1034.5,1358.7,1040.2,1350.4,1038.9z"/>
				
					<linearGradient id="SVGID_67_" gradientUnits="userSpaceOnUse" x1="-410.6839" y1="8.5316" x2="-341.0487" y2="-61.1037" gradientTransform="matrix(0.5939 0.8045 0.8045 -0.5939 1512.2739 1269.2345)">
					<stop  offset="0" style="stop-color:#5A91F7"/>
					<stop  offset="1" style="stop-color:#2B62BA"/>
				</linearGradient>
				<path class="st76" d="M1268.6,1032.4c-8.3-1.2-13.9-8.9-12.7-17.2c4.1-26.9,2.2-53.3-4.7-78l30.8-2.4
					c6.8,27.4,8.1,56.1,3.8,84.9C1284.6,1027.9,1276.8,1033.6,1268.6,1032.4z"/>
			</g>
			
				<linearGradient id="SVGID_68_" gradientUnits="userSpaceOnUse" x1="-409.3229" y1="100.2906" x2="-354.7582" y2="100.2906" gradientTransform="matrix(0.6374 0.7705 0.7705 -0.6374 1404.4249 1254.1322)">
				<stop  offset="0" style="stop-color:#91D3F8"/>
				<stop  offset="0.9944" style="stop-color:#5A91F7"/>
			</linearGradient>
			<path class="st77" d="M1260.3,913l-30.6,4.1c-4.3-12.6-9.8-24.6-16.5-35.9l25.9-15.8C1248.1,880.5,1255.2,896.5,1260.3,913z"/>
			
				<linearGradient id="SVGID_69_" gradientUnits="userSpaceOnUse" x1="-449.0476" y1="213.851" x2="-327.7213" y2="92.5247" gradientTransform="matrix(0.6374 0.7705 0.7705 -0.6374 1404.4249 1254.1322)">
				<stop  offset="0" style="stop-color:#91D3F8"/>
				<stop  offset="1" style="stop-color:#D9F3FF"/>
			</linearGradient>
			<polygon class="st78" points="1319.2,905.2 1305.9,907 1260.3,913 1229.7,917.1 1185.7,923 1154.6,927.1 1132.8,930 
				1150.5,919.3 1176.3,903.6 1213.2,881.2 1239.1,865.5 1248.4,859.8 1230.6,809.3 1252.5,806.3 1287.6,801.7 1417,784.5 
				1315,846.4 1301.4,854.7 			"/>
			
				<linearGradient id="SVGID_70_" gradientUnits="userSpaceOnUse" x1="-456.6053" y1="210.0641" x2="-335.2797" y2="88.7386" gradientTransform="matrix(0.6374 0.7705 0.7705 -0.6374 1404.4249 1254.1322)">
				<stop  offset="0" style="stop-color:#91D3F8"/>
				<stop  offset="0.9944" style="stop-color:#5A91F7"/>
			</linearGradient>
			<polygon class="st79" points="1311.4,901.8 1298.1,903.6 1252.6,909.6 1222,913.7 1178,919.5 1146.9,923.7 1125.1,926.6 
				1142.7,915.9 1168.6,900.2 1205.4,877.8 1231.4,862 1240.7,856.4 1222.9,805.8 1244.8,802.9 1279.9,798.3 1409.2,781.1 
				1307.3,843 1293.6,851.3 			"/>
			
				<linearGradient id="SVGID_71_" gradientUnits="userSpaceOnUse" x1="-481.8093" y1="-63.1513" x2="-396.505" y2="-63.1513" gradientTransform="matrix(0.6374 0.7705 0.7705 -0.6374 1404.4249 1254.1322)">
				<stop  offset="0" style="stop-color:#5A91F7"/>
				<stop  offset="1" style="stop-color:#2B62BA"/>
			</linearGradient>
			<path class="st80" d="M1118.5,959.9c0.5-5.7-0.1-11.3-1.7-16.5l-1,0.1l-8.7,1.2l-5.8,0.8l-8.4,1.1l-5.9,0.8l-4.1,0.5l3.3-2l4.9-3
				l7-4.3l4.9-3l1.8-1.1l-3.4-9.6l3.4-0.5c-6.6-6.1-15.2-10.1-24.8-11c-23.4-2.2-44.3,15-46.5,38.4s15,44.3,38.4,46.5
				C1095.4,1000.6,1116.3,983.3,1118.5,959.9z"/>
		</g>
		
			<linearGradient id="SVGID_72_" gradientUnits="userSpaceOnUse" x1="-753.4357" y1="266.5697" x2="-22.8459" y2="266.5697" gradientTransform="matrix(0.7071 0.7071 0.7071 -0.7071 1148.8579 1441.3907)">
			<stop  offset="0" style="stop-color:#5A91F7"/>
			<stop  offset="1" style="stop-color:#2B62BA"/>
		</linearGradient>
		<path class="st81" d="M1293.9,1241.4l-494-494c-6.3-6.3-6.3-16.4,0-22.7l9.3-9.3c6.3-6.3,16.4-6.3,22.7,0l494,493.9
			c6.3,6.3,6.3,16.4,0,22.7l-9.3,9.3C1310.3,1247.7,1300.2,1247.7,1293.9,1241.4z"/>
	</g>
</g>
<g id="暂无账单明细" class="st19">
	<g class="st20">
		
			<linearGradient id="SVGID_73_" gradientUnits="userSpaceOnUse" x1="1134.6713" y1="597.6064" x2="1134.6713" y2="209.9127" gradientTransform="matrix(1 0 0 -1 0 2000)">
			<stop  offset="0" style="stop-color:#5A91F7"/>
			<stop  offset="0.2039" style="stop-color:#A2C1FB;stop-opacity:0.8034"/>
			<stop  offset="0.9749" style="stop-color:#FFFFFF;stop-opacity:0.54"/>
		</linearGradient>
		<path class="st82" d="M1338.2,1437.2c-7.5-7.6-11.3-11.4-18.8-19c-19.8-20.2-53.8-29.6-81.3-30c-17.4,0-34.8,0-52.3,0
			c0.1,0.1,0.1,0.1,0.2,0.2c-135.6,0-271.2,0-406.8,0c-0.1,0-0.2,0-0.2,0c0,0,0,0,0.1,0c-14.7,1.3-45,11.8-21.7,30
			c35.3,35.7,70.7,71.4,106,107.1l0,0c50.1,50.6,100.2,101.3,150.4,151.9c-34.6,0-69.3,0-103.9,0c5,5.1,7.5,7.6,12.5,12.6
			c20.3,19.6,53.5,30.2,81.3,30c0.3,0,0.4,0,0.7,0c1.8,0,3.5-0.1,5.1-0.2c111.3,0,222.7,0,334,0c4.4,0,8.4-0.3,12-0.9
			c44.9,0,89.9,0,134.8,0c15.6-1.3,44.6-10.3,21.9-30c-6.9-7-10.4-10.5-17.4-17.6c0.1,0,0.1,0,0.1,0c-0.1,0-0.1,0-0.2,0
			c-65-65.7-130-131.4-195-197.1c-12.3-12.4-24.5-24.8-36.8-37.1C1288,1437.2,1313.1,1437.2,1338.2,1437.2z M1026.1,1689.9
			C1026.1,1689.9,1026.1,1689.9,1026.1,1689.9c-0.4-0.4-0.6-0.6-1-0.9C1025.5,1689.3,1025.8,1689.6,1026.1,1689.9z"/>
	</g>
	<g class="st41">
		
			<linearGradient id="SVGID_74_" gradientUnits="userSpaceOnUse" x1="941.405" y1="880.5574" x2="941.405" y2="266.738" gradientTransform="matrix(1 0 0 -1 0 2000)">
			<stop  offset="0" style="stop-color:#91D3F8"/>
			<stop  offset="1" style="stop-color:#D9F3FF"/>
		</linearGradient>
		<path class="st83" d="M1194.7,825.2h-140.1c-4.3-1.1-8.8-1.7-13.4-1.7H688.1c-29.6,0-53.6,24-53.6,53.6l0,0h108c0,0.6,0,1.1,0,1.7
			v483c0,29.6,24,53.6,53.6,53.6h452.3V878.8C1248.3,849.2,1224.3,825.2,1194.7,825.2z"/>
		<polygon class="st84" points="1177.6,1070.2 1142.2,1046.6 1106.7,1070.2 1106.7,1006.5 1106.7,942.8 1142.2,942.8 1177.6,942.8 
			1177.6,1006.5 		"/>
		<circle class="st85" cx="1143.8" cy="950.2" r="55.7"/>
		<g>
			
				<linearGradient id="SVGID_75_" gradientUnits="userSpaceOnUse" x1="1061.1851" y1="685.6189" x2="1061.1851" y2="596.725" gradientTransform="matrix(1 0 0 -1 0 2000)">
				<stop  offset="0" style="stop-color:#91D3F8"/>
				<stop  offset="0.9944" style="stop-color:#5A91F7"/>
			</linearGradient>
			<path class="st86" d="M1242.7,1328.3h-24H846.5v33.5c0,28.6-22.4,52-50.7,53.5h422.9v0.4h54.3c29.6,0,53.6-24,53.6-53.6v-33.9
				L1242.7,1328.3L1242.7,1328.3z"/>
		</g>
		<g>
			<rect x="829.7" y="968.9" class="st87" width="82.3" height="20.2"/>
		</g>
		<g>
			<rect x="829.7" y="1047.4" class="st87" width="292.1" height="20.2"/>
		</g>
		<g>
			<rect x="829.7" y="1126" class="st87" width="292.1" height="20.2"/>
		</g>
		<g>
			<rect x="829.7" y="1204.5" class="st87" width="234.6" height="20.2"/>
		</g>
		
			<linearGradient id="SVGID_76_" gradientUnits="userSpaceOnUse" x1="942.415" y1="933.2573" x2="942.415" y2="428.7416" gradientTransform="matrix(1 0 0 -1 0 2000)">
			<stop  offset="0" style="stop-color:#91D3F8"/>
			<stop  offset="0.9944" style="stop-color:#5A91F7"/>
		</linearGradient>
		<path class="st88" d="M1194.7,825.2h-140.1c-4.3-1.1-8.8-1.7-13.4-1.7H688.1c-23.4,0-43.3,15-50.6,35.9c-0.5,5.9-0.8,11.8-1,17.7
			h105.9c0,0.6,0,1.1,0,1.7v291.8c76.5,85.6,187.7,139.4,311.5,139.4c70.2,0,136.4-17.3,194.4-48V878.8
			C1248.3,849.2,1224.3,825.2,1194.7,825.2z"/>
		
			<linearGradient id="SVGID_77_" gradientUnits="userSpaceOnUse" x1="634.5" y1="1138.6951" x2="742.42" y2="1138.6951" gradientTransform="matrix(1 0 0 -1 0 2000)">
			<stop  offset="0" style="stop-color:#5A91F7"/>
			<stop  offset="1" style="stop-color:#2B62BA"/>
		</linearGradient>
		<path class="st89" d="M672.5,823.2h31.9c21,0,38,17,38,38v38.2H634.5v-38.2C634.5,840.2,651.5,823.2,672.5,823.2z"/>
		
			<linearGradient id="SVGID_78_" gradientUnits="userSpaceOnUse" x1="1139.53" y1="1006.885" x2="1210.36" y2="1006.885" gradientTransform="matrix(1 0 0 -1 0 2000)">
			<stop  offset="0" style="stop-color:#5A91F7"/>
			<stop  offset="1" style="stop-color:#2B62BA"/>
		</linearGradient>
		<polygon class="st90" points="1210.4,1056.9 1174.9,1033.3 1139.5,1056.9 1139.5,993.1 1139.5,929.4 1174.9,929.4 1210.4,929.4 
			1210.4,993.1 		"/>
		
			<linearGradient id="SVGID_79_" gradientUnits="userSpaceOnUse" x1="1115.34" y1="1056.15" x2="1226.64" y2="1056.15" gradientTransform="matrix(1 0 0 -1 0 2000)">
			<stop  offset="0" style="stop-color:#91D3F8"/>
			<stop  offset="1" style="stop-color:#D9F3FF"/>
		</linearGradient>
		<circle class="st91" cx="1171" cy="943.8" r="55.7"/>
		
			<linearGradient id="SVGID_80_" gradientUnits="userSpaceOnUse" x1="1120.51" y1="1051.7" x2="1231.8101" y2="1051.7" gradientTransform="matrix(1 0 0 -1 0 2000)">
			<stop  offset="0" style="stop-color:#91D3F8"/>
			<stop  offset="0.9944" style="stop-color:#5A91F7"/>
		</linearGradient>
		<circle class="st92" cx="1176.2" cy="948.3" r="55.7"/>
		<g>
			<path class="st39" d="M1188.6,1077.7h8.6c5.6,0,10.1,4.5,10.1,10.1l0,0c0,5.6-4.5,10.1-10.1,10.1h-8.6c-5.6,0-10.1-4.5-10.1-10.1
				l0,0C1178.5,1082.3,1183,1077.7,1188.6,1077.7z"/>
		</g>
		<g>
			<path class="st39" d="M1149.1,1077.7h8.6c5.6,0,10.1,4.5,10.1,10.1l0,0c0,5.6-4.5,10.1-10.1,10.1h-8.6c-5.6,0-10.1-4.5-10.1-10.1
				l0,0C1139,1082.3,1143.5,1077.7,1149.1,1077.7z"/>
		</g>
		<g>
			<path class="st39" d="M1188.6,1117.2h8.6c5.6,0,10.1,4.5,10.1,10.1l0,0c0,5.6-4.5,10.1-10.1,10.1h-8.6c-5.6,0-10.1-4.5-10.1-10.1
				l0,0C1178.5,1121.8,1183,1117.2,1188.6,1117.2z"/>
		</g>
		<g>
			<path class="st39" d="M1149.1,1117.2h8.6c5.6,0,10.1,4.5,10.1,10.1l0,0c0,5.6-4.5,10.1-10.1,10.1h-8.6c-5.6,0-10.1-4.5-10.1-10.1
				l0,0C1139,1121.8,1143.5,1117.2,1149.1,1117.2z"/>
		</g>
		<g>
			<path class="st39" d="M918.6,986.7c-1.5,1.4-2.3,3-2.3,4.7v56.7c0,1.9,0.8,3.7,2.3,5.5c1.5,1.8,3.5,2.7,5.9,2.7h108.8
				c2.4,0,4.8,0.5,7.2,1.4c2.3,0.9,4.4,2.3,6.2,3.9c1.8,1.7,3.2,3.6,4.4,5.8s1.7,4.5,1.7,6.9v73.6c0,1.9-0.6,3.8-1.7,5.6
				c-1.1,1.9-2.6,3.6-4.4,5.1c-1.8,1.5-3.8,2.7-6.2,3.7c-2.3,0.9-4.8,1.4-7.2,1.4h-48.8v29.3H940v-29.3h-69.9l8.5-15.8h123.5
				c1.5,0,2.9-0.6,4.1-1.8c1.2-1.2,1.8-3.2,1.8-5.8v-60.9c0-1.7-0.6-3.3-1.8-4.9c-1.2-1.6-2.6-2.4-4.1-2.4H891.3
				c-6,0-10.8-1.7-14.2-5.1s-5.2-8.1-5.2-14.1v-67.4c0-4.1,1.7-7.9,5.2-11.4c3.5-3.5,8.2-5.2,14.2-5.2h48.8v-30.7h44.5v30.7h68.2
				v15.8H924.5C922.1,984.6,920.1,985.3,918.6,986.7z"/>
		</g>
		<polygon class="st38" points="1213.2,874.9 1222.5,900.8 1248.5,910.2 1222.5,919.6 1213.2,945.5 1203.8,919.6 1177.8,910.2 
			1203.8,900.8 		"/>
	</g>
</g>
<g id="暂无搜索记录" class="st19">
	
		<linearGradient id="SVGID_81_" gradientUnits="userSpaceOnUse" x1="641.4407" y1="905.4088" x2="1180.2338" y2="905.4088" gradientTransform="matrix(1 0 0 -1 0 2000)">
		<stop  offset="0" style="stop-color:#5A91F7"/>
		<stop  offset="1" style="stop-color:#2B62BA"/>
	</linearGradient>
	<path class="st93" d="M1071.6,885.5C988,781.4,835.9,764.8,731.8,848.3c-104.1,83.6-120.7,235.7-37.1,339.8
		c71.4,89,193,114,291.8,67.2c1.2,2,2.5,3.9,4,5.7l88.9,111.8c19.6,24.4,55.3,28.3,79.7,8.7l0,0c24.4-19.6,28.3-55.3,8.7-79.7
		l-88.8-111.8c-1.5-1.8-3.1-3.6-4.7-5.2C1141.2,1098.5,1143,974.5,1071.6,885.5z M998.4,1180.4c-79.3,63.7-195.3,51-258.9-28.3
		c-63.7-79.3-51-195.3,28.3-258.9s195.3-51,258.9,28.3S1077.8,1116.7,998.4,1180.4z"/>
	
		<linearGradient id="SVGID_82_" gradientUnits="userSpaceOnUse" x1="613.5475" y1="905.4088" x2="1152.3438" y2="905.4088" gradientTransform="matrix(1 0 0 -1 0 2000)">
		<stop  offset="0" style="stop-color:#91D3F8"/>
		<stop  offset="1" style="stop-color:#D9F3FF"/>
	</linearGradient>
	<path class="st94" d="M1043.7,885.5C960.1,781.4,808,764.8,703.9,848.3s-120.7,235.7-37.1,339.8c71.4,89,193,114,291.8,67.2
		c1.2,2,2.5,3.9,4,5.7l88.9,111.8c19.6,24.4,55.3,28.3,79.7,8.7l0,0c24.4-19.6,28.3-55.3,8.7-79.7L1051,1190
		c-1.5-1.8-3.1-3.6-4.7-5.2C1113.3,1098.5,1115.1,974.5,1043.7,885.5z M970.5,1180.4c-79.3,63.7-195.3,51-258.9-28.3
		c-63.7-79.3-51-195.3,28.3-258.9s195.3-51,258.9,28.3S1049.9,1116.7,970.5,1180.4z"/>
	<g class="st41">
		
			<linearGradient id="SVGID_83_" gradientUnits="userSpaceOnUse" x1="816.5" y1="948.835" x2="948.3301" y2="948.835" gradientTransform="matrix(1 0 0 -1 0 2000)">
			<stop  offset="0" style="stop-color:#5A91F7"/>
			<stop  offset="0.8751" style="stop-color:#2B62BA"/>
		</linearGradient>
		<path class="st95" d="M820.4,946.8c2.6-2.8,5.8-4.3,9.7-4.3h102.6c4,0,7.6,1.4,10.8,4.3c3.2,2.8,4.8,6.6,4.8,11.3v48
			c0,2.3-0.2,4.5-0.6,6.4s-1.3,3.7-2.6,5.4l-36.5,48.1c-1.2,1.3-2.1,2.6-2.6,3.7c-0.6,1.1-0.9,1.7-0.9,1.9v38.2h-38.7v-41.3
			c0-2.8,0.2-5.2,0.6-7.2s1.3-3.7,2.6-5.4l36-49.8c0.8-1.2,1.5-2.1,2.1-2.8c0.6-0.7,0.9-1.7,0.9-3v-38.5c0-1.3-0.7-2.7-2.1-4
			c-1.4-1.3-3-2-4.7-2h-41.3c-1.3,0-2.6,0.7-3.8,2c-1.2,1.3-1.8,2.7-1.8,4v37h-38.5v-40.8C816.5,953.4,817.8,949.6,820.4,946.8z
			 M866.3,1126.9h38.7v33h-38.7V1126.9z"/>
	</g>
	
		<linearGradient id="SVGID_84_" gradientUnits="userSpaceOnUse" x1="797.3" y1="948.835" x2="929.1301" y2="948.835" gradientTransform="matrix(1 0 0 -1 0 2000)">
		<stop  offset="0" style="stop-color:#91D3F8"/>
		<stop  offset="1" style="stop-color:#D9F3FF"/>
	</linearGradient>
	<path class="st96" d="M801.2,946.8c2.6-2.8,5.8-4.3,9.7-4.3h102.6c4,0,7.6,1.4,10.8,4.3c3.2,2.8,4.8,6.6,4.8,11.3v48
		c0,2.3-0.2,4.5-0.6,6.4s-1.3,3.7-2.6,5.4l-36.5,48.1c-1.2,1.3-2.1,2.6-2.6,3.7c-0.6,1.1-0.9,1.7-0.9,1.9v38.2h-38.7v-41.3
		c0-2.8,0.2-5.2,0.6-7.2s1.3-3.7,2.6-5.4l36-49.8c0.8-1.2,1.5-2.1,2.1-2.8c0.6-0.7,0.9-1.7,0.9-3v-38.5c0-1.3-0.7-2.7-2.1-4
		c-1.4-1.3-3-2-4.7-2h-41.3c-1.3,0-2.6,0.7-3.8,2c-1.2,1.3-1.8,2.7-1.8,4v37h-38.5v-40.8C797.3,953.4,798.6,949.6,801.2,946.8z
		 M847.1,1126.9h38.7v33h-38.7V1126.9z"/>
	
		<linearGradient id="SVGID_85_" gradientUnits="userSpaceOnUse" x1="607.9107" y1="902.5829" x2="1146.7037" y2="902.5829" gradientTransform="matrix(1 0 0 -1 0 2000)">
		<stop  offset="0" style="stop-color:#91D3F8"/>
		<stop  offset="0.9944" style="stop-color:#5A91F7"/>
	</linearGradient>
	<path class="st97" d="M1038,888.3c-83.6-104.1-235.7-120.7-339.8-37.1s-120.7,235.7-37.1,339.7c71.4,89,193,114,291.8,67.2
		c1.2,2,2.5,3.9,4,5.7l88.8,111.8c19.6,24.4,55.3,28.3,79.7,8.7l0,0c24.4-19.6,28.3-55.3,8.7-79.7l-88.8-111.8
		c-1.5-1.8-3.1-3.6-4.7-5.2C1107.7,1101.3,1109.5,977.3,1038,888.3z M964.9,1183.2c-79.3,63.7-195.3,51-258.9-28.3
		c-63.7-79.3-51-195.3,28.3-258.9s195.3-51,258.9,28.3S1044.2,1119.6,964.9,1183.2z"/>
	
		<linearGradient id="SVGID_86_" gradientUnits="userSpaceOnUse" x1="793.0799" y1="948.835" x2="924.9" y2="948.835" gradientTransform="matrix(1 0 0 -1 0 2000)">
		<stop  offset="0" style="stop-color:#91D3F8"/>
		<stop  offset="1" style="stop-color:#D9F3FF"/>
	</linearGradient>
	<path class="st98" d="M797,946.8c2.6-2.8,5.8-4.3,9.7-4.3h102.6c4,0,7.6,1.4,10.8,4.3c3.2,2.8,4.8,6.6,4.8,11.3v48
		c0,2.3-0.2,4.5-0.6,6.4s-1.3,3.7-2.6,5.4l-36.5,48.1c-1.2,1.3-2.1,2.6-2.6,3.7c-0.6,1.1-0.9,1.7-0.9,1.9v38.2h-38.7v-41.3
		c0-2.8,0.2-5.2,0.6-7.2s1.3-3.7,2.6-5.4l36-49.8c0.8-1.2,1.5-2.1,2.1-2.8c0.6-0.7,0.9-1.7,0.9-3v-38.5c0-1.3-0.7-2.7-2.1-4
		c-1.4-1.3-3-2-4.7-2h-41.3c-1.3,0-2.6,0.7-3.8,2c-1.2,1.3-1.8,2.7-1.8,4v37h-38.5v-40.8C793.1,953.4,794.4,949.6,797,946.8z
		 M842.9,1126.9h38.7v33h-38.7V1126.9z"/>
	<polygon class="st29" points="718.3,846.4 729,876.1 758.7,886.8 729,897.5 718.3,927.2 707.5,897.5 677.9,886.8 707.5,876.1 	"/>
	<polygon class="st29" points="921.5,920.4 929.5,942.5 951.5,950.5 929.5,958.4 921.5,980.5 913.5,958.4 891.5,950.5 913.5,942.5 	
		"/>
	<polygon class="st29" points="814.6,965.6 819.1,978 831.5,982.5 819.1,986.9 814.6,999.3 810.1,986.9 797.7,982.5 810.1,978 	"/>
	<g class="st99">
		<g>
			
				<linearGradient id="SVGID_87_" gradientUnits="userSpaceOnUse" x1="990.3058" y1="604.7339" x2="990.3058" y2="348.5743" gradientTransform="matrix(1 0 0 -1 0 2000)">
				<stop  offset="0" style="stop-color:#5A91F7"/>
				<stop  offset="0.2039" style="stop-color:#A2C1FB;stop-opacity:0.8034"/>
				<stop  offset="0.9749" style="stop-color:#FFFFFF;stop-opacity:0.54"/>
			</linearGradient>
			<path class="st100" d="M1157.4,1435.4c9.5-20.2-32.7-32.4-44-36l0,0c-17.3-4.1-34.4-6.9-52.2-4.9c-14.6-0.9-35.8-3.2-47.1,8.8
				c-11.4,16.4-22.8,32.8-34.2,49.1c-32.7-4.4-65.2-6.8-98.1-6.3c-46.2-0.6-123-2.1-153.9,40.7c-21.3,29.4,7.8,62.1,29.9,80.3
				c44.9,36.9,103,58.2,157.8,73.3c58.5,16.2,120.4,25.6,181.9,23.9c46.2,0.6,123.7,2,154-40.7c44-62-93.8-120.4-131.5-135.3
				c0.9-0.7,1.6-1.5,2.2-2.3C1134,1469.1,1145.7,1452.2,1157.4,1435.4z M956.8,1620.1c-30.7-8.5-184.3-60.3-143-117.1
				c19.4-26.6,63.4-29.1,93.9-30.9c39,1.5,77.9,7.8,115,18.1c41.6,11.5,86,27.6,120.3,55.9c16.8,13.8,39,39.4,22.7,61.2
				c-19.9,26.6-63.3,29.1-93.9,30.9C1032.8,1637,993.8,1630.3,956.8,1620.1z"/>
			
				<linearGradient id="SVGID_88_" gradientUnits="userSpaceOnUse" x1="1019.2375" y1="521.6418" x2="1019.2375" y2="369.5596" gradientTransform="matrix(1 0 0 -1 0 2000)">
				<stop  offset="0" style="stop-color:#5A91F7"/>
				<stop  offset="0.2039" style="stop-color:#A2C1FB;stop-opacity:0.8034"/>
				<stop  offset="0.9749" style="stop-color:#FFFFFF;stop-opacity:0.54"/>
			</linearGradient>
			<path class="st101" d="M1070.9,1563.7c-18.8-7.2-37.7-14.5-56.5-21.7c-1.7-0.6-3.1-1.2-4.2-1.7s-1.6-0.8-1.7-0.8
				c-6.8-6.9-10.3-10.4-17.1-17.3c-7.4,0-11,0-18.4,0c-7.5,0-11.2,0-18.7,0c-7.4,0-11,0-18.4,0c7.4,7.5,11.1,11.2,18.5,18.7
				c1.3,1.3,2.5,2.4,3.8,3.2s2.9,1.7,5,2.4c18.9,7.5,37.9,15,56.8,22.5c1.3,0.5,2.4,0.9,3.3,1.3c0.9,0.3,1.6,0.8,2.2,1.4
				c6.9,7,10.3,10.4,17.2,17.4c0.6,0.6,0.5,1.2-0.3,1.8c-0.8,0.6-2,0.9-3.6,0.9c-8.5,0-12.7,0-21.2,0c-1.3,0-2.8-0.3-4.5-0.9
				c-1.7-0.6-2.9-1.2-3.5-1.8c-6.6-6.7-9.9-10-16.5-16.7c-7.4,0-11,0-18.4,0c-7.4,0-11.1,0-18.5,0c-7.4,0-11,0-18.4,0
				c7.3,7.4,10.9,11.1,18.2,18.4c2.1,2.1,5,3.8,8.8,5.1c3.8,1.3,7.5,1.9,11.2,1.9c7.4,0,11,0,18.4,0c26.7,0,53.3,0,80,0
				c7.4,0,11.1,0,18.4,0c3.9,0,6.7-0.6,8.5-1.9c1.8-1.3,1.6-3-0.5-5.1c-7.2-7.2-14.3-14.5-21.5-21.7c-1.1-1.1-2.2-2-3.5-2.9
				C1074.6,1565.3,1073,1564.5,1070.9,1563.7z"/>
			
				<linearGradient id="SVGID_89_" gradientUnits="userSpaceOnUse" x1="913.53" y1="492.9901" x2="983.83" y2="492.9901" gradientTransform="matrix(1 0 0 -1 0 2000)">
				<stop  offset="0" style="stop-color:#5A91F7"/>
				<stop  offset="0.2039" style="stop-color:#A2C1FB;stop-opacity:0.8034"/>
				<stop  offset="0.9749" style="stop-color:#FFFFFF;stop-opacity:0.54"/>
			</linearGradient>
			<path class="st102" d="M965.4,1514.5c7.4,0,11,0,18.4,0c-5.9-6-8.8-8.9-14.8-14.9c-7.4,0-11,0-18.4,0c-7.5,0-11.2,0-18.7,0
				c-7.4,0-11,0-18.4,0c5.9,6,8.8,8.9,14.8,14.9c7.4,0,11,0,18.4,0C954.2,1514.5,957.9,1514.5,965.4,1514.5z"/>
		</g>
	</g>
</g>
<g id="暂无方向" class="st19">
	<g class="st41">
		
			<linearGradient id="SVGID_90_" gradientUnits="userSpaceOnUse" x1="1161.0149" y1="596.6226" x2="1161.0149" y2="289.3303" gradientTransform="matrix(1 0 0 -1 0 2000)">
			<stop  offset="0" style="stop-color:#5A91F7"/>
			<stop  offset="0.2039" style="stop-color:#A2C1FB;stop-opacity:0.8034"/>
			<stop  offset="0.9749" style="stop-color:#FFFFFF;stop-opacity:0.54"/>
		</linearGradient>
		<path class="st103" d="M1379.6,1534.2c-5.9,9.4-8.9,14.1-14.8,23.4c-75.4-1.7-150.8-3.4-226.2-5.1c4.4,4.4,6.5,6.6,10.9,11
			c38.8-0.9,77.7-1.8,116.5-2.7c1,9.8,1.5,14.8,2.5,24.6c15.5,6.9,31.1,13.7,46.6,20.6c-3.8,0.1-5.7,0.1-9.5,0.2
			c3.4,1.5,5,2.2,8.4,3.7c-38.6,0.9-77.2,1.8-115.8,2.7c7.7,7.8,15.4,15.6,23.1,23.4c69.8,1.6,139.5,3.1,209.3,4.7
			c22.6,8.9,45.2,17.8,67.8,26.7c-0.1,0.2-0.2,0.2-0.3,0.4c4.5,1.8,6.7,2.7,11.2,4.4c-6.1,9.6-12.1,19.2-18.2,28.8
			c-70-1.6-140.1-3.1-210.1-4.7c0.1,0.1,0.1,0.1,0.2,0.2c1.4,0.8,2.1,1.2,3.5,2c8.2,1.2,12.3,1.8,20.5,3.1
			c-5.8,1.2-8.7,1.8-14.4,3.1c0.2,0.8,0.3,1.2,0.5,2c4.3,4.3,6.4,6.4,10.6,10.7c-29.2,0-58.4,0-87.6,0c-0.2-0.2-0.4-0.4-0.6-0.6
			c-4.9,0-7.4,0-12.3,0c-7.5-7.6-15.1-15.2-22.6-22.8c-84.3-1.9-168.5-3.8-252.8-5.7c0.5-1.8,0.8-2.7,1.3-4.6
			c-4.9-0.1-7.3-0.2-12.2-0.3c2.9-10.1,4.3-15.2,7.2-25.3c-18.9-10.1-37.9-20.2-56.8-30.2c84.5,1.9,169.1,3.8,253.6,5.7
			c-7.4-7.5-11.2-11.3-18.6-18.8c-75.5,1.8-151,3.5-226.6,5.3c-20.4-7.8-40.8-15.6-61.2-23.4c0.8-1.4,1.2-2.2,2-3.6
			c-0.3-0.1-0.5-0.2-0.9-0.3c4.8-8.7,7.3-13.1,12.1-21.8c75.3-1.8,150.6-3.5,225.9-5.3c-6.2-6.2-9.3-9.3-15.4-15.6
			c-44-1-88-2-132.1-3c0.4-1.5,0.6-2.2,1-3.7c-4-0.1-6-0.1-10-0.2c2.3-8.2,3.5-12.3,5.9-20.6c-15.4-8.2-30.9-16.4-46.3-24.6
			c44.3,1,88.5,2,132.8,3c-32-32.3-64-64.7-96-97c29.2,0,58.4,0,87.6,0c0.2,0.2,0.4,0.4,0.6,0.6c4.9,0,7.4,0,12.3,0
			c32.6,32.9,65.1,65.8,97.7,98.7c75.2,1.7,150.3,3.4,225.5,5.1c18.4,7.3,36.8,14.5,55.2,21.8c-0.1,0.1-0.1,0.2-0.2,0.3
			C1374.1,1532,1375.9,1532.8,1379.6,1534.2z"/>
	</g>
	<g class="st41">
		
			<linearGradient id="SVGID_91_" gradientUnits="userSpaceOnUse" x1="936.61" y1="1243.9866" x2="936.61" y2="580.0555" gradientTransform="matrix(1 0 0 -1 0 2000)">
			<stop  offset="0" style="stop-color:#91D3F8"/>
			<stop  offset="0.8519" style="stop-color:#5A91F7"/>
		</linearGradient>
		<rect x="889.1" y="708.5" class="st104" width="95" height="694.7"/>
		
			<linearGradient id="SVGID_92_" gradientUnits="userSpaceOnUse" x1="949.99" y1="617.0901" x2="949.99" y2="1281.0211" gradientTransform="matrix(1 0 0 -1 0 2000)">
			<stop  offset="0" style="stop-color:#99C0FF"/>
			<stop  offset="1" style="stop-color:#2B62BA"/>
		</linearGradient>
		<rect x="902.5" y="707.2" class="st105" width="95" height="694.7"/>
		
			<linearGradient id="SVGID_93_" gradientUnits="userSpaceOnUse" x1="1150.959" y1="1131.843" x2="1150.959" y2="1249.793" gradientTransform="matrix(0.9989 -4.680000e-02 -4.680000e-02 -0.9989 -145.6939 2081.9617)">
			<stop  offset="0" style="stop-color:#91D3F8"/>
			<stop  offset="1" style="stop-color:#D9F3FF"/>
		</linearGradient>
		<polygon class="st106" points="1226.3,867 626.6,895.1 655.8,827.9 620.8,771.8 1220.5,743.7 1271.2,807.6 		"/>
		
			<linearGradient id="SVGID_94_" gradientUnits="userSpaceOnUse" x1="1143.7682" y1="1254.0552" x2="1143.7682" y2="1136.1055" gradientTransform="matrix(0.9989 -4.680000e-02 -4.680000e-02 -0.9989 -145.6939 2081.9617)">
			<stop  offset="0" style="stop-color:#91D3F8"/>
			<stop  offset="0.9944" style="stop-color:#5A91F7"/>
		</linearGradient>
		<polygon class="st107" points="1219.6,877.7 619.9,905.8 649.1,838.6 614.1,782.5 1213.8,754.4 1264.4,818.3 		"/>
		
			<linearGradient id="SVGID_95_" gradientUnits="userSpaceOnUse" x1="1204.2634" y1="838.857" x2="1204.2634" y2="934.9606" gradientTransform="matrix(0.9989 -4.680000e-02 -4.680000e-02 -0.9989 -145.6939 2081.9617)">
			<stop  offset="0" style="stop-color:#91D3F8"/>
			<stop  offset="1" style="stop-color:#D9F3FF"/>
		</linearGradient>
		<polygon class="st108" points="1242.3,1162.8 753.6,1185.7 777.4,1131 748.9,1085.2 1237.6,1062.3 1278.8,1114.4 		"/>
		
			<linearGradient id="SVGID_96_" gradientUnits="userSpaceOnUse" x1="1198.4076" y1="938.4335" x2="1198.4076" y2="842.3298" gradientTransform="matrix(0.9989 -4.680000e-02 -4.680000e-02 -0.9989 -145.6939 2081.9617)">
			<stop  offset="0" style="stop-color:#91D3F8"/>
			<stop  offset="0.9944" style="stop-color:#5A91F7"/>
		</linearGradient>
		<polygon class="st109" points="1236.8,1171.5 748.2,1194.4 772,1139.7 743.5,1094 1232.1,1071.1 1273.4,1123.1 		"/>
		
			<linearGradient id="SVGID_97_" gradientUnits="userSpaceOnUse" x1="3553.543" y1="868.1453" x2="3553.543" y2="964.2491" gradientTransform="matrix(-0.9989 -4.680000e-02 4.680000e-02 -0.9989 4366.063 2081.9617)">
			<stop  offset="0" style="stop-color:#91D3F8"/>
			<stop  offset="1" style="stop-color:#D9F3FF"/>
		</linearGradient>
		<polygon class="st110" points="632.8,1023.6 1121.4,1046.5 1097.6,991.8 1126.1,946 637.5,923.1 596.2,975.2 		"/>
		
			<linearGradient id="SVGID_98_" gradientUnits="userSpaceOnUse" x1="3547.6821" y1="967.7219" x2="3547.6821" y2="871.6182" gradientTransform="matrix(-0.9989 -4.680000e-02 4.680000e-02 -0.9989 4366.063 2081.9617)">
			<stop  offset="0" style="stop-color:#91D3F8"/>
			<stop  offset="0.9944" style="stop-color:#5A91F7"/>
		</linearGradient>
		<polygon class="st111" points="638.2,1032.3 1126.9,1055.2 1103.1,1000.5 1131.6,954.8 642.9,931.8 601.7,983.9 		"/>
		<g>
			<path class="st39" d="M1077.7,800.5c-9.9,0.5-18.3-7.2-18.8-17.1c-0.5-9.9,7.2-18.3,17.1-18.8s18.3,7.2,18.8,17.1
				C1095.3,791.7,1087.6,800.1,1077.7,800.5L1077.7,800.5z M1076.3,771c-6.4,0.3-11.4,5.8-11.1,12.2c0.3,6.4,5.8,11.4,12.2,11.1
				c6.4-0.3,11.4-5.8,11.1-12.2C1088.2,775.6,1082.8,770.7,1076.3,771L1076.3,771z"/>
			<path class="st39" d="M1060.5,870.8L823.1,882c-14.9,0.7-27.6-10.8-28.3-25.7l-1.9-39.7c-0.7-14.9,10.8-27.6,25.7-28.3
				l228.5-10.8c1.8-0.1,3.2,1.3,3.3,3c0.1,1.8-1.3,3.2-3,3.3l-228.6,10.8c-11.4,0.5-20.2,10.2-19.7,21.6l1.9,39.7
				c0.5,11.4,10.2,20.2,21.6,19.7l237.4-11.2c5.5-0.3,10.6-2.7,14.3-6.7s5.6-9.4,5.4-14.9l-1.4-30.7c-0.1-1.8,1.3-3.2,3-3.3
				c1.8-0.1,3.2,1.3,3.3,3l1.4,30.7C1086.8,857.5,1075.4,870.1,1060.5,870.8L1060.5,870.8z"/>
			<g>
				<path class="st39" d="M826.1,837l-5.7-1l0.8-4.7l6,1l-0.2-4.7l4.8-0.2l0.2,4.7l5.9-1.6l1.3,4.6l-5.6,1.5l4,4.2l-3.5,3.4
					l-4.1-4.3l-3.7,4.6l-3.8-3L826.1,837z"/>
				<path class="st39" d="M870.2,834.9l-5.7-1l0.8-4.7l6,1l-0.2-4.7l4.8-0.2l0.2,4.7l5.9-1.6l1.3,4.6l-5.6,1.5l4,4.2l-3.5,3.4
					l-4.1-4.3l-3.7,4.6l-3.8-3L870.2,834.9z"/>
				<path class="st39" d="M914.3,832.8l-5.7-1l0.8-4.7l6,1l-0.2-4.7l4.8-0.2l0.2,4.7l5.9-1.6l1.3,4.6l-5.6,1.5l4,4.2l-3.5,3.4
					l-4.1-4.3l-3.7,4.6l-3.8-3L914.3,832.8z"/>
				<path class="st39" d="M958.4,830.8l-5.7-1l0.8-4.7l6,1l-0.2-4.7l4.8-0.2l0.2,4.7l5.9-1.6l1.3,4.6l-5.6,1.5l4,4.2l-3.5,3.4
					l-4.1-4.3l-3.7,4.6l-3.8-3L958.4,830.8z"/>
				<path class="st39" d="M1002.5,828.7l-5.7-1l0.8-4.7l6,1l-0.2-4.7l4.8-0.2l0.2,4.7l5.9-1.6l1.3,4.6l-5.6,1.5l4,4.2l-3.5,3.4
					l-4.1-4.3l-3.7,4.6l-3.8-3L1002.5,828.7z"/>
				<path class="st39" d="M1046.6,826.6l-5.7-1l0.8-4.7l6,1l-0.2-4.7l4.8-0.2l0.2,4.7l5.9-1.6l1.3,4.6l-5.6,1.5l4,4.2l-3.4,3.4
					l-4.1-4.3l-3.7,4.6l-3.8-3L1046.6,826.6z"/>
			</g>
		</g>
		<polygon class="st38" points="992.3,716.5 999.2,735.5 1018.1,742.3 999.2,749.2 992.3,768.2 985.5,749.2 966.5,742.3 
			985.5,735.5 		"/>
		<polygon class="st38" points="905.4,881.4 909.8,893.4 921.8,897.8 909.8,902.1 905.4,914.1 901.1,902.1 889.1,897.8 901.1,893.4 
					"/>
		<polygon class="st38" points="936.2,917.6 940.5,929.6 952.5,933.9 940.5,938.2 936.2,950.2 931.9,938.2 919.9,933.9 931.9,929.6 
					"/>
	</g>
</g>
<g id="暂无团队" class="st19">
	<g class="st20">
		
			<linearGradient id="SVGID_99_" gradientUnits="userSpaceOnUse" x1="1120.8025" y1="623.6948" x2="1120.8025" y2="378.6085" gradientTransform="matrix(1 0 0 -1 0 2000)">
			<stop  offset="0" style="stop-color:#5A91F7"/>
			<stop  offset="0.2039" style="stop-color:#A2C1FB;stop-opacity:0.8034"/>
			<stop  offset="0.9749" style="stop-color:#FFFFFF;stop-opacity:0.54"/>
		</linearGradient>
		<path class="st112" d="M1261.1,1664.4c-69.4,0.6-140-11.5-206.8-31.3c-19.9-5.1-39.5-10.8-59-17.4c-53.2-16-114.2-36.6-152.3-76.9
			c-14.5-15.3-28.7-36.1-17.6-58.1c11.8-23.3,41.8-31.6,65-37.7c-17.4-6.7-34.8-13.3-52.1-20c-7.4-3.6-24.1-10.6-22.8-19.7
			c1.2-8.7,19.3-10.6,27.5-10.3c10.2,0,20.3,0,30.5,0c5.1-1.6,11.7-2.4,19.5-2.4c65.2,0,130.4,0,195.5,0
			c17.7-0.2,37.7,3.4,52.5,11.3c5.9,3.1,22.5,10.8,17.6,21.5c-5.6,8.8-8.3,13.2-13.9,22.1c87.1,14.6,194.3,39.7,259,104.8l0,0
			c24,24,34.2,56.6,4.9,80.6C1369.9,1662.6,1307.8,1664.1,1261.1,1664.4z"/>
	</g>
	
		<linearGradient id="SVGID_100_" gradientUnits="userSpaceOnUse" x1="924.005" y1="618.5209" x2="924.005" y2="1125.1686" gradientTransform="matrix(1 0 0 -1 0 2000)">
		<stop  offset="0" style="stop-color:#5A91F7"/>
		<stop  offset="0.9019" style="stop-color:#2B62BA"/>
	</linearGradient>
	<path class="st113" d="M924.1,822c-131.6,0-238.4,106.7-238.4,238.3c0,98.7,60,183.4,145.5,219.7l-33.1,45.8
		c-9.7,13.1-11,30.6-3.5,45.1c7.3,14.6,22.3,23.8,38.6,23.6l182.5,0.1c16.3,0.2,31.3-9,38.6-23.6c7.6-14.4,6.2-31.9-3.4-45.1
		l-33.3-46.1c85.2-36.3,144.9-120.8,144.9-219.3c0,0,0,0,0,0C1162.4,928.8,1055.7,822,924.1,822z"/>
	
		<linearGradient id="SVGID_101_" gradientUnits="userSpaceOnUse" x1="1246.5096" y1="904.7437" x2="723.0088" y2="904.7437" gradientTransform="matrix(1 0 0 -1 0 2000)">
		<stop  offset="0" style="stop-color:#91D3F8"/>
		<stop  offset="0.9713" style="stop-color:#D9F3FF"/>
	</linearGradient>
	<path class="st114" d="M953.8,796c-137.6,0-249.2,111.5-249.3,249.1c0,103.2,62.7,191.8,152.1,229.7l-34.6,47.9
		c-10.1,13.7-11.5,32-3.6,47.1c7.6,15.3,23.3,24.9,40.3,24.7l190.8,0.1c17.1,0.2,32.7-9.4,40.3-24.7c7.9-15.1,6.5-33.4-3.6-47.1
		l-34.8-48.2c89-38,151.5-126.3,151.5-229.2c0,0,0,0,0,0C1202.9,907.6,1091.4,796,953.8,796z"/>
	
		<linearGradient id="减去_46_1_" gradientUnits="userSpaceOnUse" x1="985.3229" y1="601.3846" x2="985.3229" y2="724.7542" gradientTransform="matrix(1 2.672421e-04 2.672421e-04 -1 1.2736 1999.5111)">
		<stop  offset="0" style="stop-color:#99C0FF"/>
		<stop  offset="1" style="stop-color:#2B62BA"/>
	</linearGradient>
	<path id="减去_46" class="st115" d="M1086.8,1400l-200.1-0.1c-17.9,0.2-34.3-9.9-42.3-25.9c-8.3-15.8-6.8-35,3.8-49.4l39.6-54.7
		c31.4,12.9,65,19.5,99,19.4c34,0.1,67.6-6.5,99-19.4l39.5,54.7c10.6,14.4,12.1,33.6,3.8,49.4
		C1121.1,1390.1,1104.7,1400.2,1086.8,1400z"/>
	<path id="多边形_17" class="st116" d="M977.1,1295c1.9-5.3,7.8-8.1,13.2-6.2c2.9,1,5.2,3.3,6.2,6.2l13,36.3
		c1.9,5.4-0.9,11.2-6.3,13.1c-1.1,0.4-2.3,0.6-3.4,0.6l-26,0c-5.7,0-10.3-4.6-10.3-10.3c0-1.2,0.2-2.3,0.6-3.4L977.1,1295z"/>
	
		<linearGradient id="路径_203_1_" gradientUnits="userSpaceOnUse" x1="984.8032" y1="1193.7014" x2="984.8032" y2="702.3098" gradientTransform="matrix(1 2.672421e-04 2.672421e-04 -1 1.2736 1999.5111)">
		<stop  offset="0" style="stop-color:#91D3F8"/>
		<stop  offset="0.9944" style="stop-color:#5A91F7"/>
	</linearGradient>
	<path id="路径_203_00000093861615587177701910000007806908517755979929_" class="st117" d="M1247.7,1033.8
		c0,144.3-117.1,261.3-261.4,261.2S725,1177.9,725,1033.6c0-144.3,117.1-261.3,261.4-261.2C1130.7,772.4,1247.7,889.4,1247.7,1033.8
		C1247.7,1033.7,1247.7,1033.7,1247.7,1033.8"/>
	<g class="st41">
		<path class="st39" d="M822.2,937.2l-32.2,0v-18.1l87.3,0v18.1l-33.6,0l0,83.2l-21.6,0L822.2,937.2z"/>
		<path class="st39" d="M964.4,919.2v18.1l-28.1,0c-7.3,0-12.6,0.5-15.9,1.5s-6.1,3-8.3,5.9c-1.5,2-2.6,4-3.1,6.1
			c-0.6,2-1,5.5-1.5,10.3l57,0v18.1l-57,0c0.8,8.7,3.4,14.8,7.7,18.2s11.7,5.1,22.2,5.1l27,0v18.1l-28.1,0c-7.6,0-14.3-0.5-20-1.4
			c-9.1-1.5-16.3-5.5-21.7-12c-7.7-9.3-11.5-21.9-11.5-37.8c0-17.6,5.4-31.3,16.3-41.2c3.7-3.3,7.7-5.7,11.9-7s9.8-2,16.9-2
			L964.4,919.2z"/>
		<path class="st39" d="M971.5,1020.5l41.9-101.3l24.7,0l41.9,101.3l-25.2,0l-9.9-23.4l-38.4,0l-9.9,23.4L971.5,1020.5z
			 M1025.9,943.7l-14.4,35.4l28.9,0L1025.9,943.7z"/>
		<path class="st39" d="M1122,919.2l25.2,79.1l26.6-79.1l31.4,0l0,101.3l-20.5,0l0-75.9l-26.4,75.9l-22.2,0l-25-75.9l0,75.9l-20.5,0
			l0-101.3L1122,919.2z"/>
	</g>
	<path class="st116" d="M1105.6,1110.8c-4.6,10.8-11.1,20.6-19.4,28.8c-35.4,35.4-92.8,35.4-128.1,0c-8.3-8.2-14.9-18-19.4-28.8
		c-0.9-2.1-1.3-4.3-1.3-6.6c0-9.2,7.5-16.6,16.6-16.5c6.7,0,12.7,4,15.3,10.1c5.8,13.8,16.8,24.8,30.5,30.6c14.3,6,30.4,6,44.7,0
		c13.8-5.8,24.7-16.8,30.6-30.6c3.6-8.4,13.3-12.4,21.7-8.8c0,0,0.1,0,0.1,0C1105.3,1092.7,1109.2,1102.4,1105.6,1110.8z"/>
	<polygon class="st29" points="877.2,855.6 887.9,885.5 917.8,896.2 887.9,907 877.2,936.8 866.4,907 836.6,896.2 866.4,885.5 	"/>
</g>
<g id="暂无资讯" class="st19">
	<g class="st20">
		
			<linearGradient id="SVGID_102_" gradientUnits="userSpaceOnUse" x1="1069.2" y1="593.9022" x2="1069.2" y2="331.1981" gradientTransform="matrix(1 0 0 -1 0 2000)">
			<stop  offset="0" style="stop-color:#5A91F7"/>
			<stop  offset="0.2039" style="stop-color:#A2C1FB;stop-opacity:0.8034"/>
			<stop  offset="0.9749" style="stop-color:#FFFFFF;stop-opacity:0.54"/>
		</linearGradient>
		<path class="st118" d="M1129.1,1404.9c-108.2,0-216.4,0-324.6,0c-12.2,0.6-27.1,0.2-36.9,8.9c-11.5,3.5-15.9,9.6-10,16.5
			c60.5,70.7,121,141.3,181.5,212c16.1,16.9,48.4,19.7,70.2,19.8c108.2,0,216.4,0,324.6,0c12.2-0.6,27.1-0.2,36.9-8.9
			c11.5-3.5,15.9-9.6,10-16.5c-60.5-70.7-121-141.3-181.5-212C1183.2,1407.8,1150.9,1405,1129.1,1404.9z"/>
	</g>
	<g class="st41">
		
			<linearGradient id="SVGID_103_" gradientUnits="userSpaceOnUse" x1="956.095" y1="624.7083" x2="956.095" y2="1332.0701" gradientTransform="matrix(1 0 0 -1 0 2000)">
			<stop  offset="0" style="stop-color:#91D3F8"/>
			<stop  offset="0.9311" style="stop-color:#D9F3FF"/>
		</linearGradient>
		<path class="st119" d="M1148.2,1419.7H764c-22.5,0-40.8-18.3-40.8-40.8v-651c0-22.5,18.3-40.8,40.8-40.8h384.2
			c22.5,0,40.8,18.3,40.8,40.8v651C1189,1401.4,1170.7,1419.7,1148.2,1419.7z"/>
		
			<linearGradient id="SVGID_104_" gradientUnits="userSpaceOnUse" x1="739.9" y1="929.915" x2="1205.6501" y2="929.915" gradientTransform="matrix(1 0 0 -1 0 2000)">
			<stop  offset="0" style="stop-color:#5A91F7"/>
			<stop  offset="1" style="stop-color:#2B62BA"/>
		</linearGradient>
		<path class="st120" d="M1164.9,1436.4H780.7c-22.5,0-40.8-18.3-40.8-40.8v-651c0-22.5,18.3-40.8,40.8-40.8h384.2
			c22.5,0,40.8,18.3,40.8,40.8v651C1205.7,1418.1,1187.4,1436.4,1164.9,1436.4z"/>
		
			<linearGradient id="SVGID_105_" gradientUnits="userSpaceOnUse" x1="975.15" y1="1220.5575" x2="975.15" y2="605.9326" gradientTransform="matrix(1 0 0 -1 0 2000)">
			<stop  offset="0" style="stop-color:#91D3F8"/>
			<stop  offset="0.9944" style="stop-color:#5A91F7"/>
		</linearGradient>
		<path class="st121" d="M1139.8,1414.8H810.4c-22.5,0-40.8-18.3-40.8-40.8V770.8c0-22.5,18.3-40.8,40.8-40.8h329.4
			c22.5,0,40.8,18.3,40.8,40.8v603.3C1180.6,1396.6,1162.4,1414.8,1139.8,1414.8z"/>
		
			<linearGradient id="SVGID_106_" gradientUnits="userSpaceOnUse" x1="975.16" y1="654.033" x2="975.16" y2="608.0646" gradientTransform="matrix(1 0 0 -1 0 2000)">
			<stop  offset="0" style="stop-color:#91D3F8"/>
			<stop  offset="0.9944" style="stop-color:#5A91F7"/>
		</linearGradient>
		<circle class="st122" cx="975.2" cy="1367.9" r="25.6"/>
		<path class="st39" d="M1119.8,781.2H939c-11.3,0-20.4,9.1-20.4,20.4v46.2c0,11.3,9.1,20.4,20.4,20.4h139.3l8.9,15.4
			c3.7,6.4,12.9,6.4,16.6,0l8.9-15.4h7.1c11.3,0,20.4-9.1,20.4-20.4v-46.2C1140.1,790.4,1131,781.2,1119.8,781.2z"/>
		<g>
			<path class="st39" d="M1104.2,1216.3c-8.8,0-16-7.2-15.9-16.1c0-8.8,7.2-16,16.1-15.9c8.8,0,16,7.2,15.9,16.1
				C1120.2,1209.2,1113,1216.3,1104.2,1216.3L1104.2,1216.3z M1104.3,1190c-5.7,0-10.4,4.6-10.4,10.3c0,5.7,4.6,10.4,10.3,10.4
				c5.7,0,10.4-4.6,10.4-10.3C1114.6,1194.7,1110,1190,1104.3,1190L1104.3,1190z"/>
			<path class="st39" d="M1085.7,1278l-211.5-0.7c-13.3-0.1-24-10.8-24-24.1l0.1-35.4c0-13.3,10.8-24,24.1-24l203.6,0.7
				c1.6,0,2.8,1.3,2.8,2.8c0,1.6-1.3,2.8-2.8,2.8l-203.7-0.7c-10.2,0-18.4,8.2-18.5,18.3l-0.1,35.4c0,10.2,8.2,18.4,18.3,18.5
				l211.5,0.7c4.9,0,9.6-1.9,13-5.3c3.5-3.4,5.4-8.1,5.4-13l0.1-27.3c0-1.6,1.3-2.8,2.8-2.8c1.6,0,2.8,1.3,2.8,2.8l-0.1,27.3
				C1109.7,1267.3,1099,1278,1085.7,1278L1085.7,1278z"/>
			<g>
				<path class="st39" d="M878.9,1237.4l-5-1.1l1-4.2l5.3,1.2l0-4.2l4.3,0l0,4.2l5.3-1.1l0.9,4.2l-5,1.1l3.4,3.9l-3.2,2.8l-3.5-4
					l-3.5,3.9l-3.2-2.9L878.9,1237.4z"/>
				<path class="st39" d="M918.2,1237.5l-5-1.1l1-4.2l5.3,1.2l0-4.2l4.3,0l0,4.2l5.3-1.1l0.9,4.2l-5,1.1l3.4,3.9l-3.2,2.8l-3.5-4
					l-3.5,3.9l-3.2-2.9L918.2,1237.5z"/>
				<path class="st39" d="M957.5,1237.7l-5-1.1l1-4.2l5.3,1.2l0-4.2l4.3,0l0,4.2l5.3-1.1l0.9,4.2l-5,1.1l3.4,3.9l-3.2,2.8l-3.5-4
					l-3.5,3.9l-3.2-2.9L957.5,1237.7z"/>
				<path class="st39" d="M996.8,1237.8l-5-1.1l1-4.2l5.3,1.2l0-4.2l4.3,0l0,4.2l5.3-1.1l0.9,4.2l-5,1.1l3.4,3.9l-3.2,2.8l-3.5-4
					l-3.5,3.9l-3.2-2.9L996.8,1237.8z"/>
				<path class="st39" d="M1036.1,1237.9l-5-1.1l0.9-4.2l5.3,1.2l0-4.2l4.3,0l0,4.2l5.3-1.1l0.9,4.2l-5.1,1.1l3.4,3.9l-3.2,2.8
					l-3.5-4l-3.5,3.9l-3.2-2.9L1036.1,1237.9z"/>
				<path class="st39" d="M1075.4,1238.1l-5-1.1l0.9-4.2l5.3,1.2l0-4.2l4.3,0l0,4.2l5.3-1.1l0.9,4.2l-5.1,1.1l3.4,3.9l-3.2,2.8
					l-3.5-4l-3.5,3.9l-3.2-2.9L1075.4,1238.1z"/>
			</g>
		</g>
		<path class="st39" d="M1022,934.6H806.8c-2.8,0-5-2.2-5-5v-4.1c0-2.8,2.2-5,5-5H1022c2.8,0,5,2.2,5,5v4.1
			C1027,932.4,1024.8,934.6,1022,934.6z"/>
		<path class="st39" d="M902.9,966.8h-96.1c-2.8,0-5-2.2-5-5v-4.1c0-2.8,2.2-5,5-5h96.1c2.8,0,5,2.2,5,5v4.1
			C907.9,964.6,905.6,966.8,902.9,966.8z"/>
		
			<linearGradient id="SVGID_107_" gradientUnits="userSpaceOnUse" x1="937.64" y1="1189.125" x2="962.65" y2="1189.125" gradientTransform="matrix(1 0 0 -1 0 2000)">
			<stop  offset="0" style="stop-color:#91D3F8"/>
			<stop  offset="0.9944" style="stop-color:#5A91F7"/>
		</linearGradient>
		<path class="st123" d="M957.7,817.9h-15.1c-2.8,0-5-2.2-5-5v-4.1c0-2.8,2.2-5,5-5h15.1c2.8,0,5,2.2,5,5v4.1
			C962.7,815.7,960.4,817.9,957.7,817.9z"/>
		
			<linearGradient id="SVGID_108_" gradientUnits="userSpaceOnUse" x1="972.18" y1="1189.125" x2="997.1899" y2="1189.125" gradientTransform="matrix(1 0 0 -1 0 2000)">
			<stop  offset="0" style="stop-color:#91D3F8"/>
			<stop  offset="0.9944" style="stop-color:#5A91F7"/>
		</linearGradient>
		<path class="st124" d="M992.2,817.9h-15.1c-2.8,0-5-2.2-5-5v-4.1c0-2.8,2.2-5,5-5h15.1c2.8,0,5,2.2,5,5v4.1
			C997.2,815.7,995,817.9,992.2,817.9z"/>
		<path class="st39" d="M966,999H806.8c-2.8,0-5-2.2-5-5v-4.1c0-2.8,2.2-5,5-5H966c2.8,0,5,2.2,5,5v4.1C971,996.7,968.8,999,966,999
			z"/>
	</g>
</g>
<g id="暂无收藏" class="st19">
	<g class="st20">
		
			<linearGradient id="SVGID_109_" gradientUnits="userSpaceOnUse" x1="1081.0427" y1="-12668.2666" x2="1081.0427" y2="-12340.5166" gradientTransform="matrix(1 0 0 1 0 14064.8691)">
			<stop  offset="0" style="stop-color:#5A91F7"/>
			<stop  offset="0.2039" style="stop-color:#A2C1FB;stop-opacity:0.8034"/>
			<stop  offset="0.9749" style="stop-color:#FFFFFF;stop-opacity:0.54"/>
		</linearGradient>
		<path class="st125" d="M1406.5,1576c-2.1,2.7-7.7,4.5-15.9,4.5c-6.7,0-10.1,0-16.8,0c7.3,7.4,14.6,14.8,21.9,22.2
			c7.7,7.8,2.9,14.1-10.7,14.5c-2.5,0.9-5.8,1.4-9.8,1.4c-10,0-20,0-29.9,0c16.9,10.4,34.9,20.7,50.7,31.4
			c5.5,3.7,22.2,15.4,15.2,23.4c-7.8,8.7-26.4,5.2-38,3.5c-24.4-3.5-49.6-8-74.4-12.1c-7.1-1.2-11.6-0.8-14.5,1.3
			c-10.7,7.7-21.6,15.3-32.4,23c-4.4,3.1-9.9,5.5-20.2,5c-19.1-0.8-40.6-7-54.4-20.6c-9-8.8-17.8-18-26.7-27c-0.4,0.5-0.6,0.7-1,1.2
			c-2.1,2.6-6.8,4.1-13.1,4.2c-2.6,0.9-5.9,1.4-9.9,1.4c-48.3,0-96.6,0-144.8,0c-14,0.1-30-5.2-40.5-14.5
			c-63.2-63.8-126.4-127.7-189.6-191.5c-5-5-4.7-9.4-0.4-12c-0.8-2.6,0.8-4.9,4.3-6.4c1.4-3.3,7.3-5.5,16.6-5.5
			c143.3,0,286.7,0,430,0c13.2,0.3,27.8,3.3,38.1,12c57.1,43.2,114.1,86.3,171.2,129.5C1416.4,1570,1414,1574.2,1406.5,1576z"/>
	</g>
	
		<linearGradient id="SVGID_110_" gradientUnits="userSpaceOnUse" x1="979.9401" y1="554.2513" x2="979.9401" y2="1088.0952" gradientTransform="matrix(1 0 0 -1 0 2000)">
		<stop  offset="0.1766" style="stop-color:#2B62BA"/>
		<stop  offset="0.7862" style="stop-color:#91D3F8"/>
		<stop  offset="1" style="stop-color:#D9F3FF"/>
	</linearGradient>
	<path class="st126" d="M1217.8,1049.7H987.1c-1.5,0-3-0.6-4.1-1.7l-59.4-59.4c-5.4-5.5-12.8-8.5-20.5-8.5H742c-16,0-29,13-29,29
		v383c0,16,13,29,29,29h475.8c16,0,29-13,29-29v-313.3C1246.8,1062.7,1233.9,1049.7,1217.8,1049.7L1217.8,1049.7z"/>
	
		<linearGradient id="SVGID_111_" gradientUnits="userSpaceOnUse" x1="991.23" y1="1114.5751" x2="991.23" y2="580.7312" gradientTransform="matrix(1 0 0 -1 0 2000)">
		<stop  offset="0" style="stop-color:#5A91F7"/>
		<stop  offset="1" style="stop-color:#2B62BA"/>
	</linearGradient>
	<path class="st127" d="M1229.1,1052.5H998.4c-1.5,0-3-0.6-4.1-1.7l-59.4-59.4c-5.4-5.5-12.8-8.5-20.5-8.5H753.3c-16,0-29,13-29,29
		v383c0,16,13,29,29,29h475.8c16,0,29-13,29-29v-313.3C1258.1,1065.5,1245.2,1052.5,1229.1,1052.5L1229.1,1052.5z"/>
	<g class="st41">
		
			<linearGradient id="SVGID_112_" gradientUnits="userSpaceOnUse" x1="-2583.2698" y1="-1552.5356" x2="-2186.7629" y2="-1552.5356" gradientTransform="matrix(0.7071 0.7071 0.7071 -0.7071 3847.8333 1664.1785)">
			<stop  offset="0" style="stop-color:#91D3F8"/>
			<stop  offset="1" style="stop-color:#D9F3FF"/>
		</linearGradient>
		<path class="st128" d="M998.2,1278.4c-5.6-5-9.2-12-11.6-19.9c-7.1-23.4-14.7-46.7-21.6-70.3c-2.5-8.4-7.4-12.5-15.6-14.9
			c-23.5-6.8-46.9-14.1-70.2-21.6c-13.9-4.5-25.2-12.5-29.3-27.5c-5-18.3,0.9-33.7,17.6-45.6c20.2-14.4,40.3-29.1,60.9-42.9
			c7.1-4.8,9.4-10.2,9.2-18.3c-0.5-25.9-0.7-51.8-0.4-77.7c0.3-23.5,15.3-39.3,37.8-41.2c10.9-0.9,19.7,3.8,28,10
			c20.4,15.3,41,30.5,61.3,46c5.6,4.3,11,5,17.6,2.6c23.1-8.2,46.3-16,69.4-24.1c16.8-5.9,32.9-5.5,46.1,7.1
			c13.6,13,14.7,29.5,8.9,46.7c-7.9,23.2-15.7,46.4-24.1,69.4c-2.7,7.5-1.5,13.3,3.2,19.4c15,19.8,29.6,39.9,44.6,59.7
			c10.3,13.6,14.6,28.2,6.8,44.1c-7.9,16-22,23-39.5,22.8c-25.5-0.3-51.1-0.7-76.6-1.4c-6.9-0.2-11.6,1.7-15.8,7.7
			c-15.5,22.4-31.4,44.7-47.6,66.6C1042.3,1295.2,1016.4,1296.7,998.2,1278.4z"/>
	</g>
	
		<linearGradient id="SVGID_113_" gradientUnits="userSpaceOnUse" x1="-2454.2927" y1="-1515.2412" x2="-2394.239" y2="-1515.2412" gradientTransform="matrix(0.7071 0.7071 0.7071 -0.7071 3847.8333 1664.1785)">
		<stop  offset="0" style="stop-color:#91D3F8"/>
		<stop  offset="0.8519" style="stop-color:#5A91F7"/>
	</linearGradient>
	<path class="st129" d="M1086.5,1026.9c-16-12.2-32-12-48.3-0.5c-4.6,3.3-9.9,5.1-13.7-0.7c-3.7-5.7,0-9.7,4.5-13.2
		c21.1-16,50.2-15.6,68.5,2c2.7,2.9,5.2,7.2,1.7,12.1C1095.4,1031.9,1090.8,1030.2,1086.5,1026.9z"/>
	
		<linearGradient id="SVGID_114_" gradientUnits="userSpaceOnUse" x1="1015.2001" y1="478.8787" x2="1015.2001" y2="852" gradientTransform="matrix(1 0 0 -1 0 2000)">
		<stop  offset="0.1766" style="stop-color:#2B62BA"/>
		<stop  offset="0.7862" style="stop-color:#91D3F8"/>
		<stop  offset="1" style="stop-color:#D9F3FF"/>
	</linearGradient>
	<path class="st130" d="M801.1,1124.6c-16,0-29,10.7-29,24l-47.6,260.3c0,13.2,13,24,29,24h475.8c16,0,29-10.7,29-24l47.6-258.9
		c0-13.2-13-24-29-24l0,0"/>
	
		<linearGradient id="SVGID_115_" gradientUnits="userSpaceOnUse" x1="1025.075" y1="936.5131" x2="1025.075" y2="563.3918" gradientTransform="matrix(1 0 0 -1 0 2000)">
		<stop  offset="0" style="stop-color:#99C0FF"/>
		<stop  offset="1" style="stop-color:#2B62BA"/>
	</linearGradient>
	<path class="st131" d="M809.9,1131.6c-16.1,0-29.1,10.7-29.2,24l-47.8,260.3c0,13.2,13.1,24,29.2,24h478.1
		c16.1,0,29.1-10.7,29.2-24l47.8-258.9c0-13.2-13.1-24-29.2-24l0,0"/>
	
		<linearGradient id="SVGID_116_" gradientUnits="userSpaceOnUse" x1="1069.7637" y1="829.4244" x2="1069.7637" y2="560.7783" gradientTransform="matrix(1 3.116759e-03 3.116759e-03 -1 15.2059 1993.1466)">
		<stop  offset="0" style="stop-color:#91D3F8"/>
		<stop  offset="0.9944" style="stop-color:#5A91F7"/>
	</linearGradient>
	<path class="st132" d="M1150.3,1216.3c-134.7-0.4-247.5,94.4-274.7,221.1l364.2,1.1c16.1,0,29.2-10.7,29.2-23.9l29.2-155.5
		C1255.4,1232.2,1204.7,1216.5,1150.3,1216.3z"/>
</g>
</svg>
