<?xml version="1.0" encoding="utf-8"?>
<svg version="1.1" xmlns:xlink="http://www.w3.org/1999/xlink" width="20px" height="18px" xmlns="http://www.w3.org/2000/svg">
  <g transform="matrix(1 0 0 1 -1530 -169 )">
    <path d="M 19.4 2.664  C 19.3333333398438 1.674  18.5 0.848999993554687  17.5 1  L 2.5 1  C 1.5 0.848999993554687  0.66666666015625 1.674  1 2.664  L 1 13.158  C 0.66666666015625 14.148  1.5 14.9730000064453  2.5 14.9730000064453  L 7.6 14.9730000064453  L 9.66666666015625 17.019  C 9.76666666015625 17.118  9.9 17.1510000064453  10.0333333398438 17.1510000064453  C 10.1666666796875 17.1510000064453  10.3 17.118  10.4 17.019  L 12.4666666601563 14.9730000064453  L 17.5666666601563 14.9730000064453  C 18.5666666601563 14.9730000064453  19.4 14.148  19.4 13.158  L 19.4 2.664  Z M 7.13333333984375 8.76899999355469  C 7.133333359375 9.13199998710937  6.83333333984375 9.42899998710938  6.46666666015625 9.42900000644531  L 4.9 9.42900000644531  C 4.53333333984375 9.42900000644531  4.23333333984375 9.13200000644531  4.23333333984375 8.76899999355469  C 4.23333333984375 8.40599998066406  4.53333333984375 8.109  4.9 8.109  L 6.46666666015625 8.109  C 6.8333333203125 8.109  7.1333333203125 8.406  7.13333333984375 8.76899999355469  Z M 8.26666666015625 5.931  L 4.93333333984375 5.931  C 4.5666666796875 5.931  4.2666666796875 5.634  4.26666666015625 5.27100000644531  C 4.266666640625 4.90800001289063  4.56666666015625 4.61100001289063  4.93333333984375 4.61099999355469  L 8.26666666015625 4.61099999355469  C 8.6333333203125 4.61099999355469  8.9333333203125 4.90799999355469  8.93333333984375 5.27100000644531  C 8.933333359375 5.63400001933594  8.63333333984375 5.931  8.26666666015625 5.931  Z M 15.7666666601563 10.2210000064453  C 16.0666666601563 10.5510000128906  15.9333333203125 10.9470000128906  15.6 11.1120000064453  C 15.5 11.1450000128906  15.4 11.178  15.3 11.178  C 15.0666666601562 11.178  14.8333333398438 11.0459999935547  14.7 10.8150000064453  L 14 9.42900000644531  L 10.4 9.42900000644531  L 9.7 10.8150000064453  C 9.56666666015625 11.0460000128906  9.33333333984375 11.178  9.1 11.178  C 9 11.178  8.9 11.1449999935547  8.8 11.1120000064453  C 8.46666666015625 10.9470000128906  8.33333333984375 10.5510000128906  8.5 10.2210000064453  L 11.6 4.11599999355469  C 11.6 4.08299998710937  11.6333333398438 4.08299998710937  11.6333333398438 4.05  L 11.6666666601563 4.01699999355469  L 11.7 3.98400000644531  L 11.7333333398438 3.951  L 11.7666666601563 3.91799999355469  C 11.8 3.91799999355469  11.8 3.88499998710937  11.8333333398438 3.88500000644531  L 11.8666666601563 3.88500000644531  C 11.9 3.88500000644531  11.9 3.852  11.9333333398438 3.852  L 12.3333333398438 3.852  C 12.3666666796875 3.852  12.3666666796875 3.852  12.4 3.88500000644531  L 12.4333333398438 3.88500000644531  C 12.4666666796875 3.88500000644531  12.4666666796875 3.91800001289062  12.5 3.91799999355469  L 12.5333333398438 3.951  C 12.5666666796875 3.951  12.5666666796875 3.98400000644531  12.5666666601563 3.98400000644531  L 12.6 4.01699999355469  L 12.6333333398438 4.05  C 12.6333333398438 4.08300000644531  12.6666666796875 4.08300000644531  12.6666666601563 4.11599999355469  L 15.7666666601563 10.2210000064453  Z " fill-rule="nonzero" fill="#3377ff" stroke="none" transform="matrix(1 0 0 1 1530 169 )" />
  </g>
</svg>