<?xml version="1.0" encoding="utf-8"?>
<svg version="1.1" xmlns:xlink="http://www.w3.org/1999/xlink" width="16px" height="16px" xmlns="http://www.w3.org/2000/svg">
  <g transform="matrix(1 0 0 1 -1323 -78 )">
    <path d="M 5.866666671875 4.933333328125  L 2.266666671875 1.333333328125  L 4.666666671875 1.333333328125  C 5.066666671875 1.333333328125  5.33333334375 1.06666665625  5.333333328125 0.666666671875  C 5.3333333125 0.2666666875  5.066666671875 0  4.666666671875 0  L 0.533333328125 0  C 0.4 0  0.266666671875 0.133333328125  0.133333328125 0.266666671875  C 0 0.4  0 0.533333328125  0 0.666666671875  L 0 4.666666671875  C 0 5.066666671875  0.266666671875 5.33333334375  0.666666671875 5.333333328125  C 1.066666671875 5.3333333125  1.33333334375 5.06666665625  1.333333328125 4.666666671875  L 1.333333328125 2.266666671875  L 4.933333328125 5.866666671875  C 5.2 6.13333334375  5.6 6.13333334375  5.866666671875 5.866666671875  C 6.13333334375 5.6  6.13333334375 5.2  5.866666671875 4.933333328125  Z M 5.866666671875 10.133333328125  C 5.6 9.86666665625  5.2 9.86666665625  4.933333328125 10.133333328125  L 2.533333328125 12.533333328125  L 1.333333328125 13.733333328125  L 1.333333328125 11.333333328125  C 1.333333328125 10.933333328125  1.066666671875 10.666666671875  0.666666671875 10.666666671875  C 0.266666671875 10.666666671875  0 10.93333334375  0 11.333333328125  L 0 15.333333328125  C 0 15.733333328125  0.266666671875 16  0.666666671875 16  L 4.666666671875 16  C 5.066666671875 16  5.33333334375 15.733333328125  5.333333328125 15.333333328125  C 5.3333333125 14.933333328125  5.06666665625 14.66666665625  4.666666671875 14.666666671875  L 2.266666671875 14.666666671875  L 3.466666671875 13.466666671875  L 5.866666671875 11.066666671875  C 6.13333334375 10.8  6.13333334375 10.4  5.866666671875 10.133333328125  Z M 16 11.333333328125  C 16 10.933333328125  15.733333328125 10.66666665625  15.333333328125 10.666666671875  C 14.933333328125 10.666666671875  14.66666665625 10.93333334375  14.666666671875 11.333333328125  L 14.666666671875 13.733333328125  L 13.466666671875 12.533333328125  L 11.066666671875 10.133333328125  C 10.8 9.86666665625  10.4 9.86666665625  10.133333328125 10.133333328125  C 9.86666665625 10.4  9.86666665625 10.8  10.133333328125 11.066666671875  L 12.533333328125 13.466666671875  L 13.733333328125 14.666666671875  L 11.333333328125 14.666666671875  C 10.933333328125 14.666666671875  10.66666665625 14.93333334375  10.666666671875 15.333333328125  C 10.6666666875 15.7333333125  10.93333334375 16  11.333333328125 16  L 15.333333328125 16  C 15.733333328125 16  16 15.733333328125  16 15.333333328125  L 16 11.333333328125  Z M 16 0.666666671875003  C 16 0.266666671875003  15.733333328125 0  15.333333328125 0  L 11.333333328125 0  C 10.933333328125 0  10.66666665625 0.266666671875002  10.666666671875 0.666666671875002  C 10.6666666875 1.066666671875  10.93333334375 1.33333334375  11.333333328125 1.333333328125  L 13.733333328125 1.333333328125  L 12.533333328125 2.533333328125  L 10.133333328125 4.933333328125  C 9.86666665625 5.2  9.86666665625 5.6  10.133333328125 5.866666671875  C 10.4 6.13333334375  10.8 6.13333334375  11.066666671875 5.866666671875  L 13.466666671875 3.466666671875  L 14.666666671875 2.266666671875  L 14.666666671875 4.666666671875  C 14.666666671875 5.066666671875  14.93333334375 5.33333334375  15.333333328125 5.333333328125  C 15.7333333125 5.3333333125  16 5.06666665625  16 4.666666671875  L 16 0.666666671875003  Z " fill-rule="nonzero" fill="#3377ff" stroke="none" transform="matrix(1 0 0 1 1323 78 )" />
  </g>
</svg>