<?xml version="1.0" encoding="utf-8"?>
<svg version="1.1" xmlns:xlink="http://www.w3.org/1999/xlink" width="18px" height="18px" xmlns="http://www.w3.org/2000/svg">
  <g transform="matrix(1 0 0 1 -1322 -77 )">
    <path d="M 0.750000005859375 5.99999999414063  C 0.750000005859375 6.44999999414063  1.05000001171875 6.75  1.49999999414063 6.75  C 1.94999999414062 6.75  2.25 6.44999999414063  2.25 5.99999999414062  L 2.25 2.25  L 5.99999999414063 2.25  C 6.44999999414063 2.25  6.75 1.94999999414062  6.75 1.49999999414063  C 6.75 1.04999999414063  6.44999999414063 0.74999998828125  5.99999999414063 0.750000005859375  L 1.49999999414063 0.750000005859375  C 1.04999999414062 0.750000005859375  0.74999998828125 1.05000001171875  0.750000005859375 1.49999999414063  L 0.750000005859375 5.99999999414063  Z M 17.2499999941406 12.0000000058594  C 17.2499999941406 11.5500000058594  16.9499999882812 11.25  16.5000000058594 11.25  C 16.0500000058594 11.25  15.75 11.5500000058594  15.75 12.0000000058594  L 15.75 15.75  L 12.0000000058594 15.75  C 11.5500000058594 15.75  11.25 16.0500000058594  11.25 16.5000000058594  C 11.25 16.9500000058594  11.5500000058594 17.2500000117187  12.0000000058594 17.2499999941406  L 16.5000000058594 17.2499999941406  C 16.9500000058594 17.2499999941406  17.2500000117187 16.9499999882812  17.2499999941406 16.5000000058594  L 17.2499999941406 12.0000000058594  Z M 10.4999999941406 6.75  C 10.4999999941406 6.82500000585937  10.4999999941406 6.975  10.575 7.05000000585938  C 10.6500000058594 7.2  10.8 7.35000001171875  10.9499999941406 7.425  C 11.025 7.50000000585937  11.1749999941406 7.50000000585937  11.25 7.50000000585937  L 15.75 7.50000000585937  C 16.2 7.50000000585937  16.5000000058594 7.2  16.5000000058594 6.75  C 16.5000000058594 6.3  16.2 5.99999999414062  15.75 5.99999999414062  L 13.05 5.99999999414062  L 17.0249999941406 2.025  C 17.325 1.72499999414062  17.325 1.27499999414062  17.0249999941406 0.975000005859374  C 16.875 0.825000011718749  16.7249999882813 0.750000005859374  16.5000000058594 0.750000005859374  C 16.2750000234375 0.750000005859374  16.1250000117188 0.825000011718749  15.975 0.975000005859374  L 12.0000000058594 4.95  L 12.0000000058594 2.25  C 12.0000000058594 1.8  11.7 1.49999999414063  11.25 1.49999999414063  C 10.8 1.49999999414063  10.4999999941406 1.8  10.4999999941406 2.25  L 10.4999999941406 6.75  Z M 0.975000005859376 17.0249999941406  C 1.27500001171875 17.3249999824219  1.72500001171875 17.325  2.025 17.0249999941406  L 5.99999999414062 13.05  L 5.99999999414062 15.75  C 5.99999999414062 16.2  6.3 16.5000000058594  6.75 16.5000000058594  C 7.2 16.5000000058594  7.50000000585938 16.2  7.50000000585938 15.75  L 7.50000000585938 11.25  C 7.50000000585938 11.1749999941406  7.50000000585938 11.025  7.425 10.9499999941406  C 7.34999999414063 10.8  7.2 10.6499999882812  7.05000000585938 10.575  C 6.975 10.4999999941406  6.82500000585938 10.4999999941406  6.75 10.4999999941406  L 2.25 10.4999999941406  C 1.8 10.4999999941406  1.49999999414063 10.8  1.49999999414063 11.25  C 1.49999999414063 11.7  1.8 12.0000000058594  2.25 12.0000000058594  L 4.95 12.0000000058594  L 0.975000005859376 15.975  C 0.675000000000001 16.2750000058594  0.675000000000001 16.7250000058594  0.975000005859376 17.0249999941406  Z " fill-rule="nonzero" fill="#3377ff" stroke="none" transform="matrix(1 0 0 1 1322 77 )" />
  </g>
</svg>