<svg width="85.000000" height="40.704102" viewBox="0 0 85 40.7041" fill="none" xmlns="http://www.w3.org/2000/svg" xmlns:xlink="http://www.w3.org/1999/xlink">
	<desc>
			Created with Pixso.
	</desc>
	<g id="编组 12">
		<g id="组合 8">
			<g id="路径 7备份 6">
				<path d="M21 18.7041L85 18.7041" stroke="#1890FF" stroke-dasharray="4 4"/>
			</g>
			<g id="矩形 2">
				<path d="M4 0.704102L30.3433 0.704102C33.9067 0.704102 35.6914 5.0127 33.1714 7.53253L20 20.7041L6.82861 33.8757C4.30859 36.3955 0 34.6108 0 31.0472L0 4.7041C0 2.49493 1.79102 0.704102 4 0.704102Z" fill-rule="evenodd" fill="#1890FF"/>
			</g>
			<g id="L1">
				<path d="M12.1631 13.7041L6.0127 13.7041L6.0127 4.42065L7.25 4.42065L7.25 12.6631L12.1631 12.6631L12.1631 13.7041ZM16.0112 4.4873L16.8555 4.4873L16.8555 13.7041L15.751 13.7041L15.751 7.09937L13.3579 7.09937L13.3579 6.21704C14.6211 6.21704 15.7637 5.87744 16.0112 4.4873Z" fill="#FFFFFFFF"/>
			</g>
		</g>
	</g>
	<defs/>
</svg>
