<?xml version="1.0" encoding="utf-8"?>
<!-- Generator: Adobe Illustrator 26.0.1, SVG Export Plug-In . SVG Version: 6.00 Build 0)  -->
<svg version="1.1" id="图层_1" xmlns="http://www.w3.org/2000/svg" xmlns:xlink="http://www.w3.org/1999/xlink" x="0px" y="0px"
	 viewBox="0 0 28 25" style="enable-background:new 0 0 28 25;" xml:space="preserve">
<style type="text/css">
	.st0{fill:#3377FF;}
	.st1{fill:#FF6868;}
	.st2{fill:#41398C;}
</style>
<g transform="matrix(1 0 0 1 -371 -101 )">
	<path class="st0" d="M399,118.9v3.4h-28v-3.4H399z"/>
</g>
<g transform="matrix(1 0 0 1 -382 -98 )">
	<path class="st1" d="M397.9,112.2L397.9,112.2L398,123h-11v-10.8H397.9z"/>
</g>
<g transform="matrix(1 0 0 1 -382 -101 )">
	<path class="st2" d="M398,118.9v3.4h-11v-3.4H398z"/>
</g>
<g transform="matrix(1 0 0 1 -371 -101 )">
	<path class="st0" d="M399,104.7v3.4h-28v-3.4H399z"/>
</g>
<g transform="matrix(1 0 0 1 -382 -98 )">
	<path class="st1" d="M404.9,98L404.9,98l0.1,10.8h-11V98H404.9z"/>
</g>
<g transform="matrix(1 0 0 1 -382 -101 )">
	<path class="st2" d="M405,104.7v3.4h-11v-3.4H405z"/>
</g>
</svg>
