<svg width="24.000000" height="53.216522" viewBox="0 0 24 53.2165" fill="none" xmlns="http://www.w3.org/2000/svg" xmlns:xlink="http://www.w3.org/1999/xlink">
	<desc>
			Created with Pixso.
	</desc>
	<g clip-path="url(#clip131_1)">
		<path id="图象www.tuuux.com8" d="M20.1814 26.002L12.0954 28.4592L12.0954 48.3064L23.0024 27.1369L20.1814 26.002Z" fill-rule="evenodd" fill="#F8BD3D"/>
		<path id="图象www.tuuux.com9" d="M1.00082 27.1361L4.00945 26.002L12.0954 28.4592L12.0954 48.4946L1.00082 27.1361Z" fill-rule="evenodd" fill="#FDA00E"/>
		<path id="图象www.tuuux.com10" d="M7.21021 43.3154C7.99319 43.0208 8.85754 42.7903 9.78001 42.6372L9.86191 43.1304C8.97873 43.2771 8.15352 43.4947 7.38628 43.7834L7.21021 43.3154ZM3.93202 45.4248C4.45734 44.8224 5.17516 44.2836 6.03987 43.8344L6.27036 44.2782C5.44768 44.7055 4.79385 45.1973 4.30887 45.7534L3.93202 45.4248ZM3.21933 49.0894C3.0442 48.6801 2.9514 48.2527 2.9514 47.8129C2.9514 47.3732 3.0442 46.9457 3.21931 46.5365L3.679 46.7332C3.52727 47.0878 3.4514 47.4477 3.4514 47.8129C3.4514 48.1782 3.52727 48.5381 3.679 48.8926L3.21933 49.0894ZM6.04004 51.7908C5.17531 51.3418 4.45744 50.8032 3.9321 50.2009L4.3089 49.8722C4.79388 50.4283 5.44774 50.9199 6.27046 51.3471L6.04004 51.7908ZM9.78015 52.9876C8.8577 52.8345 7.99338 52.6042 7.2104 52.3097L7.3864 51.8417C8.15363 52.1302 8.97884 52.3478 9.86201 52.4944L9.78015 52.9876ZM13.8172 53.1484C13.3712 53.1848 12.9152 53.2037 12.4515 53.2037C11.9877 53.2037 11.5318 53.1848 11.0858 53.1484L11.1265 52.6501C11.5641 52.6858 12.0058 52.7037 12.4515 52.7037C12.8972 52.7037 13.3389 52.6858 13.7765 52.6501L13.8172 53.1484ZM17.6926 52.3099C16.9097 52.6043 16.0453 52.8346 15.1228 52.9877L15.041 52.4944C15.9242 52.3479 16.7495 52.1304 17.5167 51.8419L17.6926 52.3099ZM20.9709 50.201C20.4456 50.8034 19.7278 51.342 18.863 51.791L18.6326 51.3473C19.4553 50.9201 20.1091 50.4285 20.5941 49.8724L20.9709 50.201ZM21.6836 46.5364C21.8586 46.9456 21.9514 47.3731 21.9514 47.8129C21.9514 48.2527 21.8586 48.6803 21.6835 49.0895L21.2238 48.8928C21.3755 48.5382 21.4514 48.1783 21.4514 47.8129C21.4514 47.4476 21.3755 47.0876 21.2238 46.733L21.6836 46.5364ZM18.8632 43.8343C19.7279 44.2834 20.4457 44.8222 20.971 45.4246L20.5941 45.7532C20.1092 45.1971 19.4554 44.7053 18.6327 44.278L18.8632 43.8343ZM15.123 42.6371C16.0455 42.7903 16.9098 43.0207 17.6928 43.3152L17.5168 43.7832C16.7495 43.4946 15.9243 43.277 15.0411 43.1304L15.123 42.6371ZM13.8173 42.4763L13.7765 42.9746C13.3389 42.9389 12.8972 42.921 12.4515 42.921C12.0058 42.921 11.5641 42.9389 11.1264 42.9747L11.0857 42.4763C11.5317 42.4398 11.9877 42.421 12.4515 42.421C12.9153 42.421 13.3713 42.4398 13.8173 42.4763Z" fill-rule="evenodd" fill="#FFD67E"/>
		<path id="图象www.tuuux.com11" d="M12.0954 31.6725L12.0954 48.4946L1.00082 27.1357L12.0954 31.6725Z" fill-rule="evenodd" fill="#FFD67E"/>
		<path id="图象www.tuuux.com11" d="M1.00082 27.1357L12.0954 31.6725L12.0954 48.4946L1.00082 27.1357ZM11.5954 46.4473L11.5954 32.0082L2.07248 28.1141L11.5954 46.4473Z" fill-rule="evenodd" fill="#FFE19E"/>
		<path id="图象www.tuuux.com12" d="M12.0954 31.6725L12.0954 48.3056L23.0024 27.3251L12.0954 31.6725Z" fill-rule="evenodd" fill="#F7B500"/>
		<path id="图象www.tuuux.com12" d="M23.0024 27.3251L12.0954 31.6725L12.0954 48.3056L23.0024 27.3251ZM12.5954 46.2598L21.9386 28.2874L12.5954 32.0115L12.5954 46.2598Z" fill-rule="evenodd" fill="#FBD264"/>
	</g>
	<circle id="椭圆 1" cx="12.000000" cy="12.000000" r="12.000000" fill="#F7B500" fill-opacity="0.39"/>
	<circle id="椭圆 1" cx="12.000000" cy="12.000000" r="11.000000" stroke="#F7B500" stroke-width="2.000000"/>
	<defs>
		<clipPath id="clip131_1">
			<rect id="图象www.tuuux.com13" width="22.000000" height="27.216515" transform="translate(1.000000 26.000000)" fill="white"/>
		</clipPath>
	</defs>
</svg>
