<?xml version="1.0" encoding="utf-8"?>
<svg version="1.1" xmlns:xlink="http://www.w3.org/1999/xlink" width="15px" height="13px" xmlns="http://www.w3.org/2000/svg">
  <g transform="matrix(1 0 0 1 -416 -147 )">
    <path d="M 14.9920212765957 12.4944444444444  C 15 12.2055555555556  14.7686170212766 12.020987654321  14.4893617021277 12.020987654321  L 13.906914893617 12.020987654321  L 13.906914893617 4.99938271604938  C 13.906914893617 3.89197530864198  13.093085106383 3.07345679012346  11.9920212765957 3.07345679012346  L 8.92021276595745 3.07345679012346  L 8.92021276595745 1.99012345679012  C 8.92021276595745 0.882716049382716  8.09840425531915 0.0641975308641976  7.00531914893617 0.0641975308641976  L 3.01595744680851 0.0641975308641976  C 1.91489361702128 0.0641975308641976  1.10106382978723 0.890740740740741  1.10106382978723 1.99012345679012  L 1.10106382978723 12.020987654321  L 0.518617021276595 12.020987654321  C 0.239361702127659 12.020987654321  0.0159574468085103 12.2135802469136  0.0159574468085103 12.4944444444444  C 0.0159574468085103 12.7753086419753  0.239361702127659 12.9438271604938  0.518617021276595 13  L 14.4813829787234 13  C 14.7606382978723 12.9438271604938  14.9920212765957 12.7753086419753  14.9920212765957 12.4944444444444  Z M 8.00265957446809 1.99012345679012  L 8.00265957446809 2.99320987654321  L 8.00265957446809 12.020987654321  L 2 12.020987654321  L 2 1.99012345679012  C 2.0186170212766 1.43641975308642  2.46542553191489 0.987037037037036  3.01595744680851 0.987037037037036  L 7.00531914893617 0.987037037037036  C 7.55585106382979 0.987037037037036  8.00265957446809 1.43641975308642  8.00265957446809 1.99012345679012  Z M 12.9893617021277 4.99938271604938  L 12.9893617021277 12.020987654321  L 8.92021276595745 12.020987654321  L 8.92021276595745 3.9962962962963  L 11.9920212765957 3.9962962962963  C 12.5425531914894 3.9962962962963  12.9893617021277 4.44567901234568  12.9893617021277 4.99938271604938  Z " fill-rule="nonzero" fill="#47b2ff" stroke="none" transform="matrix(1 0 0 1 416 147 )" />
  </g>
</svg>