<?xml version="1.0" standalone="no"?><!DOCTYPE svg PUBLIC "-//W3C//DTD SVG 1.1//EN" "http://www.w3.org/Graphics/SVG/1.1/DTD/svg11.dtd"><svg t="1641889252899" class="icon" viewBox="0 0 1024 1024" version="1.1" xmlns="http://www.w3.org/2000/svg" p-id="7784" xmlns:xlink="http://www.w3.org/1999/xlink" width="512" height="512"><defs><style type="text/css"></style></defs><path d="M0 512C0 229.236364 229.236364 0 512 0s512 229.236364 512 512a512 512 0 1 1-1024 0z m843.741091 312.168727c-41.611636-49.978182-130.315636-94.626909-211.723636-121.681454-5.096727-1.605818-37.003636-16.186182-17.105455-77.230546h-0.290909c52.096-53.899636 91.904-140.683636 91.904-226.152727 0-131.432727-86.912-200.215273-187.810909-200.215273-101.015273 0-187.426909 68.887273-187.426909 200.215273 0 85.771636 39.610182 172.962909 92.008727 226.757818 20.410182 53.899636-16.093091 73.809455-23.703273 76.625455-80.907636 29.358545-172.613818 77.335273-211.211636 129.314909 81.605818 85.876364 196.619636 139.473455 324.130909 139.473454 131.211636 0 249.216-56.715636 331.229091-147.106909z" p-id="7785" fill="#96d4f3"></path></svg>