<?xml version="1.0" standalone="no"?><!DOCTYPE svg PUBLIC "-//W3C//DTD SVG 1.1//EN" "http://www.w3.org/Graphics/SVG/1.1/DTD/svg11.dtd"><svg class="icon" width="200px" height="200.00px" viewBox="0 0 1024 1024" version="1.1" xmlns="http://www.w3.org/2000/svg"><path d="M512 493.8c-8.5 0-17.1 7.1-17.1 15.5l5.6 76.3c1.4 4.2 7.2 7.1 11.5 7.1 4.2 0 10.1-2.8 11.5-7.1l5.6-77.7c0-8.4-10-14.1-17.1-14.1z" fill="#F3A465" /><path d="M514.1 228.6h-5.3c-158.7 0-288.5 117-288.5 260v371.1l582.2 1.4V488.6c0.1-143-129.7-260-288.4-260z m169.7 470.6c-3 3.8-7.4 5.8-11.8 5.8-3.2 0-6.5-1-9.2-3.2l-64.6-50.5c-22.3 21.5-52.7 34.7-86.1 34.7-68.5 0-124.1-55.5-124.1-124.1S443.5 438 512 438s124.1 55.5 124.1 124c0 24.3-7 46.9-19 66l64.1 50.1c6.5 5.1 7.7 14.6 2.6 21.1z" fill="#F3A465" /><path d="M513 602.8c-8.5 0-14.1 5.6-14.1 14.1S504.5 631 513 631s14.1-5.6 14.1-14.1-5.6-14.1-14.1-14.1zM861.5 928h-700c-22 0-40-18-40-40s18-40 40-40h700c22 0 40 18 40 40s-18 40-40 40z" fill="#F3A465" /></svg>