<?xml version="1.0" standalone="no"?><!DOCTYPE svg PUBLIC "-//W3C//DTD SVG 1.1//EN" "http://www.w3.org/Graphics/SVG/1.1/DTD/svg11.dtd"><svg class="icon" width="200px" height="200.00px" viewBox="0 0 1024 1024" version="1.1" xmlns="http://www.w3.org/2000/svg"><path d="M200.533 162.133h4.267c14.933 0 27.733-12.8 27.733-27.733V76.8c0-14.933-12.8-27.733-27.733-27.733h-4.267c-14.933 0-27.733 12.8-27.733 27.733v57.6c0 14.933 12.8 27.733 27.733 27.733z m448 0h4.267c14.933 0 27.733-12.8 27.733-27.733V76.8c0-14.933-12.8-27.733-27.733-27.733h-4.267c-14.933 0-27.733 12.8-27.733 27.733v57.6c0 14.933 10.667 27.733 27.733 27.733z m-147.2 584.534c0-160 130.134-288 288-288 23.467 0 44.8 2.133 66.134 8.533V341.333H0V896c0 42.667 34.133 78.933 78.933 78.933H614.4C546.133 921.6 501.333 838.4 501.333 746.667zM384 772.267H142.933c-17.066 0-29.866-12.8-29.866-29.867s12.8-29.867 29.866-29.867H384c17.067 0 29.867 12.8 29.867 29.867S398.933 772.267 384 772.267z m0-172.8H142.933c-17.066 0-29.866-12.8-29.866-29.867s12.8-29.867 29.866-29.867H384c17.067 0 29.867 12.8 29.867 29.867S398.933 599.467 384 599.467z" fill="#E77556" /><path d="M851.2 187.733c0-42.666-36.267-78.933-78.933-78.933h-34.134v29.867c0 49.066-40.533 87.466-87.466 87.466-49.067 0-89.6-40.533-89.6-89.6V108.8h-268.8v29.867c0 49.066-40.534 87.466-87.467 87.466s-89.6-40.533-89.6-89.6V108.8H78.933C34.133 108.8 0 142.933 0 185.6v93.867h851.2v-91.734zM791.467 512c-128 0-232.534 104.533-232.534 232.533s104.534 232.534 232.534 232.534S1024 870.4 1024 744.533C1024 616.533 919.467 512 791.467 512z m119.466 260.267H793.6c-17.067 0-29.867-12.8-29.867-29.867V625.067c0-17.067 12.8-29.867 29.867-29.867s29.867 12.8 29.867 29.867v87.466h87.466c17.067 0 29.867 12.8 29.867 29.867s-14.933 29.867-29.867 29.867z" fill="#E77556" /></svg>