<?xml version="1.0" encoding="utf-8"?>
<svg version="1.1" xmlns:xlink="http://www.w3.org/1999/xlink" width="28px" height="28px" xmlns="http://www.w3.org/2000/svg">
  <g transform="matrix(1 0 0 1 -415 -270 )">
    <path d="M 2.77818674395161 15.2036974546371  L 9.66424710181451 15.2036974546371  C 11.1941960685484 15.2036974546371  12.4344953377016 16.4432055191532  12.4344953377016 17.9722256804436  L 12.4344953377016 24.8539860131048  C 12.4344953377016 26.3829717741935  11.1941960685484 27.6224798387097  9.66424710181452 27.6224798387097  L 2.77818674395161 27.6224798387097  C 1.24823777721774 27.6224798387097  0.00793850806451613 26.3829717741935  0.00793850806451613 24.8539516129032  L 0.00793850806451613 17.9721912802419  C 0.00793850806451613 16.4432055191532  1.24823777721774 15.2036974546371  2.77818674395161 15.2036974546371  Z M 17.9749918094758 15.2036974546371  L 24.8610521673387 15.2036974546371  C 26.3910011340726 15.2036974546371  27.6313004032258 16.4432055191532  27.6313004032258 17.9722256804436  L 27.6313004032258 24.8539860131048  C 27.6313004032258 26.3829373739919  26.3910011340726 27.6224798387097  24.8610521673387 27.6224798387097  L 17.9749918094758 27.6224798387097  C 16.4450428427419 27.6224798387097  15.2047435735887 26.3829717741935  15.2047435735887 24.8539516129032  L 15.2047435735887 17.9721912802419  C 15.2047435735887 16.4432055191532  16.4450428427419 15.2036974546371  17.9749918094758 15.2036974546371  Z M 15.2047435735887 6.62129435483871  C 15.2047435735887 3.19193825604839  17.9865158770161 0.411920362903226  21.4180391885081 0.411920362903226  C 24.8495280997984 0.411920362903226  27.6313004032258 3.19197265625  27.6313004032258 6.62129435483871  C 27.6313004032258 10.050650453629  24.8495280997984 12.8307027469758  21.4180391885081 12.8307027469758  C 17.9865158770161 12.8307027469758  15.2047435735887 10.050650453629  15.2047435735887 6.62129435483871  Z M 2.77818674395161 0.411920362903226  L 9.66424710181452 0.411920362903226  C 11.1941960685484 0.411920362903226  12.4344953377016 1.65142842741935  12.4344953377016 3.18044858870968  L 12.4344953377016 10.062208921371  C 12.4344953377016 11.5911946824597  11.1941960685484 12.8307027469758  9.66424710181452 12.8307027469758  L 2.77818674395161 12.8307027469758  C 1.24823777721774 12.8307027469758  0.00793850806451613 11.5911946824597  0.00793850806451613 10.0621745211694  L 0.00793850806451613 3.18044858870968  C 0.00793850806451613 1.65146282762097  1.24823777721774 0.411920362903226  2.77818674395161 0.411920362903226  Z " fill-rule="nonzero" fill="#298a7e" stroke="none" transform="matrix(1 0 0 1 415 270 )" />
  </g>
</svg>