<svg width="40.000000" height="40.704102" viewBox="0 0 40 40.7041" fill="none" xmlns="http://www.w3.org/2000/svg" xmlns:xlink="http://www.w3.org/1999/xlink">
	<desc>
			Created with Pixso.
	</desc>
	<g id="编组 52">
		<g id="编组 3备份 18">
			<g id="矩形">
				<path d="M4 0.704102L30.3433 0.704102C33.9067 0.704102 35.6914 5.0127 33.1714 7.53253L6.82861 33.8757C4.30859 36.3955 0 34.6108 0 31.0472L0 4.7041C0 2.49493 1.79102 0.704102 4 0.704102L4 0.704102Z" fill-rule="evenodd" fill="#2F9BFF"/>
			</g>
			<g id="L2">
				<path d="M13.1631 13.7041L7.0127 13.7041L7.0127 4.42065L8.25 4.42065L8.25 12.6631L13.1631 12.6631L13.1631 13.7041ZM16.7002 5.46167C15.4116 5.46167 14.8657 6.64551 14.9038 7.75L13.7993 7.75C13.7104 5.87744 14.8149 4.4873 16.7637 4.4873C18.376 4.4873 19.6484 5.42358 19.6484 7.14062C19.6484 8.76562 18.5566 9.58447 17.4141 10.2986C16.2559 11 15.0464 11.584 14.8276 12.7297L19.5596 12.7297L19.5596 13.7041L13.5391 13.7041C13.7231 11.5205 14.8276 10.7397 16.1255 9.93359C17.687 8.97192 18.4805 8.40063 18.4805 7.12476C18.4805 6.125 17.6743 5.46167 16.7002 5.46167Z" fill="#FFFFFFFF"/>
			</g>
		</g>
	</g>
	<defs/>
</svg>
