<svg width="40.000000" height="40.704102" viewBox="0 0 40 40.7041" fill="none" xmlns="http://www.w3.org/2000/svg" xmlns:xlink="http://www.w3.org/1999/xlink">
	<desc>
			Created with Pixso.
	</desc>
	<g id="编组 51">
		<g id="编组 3备份 17">
			<g id="矩形">
				<path d="M4 0.704102L30.3433 0.704102C33.9067 0.704102 35.6914 5.0127 33.1714 7.53253L6.82861 33.8757C4.30859 36.3955 0 34.6108 0 31.0472L0 4.7041C0 2.49493 1.79102 0.704102 4 0.704102L4 0.704102Z" fill-rule="evenodd" fill="#46A6FF"/>
			</g>
			<g id="L3">
				<path d="M13.1631 13.7041L7.0127 13.7041L7.0127 4.42065L8.25 4.42065L8.25 12.6631L13.1631 12.6631L13.1631 13.7041ZM16.7256 9.33691C16.5034 9.33691 16.2686 9.34961 16.062 9.375L16.062 8.43872C16.2305 8.45142 16.3857 8.45142 16.5415 8.45142C17.4775 8.45142 18.2964 7.9436 18.2964 6.94385C18.2964 5.98218 17.5952 5.46167 16.6587 5.46167C15.4497 5.46167 14.9321 6.38525 14.9165 7.46436L13.812 7.46436C13.8784 5.70923 14.8149 4.4873 16.6587 4.4873C18.2583 4.4873 19.4678 5.25537 19.4678 6.95654C19.4678 7.7627 18.8965 8.46411 18.1948 8.79102L18.1948 8.81641C19.312 9.06396 19.8579 9.94629 19.8579 11.0508C19.8579 12.8979 18.4141 13.8596 16.6875 13.8596C14.8149 13.8596 13.5801 12.7551 13.6182 10.8572L14.7227 10.8572C14.7607 12.0537 15.4243 12.8853 16.6875 12.8853C17.7666 12.8853 18.687 12.2219 18.687 11.1047C18.687 9.94629 17.8174 9.33691 16.7256 9.33691Z" fill="#FFFFFFFF"/>
			</g>
		</g>
	</g>
	<defs/>
</svg>
