<svg width="40.000000" height="40.704102" viewBox="0 0 40 40.7041" fill="none" xmlns="http://www.w3.org/2000/svg" xmlns:xlink="http://www.w3.org/1999/xlink">
	<desc>
			Created with Pixso.
	</desc>
	<g id="编组 50">
		<g id="编组 3备份 16">
			<g id="矩形">
				<path d="M4 0.704102L30.3433 0.704102C33.9067 0.704102 35.6914 5.0127 33.1714 7.53253L6.82861 33.8757C4.30859 36.3955 0 34.6108 0 31.0472L0 4.7041C0 2.49493 1.79102 0.704102 4 0.704102L4 0.704102Z" fill-rule="evenodd" fill="#5DB1FF"/>
			</g>
			<g id="L4">
				<path d="M13.1631 13.7041L7.0127 13.7041L7.0127 4.42065L8.25 4.42065L8.25 12.6631L13.1631 12.6631L13.1631 13.7041ZM17.792 4.4873L18.6743 4.4873L18.6743 10.5715L19.9214 10.5715L19.9214 11.5459L18.6743 11.5459L18.6743 13.7041L17.6362 13.7041L17.6362 11.5459L13.5928 11.5459L13.5928 10.4795L17.792 4.4873ZM17.6079 6.06152L14.542 10.5715L17.6362 10.5715L17.6362 6.06152L17.6079 6.06152Z" fill="#FFFFFFFF"/>
			</g>
		</g>
	</g>
	<defs/>
</svg>
