<svg width="40.000000" height="40.704102" viewBox="0 0 40 40.7041" fill="none" xmlns="http://www.w3.org/2000/svg" xmlns:xlink="http://www.w3.org/1999/xlink">
	<desc>
			Created with Pixso.
	</desc>
	<g id="编组 49">
		<g id="编组 3备份 15">
			<g id="矩形">
				<path d="M4 0.704102L30.3433 0.704102C33.9067 0.704102 35.6914 5.0127 33.1714 7.53253L6.82861 33.8757C4.30859 36.3955 0 34.6108 0 31.0472L0 4.7041C0 2.49493 1.79102 0.704102 4 0.704102L4 0.704102Z" fill-rule="evenodd" fill="#74BCFF"/>
			</g>
			<g id="L5">
				<path d="M13.1631 13.7041L7.0127 13.7041L7.0127 4.42065L8.25 4.42065L8.25 12.6631L13.1631 12.6631L13.1631 13.7041ZM14.7896 4.64282L19.3374 4.64282L19.3374 5.61719L15.6211 5.61719L15.126 8.27051L15.1514 8.2959C15.5542 7.84204 16.2432 7.63257 16.8682 7.63257C18.5059 7.63257 19.8452 8.68628 19.8452 10.7905C19.8452 12.3521 18.7661 13.8596 16.6206 13.8596C15.021 13.8596 13.7231 12.8853 13.6816 11.2222L14.7896 11.2222C14.853 12.1711 15.6211 12.8853 16.7256 12.8853C17.7793 12.8853 18.6743 12.1711 18.6743 10.7017C18.6743 9.47974 17.8301 8.60693 16.5952 8.60693C15.894 8.60693 15.3066 8.95923 14.8784 9.47974L13.9292 9.42578L14.7896 4.64282Z" fill="#FFFFFFFF"/>
			</g>
		</g>
	</g>
	<defs/>
</svg>
