<svg width="40.000000" height="40.704102" viewBox="0 0 40 40.7041" fill="none" xmlns="http://www.w3.org/2000/svg" xmlns:xlink="http://www.w3.org/1999/xlink">
	<desc>
			Created with Pixso.
	</desc>
	<g id="编组 48">
		<g id="编组 3备份 14">
			<g id="矩形">
				<path d="M4 0.704102L30.3433 0.704102C33.9067 0.704102 35.6914 5.0127 33.1714 7.53253L6.82861 33.8757C4.30859 36.3955 0 34.6108 0 31.0472L0 4.7041C0 2.49493 1.79102 0.704102 4 0.704102L4 0.704102Z" fill-rule="evenodd" fill="#8BC7FF"/>
			</g>
			<g id="L6">
				<path d="M13.1631 13.7041L7.0127 13.7041L7.0127 4.42065L8.25 4.42065L8.25 12.6631L13.1631 12.6631L13.1631 13.7041ZM17.1157 4.4873C18.6362 4.4873 19.585 5.34424 19.7153 6.83911L18.6108 6.83911C18.5059 6.00757 17.9346 5.46167 17.062 5.46167C15.1768 5.46167 14.8784 7.54053 14.8276 8.95923L14.853 8.98462C15.3735 8.14038 16.1543 7.77539 17.1538 7.77539C18.9219 7.77539 19.9756 9.06396 19.9756 10.7651C19.9756 12.1045 19.2202 13.8596 16.8936 13.8596C14.1641 13.8596 13.7231 11.365 13.7231 9.42578C13.7231 6.89307 14.4878 4.4873 17.1157 4.4873ZM18.8042 10.8445C18.8042 9.69873 18.2075 8.74976 16.9443 8.74976C15.71 8.74976 15.0337 9.67334 15.0337 10.8318C15.0337 11.9744 15.7383 12.8853 16.9443 12.8853C18.1411 12.8853 18.8042 11.9363 18.8042 10.8445Z" fill="#FFFFFFFF"/>
			</g>
		</g>
	</g>
	<defs/>
</svg>
