<svg width="40.000000" height="40.000000" viewBox="0 0 40 40" fill="none" xmlns="http://www.w3.org/2000/svg" xmlns:xlink="http://www.w3.org/1999/xlink">
	<desc>
			Created with Pixso.
	</desc>
	<defs/>
	<path id="矩形" d="M4 0L30.34 0C33.9 0 35.69 4.3 33.17 6.82L6.82 33.17C4.3 35.69 0 33.9 0 30.34L0 4C0 1.79 1.79 0 4 0L4 0Z" fill="#1890FF" fill-opacity="0.400000" fill-rule="evenodd"/>
	<path id="矩形" d="" fill="#979797" fill-opacity="0" fill-rule="evenodd"/>
	<path id="L6" d="M7.26 15L12.45 15L12.45 13.87L8.53 13.87L8.53 5.16L7.26 5.16L7.26 15ZM17.18 10.94Q18.07 8.63 19.62 5.93L19.62 5.16L13.37 5.16L13.37 6.26L18.25 6.26Q16.78 8.82 15.9 11.04Q15.03 13.26 14.79 15L16.09 15Q16.3 13.24 17.18 10.94Z" fill="#FFFFFF" fill-opacity="1.000000" fill-rule="evenodd"/>
</svg>
