<svg width="40.000000" height="40.000000" viewBox="0 0 40 40" fill="none" xmlns="http://www.w3.org/2000/svg" xmlns:xlink="http://www.w3.org/1999/xlink">
	<desc>
			Created with Pixso.
	</desc>
	<defs/>
	<path id="矩形" d="M4 0L30.34 0C33.9 0 35.69 4.3 33.17 6.82L6.82 33.17C4.3 35.69 0 33.9 0 30.34L0 4C0 1.79 1.79 0 4 0L4 0Z" fill="#1890FF" fill-opacity="0.300000" fill-rule="evenodd"/>
	<path id="矩形" d="" fill="#979797" fill-opacity="0" fill-rule="evenodd"/>
	<path id="L6" d="M13.37 11.58Q13.29 11.9 13.29 12.25Q13.29 12.85 13.5 13.36Q13.58 13.56 13.69 13.75Q13.84 13.98 14.02 14.18Q14.35 14.55 14.83 14.79Q14.84 14.79 14.84 14.79Q15.57 15.15 16.48 15.15Q17.4 15.15 18.13 14.79Q18.64 14.53 18.99 14.13Q19.15 13.96 19.27 13.75Q19.36 13.6 19.43 13.44Q19.67 12.9 19.67 12.25Q19.67 11.91 19.59 11.6Q19.47 11.12 19.17 10.69Q18.89 10.29 18.51 10.02Q18.22 9.8 17.87 9.66Q18.46 9.33 18.81 8.82Q18.85 8.78 18.88 8.73Q19.11 8.37 19.19 7.98Q19.24 7.75 19.24 7.51Q19.24 7.07 19.1 6.68Q19.02 6.44 18.89 6.23Q18.78 6.06 18.65 5.91Q18.34 5.55 17.89 5.32Q17.78 5.27 17.67 5.22Q17.12 5 16.48 5Q15.87 5 15.34 5.21Q15.2 5.26 15.07 5.33Q14.63 5.56 14.32 5.9Q14.18 6.06 14.07 6.24Q13.92 6.47 13.84 6.73Q13.71 7.1 13.71 7.51Q13.71 7.79 13.78 8.05Q13.87 8.41 14.09 8.74Q14.14 8.81 14.19 8.88Q14.55 9.35 15.1 9.66Q14.77 9.79 14.48 9.99Q14.09 10.27 13.8 10.68Q13.5 11.11 13.37 11.58ZM7.26 15L12.45 15L12.45 13.87L8.53 13.87L8.53 5.16L7.26 5.16L7.26 15ZM14.97 8.21Q14.86 7.93 14.86 7.61Q14.86 7.2 15.03 6.88Q15.14 6.66 15.32 6.47Q15.49 6.31 15.69 6.2Q16.04 6.02 16.48 6.02Q16.92 6.02 17.26 6.2Q17.47 6.31 17.65 6.48Q17.88 6.7 17.99 6.97Q18.12 7.26 18.12 7.61Q18.12 7.9 18.03 8.15Q17.91 8.47 17.63 8.74Q17.37 9 17.06 9.12Q16.79 9.22 16.48 9.22Q16.12 9.22 15.82 9.08Q15.55 8.97 15.33 8.75Q15.09 8.5 14.97 8.21ZM14.8 13.3Q14.51 12.84 14.51 12.2Q14.51 11.68 14.72 11.27Q14.85 11.02 15.07 10.82Q15.25 10.63 15.47 10.51Q15.91 10.27 16.48 10.27Q17.04 10.27 17.48 10.51Q17.71 10.63 17.91 10.83Q18.16 11.08 18.3 11.38Q18.47 11.75 18.47 12.2Q18.47 12.77 18.22 13.2Q18.1 13.41 17.91 13.59Q17.76 13.74 17.58 13.85Q17.11 14.13 16.48 14.13Q15.78 14.13 15.29 13.8Q15.16 13.71 15.05 13.6Q14.91 13.46 14.8 13.3Z" fill="#FFFFFF" fill-opacity="1.000000" fill-rule="evenodd"/>
</svg>
