<svg width="40.000000" height="40.000000" viewBox="0 0 40 40" fill="none" xmlns="http://www.w3.org/2000/svg" xmlns:xlink="http://www.w3.org/1999/xlink">
	<desc>
			Created with Pixso.
	</desc>
	<path id="矩形" d="M4 0L30.3431 0C33.9068 0 35.6914 4.30859 33.1716 6.82843L6.82843 33.1716C4.30857 35.6914 0 33.9067 0 30.3431L0 4C0 1.79083 1.79086 0 4 0L4 0Z" fill-rule="evenodd" fill="#1890FF"/>
	<path id="L6" d="M12.3066 8.6084L12.3066 7.56348L9.19141 7.56348Q9.35742 7.22168 9.52344 6.86035L8.2832 6.63574Q7.62891 8.33496 6.31055 9.81934Q6.75977 10.2295 7.15039 10.6494Q7.51172 10.2295 7.85352 9.77051Q8.21484 10.2783 8.64453 10.708Q7.6582 11.1963 6.33984 11.5283Q6.67188 12.085 6.93555 12.6904Q8.47852 12.2217 9.64062 11.499Q10.7539 12.1924 12.4531 12.6611Q12.707 11.9873 12.9512 11.4111Q11.6621 11.167 10.6855 10.7178Q11.5814 9.89087 12.1581 8.88159Q12.2352 8.74664 12.3066 8.6084ZM5.09961 9.65332Q4.67969 9.67285 4.42578 9.68262Q5.06055 8.5498 5.79297 7.0166L4.5918 6.65527Q3.64453 9.1748 3.13672 9.77051L3.46875 10.8447Q3.97656 10.7959 4.51367 10.7568Q3.82031 11.9775 3.33203 12.4561L3.66406 13.5596Q4.76758 13.3057 6.29102 13.208Q6.32031 12.5439 6.4082 12.0361Q5.62695 12.1436 4.93359 12.2314Q5.91992 10.5322 6.80859 8.8623L5.70508 8.40332Q5.38281 9.08691 5.09961 9.65332ZM14.3477 8.40332L13.293 8.40332L13.293 9.67285L14.3477 9.67285L14.3477 11.4209L13.1562 11.626L13.293 13.042L14.3477 12.7783L14.3477 14.5068Q14.3428 14.7656 14.25 14.8706Q14.1572 14.9756 13.8984 14.9756Q13.625 14.9756 13.2441 14.9463Q13.4785 15.7959 13.5762 16.2744Q14.9141 16.2744 15.2607 15.9717Q15.2803 15.9546 15.2988 15.9364Q15.6074 15.632 15.6074 15.0146L15.6074 12.4756L16.584 12.251Q16.5742 11.8115 16.623 10.9521Q16.1396 11.0645 15.6074 11.1719L15.6074 9.67285L16.5742 9.67285L16.5742 8.40332L15.6074 8.40332L15.6074 6.68457L14.3477 6.68457L14.3477 8.40332ZM22.4141 11.6553L22.4141 10.5615L18.1172 10.5615L18.1172 8.20801L20.9199 8.20801Q20.9199 8.68652 20.7637 8.83301Q20.6074 8.97949 20.2363 8.97949Q19.6943 8.97949 18.8496 8.9209Q19.0352 9.61426 19.1133 10.1221Q20.085 10.1318 20.7393 10.1245Q21.3337 10.1179 21.7065 9.82703Q21.744 9.79779 21.7793 9.76562Q21.7991 9.74756 21.8181 9.72858Q22.1678 9.37891 22.2188 8.73047Q22.2725 8.04688 22.2871 7.05566L16.8281 7.05566L16.8281 16.3037L18.1172 16.3037L18.1172 15.5127Q18.4395 15.9814 18.6152 16.3232Q19.5381 15.7715 20.2607 15.0977Q20.7403 15.5286 21.2748 15.8746Q21.6548 16.1204 22.0625 16.3232Q22.5215 15.5518 22.8828 15.0049Q21.9014 14.6826 21.1152 14.1602Q21.3181 13.8989 21.4972 13.6223Q22.0815 12.7203 22.4141 11.6553ZM8.80491 9.2561Q8.64286 9.04004 8.50781 8.80371Q8.54688 8.74512 8.57617 8.67676L10.9297 8.67676Q10.4805 9.46777 9.64062 10.1025Q9.15849 9.72754 8.80491 9.2561ZM20.1777 13.3838Q19.499 12.6953 19.0449 11.7822L18.1953 12.3975Q18.7178 13.3789 19.3672 14.165Q18.8154 14.585 18.1172 14.9121L18.1172 11.7139L21.0762 11.7139Q20.865 12.3896 20.4914 12.9589Q20.3468 13.1793 20.1777 13.3838ZM11.5645 12.9639Q10.373 12.7295 8.13672 12.3389L7.83398 13.4033Q9.61133 13.7354 11.2812 14.0967L11.5645 12.9639ZM6.55469 13.9209Q5.06055 14.1748 3.15625 14.458L3.35156 15.8252Q4.66016 15.5713 6.51562 15.2686Q6.50586 14.7412 6.55469 13.9209ZM12.0332 14.9951Q9.78711 14.5459 7.16992 14.0967L6.84766 15.2881Q9.25 15.7373 11.7305 16.2646L12.0332 14.9951Z" fill="#FFFFFFFF"/>
	<defs/>
</svg>
