<svg width="40.000000" height="40.000000" viewBox="0 0 40 40" fill="none" xmlns="http://www.w3.org/2000/svg" xmlns:xlink="http://www.w3.org/1999/xlink">
	<desc>
			Created with Pixso.
	</desc>
	<path id="矩形" d="M4 0L30.3431 0C33.9068 0 35.6914 4.30859 33.1716 6.82843L6.82843 33.1716C4.30857 35.6914 0 33.9067 0 30.3431L0 4C0 1.79083 1.79086 0 4 0L4 0Z" fill-rule="evenodd" fill="#1890FF"/>
	<path id="L6" d="M12.8145 10.21L12.8145 9.16504L10.3047 9.16504L10.3047 8.55957L12.2969 8.55957L12.2969 7.48535L10.3047 7.48535L10.3047 6.68457L8.97656 6.68457L8.97656 7.48535L6.91602 7.48535L6.91602 8.55957L8.97656 8.55957L8.97656 9.16504L6.75977 9.16504Q6.82812 9.03809 6.89648 8.90137L5.72461 8.39355Q5.40234 9.07715 5.09961 9.65332Q4.67969 9.67285 4.36719 9.68262Q5.12891 8.46191 5.79297 7.00684L4.57227 6.64551Q3.82031 8.79395 3.10742 9.79004L3.45898 10.9033Q3.81055 10.835 4.46484 10.7861Q3.79102 11.9092 3.24414 12.4561L3.57617 13.5889Q4.55273 13.3838 6.20312 13.2666Q6.18359 12.7393 6.28125 12.1143Q5.51953 12.2217 4.79688 12.29Q5.83203 10.8447 6.57422 9.50684L6.57422 10.2686L7.375 10.2686L6.99414 10.9131Q8.00977 11.333 8.83984 11.7529L9.32812 10.9717Q8.54688 10.6201 7.60938 10.2686L11.6719 10.2686L11.3008 11.4209L12.4922 11.6162L12.8145 10.21ZM14.3477 8.40332L13.293 8.40332L13.293 9.67285L14.3477 9.67285L14.3477 11.4209L13.1562 11.626L13.293 13.042L14.3477 12.7783L14.3477 14.5068Q14.3428 14.7656 14.25 14.8706Q14.1572 14.9756 13.8984 14.9756Q13.625 14.9756 13.2441 14.9463Q13.4785 15.7959 13.5762 16.2744Q14.9141 16.2744 15.2607 15.9717Q15.2803 15.9546 15.2988 15.9364Q15.6074 15.632 15.6074 15.0146L15.6074 12.4756L16.584 12.251Q16.5742 11.8115 16.623 10.9521Q16.1396 11.0645 15.6074 11.1719L15.6074 9.67285L16.5742 9.67285L16.5742 8.40332L15.6074 8.40332L15.6074 6.68457L14.3477 6.68457L14.3477 8.40332ZM22.4141 11.6553L22.4141 10.5615L18.1172 10.5615L18.1172 8.20801L20.9199 8.20801Q20.9199 8.68652 20.7637 8.83301Q20.6074 8.97949 20.2363 8.97949Q19.6943 8.97949 18.8496 8.9209Q19.0352 9.61426 19.1133 10.1221Q20.085 10.1318 20.7393 10.1245Q21.3337 10.1179 21.7065 9.82703Q21.744 9.79779 21.7793 9.76562Q21.7991 9.74756 21.8181 9.72858Q22.1678 9.37891 22.2188 8.73047Q22.2725 8.04688 22.2871 7.05566L16.8281 7.05566L16.8281 16.3037L18.1172 16.3037L18.1172 15.5127Q18.4395 15.9814 18.6152 16.3232Q19.5381 15.7715 20.2607 15.0977Q20.7403 15.5286 21.2748 15.8746Q21.6548 16.1204 22.0625 16.3232Q22.5215 15.5518 22.8828 15.0049Q21.9014 14.6826 21.1152 14.1602Q21.3181 13.8989 21.4972 13.6223Q22.0815 12.7203 22.4141 11.6553ZM10.2949 14.0479L12.8242 14.0479L12.8242 12.9639L10.5586 12.9639Q10.8125 11.9092 10.8027 10.4443L9.51367 10.4443Q9.54297 12.0459 9.30859 12.9639L8.3418 12.9639L8.79102 12.1533Q7.88281 11.7334 6.81836 11.3135L6.37891 12.0752Q7.43359 12.5049 8.3125 12.9639L6.49609 12.9639L6.49609 14.0479L8.74219 14.0479Q8.08789 14.7217 6.39844 15.0439Q6.36914 14.5654 6.38867 13.9502Q5.04102 14.1846 3.12695 14.4092L3.33203 15.708Q4.79688 15.4248 6.21289 15.2197Q6.53516 15.7275 6.91602 16.4209Q8.6543 15.835 9.5625 14.9365Q11.0469 15.6689 12.209 16.3623L12.873 15.2881Q11.5059 14.6143 10.2949 14.0479ZM20.1777 13.3838Q19.499 12.6953 19.0449 11.7822L18.1953 12.3975Q18.7178 13.3789 19.3672 14.165Q18.8154 14.585 18.1172 14.9121L18.1172 11.7139L21.0762 11.7139Q20.865 12.3896 20.4914 12.9589Q20.3468 13.1793 20.1777 13.3838Z" fill="#FFFFFFFF"/>
	<defs/>
</svg>
