<svg width="40.000000" height="40.000000" viewBox="0 0 40 40" fill="none" xmlns="http://www.w3.org/2000/svg" xmlns:xlink="http://www.w3.org/1999/xlink">
	<desc>
			Created with Pixso.
	</desc>
	<path id="矩形" d="M4 0L30.3431 0C33.9068 0 35.6914 4.30856 33.1716 6.82843L6.82843 33.1716C4.30857 35.6914 0 33.9068 0 30.3431L0 4C0 1.79086 1.79086 0 4 0L4 0Z" fill-rule="evenodd" fill="#1890FF"/>
	<path id="L6" d="M6.83789 9.83887L4.25 9.83887L4.25 16.3037L5.65625 16.3037L5.65625 15.7275L10.5 15.7275L10.5 16.3037L11.9062 16.3037L11.9062 9.83887L8.25391 9.83887L8.40527 9.09668L12.7656 9.09668L12.7656 7.94434L10.2168 7.94434L11.0176 7.0166L9.68945 6.62598Q9.19629 7.29492 8.65918 7.94434L6.50098 7.94434L7.23828 7.69043Q6.83789 7.21191 6.29102 6.64551L5.02148 7.0459Q5.42676 7.52441 5.75391 7.94434L3.27344 7.94434L3.27344 9.09668L6.96973 9.09668Q6.91113 9.46777 6.83789 9.83887ZM14.3477 8.40332L13.293 8.40332L13.293 9.67285L14.3477 9.67285L14.3477 11.4209L13.1562 11.626L13.293 13.042L14.3477 12.7783L14.3477 14.5068Q14.3428 14.7656 14.25 14.8706Q14.1572 14.9756 13.8984 14.9756Q13.625 14.9756 13.2441 14.9463Q13.4785 15.7959 13.5762 16.2744Q14.9141 16.2744 15.2607 15.9717Q15.2803 15.9546 15.2988 15.9364Q15.6074 15.632 15.6074 15.0146L15.6074 12.4756L16.584 12.251Q16.5742 11.8115 16.623 10.9521Q16.1396 11.0645 15.6074 11.1719L15.6074 9.67285L16.5742 9.67285L16.5742 8.40332L15.6074 8.40332L15.6074 6.68457L14.3477 6.68457L14.3477 8.40332ZM22.4141 11.6553L22.4141 10.5615L18.1172 10.5615L18.1172 8.20801L20.9199 8.20801Q20.9199 8.68652 20.7637 8.83301Q20.6074 8.97949 20.2363 8.97949Q19.6943 8.97949 18.8496 8.9209Q19.0352 9.61426 19.1133 10.1221Q20.085 10.1318 20.7393 10.1245Q21.3337 10.1179 21.7065 9.82703Q21.744 9.79776 21.7793 9.76562Q21.7991 9.74753 21.8181 9.72855Q22.1678 9.37888 22.2188 8.73047Q22.2725 8.04688 22.2871 7.05566L16.8281 7.05566L16.8281 16.3037L18.1172 16.3037L18.1172 15.5127Q18.4395 15.9814 18.6152 16.3232Q19.5381 15.7715 20.2607 15.0977Q20.7403 15.5287 21.2748 15.8745Q21.6548 16.1204 22.0625 16.3232Q22.5215 15.5518 22.8828 15.0049Q21.9014 14.6826 21.1152 14.1602Q21.3181 13.8989 21.4972 13.6223Q22.0815 12.7203 22.4141 11.6553ZM5.65625 10.9326L10.5 10.9326L10.5 11.4893L5.65625 11.4893L5.65625 10.9326ZM20.1777 13.3838Q19.499 12.6953 19.0449 11.7822L18.1953 12.3975Q18.7178 13.3789 19.3672 14.165Q18.8154 14.585 18.1172 14.9121L18.1172 11.7139L21.0762 11.7139Q20.865 12.3896 20.4914 12.9589Q20.3468 13.1793 20.1777 13.3838ZM10.5 13.0615L5.65625 13.0615L5.65625 12.5049L10.5 12.5049L10.5 13.0615ZM10.5 14.6338L5.65625 14.6338L5.65625 14.0771L10.5 14.0771L10.5 14.6338Z" fill="#FFFFFFFF"/>
	<defs/>
</svg>
