<?xml version="1.0" encoding="utf-8"?>
<!-- Generator: Adobe Illustrator 23.0.4, SVG Export Plug-In . SVG Version: 6.00 Build 0)  -->
<svg version="1.1" id="图层_1" xmlns="http://www.w3.org/2000/svg" xmlns:xlink="http://www.w3.org/1999/xlink" x="0px" y="0px"
	 viewBox="0 0 512 512" style="enable-background:new 0 0 512 512;" xml:space="preserve">
<style type="text/css">
	.st0{fill:#B5DEFB;}
	.st1{fill:#FFFFFF;}
</style>
<path class="st0" d="M8.8,254c0,136.5,110.7,247.2,247.2,247.2S503.2,390.5,503.2,254S392.5,6.8,256,6.8S8.8,117.5,8.8,254L8.8,254z
	"/>
<path class="st1" d="M362.3,367h-15.7v-28.7c0-0.7,0-1.5,0-2.2V336l0-0.8c-1-33.8-34.9-63.2-60.5-79.7
	c25.4-16.3,59.3-45.5,60.5-79.1c0.1-0.4,0.1-0.9,0.1-1.3V141h15.7c6.2,0,11.3-5.4,11.3-12c0-6.6-5-12-11.3-12H149.7
	c-6.2,0-11.3,5.3-11.3,12c0,6.6,5,12,11.3,12h14.8v34.1c0,0.5,0,0.9,0.1,1.3c1.2,33.5,37.8,62.7,63.2,79.1
	c-25.4,16.3-62,45.4-63.2,78.9c-0.1,0.5-0.1,1.1-0.1,1.6v31h-14.7c-6.2,0-11.3,5.4-11.3,12c0,6.6,5,12,11.3,12h212.6
	c6.2,0,11.3-5.3,11.3-12C373.6,372.4,368.6,367,362.3,367L362.3,367z"/>
<path class="st0" d="M322.1,352c0,6.6-5,12-11.3,12H200c-6.2,0-11.3-5.4-11.3-12s5-12,11.3-12h110.8C317,340,322.1,345.4,322.1,352
	L322.1,352z M255.4,269.9c6.2,0,11.3,5.4,11.3,12v23.5c0,6.6-5,12-11.3,12c-6.2,0-11.3-5.4-11.3-12v-23.5
	C244.1,275.2,249.1,269.9,255.4,269.9z M255.4,217.7c6.2,0,11.3,5.4,11.3,12c0,6.6-5,12-11.3,12c-6.2,0-11.3-5.4-11.3-12
	C244.1,223,249.1,217.7,255.4,217.7L255.4,217.7z"/>
</svg>
