<?xml version="1.0" encoding="utf-8"?>
<svg version="1.1" xmlns:xlink="http://www.w3.org/1999/xlink" width="22px" height="16px" xmlns="http://www.w3.org/2000/svg">
  <g transform="matrix(1 0 0 1 -460 -259 )">
    <path d="M 0.6875 5.33333333333333  L 0.6875 14  C 0.6875 15.1333333333333  1.58125 16  2.75 16  L 19.25 16  C 20.41875 16  21.3125 15.1333333333333  21.3125 14  L 21.3125 5.33333333333333  L 0.6875 5.33333333333333  Z M 6.1875 8.66666666666667  C 6.1875 8.26666666666667  6.4625 8  6.875 8  L 15.125 8  C 15.5375 8  15.8125 8.26666666666667  15.8125 8.66666666666667  C 15.8125 9.06666666666667  15.5375 9.33333333333333  15.125 9.33333333333333  L 6.875 9.33333333333333  C 6.4625 9.33333333333333  6.1875 9.06666666666667  6.1875 8.66666666666667  Z M 6.1875 12  C 6.1875 11.6  6.4625 11.3333333333333  6.875 11.3333333333333  L 11.6875 11.3333333333333  C 12.1 11.3333333333333  12.375 11.6  12.375 12  C 12.375 12.4  12.1 12.6666666666667  11.6875 12.6666666666667  L 6.875 12.6666666666667  C 6.4625 12.6666666666667  6.1875 12.4  6.1875 12  Z M 21.3125 2  C 21.3125 0.866666666666666  20.41875 0  19.25 0  L 16.5 0  L 16.5 0.666666666666667  C 16.5 1.06666666666667  16.225 1.33333333333333  15.8125 1.33333333333333  C 15.4 1.33333333333333  15.125 1.06666666666667  15.125 0.666666666666667  L 15.125 0  L 6.875 0  L 6.875 0.666666666666667  C 6.875 1.06666666666667  6.6 1.33333333333333  6.1875 1.33333333333333  C 5.775 1.33333333333333  5.5 1.06666666666667  5.5 0.666666666666667  L 5.5 0  L 2.75 0  C 1.58125 0  0.6875 0.866666666666666  0.6875 2  L 0.6875 4  L 21.3125 4  L 21.3125 2  Z " fill-rule="nonzero" fill="#3377ff" stroke="none" transform="matrix(1 0 0 1 460 259 )" />
  </g>
</svg>