<?xml version="1.0" encoding="utf-8"?>
<svg version="1.1" xmlns:xlink="http://www.w3.org/1999/xlink" width="18px" height="18px" xmlns="http://www.w3.org/2000/svg">
  <g transform="matrix(1 0 0 1 -29 -78 )">
    <path d="M 1.3 1.3  C 1.72 0.879999999999999  2.42 0.600000000000001  2.98 0.600000000000001  L 15.02 0.600000000000001  C 15.72 0.600000000000001  16.28 0.880000000000001  16.7 1.3  C 17.12 1.72  17.4 2.42  17.4 2.98  L 17.4 15.02  C 17.4 15.72  17.12 16.28  16.7 16.7  C 16.28 17.12  15.58 17.4  15.02 17.4  L 2.98 17.4  C 2.28 17.4  1.72 17.12  1.3 16.7  C 0.879999999999999 16.28  0.6 15.58  0.6 15.02  L 0.6 2.98  C 0.6 2.28  0.88 1.72  1.3 1.3  Z M 11.38 14.18  L 11.38 15.58  L 15.02 12.92  L 11.38 10.26  L 11.38 11.8  L 2.98 11.8  L 2.98 14.18  L 11.38 14.18  Z M 6.62 6.9  L 15.02 6.9  L 15.02 4.52  L 6.62 4.52  L 6.62 2.98  L 2.98 5.64  L 6.62 8.3  L 6.62 6.9  Z " fill-rule="nonzero" fill="#3377ff" stroke="none" transform="matrix(1 0 0 1 29 78 )" />
  </g>
</svg>