<?xml version="1.0" encoding="utf-8"?>
<svg version="1.1" xmlns:xlink="http://www.w3.org/1999/xlink" width="18px" height="18px" xmlns="http://www.w3.org/2000/svg">
  <g transform="matrix(1 0 0 1 -30 -258 )">
    <path d="M 1.97899999584961 0.500000002075195  L 1.97793749377441 0.500000002075195  C 1.16908982375298 0.495861565101065  0.50875593902277 1.14575164027191  0.500000002075195 1.95456250415039  L 0.500000002075195 12.1386250041504  C 0.508755939022771 12.9474358680289  1.16908982375298 13.5973259431997  1.97793749377441 13.5931875062256  L 8.25625000415039 13.5931875062256  L 8.25625000415039 16.0454374958496  L 3.95418750622559 16.0454374958496  C 3.58251277955425 16.0432068834198  3.25976524691298 16.3008736430623  3.17962500622559 16.6638125083008  C 3.14435374744721 16.8754537751922  3.20642128381597 17.0917142527427  3.3485625 17.2524375  C 3.49225959920481 17.4148731710354  3.70017834623656 17.5058133319606  3.91700000830078 17.5010625  L 14.0383749979248 17.5010625  C 14.4100497189659 17.5032931143378  14.7327972496553 17.2456263640359  14.8129374979248 16.8826875062256  C 14.8482087625851 16.6710462332512  14.7861412258426 16.4547857475365  14.6440000041504 16.2940624958496  C 14.5003029049456 16.1316268248142  14.2923841579138 16.040686663889  14.0755624958496 16.0454374958496  L 9.74374999584961 16.0454374958496  L 9.74374999584961 13.5931875062256  L 16.0241874916992 13.5931875062256  C 16.8319713782199 13.5955743341888  17.4906716863165 12.9463585535792  17.4999999979248 12.1386250041504  L 17.4999999979248 1.95456250415039  C 17.4900852218153 1.1454106599808  16.8291394586504 0.495852330044667  16.0199375020752 0.500000002075195  L 1.97899999584961 0.500000002075195  Z M 13.8344466810642 7.77349602818197  C 13.8241481743985 7.77349602818197  13.8138509287174 7.77326812759007  13.8035625062256 7.77281249377441  L 11.3598124958496 7.77281249377441  L 10.5098124979248 10.2484374916992  C 10.4648596466317 10.3632817428574  10.3541289201122 10.4388502738739  10.2308002500332 10.4388502738739  C 10.1372349480469 10.4388502738739  10.0490410564603 10.3951416712711  9.99237499584961 10.3206875020752  L 7.33081250830078 6.68268749377441  L 6.99931249584961 7.51887500207519  C 6.95082941038191 7.65909779289978  6.81356739281165 7.74871152933529  6.66568749792481 7.7366874979248  L 3.855375 7.73668749792481  C 3.48330299089489 7.73942123798359  3.15997328775097 7.48164331355649  3.07974999792481 7.11831250415039  C 3.044764551762 6.9065081538057  3.10722861193016 6.69022633638064  3.24974999377442 6.52968749377441  C 3.39364474647298 6.36764581013282  3.6015356596199 6.27710640517982  3.8181875020752 6.28212499584961  L 5.88899999377441 6.28212499584961  L 6.73899999169922 4.1720000020752  C 6.78457812814321 4.05767054864171  6.89523097102048 3.98266136999663  7.01831058120879 3.98266136999663  C 7.1115465499054 3.98266136999663  7.19950789220786 4.02591255997066  7.25643749377442 4.09974999169922  L 9.84362500415039 7.59218749584961  L 10.2133749979248 6.49993749169922  C 10.2568473639793 6.35157012786246  10.3913716824988 6.24842049188999  10.5459374937744 6.2449374979248  L 13.7249375020752 6.2449374979248  C 14.0968943937718 6.24189192558631  14.4200919809294 6.4999179802256  14.4995000020752 6.86331249169922  C 14.521374485569 6.93189455283823  14.5325091810642 7.00344747301714  14.5325091810642 7.07543352818197  C 14.5325091810642 7.46096280136073  14.219975954243 7.77349602818197  13.8344466810642 7.77349602818197  Z " fill-rule="nonzero" fill="#3377ff" stroke="none" transform="matrix(1 0 0 1 30 258 )" />
  </g>
</svg>