<?xml version="1.0" encoding="utf-8"?>
<svg version="1.1" xmlns:xlink="http://www.w3.org/1999/xlink" width="29px" height="29px" xmlns="http://www.w3.org/2000/svg">
  <g transform="matrix(1 0 0 1 -118 -269 )">
    <path d="M 4.63474908088235 7.18726217830882  C 4.63474908088235 10.7691220128676  7.53774437040441 13.6721539522059  11.1195675551471 13.6721539522059  C 14.7013907398897 13.6721539522059  17.6044593290441 10.7691220128676  17.6044593290441 7.187298828125  C 17.6044593290441 3.60547564338235  14.7014273897059 0.702407054227941  11.1196042049632 0.702407054227941  C 7.53778102022059 0.702407054227941  4.63474908088235 3.60543899356618  4.63474908088235 7.187298828125  Z M 24.7642101504407 7.18284429196914  C 24.7642101504407 3.61007838060375  21.8726078767036 0.711299667088883  18.2998529411765 0.702443704044117  C 17.4153789319049 0.701926352883977  16.5402771564098 0.883586323130659  15.7290882352941 1.23610167738971  C 17.5680428213522 2.66290417545099  18.64408585577 4.85972398659737  18.64408585577 7.18728050321691  C 18.64408585577 9.51483701983645  17.5680428213522 11.7116568309828  15.7290882352941 13.1384593290441  C 16.5362908489871 13.4847143589011  17.4054567985014 13.6632647882927  18.2837896541172 13.6632647882927  C 21.8628270667275 13.6632647882927  24.7642101504407 10.7618817045795  24.7642101504407 7.18284429196914  Z M 22.6891448759191 15.8797556295956  L 17.3284862132353 15.8797556295956  C 20.7222681862078 15.880969451081  23.4728285100146 18.6325137173753  23.4728285100146 22.0262959074158  C 23.4728285100146 22.027212283902  23.4728283050832 22.0281286603702  23.4728278952206 22.0290450367647  L 23.4728278952206 28.2975929457721  L 28.2975929457721 28.2975929457721  L 28.2975929457721 21.4926016773897  C 28.2985039717054 18.3938378115765  25.7873588905071 15.8809698797184  22.6885951286765 15.8797556295956  Z M 15.7853823529412 15.8797556295956  L 6.31580284926471 15.8797556295956  C 3.21577814797794 15.8797556295956  0.702407054227941 18.3931267233456  0.702407054227941 21.4926016773897  L 0.702407054227941 28  L 21.3987781479779 28  L 21.3987781479779 21.4926016773897  C 21.3987781479779 18.3931267233456  18.8854070542279 15.8797556295956  15.7859321001838 15.8797556295956  Z M 13.9481270680147 24.5148188189338  L 10.1344204963235 24.5148188189338  L 10.4241739430147 24.8802174862132  C 10.7608025045956 25.2941038602941  10.6642302389706 25.9001085707721  10.2547418428309 26.2406586626838  C 10.0766613084241 26.3623601883995  9.86712031539198 26.4298308605179  9.65148586856618 26.4349026884191  C 9.35177254734971 26.4380741325927  9.06709930027931 26.3038664007535  8.87883444393382 26.0706401654412  L 7.38315544577206 24.1273936121324  C 7.15972540440149 23.8330278256942  7.12210948032756 23.4375780035148  7.28603343290441 23.1063663832721  C 7.45651101649975 22.7838910751333  7.78840990330766 22.5791794107364  8.15309478400736 22.571572265625  L 13.9480537683823 22.571572265625  C 13.9500426049133 22.5715600490484  13.9520314742744 22.5715539407169  13.9540203483256 22.5715539407169  C 14.4904913786605 22.5715539407169  14.9253870762668 23.0064496383231  14.9253870762668 23.5429206686581  C 14.9253870762668 24.079391698993  14.4904913786605 24.5142873965993  13.9540203483256 24.5142873965993  C 13.9520314742744 24.5142873965993  13.9500426049133 24.5142812882678  13.9480537683823 24.5142690716912  Z M 14.8162512637868 21.0792650505515  C 14.6448456609438 21.4010023143426  14.3125769448483 21.6046164937939  13.9480904181985 21.6112737821691  L 8.15313143382353 21.6112737821691  C 7.6306733314839 21.5939647107029  7.21609011565751 21.1654188643954  7.21609011565751 20.6426741153493  C 7.21609011565751 20.1199293663031  7.6306733314839 19.6913835199956  8.15313143382353 19.6740744485294  L 11.9899273897059 19.6740744485294  L 11.7002105928309 19.3109480698529  C 11.3624458869485 18.8970250459559  11.4590181525735 18.2932193244485  11.8690929457721 17.9538053768382  C 12.2785813419118 17.6160406709559  12.8823870634191 17.7126495863971  13.2201517693015 18.1243369715074  L 14.7157941176471 20.0615363051471  C 14.9404852145319 20.353982530298  14.9790227461292 20.7488571345024  14.8151151194853 21.0792284007353  L 14.8162146139706 21.0792284007353  Z " fill-rule="nonzero" fill="#e5b741" stroke="none" transform="matrix(1 0 0 1 118 269 )" />
  </g>
</svg>