<?xml version="1.0" standalone="no"?><!DOCTYPE svg PUBLIC "-//W3C//DTD SVG 1.1//EN" "http://www.w3.org/Graphics/SVG/1.1/DTD/svg11.dtd"><svg class="icon" width="200px" height="164.76px" viewBox="0 0 1243 1024" version="1.1" xmlns="http://www.w3.org/2000/svg"><path d="M1083.757714 512.292571l31.890286 78.774858 78.482286 31.817142c10.459429 4.242286 15.433143 16.091429 11.264 26.550858l-33.133715 78.262857 32.987429 77.897143a20.406857 20.406857 0 0 1-10.825143 26.697142l-78.701714 31.890286-31.817143 78.482286a20.406857 20.406857 0 0 1-26.550857 11.190857l-78.262857-33.133714-77.970286 33.060571a20.406857 20.406857 0 0 1-26.624-10.825143l-31.890286-78.774857-78.482285-31.817143a20.406857 20.406857 0 0 1-11.264-26.477714l33.133714-78.262857-32.987429-77.970286a20.406857 20.406857 0 0 1 10.825143-26.697143l78.701714-31.817143 31.817143-78.555428a20.406857 20.406857 0 0 1 26.550857-11.190857l78.262858 33.133714 77.970285-33.060571a20.406857 20.406857 0 0 1 26.624 10.825142zM1064.96 19.748571a73.142857 73.142857 0 0 1 73.142857 73.142858v418.669714l-24.502857-60.416a26.185143 26.185143 0 0 0-29.257143-15.433143l-4.973714 1.462857-100.205714 42.422857-100.425143-42.496a26.185143 26.185143 0 0 0-31.597715 9.728l-2.486857 4.681143-40.886857 100.790857-101.083428 40.96a26.185143 26.185143 0 0 0-15.433143 29.184l1.536 5.046857 42.422857 100.205715-42.569143 100.352a26.112 26.112 0 0 0 1.462857 22.674285L109.714286 850.505143a73.142857 73.142857 0 0 1-73.142857-73.142857V92.891429a73.142857 73.142857 0 0 1 73.142857-73.142858H1064.96z m-85.796571 650.971429a56.905143 56.905143 0 1 0 0 113.810286 56.905143 56.905143 0 0 0 0-113.810286zM587.337143 612.790857c-28.745143 0-43.081143 14.336-43.081143 43.081143 0 28.672 14.336 43.008 43.081143 43.008 28.672 0 43.008-14.336 43.008-43.008 0-28.745143-14.336-43.081143-43.008-43.081143z m0-441.270857c-25.819429 0-40.082286 11.702857-42.642286 34.889143l-0.438857 8.192v311.222857c0 28.672 14.336 43.008 43.081143 43.008 25.746286 0 40.009143-11.629714 42.569143-34.889143l0.438857-8.118857V214.601143c0-28.745143-14.336-43.081143-43.008-43.081143z" fill="#F3A465" /></svg>