<svg width="64.000000" height="64.000000" viewBox="0 0 64 64" fill="none" xmlns="http://www.w3.org/2000/svg" xmlns:xlink="http://www.w3.org/1999/xlink">
	<desc>
			Created with Pixso.
	</desc>
	<defs>
		<clipPath id="clip291_140">
			<rect id="查询,放大镜,查找,搜索" width="12.000000" height="12.000000" transform="translate(34.000000 35.000000)" fill="white"/>
		</clipPath>
	</defs>
	<rect id="矩形备份 25" rx="8.000000" width="64.000000" height="64.000000" fill="#E7F3FF"/>
	<path id="差集" d="M19.9999 19.1693C19.9999 18.4609 20.5369 17.8852 21.1991 18.0196L42.8007 18.0196C43.4623 17.8852 43.9999 18.4603 43.9999 19.1694L43.9999 35.8095C42.832 34.6888 41.2464 34 39.5 34C35.9102 34 33 36.9101 33 40.5C33 42.8027 34.1974 44.8257 36.0035 45.9804L21.1991 45.9804C20.5369 46.1148 19.9999 45.5391 19.9999 44.8307L19.9999 19.1693ZM24.6399 28.4812C24.6399 29.2063 25.1895 29.7942 25.866 29.7942L35.6748 29.7942C36.3519 29.7942 36.9009 29.2063 36.9009 28.4812C36.9009 27.7567 36.3519 27.1682 35.6748 27.1682L25.866 27.1682C25.1889 27.1682 24.6399 27.7567 24.6399 28.4812ZM25.8657 35.2103C25.1892 35.2103 24.6396 34.6224 24.6396 33.8973C24.6396 33.1728 25.1886 32.5843 25.8657 32.5843L31.9963 32.5843C32.6734 32.5843 33.2224 33.1729 33.2224 33.8973C33.2224 34.6224 32.6734 35.2103 31.9963 35.2103L25.8657 35.2103ZM42.9663 45.9996C43.3117 45.7815 43.6351 45.5317 43.9325 45.2543C43.7861 45.6964 43.4157 46.0123 42.9663 45.9996Z" clip-rule="evenodd" fill-rule="evenodd" fill="#1890FF" fill-opacity="1.000000"/>
	<g clip-path="url(#clip291_140)">
		<path id="path" d="M45.877 46.3473L45.0556 45.5939C45.0837 45.3713 45.0122 45.1392 44.8423 44.9682L44.0924 44.2182C44.0666 44.1925 44.0385 44.1679 44.0103 44.1468C44.7849 43.1836 45.2489 41.9579 45.2489 40.6245C45.2489 37.5181 42.7308 35 39.6245 35C36.5181 35 34 37.5181 34 40.6245C34 43.7308 36.5181 46.2489 39.6245 46.2489C40.8642 46.2489 42.0102 45.8482 42.9394 45.1685C42.9663 45.2072 42.9968 45.2447 43.0308 45.2799L43.7807 46.0298C43.9272 46.1763 44.1193 46.2501 44.3115 46.2501C44.4088 46.2501 44.506 46.2313 44.5986 46.1938L45.3708 46.9016C45.4422 46.9672 45.5336 47 45.6239 47C45.7258 47 45.8266 46.959 45.9004 46.8781C46.0398 46.7246 46.0305 46.4868 45.877 46.3473ZM39.6245 45.499C38.9659 45.499 38.3273 45.3701 37.7274 45.1158C37.1474 44.8709 36.6259 44.5182 36.1771 44.0706C35.7295 43.623 35.378 43.1016 35.1319 42.5204C34.8788 41.9216 34.7499 41.283 34.7499 40.6245C34.7499 39.9659 34.8788 39.3273 35.1331 38.7274C35.378 38.1474 35.7295 37.6259 36.1783 37.1771C36.6259 36.7295 37.1474 36.378 37.7285 36.1319C38.3273 35.8788 38.9659 35.7499 39.6245 35.7499C40.283 35.7499 40.9216 35.8788 41.5215 36.1331C42.1015 36.378 42.623 36.7307 43.0718 37.1783C43.5194 37.6259 43.8709 38.1474 44.117 38.7285C44.3701 39.3273 44.499 39.9659 44.499 40.6245C44.499 41.283 44.3701 41.9216 44.1158 42.5215C43.8709 43.1016 43.5182 43.623 43.0706 44.0718C42.623 44.5194 42.1015 44.8709 41.5204 45.117C40.9216 45.3701 40.283 45.499 39.6245 45.499ZM35.4998 40.6245C35.4998 41.1714 35.6045 41.6975 35.8138 42.2029C36.0231 42.7082 36.3212 43.1542 36.7079 43.541C37.0947 43.9277 37.5407 44.2258 38.046 44.4351C38.5514 44.6444 39.0775 44.749 39.6245 44.749C40.1714 44.749 40.6975 44.6444 41.2029 44.4351C41.7082 44.2258 42.1542 43.9277 42.541 43.541C42.9277 43.1542 43.2258 42.7082 43.4351 42.2029C43.6444 41.6975 43.7491 41.1714 43.7491 40.6245C43.7491 40.0775 43.6444 39.5514 43.4351 39.046C43.2258 38.5407 42.9277 38.0947 42.541 37.7079C42.1542 37.3212 41.7082 37.0231 41.2029 36.8138C40.6975 36.6045 40.1714 36.4999 39.6245 36.4999C39.0775 36.4999 38.5514 36.6045 38.046 36.8138C37.5407 37.0231 37.0947 37.3212 36.7079 37.7079C36.3212 38.0947 36.0231 38.5407 35.8138 39.046C35.6045 39.5514 35.4998 40.0775 35.4998 40.6245Z" fill-rule="evenodd" fill="#1890FF"/>
	</g>
</svg>
