<svg width="15.000000" height="14.972021" viewBox="0 0 15 14.972" fill="none" xmlns="http://www.w3.org/2000/svg" xmlns:xlink="http://www.w3.org/1999/xlink">
	<desc>
			Created with Pixso.
	</desc>
	<g id="path">
		<path d="M4.46674 7.71519C4.24835 7.46558 4.24835 7.09102 4.49792 6.84141C5.30933 6.09243 6.3703 5.65547 7.49384 5.65547C8.61737 5.65547 9.67834 6.09243 10.5209 6.87261C10.7706 7.09102 10.8018 7.49678 10.5521 7.74639C10.4274 7.87119 10.2401 7.93374 10.084 7.93374C9.92798 7.93374 9.77197 7.87134 9.64716 7.74639C9.0542 7.21597 8.30524 6.90381 7.49384 6.90381C6.68243 6.90381 5.93347 7.21582 5.34052 7.74639C5.09088 7.9648 4.71637 7.9648 4.46674 7.71519ZM12.6432 4.88745C11.2389 3.54551 9.42877 2.82773 7.49396 2.82773C5.55908 2.82773 3.74908 3.54551 2.34479 4.88745C2.09515 5.13706 2.09515 5.51162 2.31354 5.76123C2.56329 6.01084 2.93774 6.01084 3.1875 5.79243C4.37329 4.6689 5.90259 4.07607 7.49414 4.07607C9.08569 4.07607 10.6149 4.66904 11.8008 5.79243C11.8943 5.88603 12.0504 5.94844 12.2065 5.94844C12.3625 5.94844 12.5499 5.88603 12.6746 5.76123C12.924 5.51162 12.8928 5.10586 12.6432 4.88745ZM14.7964 2.90215C12.7992 1.02979 10.2089 0 7.49384 0C4.77875 0 2.1886 1.02979 0.191284 2.90229C-0.0582886 3.15205 -0.0582886 3.52646 0.160095 3.77622C0.409729 4.02583 0.815491 4.05703 1.06506 3.80742C2.81281 2.15347 5.09088 1.24834 7.49384 1.24834C9.89679 1.24834 12.1749 2.15347 13.9226 3.80742C14.0474 3.93223 14.2034 3.96343 14.3594 3.96343C14.5154 3.96343 14.7026 3.90103 14.8276 3.77622C15.0773 3.52632 15.0461 3.1207 14.7964 2.90215ZM5.04608 11.4634C4.84918 11.4634 4.69452 11.4916 4.5047 11.5689L4.58203 10.683L6.44531 10.683L6.44531 9.64233L3.50623 9.64233L3.37262 12.2298L3.92108 12.5884C4.23047 12.3916 4.37109 12.3353 4.65936 12.3353C5.10938 12.3353 5.42578 12.6166 5.42578 13.1439C5.42578 13.6853 5.10938 13.9595 4.60309 13.9595C4.18829 13.9595 3.82263 13.7416 3.52734 13.4603L2.95782 14.2478C3.37262 14.6556 3.94922 14.972 4.78595 14.972C5.79138 14.972 6.67731 14.29 6.67731 13.1158C6.67731 11.9837 5.93201 11.4634 5.04608 11.4634ZM9.82031 12.9119L10.65 12.9119L10.65 13.7556C10.5375 13.84 10.3406 13.8892 10.1508 13.8892C9.18048 13.8892 8.71643 13.2845 8.71643 12.2439C8.71643 11.2244 9.27185 10.6197 10.0453 10.6197C10.4813 10.6197 10.7555 10.7955 11.0086 11.0275L11.6766 10.2259C11.318 9.86733 10.7695 9.5439 10.0031 9.5439C8.60388 9.5439 7.42969 10.5423 7.42969 12.2861C7.42969 14.058 8.56873 14.972 10.0242 14.972C10.7555 14.972 11.4023 14.6837 11.7679 14.3322L11.7679 11.8853L9.82031 11.8853L9.82031 12.9119Z" fill-rule="nonzero" fill="#FFBF40"/>
	</g>
	<defs/>
</svg>
