<svg width="100.000000" height="100.000000" viewBox="0 0 100 100" fill="none" xmlns="http://www.w3.org/2000/svg" xmlns:xlink="http://www.w3.org/1999/xlink">
	<desc>
			Created with Pixso.
	</desc>
	<g id="组合 15">
		<g id="矩形" filter="url(#filter_23_12979_dd)">
			<path d="M64.5 2C76.9264 2 87 12.0736 87 24.5L87 59.5C87 71.9264 76.9264 82 64.5 82L29.5 82C17.0736 82 7 71.9264 7 59.5L7 24.5C7 12.0736 17.0736 2 29.5 2L64.5 2L64.5 2Z" fill-rule="evenodd" fill="#FFFFFF"/>
			<path d="M64.5 2C76.9264 2 87 12.0736 87 24.5L87 59.5C87 71.9264 76.9264 82 64.5 82L29.5 82C17.0736 82 7 71.9264 7 59.5L7 24.5C7 12.0736 17.0736 2 29.5 2L64.5 2ZM78.9957 10.0043C82.9986 14.0072 85 18.8391 85 24.5L85 59.5C85 65.1609 82.9985 69.9928 78.9957 73.9957C74.9928 77.9986 70.1609 80 64.5 80L29.5 80C23.8391 80 19.0072 77.9985 15.0043 73.9957C11.0015 69.9928 9 65.1609 9 59.5L9 24.5C9 18.8391 11.0015 14.0072 15.0043 10.0043C19.0072 6.00146 23.8391 4 29.5 4L64.5 4C70.1609 4 74.9928 6.00146 78.9957 10.0043Z" fill-rule="evenodd" fill="#0081FF"/>
		</g>
		<g id="差集">
			<path d="M41.0822 34.5527L33.7273 41.9077C31.3841 44.2508 31.3841 48.0498 33.7273 50.3929L35.9306 52.5963C38.2737 54.9394 42.0728 54.9394 44.4159 52.5963L51.8149 45.1973C52.0399 45.3207 52.2905 45.3823 52.5669 45.3819C53.0043 45.3824 53.3774 45.2279 53.6863 44.9182C54.1921 44.4124 54.2841 43.6494 53.9621 43.05L61.3459 35.6662C63.6891 33.3231 63.6891 29.524 61.3459 27.1809L59.1426 24.9776C56.7995 22.6344 53.0005 22.6344 50.6573 24.9776L43.3209 32.3141L43.2575 32.2507C42.6393 31.6325 41.6369 31.6325 41.0188 32.2507C40.4006 32.869 40.4006 33.8712 41.0188 34.4894L41.0822 34.5527ZM41.0822 34.5527L51.4476 44.9182C51.5613 45.0323 51.6837 45.1253 51.8149 45.1973L53.9621 43.05C53.8906 42.9169 53.7986 42.7919 53.6863 42.6795L43.3209 32.3141L41.0822 34.5527Z" clip-rule="evenodd" fill-rule="evenodd" fill="#3377FF" fill-opacity="1.000000"/>
		</g>
		<g id="path">
			<path d="M61.551 54.5198C61.1058 54.5204 60.726 54.363 60.4117 54.0478L49.7963 43.4323C49.1669 42.8032 49.1669 41.7829 49.7963 41.1536C50.4254 40.5244 51.4457 40.5244 52.075 41.1536L62.6904 51.769C63.3197 52.3982 63.3197 53.4185 62.6904 54.0478C62.376 54.363 61.9962 54.5203 61.551 54.5198ZM46.7267 39.5881C46.2816 39.5887 45.9018 39.4315 45.5875 39.1161L34.972 28.5007C34.3427 27.8714 34.3427 26.8513 34.972 26.222C35.6012 25.5927 36.6215 25.5927 37.2507 26.222L47.8662 36.8374C48.4955 37.4667 48.4955 38.4869 47.8662 39.1161C47.5518 39.4314 47.172 39.5887 46.7267 39.5881Z" fill-rule="evenodd" fill="#FF6868"/>
		</g>
		<g id="path">
			<path d="M55.7758 44.2809L53.4576 41.9626C57.1294 38.2905 59.3292 36.3115 59.6591 36.0172C62.0881 33.5536 62.0776 29.5734 59.6274 27.123C57.1652 24.6778 53.1569 24.6669 50.7013 27.1227L44.6816 33.1414L42.3637 30.8229L48.3831 24.8043C52.1221 21.0652 58.2062 21.0652 61.9452 24.8044L62.0643 24.9256C65.6844 28.674 65.6447 34.6682 61.9456 38.3675L61.8735 38.4354C61.8514 38.4548 59.6044 40.452 55.7758 44.2809ZM39.3354 57C36.8794 57 34.4241 56.0654 32.5543 54.1955C28.8152 50.4563 28.8152 44.372 32.5543 40.6328L33.0344 40.1526L33.082 40.1526C33.9196 39.387 35.8833 37.56 38.7242 34.7191L41.0424 37.0374C37.3704 40.7095 35.1706 42.6887 34.8408 42.9828C33.6688 44.1713 33.0239 45.7431 33.0239 47.4141C33.0239 49.0999 33.6803 50.685 34.8725 51.8771C37.3334 54.338 41.3373 54.338 43.7982 51.8771L49.8184 45.8586L52.1362 48.1774L46.1163 54.1956C44.2469 56.0649 41.7908 57 39.3354 57Z" fill-rule="evenodd" fill="#41398C"/>
		</g>
	</g>
	<defs>
		<filter id="filter_23_12979_dd" x="0.000000" y="0.000000" width="100.000000" height="100.000000" filterUnits="userSpaceOnUse" color-interpolation-filters="sRGB">
			<feFlood flood-opacity="0" result="BackgroundImageFix"/>
			<feColorMatrix in="SourceAlpha" type="matrix" values="0 0 0 0 0 0 0 0 0 0 0 0 0 0 0 0 0 0 127 0"/>
			<feOffset dx="3" dy="8"/>
			<feGaussianBlur stdDeviation="3.33333"/>
			<feColorMatrix type="matrix" values="0 0 0 0 0 0 0 0 0 0 0 0 0 0 0 0 0 0 0.25 0"/>
			<feBlend mode="normal" in2="BackgroundImageFix" result="effect_dropShadow_1"/>
			<feBlend mode="normal" in="SourceGraphic" in2="effect_dropShadow_1" result="shape"/>
		</filter>
	</defs>
</svg>
