<svg width="16.000000" height="17.000195" viewBox="0 0 16 17.0002" fill="none" xmlns="http://www.w3.org/2000/svg" xmlns:xlink="http://www.w3.org/1999/xlink">
	<desc>
			Created with Pixso.
	</desc>
	<g id="path">
		<path d="M13.7143 12.3105C13.584 12.3106 13.4547 12.3219 13.3263 12.3446C13.1979 12.3673 13.0723 12.401 12.9495 12.4458C12.8267 12.4905 12.7086 12.5456 12.5949 12.6111C12.4814 12.6766 12.374 12.7515 12.2729 12.8358C12.1718 12.9201 12.0784 13.0126 11.9927 13.1132C11.907 13.2139 11.8303 13.3213 11.7625 13.4355C11.6947 13.5496 11.6369 13.6689 11.589 13.7932C11.5411 13.9174 11.5038 14.045 11.4771 14.1758L5.79315 14.1747C5.64401 14.0727 5.55313 13.3757 5.49942 12.8967L7.14914 12.8967C7.40973 13.2508 7.82001 13.483 8.28571 13.483C8.46686 13.4829 8.64166 13.4488 8.81015 13.3805C8.97861 13.3123 9.129 13.2147 9.26129 13.0877C9.39359 12.9608 9.49854 12.8134 9.57617 12.6455C9.65378 12.4776 9.69867 12.3009 9.71078 12.1155C9.7229 11.9301 9.70145 11.7489 9.64636 11.5719C9.59131 11.3948 9.50647 11.2344 9.39191 11.0904C9.27731 10.9465 9.14099 10.8292 8.98291 10.7385C8.82483 10.6477 8.65604 10.5899 8.47653 10.5651C8.297 10.5402 8.11932 10.55 7.94345 10.5945C7.76758 10.639 7.6058 10.7151 7.45813 10.8227C7.31046 10.9303 7.18719 11.0619 7.08835 11.2177C6.98947 11.3734 6.92194 11.5423 6.88571 11.7243L5.3457 11.7243C5.13828 10.5677 4.66113 9.3795 3.16458 9.3795L0.571442 9.3795C0.495667 9.3795 0.42276 9.39438 0.352753 9.42413C0.282745 9.45387 0.220947 9.49623 0.167358 9.5512C0.1138 9.60617 0.0725098 9.66956 0.0434875 9.74138C0.0144958 9.8132 0 9.88797 0 9.96571C0 10.0434 0.0144958 10.1182 0.0434875 10.19C0.0725098 10.2619 0.1138 10.3253 0.167358 10.3802C0.220947 10.4352 0.282745 10.4775 0.352753 10.5073C0.42276 10.537 0.495667 10.5519 0.571442 10.5519L3.16513 10.5519C3.74228 10.5519 4.00687 10.9142 4.1777 11.7243L0.571442 11.7243C0.495667 11.7243 0.42276 11.7392 0.352753 11.769C0.282745 11.7987 0.220947 11.8411 0.167358 11.896C0.1138 11.951 0.0725098 12.0144 0.0434875 12.0862C0.0144958 12.158 0 12.2328 0 12.3105C0 12.3883 0.0144958 12.463 0.0434875 12.5349C0.0725098 12.6067 0.1138 12.6701 0.167358 12.725C0.220947 12.78 0.282745 12.8224 0.352753 12.8521C0.42276 12.8819 0.495667 12.8967 0.571442 12.8967L4.34915 12.8967C4.46915 13.9971 4.62744 15.3483 5.81772 15.3483L11.4994 15.3483C11.5137 15.3483 11.5251 15.3412 11.5388 15.3401C11.8263 16.2985 12.6857 17.0002 13.7143 17.0002C13.8644 17.0002 14.013 16.9852 14.1602 16.9551C14.3074 16.9251 14.4503 16.8806 14.589 16.8217C14.7277 16.7628 14.8594 16.6906 14.9842 16.605C15.1089 16.5195 15.2244 16.4223 15.3305 16.3134C15.4366 16.2045 15.5314 16.0861 15.6148 15.9581C15.6982 15.8301 15.7686 15.6949 15.826 15.5527C15.8835 15.4104 15.9268 15.2638 15.9561 15.1128C15.9854 14.9618 16 14.8093 16 14.6554C16 14.5014 15.9854 14.3489 15.9561 14.1979C15.9268 14.0469 15.8835 13.9003 15.826 13.758C15.7686 13.6158 15.6982 13.4807 15.6148 13.3526C15.5314 13.2246 15.4366 13.1062 15.3305 12.9973C15.2244 12.8885 15.1089 12.7913 14.9842 12.7057C14.8594 12.6202 14.7277 12.5479 14.589 12.489C14.4503 12.4301 14.3074 12.3856 14.1602 12.3556C14.013 12.3256 13.8644 12.3105 13.7143 12.3105ZM13.7143 15.8278C13.5627 15.8277 13.4169 15.798 13.2769 15.7384C13.1368 15.6789 13.0132 15.5941 12.906 15.4841C12.7989 15.3741 12.7163 15.2473 12.6583 15.1036C12.6004 14.9599 12.5714 14.8103 12.5714 14.6548C12.5715 14.4993 12.6005 14.3497 12.6586 14.206C12.7166 14.0624 12.7992 13.9356 12.9065 13.8256C13.0137 13.7157 13.1373 13.631 13.2774 13.5715C13.4174 13.512 13.5633 13.4823 13.7148 13.4824C13.8665 13.4824 14.0123 13.5122 14.1523 13.5717C14.2923 13.6313 14.4159 13.7161 14.5231 13.8261C14.6302 13.936 14.7128 14.0629 14.7708 14.2066C14.8288 14.3503 14.8578 14.4999 14.8577 14.6554C14.8577 14.8109 14.8286 14.9605 14.7706 15.1041C14.7126 15.2478 14.6299 15.3746 14.5227 15.4845C14.4155 15.5944 14.2918 15.6791 14.1518 15.7386C14.0117 15.7981 13.8659 15.8278 13.7143 15.8278ZM0.571442 8.20709L7.43771 8.20709C7.4617 8.20709 7.4823 8.19595 7.50516 8.19302C7.56674 8.44585 7.66672 8.68155 7.80508 8.90012C7.94345 9.11868 8.11267 9.30825 8.31277 9.46881C8.51288 9.62937 8.73297 9.75222 8.97308 9.83735C9.21317 9.92248 9.46024 9.96526 9.71429 9.96571C9.86438 9.96571 10.013 9.95069 10.1602 9.92065C10.3074 9.89062 10.4503 9.84614 10.589 9.78722C10.7277 9.7283 10.8594 9.65607 10.9842 9.57054C11.1089 9.485 11.2244 9.3878 11.3305 9.27893C11.4366 9.17006 11.5314 9.05162 11.6148 8.9236C11.6982 8.79558 11.7686 8.66045 11.826 8.51821C11.8835 8.37596 11.9268 8.22934 11.9561 8.07834C11.9854 7.92733 12 7.77485 12 7.62088C12 7.46692 11.9854 7.31444 11.9561 7.16343C11.9268 7.01242 11.8835 6.8658 11.826 6.72356C11.7686 6.58131 11.6982 6.44618 11.6148 6.31817C11.5314 6.19015 11.4366 6.07171 11.3305 5.96284C11.2244 5.85397 11.1089 5.75677 10.9842 5.67123C10.8594 5.58569 10.7277 5.51346 10.589 5.45454C10.4503 5.39563 10.3074 5.35115 10.1602 5.32111C10.013 5.29107 9.86438 5.27606 9.71429 5.27606C9.46024 5.2765 9.21317 5.31929 8.97308 5.40442C8.73297 5.48955 8.51288 5.61239 8.31277 5.77296C8.11267 5.93352 7.94345 6.12309 7.80508 6.34165C7.66672 6.56022 7.56674 6.79592 7.50516 7.04875C7.4823 7.04582 7.4617 7.03468 7.43771 7.03468L0.571442 7.03468C0.495667 7.03468 0.42276 7.04955 0.352753 7.0793C0.282745 7.10905 0.220947 7.15141 0.167358 7.20637C0.1138 7.26134 0.0725098 7.32473 0.0434875 7.39655C0.0144958 7.46837 0 7.54315 0 7.62088C0 7.69862 0.0144958 7.7734 0.0434875 7.84521C0.0725098 7.91703 0.1138 7.98043 0.167358 8.03539C0.220947 8.09036 0.282745 8.13272 0.352753 8.16247C0.42276 8.19222 0.495667 8.20709 0.571442 8.20709ZM9.71429 6.44847C9.86594 6.4484 10.0118 6.47812 10.152 6.53762C10.2921 6.59712 10.4158 6.68187 10.523 6.79187C10.6303 6.90187 10.7129 7.02874 10.7709 7.17248C10.829 7.31623 10.858 7.46589 10.8579 7.62147C10.8579 7.77705 10.8288 7.9267 10.7707 8.07041C10.7126 8.21412 10.6299 8.34095 10.5226 8.4509C10.4153 8.56085 10.2916 8.64553 10.1514 8.70496C10.0113 8.76439 9.86539 8.79403 9.71371 8.79388C9.56219 8.79374 9.41647 8.76387 9.27652 8.70427C9.13657 8.64468 9.01306 8.55989 8.90598 8.44991C8.79892 8.33993 8.7164 8.21313 8.65848 8.06949C8.60056 7.92586 8.57159 7.77632 8.57166 7.62088C8.57169 7.46544 8.60071 7.31592 8.65869 7.17232C8.71671 7.02871 8.79926 6.90195 8.90637 6.79203C9.01352 6.6821 9.13708 6.59738 9.27704 6.53786C9.41702 6.47833 9.56277 6.44854 9.71429 6.44847ZM0.571442 5.96837L3.16513 5.96837C5.09772 5.96837 5.33658 4.31468 5.47943 3.32692C5.59885 2.49333 5.672 2.34502 5.81772 2.34502L11.1491 2.34502C11.4097 2.69909 11.82 2.93123 12.2857 2.93123C12.4669 2.93119 12.6417 2.89705 12.8102 2.82879C12.9786 2.76054 13.129 2.66294 13.2613 2.53601C13.3936 2.40907 13.4985 2.26165 13.5762 2.09376C13.6538 1.92586 13.6987 1.74921 13.7108 1.5638C13.7229 1.3784 13.7014 1.19718 13.6464 1.02015C13.5913 0.843126 13.5065 0.682648 13.3919 0.538723C13.2773 0.394796 13.141 0.27747 12.9829 0.186743C12.8248 0.0960159 12.656 0.0382233 12.4765 0.0133667C12.297 -0.0114918 12.1193 -0.00167847 11.9435 0.0428047C11.7676 0.0872879 11.6058 0.163336 11.4581 0.270947C11.3105 0.378559 11.1872 0.510221 11.0883 0.665936C10.9895 0.821648 10.9219 0.99054 10.8857 1.17261L5.81772 1.17261C4.63428 1.17261 4.46228 2.36554 4.34857 3.15516C4.18057 4.32113 4.02628 4.79595 3.16513 4.79595L0.571442 4.79595C0.495667 4.79595 0.42276 4.81083 0.352753 4.84057C0.282745 4.87032 0.220947 4.91268 0.167358 4.96765C0.1138 5.02262 0.0725098 5.08601 0.0434875 5.15783C0.0144958 5.22964 0 5.30442 0 5.38216C0 5.4599 0.0144958 5.53467 0.0434875 5.60649C0.0725098 5.67831 0.1138 5.7417 0.167358 5.79667C0.220947 5.85164 0.282745 5.894 0.352753 5.92374C0.42276 5.95349 0.495667 5.96837 0.571442 5.96837Z" fill-rule="evenodd" fill="#3377FF"/>
	</g>
	<defs/>
</svg>
