<svg width="32.000000" height="32.000000" viewBox="0 0 32 32" fill="none" xmlns="http://www.w3.org/2000/svg" xmlns:xlink="http://www.w3.org/1999/xlink">
	<desc>
			Created with Pixso.
	</desc>
	<g id="动环网">
		<g clip-path="url(#clip53_157)">
			<g id="path">
				<path d="M16 2.66669C13.2666 2.66669 10.7333 3.53336 8.66663 4.8667C8.33328 4.73337 7.99997 4.66669 7.66663 4.66669C6.39996 4.66669 5.33331 5.73337 5.33331 7.00003C5.33331 8.26669 6.39996 9.33334 7.66663 9.33334C8.93329 9.33334 9.99997 8.26669 9.99997 7.00003C9.99997 6.80002 9.99997 6.60001 9.93329 6.46667C11.6666 5.33334 13.7333 4.66669 16 4.66669C22.2666 4.66669 27.3333 9.73337 27.3333 16C27.3333 16.5334 27.8 17 28.3333 17C28.8666 17 29.3333 16.5334 29.3333 16C29.3333 8.66669 23.3333 2.66669 16 2.66669ZM24.3333 22.6667C23.0666 22.6667 22 23.7334 22 25C22 25.2 22 25.4 22.0666 25.5334C20.3333 26.6667 18.2666 27.3333 16 27.3333C9.73331 27.3333 4.66663 22.2667 4.66663 16C4.66663 15.4667 4.19995 15 3.66663 15C3.1333 15 2.66663 15.4667 2.66663 16C2.66663 23.3333 8.66663 29.3333 16 29.3333C18.7333 29.3333 21.2666 28.4667 23.3333 27.1334C23.6666 27.2667 24 27.3333 24.3333 27.3333C25.6 27.3333 26.6666 26.2667 26.6666 25C26.6666 23.7333 25.6 22.6667 24.3333 22.6667ZM13.8666 14C13.9333 14.6667 14 15.3333 14 16C14 16.6667 13.9333 17.3333 13.8666 18L18.1333 18C18.0666 17.3333 18 16.6667 18 16C18 15.3333 18.0666 14.6667 18.1333 14L13.8666 14Z" fill-rule="evenodd" fill="#FFBF40"/>
			</g>
			<g id="path">
				<path d="M19.9333 8.33331C18.7333 7.73331 17.4 7.33331 15.9333 7.33331C14.4667 7.33331 13.2 7.66666 12 8.33331C12.6667 9.46664 13.1333 10.7333 13.4667 12L18.4667 12C18.8 10.6667 19.2667 9.46664 19.9333 8.33331ZM8.33334 12L11.4 12C11.1333 11.1333 10.8 10.2666 10.3333 9.39999C9.53336 10.1333 8.80002 11 8.33334 12ZM7.33334 16C7.33334 16.6667 7.40002 17.3333 7.60001 18L11.8667 18C11.9333 17.3333 12 16.6667 12 16C12 15.3333 11.9333 14.6667 11.8667 14L7.60001 14C7.46667 14.6667 7.33334 15.3333 7.33334 16ZM20.6 12L23.6667 12C23.1333 11 22.4667 10.1333 21.6667 9.39999C21.2667 10.2 20.8667 11.0667 20.6 12ZM16 24.6667C17.4667 24.6667 18.8 24.3333 20 23.6667C19.3333 22.5333 18.8667 21.2666 18.5334 20L13.4667 20C13.1333 21.3333 12.6667 22.5333 12 23.6667C13.2 24.2667 14.5334 24.6667 16 24.6667ZM23.6667 20L20.6 20C20.8667 20.8666 21.2 21.7333 21.6667 22.6C22.4667 21.8666 23.2 21 23.6667 20ZM20 16C20 16.6667 20.0667 17.3333 20.1333 18L24.4 18C24.5334 17.3333 24.6667 16.6667 24.6667 16C24.6667 15.3333 24.6 14.6667 24.4 14L20.1333 14C20.0667 14.6667 20 15.3333 20 16ZM11.4 20L8.33334 20C8.86667 21 9.53336 21.8666 10.3333 22.6C10.7333 21.8 11.1333 20.9333 11.4 20Z" fill-rule="evenodd" fill="#FFBF40"/>
			</g>
		</g>
	</g>
	<defs>
		<clipPath id="clip53_157">
			<rect width="32.000000" height="32.000000" fill="white"/>
		</clipPath>
	</defs>
</svg>
