<svg width="31.751938" height="29.826599" viewBox="0 0 31.7519 29.8266" fill="none" xmlns="http://www.w3.org/2000/svg" xmlns:xlink="http://www.w3.org/1999/xlink">
	<desc>
			Created with Pixso.
	</desc>
	<g id="组合">
		<g id="组合">
			<g id="形状">
				<g id="g">
					<g id="path">
						<path d="M31.2414 21.7863L30.6699 21.2012C28.9459 19.4333 27.9773 17.0357 27.9771 14.5357L27.9771 12.408C27.9771 5.55539 22.5589 0 15.8753 0C9.19089 0 3.77353 5.55539 3.77353 12.408L3.77353 14.5357C3.77353 17.0359 2.80417 19.4342 1.07991 21.2012L0.510162 21.7863C-0.579697 22.9046 0.192062 24.817 1.73471 24.8555L10.496 24.8555L10.496 24.7734C10.5493 21.7658 12.9424 19.3563 15.8762 19.3563C18.81 19.3563 21.2031 21.7658 21.2564 24.7734L21.2564 24.8555L30.0168 24.8555C31.5595 24.817 32.3321 22.9046 31.2414 21.7863L31.2414 21.7863Z" fill-rule="evenodd" fill="#FF6868"/>
					</g>
				</g>
			</g>
			<g id="形状">
				<g id="g">
					<g id="path">
						<path d="M15.8759 29.8266C18.8733 29.8261 21.3096 27.1631 21.3333 23.8613L10.4186 23.8613C10.4418 27.1633 12.8783 29.8267 15.8759 29.8266L15.8759 29.8266Z" fill-rule="evenodd" fill="#3377FF"/>
					</g>
				</g>
			</g>
			<g id="形状">
				<g id="g">
					<g id="path">
						<path d="M15.8764 18.8902C12.8625 18.8902 10.4191 21.5216 10.4186 24.768L10.4204 24.8555L21.3324 24.8555L21.3333 24.768C21.3333 21.5218 18.8902 18.8902 15.8764 18.8902L15.8764 18.8902Z" fill-rule="evenodd" fill="#41398C"/>
					</g>
				</g>
			</g>
		</g>
	</g>
	<defs/>
</svg>
