<svg width="17.000000" height="16.000000" viewBox="0 0 17 16" fill="none" xmlns="http://www.w3.org/2000/svg" xmlns:xlink="http://www.w3.org/1999/xlink">
	<desc>
			Created with Pixso.
	</desc>
	<g id="path">
		<path d="M16.9365 13.4767L16.9632 13.4662L15.1657 8.60568C15.1246 8.49554 15.0686 8.3941 14.9976 8.30139C14.9266 8.20868 14.8439 8.12878 14.7494 8.06177C14.6549 7.99475 14.5529 7.94357 14.4432 7.90823C14.3337 7.87292 14.2214 7.85501 14.1066 7.85455L13.7416 7.85455L13.7416 0.581818C13.7416 0.504669 13.7273 0.43045 13.6985 0.359161C13.6698 0.287872 13.6288 0.224976 13.5757 0.17041C13.5226 0.115845 13.4613 0.073822 13.3918 0.044281C13.3224 0.0147705 13.2501 0 13.175 0C13.0999 0 13.0276 0.0147705 12.9581 0.044281C12.8887 0.073822 12.8275 0.115845 12.7743 0.17041C12.7212 0.224976 12.6802 0.287872 12.6515 0.359161C12.6227 0.43045 12.6083 0.504669 12.6083 0.581818L12.6083 7.85455L9.06665 7.85455L9.06665 0.581818C9.06665 0.504669 9.05231 0.43045 9.02356 0.359161C8.99475 0.287872 8.95386 0.224976 8.9007 0.17041C8.84753 0.115845 8.78625 0.073822 8.71686 0.044281C8.6474 0.0147705 8.57513 0 8.5 0C8.42487 0 8.3526 0.0147705 8.28314 0.044281C8.21375 0.073822 8.15247 0.115845 8.0993 0.17041C8.04614 0.224976 8.00525 0.287872 7.97644 0.359161C7.94769 0.43045 7.93335 0.504669 7.93335 0.581818L7.93335 7.85455L4.25 7.85455L4.25 0.581818C4.25 0.504669 4.2356 0.43045 4.20685 0.359161C4.1781 0.287872 4.13715 0.224976 4.08405 0.17041C4.03088 0.115845 3.9696 0.073822 3.90021 0.044281C3.83075 0.0147705 3.75848 0 3.68335 0C3.60822 0 3.53589 0.0147705 3.46649 0.044281C3.39703 0.073822 3.33575 0.115845 3.28265 0.17041C3.22949 0.224976 3.18854 0.287872 3.15979 0.359161C3.13104 0.43045 3.11664 0.504669 3.11664 0.581818L3.11664 7.85455L2.89337 7.85455C2.7785 7.85495 2.6662 7.8728 2.55658 7.90811C2.44696 7.94342 2.34485 7.99457 2.25024 8.06161C2.1557 8.12863 2.07294 8.20853 2.00189 8.30127C1.93091 8.39404 1.87482 8.49551 1.83374 8.60568L0.0368042 13.4662L0.0634766 13.4767C0.026062 13.6338 0 13.7949 0 13.9636C0 15.0865 0.889648 16 1.98334 16L15.0167 16C16.1104 16 17 15.0865 17 13.9636C17 13.7949 16.9739 13.6338 16.9365 13.4767ZM2.89337 9.01819L14.106 9.01819L15.1884 11.9453C15.1312 11.9401 15.0756 11.9273 15.0167 11.9273L1.98334 11.9273C1.92438 11.9273 1.8689 11.9401 1.81165 11.9453L2.89337 9.01819ZM15.0167 14.8364L1.98334 14.8364C1.51471 14.8364 1.13336 14.4448 1.13336 13.9636C1.13336 13.4825 1.51471 13.0909 1.98334 13.0909L15.0167 13.0909C15.4853 13.0909 15.8666 13.4825 15.8666 13.9636C15.8666 14.4448 15.4853 14.8364 15.0167 14.8364Z" fill-rule="evenodd" fill="#FF6868"/>
	</g>
	<defs/>
</svg>
