<svg width="29.000000" height="29.000000" viewBox="0 0 29 29" fill="none" xmlns="http://www.w3.org/2000/svg" xmlns:xlink="http://www.w3.org/1999/xlink">
	<desc>
			Created with Pixso.
	</desc>
	<g id="增值网">
		<g clip-path="url(#clip53_162)">
			<g id="path">
				<path d="M14.5 1.8125C17.6243 1.8125 20.4848 2.94177 22.6957 4.81445L22.7254 4.83966L22.7589 4.86835C22.7909 4.89575 22.8227 4.92334 22.8543 4.95111L22.9052 4.99585C23.079 5.14972 23.2486 5.30823 23.4138 5.47134L23.4738 5.53104C23.5464 5.60358 23.618 5.67697 23.6887 5.75122L23.7438 5.80942C23.814 5.88412 23.8834 5.95966 23.9518 6.03604L24.0078 6.09897C24.0355 6.13019 24.0629 6.16156 24.0902 6.19305L24.135 6.24506C24.1625 6.27707 24.1897 6.30914 24.2169 6.3414L24.2615 6.39484C24.2816 6.41901 24.3016 6.44327 24.3215 6.46756L24.375 6.53333C26.1341 8.71106 27.1875 11.4825 27.1875 14.5C27.1875 14.9204 27.1671 15.3361 27.1271 15.746L27.111 15.8985C27.0972 16.0245 27.0818 16.1504 27.0642 16.2759L27.0519 16.3618C27.0456 16.4047 27.039 16.4476 27.0323 16.4905L27.0211 16.56C27.014 16.6035 27.0067 16.6469 26.9991 16.6903L26.9865 16.762C26.9788 16.8046 26.9709 16.8472 26.9628 16.8897L26.9488 16.9618C26.9283 17.066 26.9065 17.1699 26.8834 17.2736L26.8652 17.3539C26.8554 17.3965 26.8454 17.4391 26.8352 17.4815L26.8179 17.5522C26.8023 17.6155 26.7862 17.6786 26.7696 17.7416C25.8914 21.0748 23.6909 23.8714 20.7629 25.5365L20.674 25.5866C20.4692 25.7008 20.2614 25.8094 20.0505 25.9121L19.9761 25.9481C19.9374 25.9667 19.8986 25.985 19.8597 26.0032L19.7986 26.0315C19.7597 26.0494 19.7206 26.0671 19.6815 26.0847L19.6183 26.1127C19.5233 26.1547 19.4278 26.1955 19.3317 26.2351L19.2523 26.2675C19.156 26.3064 19.0592 26.3441 18.962 26.3807L18.881 26.4108C18.8416 26.4253 18.8021 26.4396 18.7625 26.4537L18.6945 26.4778L18.6714 26.4858C17.3652 26.9404 15.9614 27.1875 14.5 27.1875C11.1371 27.1875 8.07968 25.8791 5.8092 23.7436C5.52527 23.4765 5.25415 23.1971 4.99579 22.9052C4.92804 22.8286 4.85901 22.7487 4.79315 22.6705L4.73773 22.6043C4.67267 22.526 4.60852 22.4469 4.54535 22.3671L4.49365 22.3013C4.41791 22.2043 4.34357 22.1061 4.27063 22.0069C2.72534 19.9047 1.8125 17.309 1.8125 14.5C1.8125 12.1976 2.42578 10.0384 3.49792 8.17688L3.53241 8.11761C3.54395 8.09787 3.55548 8.07819 3.56708 8.05853L3.60205 7.99969C3.60773 7.98996 3.61353 7.98029 3.61938 7.97064C3.63837 7.93912 3.65747 7.90771 3.6767 7.87634L3.71265 7.81799L3.71973 7.80664C3.74023 7.77368 3.76093 7.74081 3.78174 7.70804L3.8208 7.64676C3.84241 7.61319 3.8642 7.57971 3.88611 7.54636L3.92426 7.48853C3.9801 7.40457 4.04211 7.31351 4.09991 7.23093L4.15045 7.15939C4.20892 7.07706 4.26837 6.99545 4.32886 6.91452L4.38013 6.84637C4.40491 6.8136 4.42987 6.78094 4.45502 6.74838L4.49927 6.69153C5.39679 5.54355 6.4599 4.57773 7.68845 3.7941L7.73975 3.76181L7.79111 3.72955C7.80728 3.71924 7.82364 3.70911 7.83997 3.69901L7.90112 3.66162L7.9624 3.62445C7.97562 3.61633 7.98889 3.60837 8.00226 3.6004C8.04895 3.57263 8.09576 3.54504 8.14279 3.51779L8.16785 3.50314C8.19974 3.4848 8.23166 3.46661 8.26367 3.44849L8.33398 3.40894C8.36768 3.3902 8.40146 3.37161 8.4353 3.35315L8.50122 3.31741C8.53754 3.29791 8.57394 3.27856 8.61044 3.2594L8.67572 3.22534C8.71225 3.20645 8.7489 3.18771 8.78564 3.16916L8.84894 3.13739C8.8862 3.1188 8.92358 3.10043 8.96103 3.08221L9.02484 3.05142C9.1174 3.00708 9.21048 2.96387 9.30408 2.92181L9.3862 2.88525C9.42453 2.86835 9.46295 2.85162 9.50146 2.83511L9.56305 2.80887C9.58606 2.79916 9.6091 2.78949 9.63217 2.77991C11.1311 2.15659 12.7755 1.8125 14.5 1.8125ZM4.69385 10.3423L4.68835 10.3552C4.14948 11.6291 3.85156 13.0298 3.85156 14.5C3.85156 16.0503 4.18286 17.5232 4.7785 18.8517C5.24792 16.9837 5.99994 15.2282 6.98663 13.6331C7.08441 14.143 7.53287 14.5283 8.07129 14.5283C8.15506 14.5283 8.23666 14.519 8.31506 14.5013L8.21481 14.6658C7.09134 16.5391 6.31866 18.6468 5.98749 20.8981C7.93054 23.4794 11.0204 25.1484 14.5 25.1484C16.2997 25.1484 17.995 24.702 19.4814 23.9138C19.7614 22.6902 19.9092 21.4159 19.9092 20.1074C19.9092 19.7867 19.9003 19.468 19.8828 19.1516C20.0701 19.2794 20.2771 19.3431 20.5039 19.3428C21.1139 19.3428 21.6084 18.8483 21.6084 18.2383C21.6084 17.6283 21.1139 17.1338 20.5039 17.1338C19.8939 17.1338 19.3994 17.6283 19.3994 18.2383C19.3994 18.4756 19.4743 18.6954 19.6016 18.8755C15.3141 18.7093 11.3994 17.0901 8.33609 14.4964C8.81818 14.3778 9.17578 13.9425 9.17578 13.4238C9.17578 12.8138 8.6813 12.3193 8.07129 12.3193C7.52707 12.3193 7.07477 12.7129 6.98355 13.231C6.12476 12.3439 5.36151 11.381 4.69385 10.3423ZM24.3938 18.4449L24.3412 18.4564C23.4432 18.6537 22.5355 18.7835 21.6182 18.8459L21.4536 18.8564L21.459 18.9386C21.4831 19.327 21.4951 19.7166 21.4951 20.1074C21.4951 20.98 21.435 21.8387 21.3185 22.6793C22.6667 21.5543 23.7325 20.1021 24.3938 18.4449ZM14.5 3.85156C13.7502 3.85156 13.0184 3.92908 12.3124 4.07651C13.3818 4.70496 14.3786 5.43286 15.3028 6.26019L15.3651 6.31628C15.3505 6.3157 15.3359 6.31543 15.3213 6.31543C14.7113 6.31543 14.2168 6.80991 14.2168 7.41992C14.2168 7.84241 14.454 8.2095 14.8025 8.3952C12.6129 9.56491 10.7095 11.2001 9.22427 13.1687C12.0486 15.6113 15.6863 17.1394 19.6763 17.2912C19.1161 13.9335 17.5718 10.9084 15.3492 8.52399C15.9463 8.50928 16.4258 8.0206 16.4258 7.41992C16.4258 6.85425 16.0005 6.38794 15.4523 6.32312L15.4664 6.31705C16.769 5.75699 18.1182 5.35257 19.5141 5.10376C18.02 4.3046 16.3129 3.85156 14.5 3.85156ZM21.472 6.4512L21.4375 6.45404C19.7492 6.5878 18.1304 6.96826 16.6171 7.55945C19.0436 10.2074 20.7129 13.5612 21.2809 17.2771C22.5372 17.2081 23.7567 17.0034 24.9256 16.6761C25.0717 15.9736 25.1484 15.2458 25.1484 14.5C25.1484 11.2855 23.7241 8.40363 21.472 6.4512ZM10.2051 4.7532C8.2988 5.59497 6.68365 6.98068 5.56024 8.71231C6.25751 9.93521 7.09332 11.0546 8.06775 12.0706C9.62888 10.0426 11.5993 8.34552 13.8556 7.10422C12.7501 6.17322 11.5247 5.38068 10.2051 4.7532Z" fill-rule="nonzero" fill="#DB7009"/>
			</g>
			<g id="path">
				<path d="M20.6172 15.916C21.8685 15.916 22.8828 16.9304 22.8828 18.1816C22.8828 19.4329 21.8685 20.4473 20.6172 20.4473C19.3659 20.4473 18.3516 19.4329 18.3516 18.1816C18.3516 16.9304 19.3659 15.916 20.6172 15.916ZM20.6172 17.502C20.2418 17.502 19.9375 17.8062 19.9375 18.1816C19.9375 18.557 20.2418 18.8613 20.6172 18.8613C20.9926 18.8613 21.2969 18.557 21.2969 18.1816C21.2969 17.8062 20.9926 17.502 20.6172 17.502ZM8.09961 11.1582C9.35089 11.1582 10.3652 12.1725 10.3652 13.4238C10.3652 14.6751 9.35089 15.6895 8.09961 15.6895C6.84833 15.6895 5.83398 14.6751 5.83398 13.4238C5.83398 12.1725 6.84833 11.1582 8.09961 11.1582ZM8.09961 12.7441C7.72421 12.7441 7.41992 13.0484 7.41992 13.4238C7.41992 13.7992 7.72421 14.1035 8.09961 14.1035C8.47501 14.1035 8.7793 13.7992 8.7793 13.4238C8.7793 13.0484 8.47501 12.7441 8.09961 12.7441ZM15.3779 5.0127C16.6292 5.0127 17.6436 6.02704 17.6436 7.27832C17.6436 8.5296 16.6292 9.54395 15.3779 9.54395C14.1266 9.54395 13.1123 8.5296 13.1123 7.27832C13.1123 6.02704 14.1266 5.0127 15.3779 5.0127ZM15.3779 6.59863C15.0025 6.59863 14.6982 6.90292 14.6982 7.27832C14.6982 7.65372 15.0025 7.95801 15.3779 7.95801C15.7533 7.95801 16.0576 7.65372 16.0576 7.27832C16.0576 6.90292 15.7533 6.59863 15.3779 6.59863Z" fill-rule="nonzero" fill="#FFBF40"/>
			</g>
		</g>
	</g>
	<defs>
		<clipPath id="clip53_162">
			<rect width="29.000000" height="29.000000" fill="white"/>
		</clipPath>
	</defs>
</svg>
