<svg width="100.000000" height="100.000000" viewBox="0 0 100 100" fill="none" xmlns="http://www.w3.org/2000/svg" xmlns:xlink="http://www.w3.org/1999/xlink">
	<desc>
			Created with Pixso.
	</desc>
	<g id="组合 16">
		<g id="组合">
			<g id="矩形" filter="url(#filter_23_12948_dd)">
				<path d="M64.5 2C76.9264 2 87 12.0736 87 24.5L87 59.5C87 71.9264 76.9264 82 64.5 82L29.5 82C17.0736 82 7 71.9264 7 59.5L7 24.5C7 12.0736 17.0736 2 29.5 2L64.5 2L64.5 2Z" fill-rule="evenodd" fill="#FFFFFF"/>
				<path d="M64.5 2C76.9264 2 87 12.0736 87 24.5L87 59.5C87 71.9264 76.9264 82 64.5 82L29.5 82C17.0736 82 7 71.9264 7 59.5L7 24.5C7 12.0736 17.0736 2 29.5 2L64.5 2ZM78.9957 10.0043C82.9986 14.0072 85 18.8391 85 24.5L85 59.5C85 65.1609 82.9986 69.9928 78.9957 73.9957C74.9928 77.9986 70.1609 80 64.5 80L29.5 80C23.8391 80 19.0072 77.9985 15.0043 73.9957C11.0014 69.9928 9 65.1609 9 59.5L9 24.5C9 18.8391 11.0014 14.0072 15.0043 10.0043C19.0072 6.00146 23.8391 4 29.5 4L64.5 4C70.1609 4 74.9928 6.00146 78.9957 10.0043Z" fill-rule="evenodd" fill="#FFB640"/>
			</g>
		</g>
		<g id="path">
			<path d="M53.9041 26.6792L32.0175 26.6792C29.9112 26.6792 28.1876 28.4109 28.1876 30.528L28.1876 45.9835C28.1876 48.1006 29.9112 49.8323 32.0175 49.8323L33.5724 49.8323L36.7344 55.2109L39.7536 49.8323L53.9045 49.8323C56.0112 49.8323 57.7344 48.1002 57.7344 45.9835L57.7344 30.528C57.734 28.4109 56.0107 26.6792 53.9041 26.6792ZM42.9424 45.1693C41.9804 45.1329 41.4099 44.4501 41.4099 43.5556C41.4099 42.6965 42.0871 41.9791 42.9424 41.9791C43.8335 41.9791 44.5121 42.696 44.5121 43.5556C44.5121 44.5246 43.8335 45.1693 42.9424 45.1693ZM44.4277 40.5081C44.1509 40.5821 43.1456 40.8616 42.9362 40.8616C42.7264 40.8616 41.7009 40.5821 41.4933 40.5081C40.934 35.9141 40.621 31.7958 40.621 31.2283C40.621 30.5145 41.8076 30.4764 42.8563 30.4764C44.1862 30.4764 45.3009 30.514 45.3009 31.2283C45.3009 31.7958 44.8474 35.9137 44.4277 40.5081Z" fill-rule="nonzero" fill="#FFBF40"/>
		</g>
		<g id="path">
			<path d="M65.5952 38.3664L60.0054 38.3664L60.0054 47.9037C60.0054 50.0208 58.2817 51.7524 56.1755 51.7524L48.2202 51.7524C48.3795 53.0347 49.4634 54.0387 50.7804 54.0387L60.359 54.0387L62.4027 57.6793L64.5429 54.0387L65.5951 54.0387C67.021 54.0387 68.1875 52.8664 68.1875 51.4335L68.1875 40.9716C68.1875 39.5386 67.021 38.3664 65.5952 38.3664Z" fill-rule="nonzero" fill="#DB7009"/>
		</g>
	</g>
	<defs>
		<filter id="filter_23_12948_dd" x="0.000000" y="0.000000" width="100.000000" height="100.000000" filterUnits="userSpaceOnUse" color-interpolation-filters="sRGB">
			<feFlood flood-opacity="0" result="BackgroundImageFix"/>
			<feColorMatrix in="SourceAlpha" type="matrix" values="0 0 0 0 0 0 0 0 0 0 0 0 0 0 0 0 0 0 127 0"/>
			<feOffset dx="3" dy="8"/>
			<feGaussianBlur stdDeviation="3.33333"/>
			<feColorMatrix type="matrix" values="0 0 0 0 0 0 0 0 0 0 0 0 0 0 0 0 0 0 0.25 0"/>
			<feBlend mode="normal" in2="BackgroundImageFix" result="effect_dropShadow_1"/>
			<feBlend mode="normal" in="SourceGraphic" in2="effect_dropShadow_1" result="shape"/>
		</filter>
	</defs>
</svg>
