<svg width="25.000000" height="23.000000" viewBox="0 0 25 23" fill="none" xmlns="http://www.w3.org/2000/svg" xmlns:xlink="http://www.w3.org/1999/xlink">
	<desc>
			Created with Pixso.
	</desc>
	<g id="组合">
		<g id="形状">
			<g id="g">
				<g id="path">
					<path d="M13.6521 19.9553L9.16455 15.4099L5.63885 11.8388L10.0382 7.49631L13.6521 11.0741L18.6364 6.17593L18.6315 3.05026C18.6311 1.36594 17.283 0.000701904 15.6201 0L2.69617 0C1.03278 0 0.022644 1.36609 0 3.04956L0 19.9091C0.022644 21.5953 1.03278 22.9614 2.69617 23L15.6201 23C17.2828 23 18.6308 21.5961 18.6308 19.9118L18.6364 14.9125L18.1396 15.4106L13.6521 19.9553L13.6521 19.9553Z" fill-rule="evenodd" fill="#FF6868"/>
				</g>
			</g>
		</g>
		<g id="形状">
			<g id="g">
				<g id="path">
					<path d="M24.9999 8.21851L20.2645 3.67999L18.1818 5.77811L18.1818 14.72L24.9999 8.21851L24.9999 8.21851Z" fill-rule="evenodd" fill="#3377FF"/>
				</g>
			</g>
		</g>
		<g id="形状">
			<g id="g">
				<g id="path">
					<path d="M10.0058 7.46542L5.45459 12.0512L9.03033 15.6542L13.5815 20.24L18.1327 15.6542L18.6364 15.1516L18.6364 5.97998L13.5815 11.0684L10.0058 7.46542L10.0058 7.46542Z" fill-rule="evenodd" fill="#41398C"/>
				</g>
			</g>
		</g>
		<g id="形状">
			<g id="g">
				<g id="path">
					<path d="M15.9091 5.98569L15.9091 2.76001L2.27271 2.76001L2.27271 5.98569L15.9091 5.98569L15.9091 5.98569Z" fill-rule="evenodd" fill="#FFFFFF"/>
				</g>
				<g id="path">
					<path d="M6.46881 20.24L6.46881 17.2177L2.27344 17.2177L2.27344 20.24L6.46881 20.24L6.46881 20.24Z" fill-rule="evenodd" fill="#FFFFFF"/>
				</g>
			</g>
		</g>
	</g>
	<defs/>
</svg>
