<svg width="25.000000" height="25.000000" viewBox="0 0 25 25" fill="none" xmlns="http://www.w3.org/2000/svg" xmlns:xlink="http://www.w3.org/1999/xlink">
	<desc>
			Created with Pixso.
	</desc>
	<g id="组合">
		<g id="形状">
			<g id="g">
				<g id="path">
					<path d="" fill-rule="evenodd" fill="#FF6868"/>
				</g>
				<g id="path">
					<path d="M1.78571 13.2321L2.58246 13.2321L0.942322 22.7608C0.909546 22.8984 0.892944 23.0394 0.892822 23.181C0.892822 23.3301 0.911255 23.475 0.945251 23.6139C0.949829 23.6324 0.9552 23.6524 0.960327 23.6707C0.962036 23.6762 0.975525 23.7231 0.977234 23.7286C1.17352 24.3604 1.70581 24.8625 2.39203 24.9764C2.54865 25.0024 2.70795 25.0069 2.86572 24.9899L6.02026 24.9899L6.58862 20.3766C6.64935 19.8829 7.09784 19.5295 7.58514 19.5911C8.07245 19.6527 8.42139 20.107 8.36053 20.6006L7.81976 24.9899L22.1484 24.9899C22.3062 25.0069 22.4655 25.0023 22.6221 24.9764C23.5913 24.8156 24.2543 23.8806 24.0955 22.8988L22.4317 13.2321L23.2143 13.2321C24.1964 13.2321 25 12.4182 25 11.5071L0 11.5071C0 12.4182 0.803589 13.2321 1.78571 13.2321L1.78571 13.2321Z" fill-rule="evenodd" fill="#FF6868"/>
				</g>
			</g>
		</g>
		<g id="形状">
			<g id="g">
				<g id="path">
					<path d="M21.4286 5.53821L14.2857 5.53821L14.2857 1.79999C14.2857 0.809998 13.4822 0 12.5 0C11.5178 0 10.7143 0.809998 10.7143 1.79999L10.7143 5.53821L3.57141 5.53821C1.60718 5.39999 0 7.01999 0 9L0 11.7C0 12.69 0.803589 13.5 1.78571 13.5L2.58246 13.5L22.4317 13.5L23.2143 13.5C24.1964 13.5 25 12.69 25 11.7L25 9C25 7.01999 23.3928 5.39999 21.4286 5.53821L21.4286 5.53821Z" fill-rule="evenodd" fill="#3377FF"/>
				</g>
			</g>
		</g>
		<g id="形状">
			<g id="g">
				<g id="path">
					<path d="M3.18439 9.375C3.18439 8.60501 3.8114 8 4.60938 8L20.3906 8C21.1886 8 21.8156 8.60501 21.8156 9.375L22.5 13.5L2.5 13.5L3.18439 9.375L3.18439 9.375Z" fill-rule="evenodd" fill="#41398C"/>
				</g>
			</g>
		</g>
	</g>
	<defs/>
</svg>
