<svg width="100.000000" height="100.000000" viewBox="0 0 100 100" fill="none" xmlns="http://www.w3.org/2000/svg" xmlns:xlink="http://www.w3.org/1999/xlink">
	<desc>
			Created with Pixso.
	</desc>
	<g id="组合 17">
		<g id="组合">
			<g id="矩形" filter="url(#filter_23_12964_dd)">
				<path d="M64.5 2C76.9264 2 87 12.0736 87 24.5L87 59.5C87 71.9264 76.9264 82 64.5 82L29.5 82C17.0736 82 7 71.9264 7 59.5L7 24.5C7 12.0736 17.0736 2 29.5 2L64.5 2L64.5 2Z" fill-rule="evenodd" fill="#FFFFFF"/>
				<path d="M64.5 2C76.9264 2 87 12.0736 87 24.5L87 59.5C87 71.9264 76.9264 82 64.5 82L29.5 82C17.0736 82 7 71.9264 7 59.5L7 24.5C7 12.0736 17.0736 2 29.5 2L64.5 2ZM78.9957 10.0043C82.9986 14.0072 85 18.8391 85 24.5L85 59.5C85 65.1609 82.9986 69.9928 78.9957 73.9957C74.9928 77.9986 70.1609 80 64.5 80L29.5 80C23.8391 80 19.0072 77.9985 15.0043 73.9957C11.0014 69.9928 9 65.1609 9 59.5L9 24.5C9 18.8391 11.0014 14.0072 15.0043 10.0043C19.0072 6.00146 23.8391 4 29.5 4L64.5 4C70.1609 4 74.9928 6.00146 78.9957 10.0043Z" fill-rule="evenodd" fill="#69D44F"/>
			</g>
		</g>
		<g id="path">
			<path d="M46.6618 64.1987L28.9919 52.0664C28.1204 51.4698 27.9968 50.2294 28.7269 49.4675C29.298 48.8768 30.2048 48.7705 30.8937 49.2253L46.6853 59.6742C47.2565 60.0522 47.9983 60.0522 48.5636 59.6742L64.314 49.1899C65.0029 48.735 65.9155 48.8354 66.4867 49.4321L66.5279 49.4734C67.2521 50.2354 67.1284 51.4698 66.257 52.0664L48.5871 64.1987C48.0042 64.6004 47.2447 64.6004 46.6618 64.1987Z" fill-rule="nonzero" fill="#00BFBF"/>
		</g>
		<g id="path">
			<path d="M46.6618 56.526L28.9919 44.3878C28.1204 43.7912 27.9968 42.5508 28.7269 41.7888C29.298 41.1982 30.2048 41.0919 30.8937 41.5467L46.6853 51.9956C47.2565 52.3736 47.9983 52.3736 48.5636 51.9956L64.314 41.5112C65.0029 41.0505 65.9155 41.1568 66.4867 41.7534L66.5279 41.7947C67.2521 42.5567 67.1284 43.7912 66.257 44.3878L48.5871 56.526C48.0042 56.9218 47.2447 56.9218 46.6618 56.526Z" fill-rule="nonzero" fill="#00BFBF"/>
		</g>
		<g id="path">
			<path d="M46.6616 48.8474L29.3862 36.9808C28.397 36.3015 28.397 34.8367 29.3862 34.1574L46.6616 22.2968C47.2445 21.9011 48.004 21.9011 48.5869 22.2968L65.8623 34.1633C66.8515 34.8426 66.8515 36.3074 65.8623 36.9867L48.5869 48.8474C48.004 49.2431 47.2445 49.2431 46.6616 48.8474Z" fill-rule="nonzero" fill="#69D44F"/>
		</g>
		<g id="path">
			<path d="M53.3446 32.5154L42.5224 39.8869C41.8276 40.3594 40.8679 40.1763 40.3968 39.4793C39.9258 38.7823 40.1083 37.8196 40.8031 37.347L51.6253 29.9755C52.32 29.5029 53.2798 29.686 53.7508 30.3831C54.2219 31.08 54.0393 32.0428 53.3446 32.5154Z" fill-rule="nonzero" fill="#FFFFFF"/>
		</g>
	</g>
	<defs>
		<filter id="filter_23_12964_dd" x="0.000000" y="0.000000" width="100.000000" height="100.000000" filterUnits="userSpaceOnUse" color-interpolation-filters="sRGB">
			<feFlood flood-opacity="0" result="BackgroundImageFix"/>
			<feColorMatrix in="SourceAlpha" type="matrix" values="0 0 0 0 0 0 0 0 0 0 0 0 0 0 0 0 0 0 127 0"/>
			<feOffset dx="3" dy="8"/>
			<feGaussianBlur stdDeviation="3.33333"/>
			<feColorMatrix type="matrix" values="0 0 0 0 0 0 0 0 0 0 0 0 0 0 0 0 0 0 0.25 0"/>
			<feBlend mode="normal" in2="BackgroundImageFix" result="effect_dropShadow_1"/>
			<feBlend mode="normal" in="SourceGraphic" in2="effect_dropShadow_1" result="shape"/>
		</filter>
	</defs>
</svg>
