<svg width="17.000000" height="13.000000" viewBox="0 0 17 13" fill="none" xmlns="http://www.w3.org/2000/svg" xmlns:xlink="http://www.w3.org/1999/xlink">
	<desc>
			Created with Pixso.
	</desc>
	<g id="path">
		<path d="M16.9577 3.79309C16.8162 3.42355 16.3668 2.98363 14.2307 3.31621C12.7075 0.540024 9.43213 -0.697723 6.50201 0.395325C3.57117 1.48837 1.85358 4.58934 2.44794 7.7121C-0.300964 9.34973 -0.0397949 10.0779 0.0509644 10.3222C0.141418 10.5661 0.413452 10.9173 1.46539 10.9173C2.06085 10.903 2.6507 10.8377 3.2348 10.7213L3.77191 10.6104C5.47192 12.7382 8.30188 13.5445 10.838 12.6238C13.374 11.7031 15.0667 9.25481 15.0647 6.51053C15.0647 6.37361 15.0647 6.24059 15.0429 6.10754C16.3197 5.30157 17.2079 4.45865 16.9577 3.79309ZM5.13873 2.55107C5.05011 3.18474 5.0296 3.8206 5.07715 4.45865C4.72479 4.63345 4.57928 4.91483 4.64062 5.30273C4.69714 5.69133 4.9201 5.91396 5.30945 5.97063C5.57886 7.0804 6.04651 8.09953 6.71252 9.02803C5.97284 9.27121 5.22583 9.4893 4.4715 9.68231C2.86572 7.48299 3.15411 4.40146 5.13873 2.55107ZM0.725281 10.074C0.725281 9.93747 1.08771 9.40106 2.62213 8.46245C2.78717 8.98456 3.01556 9.47739 3.30731 9.94098C1.81342 10.2553 0.89209 10.2514 0.725281 10.074ZM7.61591 11.7746C7.77924 11.6969 7.94604 11.6086 8.11987 11.5051C7.97809 11.3788 7.88013 11.2248 7.82599 11.043C7.5033 11.2503 7.15448 11.4117 6.78931 11.5234C6.10175 11.2477 5.49725 10.8471 4.97583 10.3218C5.71918 10.1256 6.45526 9.9052 7.18408 9.66052C7.46118 9.98143 7.76208 10.2806 8.08362 10.5552C8.06494 10.6248 8.05518 10.6968 8.05475 10.7691C8.0567 10.8119 8.06299 10.8535 8.07269 10.8948C8.08521 10.9348 8.09961 11.0227 8.11633 11.0612C8.13 11.0908 8.14557 11.1196 8.16315 11.1464L8.21771 11.2165C8.23602 11.2165 8.24695 11.2608 8.26483 11.2795L8.35919 11.3534C8.47998 11.4421 8.62769 11.4856 8.77618 11.4755C8.91534 11.4728 9.0506 11.4277 9.16437 11.346C9.39941 11.4891 9.64142 11.6202 9.88971 11.7377C9.50153 11.8349 9.10358 11.8855 8.70367 11.8894C8.33813 11.8894 7.97369 11.8513 7.61591 11.7746ZM10.7167 11.479C10.2818 11.3174 9.86591 11.1164 9.46918 10.8761C9.47638 10.8268 9.47638 10.7776 9.46918 10.7283C9.46826 10.6717 9.45966 10.6164 9.44342 10.5622C9.39435 10.3752 9.28809 10.2298 9.12463 10.1261L9.06616 10.1001C9.04285 10.0875 9.0188 10.0765 8.99408 10.067L8.89587 10.041C8.86572 10.0389 8.78491 10.0389 8.75476 10.041C8.63513 10.0464 8.50562 10.0797 8.40283 10.1409C8.16748 9.93608 7.94385 9.71916 7.73206 9.49014C8.21942 9.32167 8.70294 9.14301 9.18268 8.95413C9.27661 8.92067 9.93335 8.66589 10.8254 8.2773C10.6729 8.07446 10.5882 7.84653 10.5714 7.59346C10.0565 7.81519 9.50891 8.03845 8.92859 8.26251C8.36481 8.48148 7.79669 8.68854 7.22424 8.88373C6.54657 7.981 6.07397 6.9817 5.80634 5.88582C6.09045 5.69637 6.20624 5.43315 6.15363 5.09619C6.10443 4.7597 5.91608 4.54472 5.5885 4.45125C5.54059 3.63231 5.61206 2.82387 5.80286 2.02594C8.1947 0.399994 11.4245 1.03209 13.056 3.44574C13.1027 4.05956 12.7983 5.29417 12.1089 6.58794L11.9678 6.56227L11.7756 6.56227C11.718 6.56499 11.6611 6.57394 11.605 6.58794L11.5399 6.614L11.4456 6.64706L11.3621 6.69881L11.2172 6.81004C11.1874 6.84293 11.1303 6.90698 11.1045 6.94308C11.0784 6.98509 11.0538 7.04655 11.032 7.0909C11.0114 7.13875 10.9942 7.18814 10.9814 7.23871C10.9673 7.29204 10.9589 7.34624 10.9561 7.40131C10.9521 7.43942 10.9521 7.47794 10.9561 7.51605C10.9587 7.57324 10.9673 7.63042 10.9814 7.68604C10.9907 7.71716 11.0016 7.74828 11.0141 7.77863L11.0792 7.9521C11.0948 7.97972 11.1131 8.00578 11.1337 8.02991C11.0901 8.08163 11.0538 8.13727 11.0102 8.189C10.5094 8.82129 9.95093 9.39789 9.33472 9.91881C9.49292 10.0316 9.61414 10.1899 9.68311 10.3739C10.3347 9.82889 10.9258 9.22493 11.4565 8.56204L11.6124 8.3551C11.6521 8.3551 11.6884 8.37727 11.7246 8.38116C11.7839 8.3866 11.8435 8.3866 11.9023 8.38116C11.9625 8.377 12.0218 8.36714 12.0801 8.35159C12.1245 8.33759 12.2044 8.32164 12.2469 8.30336C12.2831 8.28352 12.3618 8.23178 12.3958 8.20767C12.4203 8.18706 12.4433 8.16489 12.4647 8.14076C12.483 8.11859 12.5552 8.0408 12.5731 8.01901C12.5914 7.99646 12.6097 7.97078 12.6237 7.94122C12.6444 7.90387 12.6627 7.86575 12.6783 7.82646C12.7 7.7701 12.7156 7.71214 12.7255 7.65259C12.7291 7.59723 12.7291 7.49751 12.7255 7.44215C12.7104 7.26927 12.65 7.0696 12.5443 6.93181C12.9907 6.11583 13.2932 5.23103 13.4874 4.32173C13.7185 4.83859 13.8647 5.37837 13.9259 5.94107C13.5309 6.16757 13.1308 6.38449 12.7255 6.59183C12.9025 6.77286 13.0161 6.98732 13.0665 7.23521C13.3631 7.08522 13.6568 6.9299 13.9477 6.76921C13.8542 8.84366 12.5945 10.6738 10.7167 11.479ZM14.9485 5.2903C14.8705 4.85313 14.7498 4.42812 14.5861 4.0152C15.7826 3.85222 16.2253 3.97826 16.2905 4.04088C16.2761 4.24782 15.8302 4.69904 14.9485 5.2903Z" fill-rule="evenodd" fill="#FF885D"/>
	</g>
	<defs/>
</svg>
