<svg width="15.000000" height="15.000000" viewBox="0 0 15 15" fill="none" xmlns="http://www.w3.org/2000/svg" xmlns:xlink="http://www.w3.org/1999/xlink">
	<desc>
			Created with Pixso.
	</desc>
	<g id="path">
		<path d="M12.8571 9.64285C12.4854 9.64285 12.1404 9.74678 11.8355 9.91393L9.51428 8.20554C9.59198 7.98375 9.64285 7.74857 9.64285 7.5C9.64285 7.425 9.62839 7.35429 9.62088 7.2809L11.7648 5.99411C11.9127 6.13329 12.0809 6.24039 12.2696 6.31543C12.4583 6.39047 12.6541 6.42819 12.8571 6.42857C12.9627 6.42857 13.0672 6.41827 13.1707 6.39769C13.2742 6.37711 13.3747 6.34662 13.4722 6.30623C13.5697 6.26585 13.6623 6.21634 13.75 6.15771C13.8378 6.09909 13.9189 6.03247 13.9936 5.95786C14.0682 5.88324 14.1348 5.80205 14.1934 5.71431C14.252 5.62657 14.3016 5.53395 14.3419 5.43646C14.3823 5.33896 14.4128 5.23846 14.4334 5.13496C14.454 5.03146 14.4643 4.92696 14.4643 4.82143C14.4643 4.7159 14.454 4.61139 14.4334 4.50789C14.4128 4.40439 14.3823 4.30389 14.3419 4.20641C14.3016 4.1089 14.252 4.0163 14.1934 3.92854C14.1348 3.84081 14.0682 3.75963 13.9936 3.68501C13.9189 3.61038 13.8378 3.54376 13.75 3.48514C13.6623 3.42651 13.5697 3.377 13.4722 3.33662C13.3747 3.29623 13.2742 3.26575 13.1707 3.24516C13.0672 3.22458 12.9627 3.21428 12.8571 3.21428C12.7516 3.21428 12.6471 3.22458 12.5436 3.24516C12.4401 3.26575 12.3396 3.29623 12.2421 3.33662C12.1446 3.377 12.052 3.42651 11.9643 3.48514C11.8765 3.54376 11.7953 3.61038 11.7207 3.68501C11.6461 3.75963 11.5795 3.84081 11.5208 3.92854C11.4622 4.0163 11.4127 4.1089 11.3723 4.20641C11.3319 4.30389 11.3015 4.40439 11.2809 4.50789C11.2603 4.61139 11.25 4.7159 11.25 4.82143C11.25 4.89642 11.2623 4.96822 11.272 5.04054L9.24054 6.25929C8.93896 5.83803 8.53735 5.56267 8.03571 5.43321L8.03571 4.20964C8.95715 3.97018 9.64285 3.13821 9.64285 2.14285C9.64285 0.961075 8.68179 0 7.5 0C6.31821 0 5.35715 0.961075 5.35715 2.14285C5.35715 3.13821 6.04285 3.97018 6.96429 4.20964L6.96429 5.43321C6.70297 5.50081 6.46301 5.61377 6.24438 5.77208C6.02576 5.9304 5.8436 6.12315 5.69785 6.35036L3.71304 5.15947C3.73624 5.05162 3.7482 4.94254 3.74896 4.83221C3.74969 4.72189 3.7392 4.61266 3.71744 4.50452C3.69568 4.39636 3.66312 4.29155 3.61978 4.19011C3.57645 4.08865 3.52325 3.99268 3.46014 3.90219C3.39703 3.81169 3.32538 3.72859 3.24518 3.65285C3.16495 3.57712 3.07788 3.51035 2.98392 3.45255C2.88995 3.39474 2.79108 3.34712 2.68729 3.30968C2.58353 3.27223 2.47702 3.24576 2.3678 3.23026C2.25858 3.21474 2.14893 3.21053 2.03885 3.21759C1.92874 3.22466 1.82053 3.24287 1.71417 3.27223C1.60785 3.30159 1.50562 3.34146 1.40747 3.39188C1.30936 3.44229 1.21738 3.50217 1.13159 3.57152C1.04581 3.64085 0.967957 3.71822 0.898102 3.80359C0.828217 3.88896 0.767792 3.98056 0.716797 4.07838C0.665771 4.17621 0.625275 4.2782 0.595276 4.38435C0.565277 4.49052 0.546417 4.59862 0.538666 4.70866C0.530914 4.81871 0.534485 4.92841 0.549316 5.03772C0.564178 5.14703 0.589996 5.25369 0.626801 5.35768C0.663605 5.46169 0.710632 5.56084 0.767853 5.65515C0.825104 5.74947 0.891327 5.83696 0.966583 5.91763C1.04184 5.99831 1.12451 6.07047 1.2146 6.13411C1.30472 6.19775 1.40036 6.25156 1.50156 6.29552C1.60272 6.33946 1.70734 6.37265 1.81534 6.39507C1.92337 6.41747 2.03253 6.42863 2.14285 6.42857C2.51959 6.42723 2.8537 6.30724 3.14517 6.06857L5.36679 7.40196C5.36572 7.43518 5.35715 7.46625 5.35715 7.5C5.35715 7.74911 5.40805 7.98428 5.48624 8.2066L3.1907 9.92839C2.86676 9.74028 2.51746 9.6451 2.14285 9.64285C0.96106 9.64285 0 10.6039 0 11.7857C0 12.9675 0.96106 13.9286 2.14285 13.9286C3.32465 13.9286 4.28571 12.9675 4.28571 11.7857C4.28571 11.3807 4.16626 11.0063 3.9707 10.6827L6.08517 9.09697C6.34058 9.32402 6.63361 9.48062 6.96429 9.56679L6.96429 11.8843C6.80792 11.9391 6.66357 12.0164 6.53119 12.1161C6.3988 12.2157 6.28467 12.3331 6.18872 12.4682C6.09277 12.6033 6.01953 12.7498 5.96906 12.9076C5.91855 13.0654 5.89316 13.2272 5.89285 13.3929C5.89285 13.4984 5.90314 13.6029 5.92374 13.7064C5.94434 13.8099 5.97482 13.9104 6.0152 14.0079C6.05557 14.1054 6.10507 14.198 6.1637 14.2857C6.22235 14.3735 6.28897 14.4547 6.36359 14.5293C6.4382 14.6039 6.51938 14.6705 6.60712 14.7291C6.69485 14.7878 6.78748 14.8373 6.88498 14.8777C6.98245 14.918 7.08295 14.9485 7.18646 14.9691C7.28995 14.9897 7.39447 15 7.5 15C7.60553 15 7.71005 14.9897 7.81354 14.9691C7.91702 14.9485 8.01752 14.918 8.11502 14.8777C8.21252 14.8373 8.30515 14.7878 8.39288 14.7291C8.48062 14.6705 8.5618 14.6039 8.63641 14.5293C8.71103 14.4547 8.77765 14.3735 8.8363 14.2857C8.89493 14.198 8.94443 14.1054 8.9848 14.0079C9.02518 13.9104 9.05566 13.8099 9.07626 13.7064C9.09686 13.6029 9.10715 13.4984 9.10715 13.3929C9.10684 13.2272 9.08145 13.0654 9.03094 12.9076C8.98047 12.7498 8.90723 12.6033 8.81128 12.4682C8.71533 12.3331 8.6012 12.2157 8.46881 12.1161C8.33643 12.0164 8.19208 11.9391 8.03571 11.8843L8.03571 9.56679C8.36694 9.48077 8.66031 9.32399 8.91589 9.09644L11.0416 10.6607C10.8247 11.0043 10.7155 11.3793 10.7143 11.7857C10.7143 12.9675 11.6754 13.9286 12.8571 13.9286C14.0389 13.9286 15 12.9675 15 11.7857C15 10.6039 14.0389 9.64285 12.8571 9.64285ZM6.42856 2.14285C6.42856 1.55197 6.90912 1.07143 7.5 1.07143C8.09088 1.07143 8.57144 1.55197 8.57144 2.14285C8.57144 2.73375 8.09088 3.21428 7.5 3.21428C6.90912 3.21428 6.42856 2.73375 6.42856 2.14285ZM2.14285 12.8571C1.55197 12.8571 1.07144 12.3766 1.07144 11.7857C1.07144 11.1948 1.55197 10.7143 2.14285 10.7143C2.73376 10.7143 3.21429 11.1948 3.21429 11.7857C3.21429 12.3766 2.73376 12.8571 2.14285 12.8571ZM7.5 8.57143C6.90912 8.57143 6.42856 8.0909 6.42856 7.5C6.42856 6.9091 6.90912 6.42857 7.5 6.42857C8.09088 6.42857 8.57144 6.9091 8.57144 7.5C8.57144 8.0909 8.09088 8.57143 7.5 8.57143ZM12.8571 12.8571C12.2662 12.8571 11.7857 12.3766 11.7857 11.7857C11.7857 11.1948 12.2662 10.7143 12.8571 10.7143C13.448 10.7143 13.9286 11.1948 13.9286 11.7857C13.9286 12.3766 13.448 12.8571 12.8571 12.8571Z" fill-rule="evenodd" fill="#00BFBF"/>
	</g>
	<defs/>
</svg>
