<svg width="33.000000" height="33.000000" viewBox="0 0 33 33" fill="none" xmlns="http://www.w3.org/2000/svg" xmlns:xlink="http://www.w3.org/1999/xlink">
	<desc>
			Created with Pixso.
	</desc>
	<g id="无线网">
		<g clip-path="url(#clip59_19)">
			<g id="path">
				<path d="M22.374 23.958L20.724 21.912C22.242 20.658 23.1 18.81 23.1 16.83C23.1 14.85 22.242 13.002 20.724 11.748L22.44 9.70198C24.552 11.418 25.806 14.058 25.806 16.83C25.74 19.602 24.486 22.176 22.374 23.958ZM25.74 27.984L24.024 25.938C26.73 23.694 28.314 20.394 28.314 16.764C28.314 13.2 26.73 9.89998 24.024 7.65599L25.74 5.60999C29.04 8.38199 30.954 12.408 30.954 16.764C31.02 21.186 29.04 25.212 25.74 27.984ZM10.626 23.958C8.51398 22.242 7.26001 19.602 7.26001 16.83C7.26001 14.058 8.51398 11.484 10.626 9.70198L12.342 11.748C10.824 13.002 9.966 14.85 9.966 16.83C9.966 18.81 10.89 20.658 12.342 21.912L10.626 23.958ZM7.26001 27.984C3.95996 25.212 1.97998 21.186 1.97998 16.83C1.97998 12.474 3.89398 8.38199 7.19397 5.67598L8.90997 7.72198C6.20398 9.89998 4.62 13.2 4.62 16.83C4.62 20.394 6.20398 23.76 8.90997 26.004L7.26001 27.984Z" fill-rule="nonzero" fill="#3EA2FF"/>
			</g>
			<g id="path">
				<path d="M15.18 19.8C13.992 19.272 13.2 18.15 13.2 16.764C13.2 14.916 14.652 13.464 16.5 13.464C18.348 13.464 19.8 14.916 19.8 16.764C19.8 18.15 19.008 19.272 17.82 19.8L17.82 27.324C17.82 28.05 17.226 28.644 16.5 28.644C15.774 28.644 15.18 28.05 15.18 27.324L15.18 19.8Z" fill-rule="nonzero" fill="#3EA2FF"/>
			</g>
		</g>
	</g>
	<defs>
		<clipPath id="clip59_19">
			<rect width="33.000000" height="33.000000" fill="white"/>
		</clipPath>
	</defs>
</svg>
