<svg width="26.000000" height="25.000000" viewBox="0 0 26 25" fill="none" xmlns="http://www.w3.org/2000/svg" xmlns:xlink="http://www.w3.org/1999/xlink">
	<desc>
			Created with Pixso.
	</desc>
	<g id="组合">
		<g id="形状">
			<g id="g">
				<g id="path">
					<path d="M20.1132 6.71298L20.1079 3.31549C20.1075 1.48471 18.6525 0.000762939 16.8578 0L2.90985 0C1.11462 0 0.0244141 1.48486 0 3.31476L0 21.6403C0.0244141 23.4732 1.11462 24.958 2.90985 25L16.8578 25C18.6524 25 20.1072 23.474 20.1072 21.6433L20.1132 16.2092L19.5771 16.7507L20.1132 6.71298L20.1132 6.71298Z" fill-rule="evenodd" fill="#FF6868"/>
				</g>
			</g>
		</g>
		<g id="形状">
			<g id="g">
				<g id="path">
					<path d="M17.6603 6.50616L17.6603 3L2.94336 3L2.94336 6.50616L17.6603 6.50616L17.6603 6.50616Z" fill-rule="evenodd" fill="#FFFFFF"/>
				</g>
				<g id="path">
					<path d="M7.47205 22L7.47205 18.7148L2.94421 18.7148L2.94421 22L7.47205 22L7.47205 22Z" fill-rule="evenodd" fill="#FFFFFF"/>
				</g>
			</g>
		</g>
		<g id="形状">
			<g id="g">
				<g id="path">
					<path d="M20.1132 10.8794L20.1132 21.6206L18.2133 19.7594L13.8844 24L10.3019 20.4906L14.6308 16.2501L10.3019 12.0094L13.8844 8.5L18.2133 12.7406L20.1132 10.8794L20.1132 10.8794Z" fill-rule="evenodd" fill="#41398C"/>
				</g>
			</g>
		</g>
		<g id="形状">
			<g id="g">
				<g id="path">
					<path d="M20.1132 10.8794L22.4917 8.5L25.9999 12.0094L21.7608 16.2499L25.9999 20.4906L22.4917 24L20.1132 21.6206L20.1132 10.8794L20.1132 10.8794Z" fill-rule="evenodd" fill="#3377FF"/>
				</g>
			</g>
		</g>
	</g>
	<defs/>
</svg>
