<svg width="25.000000" height="25.000000" viewBox="0 0 25 25" fill="none" xmlns="http://www.w3.org/2000/svg" xmlns:xlink="http://www.w3.org/1999/xlink">
	<desc>
			Created with Pixso.
	</desc>
	<g id="组合">
		<g id="组合">
			<g id="形状">
				<g id="g">
					<g id="path">
						<path d="" fill-rule="evenodd" fill="#FF6868"/>
					</g>
					<g id="path">
						<path d="M1.62338 12.0292L2.34769 12.0292L0.856659 20.6917C0.826874 20.8167 0.811768 20.9449 0.811676 21.0736C0.811676 21.2092 0.8284 21.3409 0.859314 21.4672C0.863464 21.4841 0.868378 21.5022 0.873047 21.5189C0.874573 21.5238 0.886841 21.5664 0.888397 21.5714C1.06683 22.1458 1.55072 22.6023 2.17459 22.7059C2.31693 22.7295 2.46176 22.7336 2.60519 22.7181L5.47296 22.7181L5.98962 18.5242C6.04489 18.0754 6.45261 17.7541 6.89557 17.8101C7.33856 17.8661 7.65579 18.2791 7.60049 18.7278L7.10889 22.7181L20.1349 22.7181C20.2784 22.7336 20.4232 22.7294 20.5656 22.7059C21.4467 22.5596 22.0494 21.7097 21.905 20.8171L20.3925 12.0292L21.1039 12.0292C21.9968 12.0292 22.7273 11.2892 22.7273 10.461L0 10.461C0 11.2892 0.73053 12.0292 1.62338 12.0292L1.62338 12.0292Z" fill-rule="evenodd" fill="#FF6868"/>
					</g>
				</g>
			</g>
			<g id="形状">
				<g id="g">
					<g id="path">
						<path d="M19.4805 5.03473L12.987 5.03473L12.987 1.63635C12.987 0.736359 12.2565 0 11.3636 0C10.4708 0 9.74026 0.736359 9.74026 1.63635L9.74026 5.03473L3.24677 5.03473C1.46106 4.90909 0 6.38181 0 8.18182L0 10.6364C0 11.5364 0.73053 12.2727 1.62338 12.2727L2.34769 12.2727L20.3925 12.2727L21.1039 12.2727C21.9968 12.2727 22.7273 11.5364 22.7273 10.6364L22.7273 8.18182C22.7273 6.38181 21.2662 4.90909 19.4805 5.03473L19.4805 5.03473Z" fill-rule="evenodd" fill="#FF6868"/>
					</g>
				</g>
			</g>
			<g id="形状">
				<g id="g">
					<g id="path">
						<path d="M2.4404 8.52271C2.4404 7.82269 3.01041 7.27271 3.73587 7.27271L18.0824 7.27271C18.8079 7.27271 19.3779 7.82269 19.3779 8.52271L20.0001 12.2727L1.81824 12.2727L2.4404 8.52271L2.4404 8.52271Z" fill-rule="evenodd" fill="#FF6868"/>
					</g>
				</g>
			</g>
		</g>
		<g id="圆形">
			<g id="g">
				<g id="path">
					<path d="M25 18.1818C25 22 22 25 18.1818 25C14.3636 25 11.3636 22 11.3636 18.1818C11.3636 14.3636 14.3636 11.3636 18.1818 11.3636C22 11.3636 25 14.3636 25 18.1818L25 18.1818Z" fill-rule="evenodd" fill="#3377FF"/>
				</g>
			</g>
		</g>
		<g id="形状">
			<g id="g">
				<g id="path">
					<path d="M13.1458 23.022L16.7536 23.022L20.8673 23.022C21.7773 22.8731 22.3998 22.0075 22.2507 21.0985L20.6885 12.1487L21.4233 12.1487C21.469 12.1487 21.5144 12.1468 21.5592 12.1432C20.5961 11.644 19.4954 11.3636 18.3185 11.3636C14.4238 11.3636 11.3636 14.434 11.3636 18.3417C11.3636 20.0044 11.8853 21.7435 13.1458 23.022L13.1458 23.022Z" fill-rule="evenodd" fill="#41398C"/>
				</g>
			</g>
		</g>
		<g id="矩形">
			<path d="M22.2727 16.8182L22.2727 19.5454L13.1818 19.5454L13.1818 16.8182L22.2727 16.8182L22.2727 16.8182Z" fill-rule="evenodd" fill="#FFFFFF"/>
		</g>
	</g>
	<defs/>
</svg>
