<svg width="17.000000" height="17.000000" viewBox="0 0 17 17" fill="none" xmlns="http://www.w3.org/2000/svg" xmlns:xlink="http://www.w3.org/1999/xlink">
	<desc>
			Created with Pixso.
	</desc>
	<g id="path">
		<path d="M8.5 0C13.1941 0 17 3.80587 17 8.5C17 13.1941 13.1566 17 8.5 17C3.80588 17 0 13.1941 0 8.5C0 3.80587 3.80588 0 8.5 0ZM5.70209 12.7493C5.66383 13.6524 5.78 14.4493 6.50604 15.2993C7.13858 15.4835 7.80795 15.5833 8.5 15.5833C10.3148 15.5833 11.9708 14.9005 13.2239 13.7785C11.5168 13.9379 9.64679 13.6467 6.82196 12.4093C6.56483 12.5757 6.40192 12.6884 5.70209 12.7493ZM1.42021 8.26979C1.42021 11.0089 2.60526 13.0128 4.42496 14.2942C4.29037 13.7275 4.24008 13.2218 4.31517 12.2648C3.84271 11.8752 3.54167 11.3957 3.54875 10.4479C2.42392 9.49875 1.71417 8.772 1.42021 8.26979ZM9.20833 7.08333C8.87755 7.08333 8.56375 7.00754 8.28467 6.87296C8.0417 7.15983 7.81149 7.45804 7.59404 7.76971C7.48709 7.92271 7.25404 8.296 6.89421 8.89029C7.07686 9.01919 7.2352 9.1731 7.3692 9.35203C7.50322 9.53096 7.60638 9.7262 7.6787 9.93773C7.75101 10.1493 7.78894 10.3668 7.79251 10.5903C7.79608 10.8138 7.76511 11.0325 7.69958 11.2462C11.1421 12.755 14.3969 12.6197 14.9147 11.5097C15.4317 10.4005 14.1185 8.41571 10.7199 6.45221C10.5205 6.65451 10.2897 6.81038 10.0276 6.91982C9.76549 7.02927 9.49239 7.08377 9.20833 7.08333ZM5.66667 9.91667C5.57274 9.91667 5.48238 9.93464 5.3956 9.97058C5.30882 10.0065 5.23222 10.0577 5.1658 10.1241C5.09938 10.1906 5.0482 10.2672 5.01225 10.3539C4.9763 10.4407 4.95833 10.5311 4.95833 10.625C4.95833 10.7189 4.9763 10.8093 5.01225 10.8961C5.0482 10.9828 5.09938 11.0594 5.1658 11.1259C5.23222 11.1923 5.30882 11.2435 5.3956 11.2794C5.48238 11.3154 5.57274 11.3333 5.66667 11.3333C5.76059 11.3333 5.85095 11.3154 5.93773 11.2794C6.02451 11.2435 6.10112 11.1923 6.16753 11.1259C6.23395 11.0594 6.28514 10.9828 6.32108 10.8961C6.35703 10.8093 6.375 10.7189 6.375 10.625C6.375 10.5311 6.35703 10.4407 6.32108 10.3539C6.28514 10.2672 6.23395 10.1906 6.16753 10.1241C6.10112 10.0577 6.02451 10.0065 5.93773 9.97058C5.85095 9.93464 5.76059 9.91667 5.66667 9.91667ZM2.0825 5.50729C1.71558 6.29354 2.45792 7.71375 4.16499 9.11979C4.5305 8.75544 4.97038 8.55144 5.48462 8.50779C5.92592 7.73287 6.16463 7.34046 6.43379 6.95654C6.67604 6.61016 6.93246 6.27796 7.2845 5.86217C7.15842 5.59371 7.08617 5.2955 7.08333 4.97958C4.46745 4.30667 2.50395 4.60417 2.0825 5.50729ZM11.2717 4.44833C11.3121 4.61125 11.3447 4.87121 11.3234 5.16587C13.2926 6.24396 14.727 7.49133 15.5805 8.72312C15.5805 6.09662 14.8233 4.82587 13.9088 4.05308C12.8067 3.92204 12.3604 3.96313 11.2717 4.44833ZM9.20833 4.25C9.1144 4.25 9.02405 4.26797 8.93727 4.30392C8.85048 4.33986 8.77388 4.39105 8.70746 4.45747C8.64105 4.52388 8.58986 4.60048 8.55392 4.68727C8.51797 4.77405 8.5 4.8644 8.5 4.95833C8.5 5.05227 8.51797 5.14262 8.55392 5.2294C8.58986 5.31618 8.64105 5.39278 8.70746 5.4592C8.77388 5.52562 8.85048 5.5768 8.93727 5.61275C9.02405 5.64869 9.1144 5.66667 9.20833 5.66667C9.30226 5.66667 9.39262 5.64869 9.4794 5.61275C9.56618 5.5768 9.64278 5.52562 9.7092 5.4592C9.77562 5.39278 9.8268 5.31618 9.86275 5.2294C9.8987 5.14262 9.91667 5.05227 9.91667 4.95833C9.91667 4.8644 9.8987 4.77405 9.86275 4.68727C9.8268 4.60048 9.77562 4.52388 9.7092 4.45747C9.64278 4.39105 9.56618 4.33986 9.4794 4.30392C9.39262 4.26797 9.30226 4.25 9.20833 4.25ZM8.5 1.41667C6.68454 1.41667 5.02917 2.0995 3.77542 3.22292C4.82162 3.12588 5.90042 3.21087 7.54517 3.63517C7.74663 3.38158 7.99321 3.18447 8.28494 3.04383C8.57668 2.90318 8.88448 2.83301 9.20833 2.83333C9.68575 2.83333 10.1263 2.99058 10.4812 3.25621C11.2774 2.87371 11.854 2.68458 12.41 2.5925C11.8306 2.208 11.2079 1.91562 10.542 1.71536C9.87605 1.5151 9.19539 1.41553 8.5 1.41667Z" fill-rule="evenodd" fill="#69D44F"/>
	</g>
	<defs/>
</svg>
