<svg width="14.289612" height="15.120819" viewBox="0 0 14.2896 15.1208" fill="none" xmlns="http://www.w3.org/2000/svg" xmlns:xlink="http://www.w3.org/1999/xlink">
	<desc>
			Created with Pixso.
	</desc>
	<g id="path">
		<path d="M12.9042 1.74167L11.0833 1.74167L11.0833 0.989594C11.0833 0.435425 10.6479 0 10.0938 0C9.53961 0 9.10419 0.435425 9.10419 0.989594L9.10419 1.74167L5.14581 1.74167L5.14581 0.989594C5.14581 0.435425 4.71039 0 4.15625 0C3.60211 0 3.16669 0.475006 3.16669 0.989594L3.16669 1.74167L1.34583 1.74167C0.59375 1.74167 0 2.33542 0 3.08749L0 13.775C0 14.5271 0.59375 15.1208 1.34583 15.1208L12.9437 15.1208C13.6959 15.1208 14.2896 14.5271 14.2896 13.775L14.2896 3.08749C14.25 2.33542 13.6562 1.74167 12.9042 1.74167ZM7.52081 11.2021L3.95831 11.2021C3.52289 11.2021 3.16669 10.8458 3.16669 10.4104C3.16669 9.97501 3.52289 9.61874 3.95831 9.61874L7.52081 9.61874C7.95624 9.61874 8.3125 9.97501 8.3125 10.4104C8.3125 10.8458 7.95624 11.2021 7.52081 11.2021ZM9.89581 7.63959L3.95831 7.63959C3.52289 7.63959 3.16669 7.28333 3.16669 6.84793C3.16669 6.41251 3.52289 6.05624 3.95831 6.05624L9.89581 6.05624C10.3312 6.05624 10.6875 6.41251 10.6875 6.84793C10.6875 7.28333 10.3312 7.63959 9.89581 7.63959Z" fill-rule="nonzero" fill="#1890FF"/>
	</g>
	<defs/>
</svg>
