<svg width="100.000000" height="100.000000" viewBox="0 0 100 100" fill="none" xmlns="http://www.w3.org/2000/svg" xmlns:xlink="http://www.w3.org/1999/xlink">
	<desc>
			Created with Pixso.
	</desc>
	<g id="组合 14">
		<g id="组合">
			<g id="矩形" filter="url(#filter_23_12922_dd)">
				<path d="M64.5 2C76.9264 2 87 12.0736 87 24.5L87 59.5C87 71.9264 76.9264 82 64.5 82L29.5 82C17.0736 82 7 71.9264 7 59.5L7 24.5C7 12.0736 17.0736 2 29.5 2L64.5 2L64.5 2Z" fill-rule="evenodd" fill="#FFFFFF"/>
				<path d="M64.5 2C76.9264 2 87 12.0736 87 24.5L87 59.5C87 71.9264 76.9264 82 64.5 82L29.5 82C17.0736 82 7 71.9264 7 59.5L7 24.5C7 12.0736 17.0736 2 29.5 2L64.5 2ZM78.9957 10.0043C82.9986 14.0072 85 18.8391 85 24.5L85 59.5C85 65.1609 82.9985 69.9928 78.9957 73.9957C74.9928 77.9986 70.1609 80 64.5 80L29.5 80C23.8391 80 19.0072 77.9985 15.0043 73.9957C11.0015 69.9928 9 65.1609 9 59.5L9 24.5C9 18.8391 11.0015 14.0072 15.0043 10.0043C19.0072 6.00146 23.8391 4 29.5 4L64.5 4C70.1609 4 74.9928 6.00146 78.9957 10.0043Z" fill-rule="evenodd" fill="#0081FF"/>
			</g>
		</g>
		<g id="path">
			<path d="M29.5001 43.875L63.9445 43.875L63.9445 35.2639L29.5001 35.2639L29.5001 43.875ZM38.1111 38.493L53.1806 38.493L53.1806 40.6458L38.1111 40.6458L38.1111 38.493ZM33.8056 38.493L35.9584 38.493L35.9584 40.6458L33.8056 40.6458L33.8056 38.493ZM61.7917 24.5L31.6528 24.5C30.4688 24.5 29.5001 25.4688 29.5001 26.6528L29.5001 33.1111L63.9445 33.1111L63.9445 26.6528C63.9445 25.4688 62.9758 24.5 61.7917 24.5ZM35.9584 29.882L33.8056 29.882L33.8056 27.7292L35.9584 27.7292L35.9584 29.882ZM53.1806 29.882L38.1111 29.882L38.1111 27.7292L53.1806 27.7292L53.1806 29.882ZM29.5001 52.4861C29.5001 53.6702 30.4688 54.6389 31.6528 54.6389L61.7917 54.6389C62.9758 54.6389 63.9445 53.6702 63.9445 52.4861L63.9445 46.0278L29.5001 46.0278L29.5001 52.4861ZM38.1111 49.257L53.1806 49.257L53.1806 51.4097L38.1111 51.4097L38.1111 49.257ZM33.8056 49.257L35.9584 49.257L35.9584 51.4097L33.8056 51.4097L33.8056 49.257Z" fill-rule="nonzero" fill="#FF6868"/>
		</g>
		<g id="svg">
			<g clip-path="url(#clip23_12939)">
				<g id="path">
					<path d="M58.875 43.25C54.39 43.25 50.75 46.89 50.75 51.375C50.75 55.86 54.39 59.5 58.875 59.5C63.36 59.5 67 55.86 67 51.375C67 46.89 63.36 43.25 58.875 43.25ZM58.875 56.25C58.4119 56.25 58.0463 55.8762 58.0463 55.4213C58.0463 54.9581 58.42 54.5925 58.875 54.5925C59.3381 54.5925 59.7037 54.9662 59.7037 55.4213C59.7037 55.8762 59.3381 56.25 58.875 56.25ZM59.7769 46.9794L59.6063 52.8943C59.5981 53.2031 59.2812 53.4469 58.9075 53.4469L58.7775 53.4469C58.4037 53.4469 58.0869 53.2031 58.0787 52.8943L57.9 46.9794C57.8837 46.5081 58.2656 46.11 58.7531 46.11L58.9238 46.11C59.4113 46.11 59.7932 46.5081 59.7769 46.9794Z" fill-rule="nonzero" fill="#3377FF"/>
				</g>
				<g id="交集">
					<path d="M62.0038 43.875C61.0407 43.4724 59.9837 43.25 58.8751 43.25C57.7664 43.25 56.7094 43.4724 55.7463 43.875L62.0038 43.875ZM51.433 54.6389L58.6004 54.6389C58.6865 54.6088 58.7789 54.5925 58.8751 54.5925C58.9719 54.5925 59.0646 54.6089 59.1505 54.6389L61.7919 54.6389C62.9759 54.6389 63.9446 53.6702 63.9446 52.4861L63.9446 46.0278L52.7591 46.0278C51.9559 46.9455 51.3559 48.0453 51.0292 49.257L53.1807 49.257L53.1807 51.4097L50.7501 51.4097C50.7549 52.5577 50.9982 53.6498 51.433 54.6389ZM59.6063 52.8943L59.7769 46.9794C59.7932 46.5081 59.4113 46.11 58.9238 46.11L58.7532 46.11C58.2657 46.11 57.8838 46.5081 57.9 46.9794L58.0788 52.8943C58.0869 53.2031 58.4038 53.4469 58.7775 53.4469L58.9075 53.4469C59.2813 53.4469 59.5981 53.2031 59.6063 52.8943Z" clip-rule="evenodd" fill-rule="evenodd" fill="#41398C" fill-opacity="1.000000"/>
				</g>
			</g>
		</g>
	</g>
	<defs>
		<filter id="filter_23_12922_dd" x="0.000000" y="0.000000" width="100.000000" height="100.000000" filterUnits="userSpaceOnUse" color-interpolation-filters="sRGB">
			<feFlood flood-opacity="0" result="BackgroundImageFix"/>
			<feColorMatrix in="SourceAlpha" type="matrix" values="0 0 0 0 0 0 0 0 0 0 0 0 0 0 0 0 0 0 127 0"/>
			<feOffset dx="3" dy="8"/>
			<feGaussianBlur stdDeviation="3.33333"/>
			<feColorMatrix type="matrix" values="0 0 0 0 0 0 0 0 0 0 0 0 0 0 0 0 0 0 0.25 0"/>
			<feBlend mode="normal" in2="BackgroundImageFix" result="effect_dropShadow_1"/>
			<feBlend mode="normal" in="SourceGraphic" in2="effect_dropShadow_1" result="shape"/>
		</filter>
		<clipPath id="clip23_12942">
			<rect width="16.250000" height="16.250000" transform="translate(50.750000 43.250000)" fill="white"/>
		</clipPath>
		<clipPath id="clip23_12939">
			<rect width="16.250000" height="16.250000" transform="translate(50.750000 43.250000)" fill="white"/>
		</clipPath>
	</defs>
</svg>
