<svg width="19.618408" height="19.024023" viewBox="0 0 19.6184 19.024" fill="none" xmlns="http://www.w3.org/2000/svg" xmlns:xlink="http://www.w3.org/1999/xlink">
	<desc>
			Created with Pixso.
	</desc>
	<defs/>
	<path id="path" d="M16.64 10.26C18.27 10.26 19.6 11.57 19.61 13.2L19.61 16.07C19.6 17.7 18.28 19.01 16.64 19.02L13.73 19.02C12.09 19.01 10.77 17.69 10.76 16.07L10.76 13.2C10.76 11.57 12.09 10.26 13.73 10.26L16.64 10.26ZM4.16 10.26C4.24 10.25 4.31 10.25 4.39 10.27C4.46 10.28 4.53 10.3 4.6 10.33C4.67 10.37 4.73 10.41 4.78 10.46C4.84 10.51 4.89 10.56 4.93 10.63C4.97 10.69 5 10.76 5.02 10.83C5.04 10.9 5.05 10.97 5.05 11.05C5.05 11.12 5.04 11.2 5.02 11.27C5 11.34 4.97 11.41 4.93 11.47C4.89 11.53 4.84 11.59 4.78 11.64C4.73 11.69 4.67 11.73 4.6 11.76C4.53 11.79 4.46 11.82 4.39 11.83C4.31 11.84 4.24 11.84 4.16 11.84L2.97 11.84C2.21 11.84 1.59 12.44 1.59 13.2L1.59 16.04C1.61 16.78 2.22 17.38 2.97 17.4L5.91 17.4C6.27 17.39 6.62 17.25 6.87 17C7 16.87 7.1 16.73 7.17 16.56C7.24 16.39 7.28 16.22 7.28 16.04L7.28 11.77L7.28 11.76C7.26 11.69 7.26 11.61 7.27 11.53C7.28 11.45 7.3 11.38 7.33 11.31C7.37 11.24 7.41 11.17 7.46 11.11C7.51 11.05 7.57 11 7.64 10.96C7.7 10.92 7.78 10.89 7.85 10.87C7.93 10.84 8.01 10.84 8.09 10.84C8.17 10.84 8.25 10.85 8.32 10.88C8.4 10.9 8.47 10.94 8.53 10.99C8.8 11.17 8.92 11.51 8.84 11.82L8.84 16.06C8.84 17.69 7.51 19.01 5.87 19.01L2.97 19.01C1.34 18.98 0.03 17.68 0 16.06L0 13.2C0 12.42 0.31 11.67 0.87 11.12C1.01 10.98 1.16 10.86 1.32 10.75C1.48 10.64 1.65 10.55 1.84 10.48C2.02 10.41 2.2 10.35 2.39 10.31C2.58 10.28 2.78 10.26 2.97 10.26L4.16 10.26ZM16.64 11.84L13.73 11.84C12.97 11.84 12.36 12.45 12.36 13.2L12.36 16.09C12.36 16.44 12.5 16.78 12.76 17.04C13.02 17.29 13.37 17.43 13.73 17.43L16.65 17.43C16.83 17.43 17.01 17.4 17.17 17.33C17.34 17.26 17.48 17.16 17.61 17.04C17.87 16.78 18.01 16.43 18.01 16.07L18.01 13.2C18.01 13.02 17.98 12.84 17.91 12.68C17.84 12.51 17.74 12.36 17.61 12.24C17.48 12.11 17.33 12.01 17.16 11.94C16.99 11.87 16.82 11.84 16.64 11.84ZM5.88 3.81e-5C7.52 0 8.85 1.32 8.85 2.94L8.85 5.82C8.85 6.01 8.83 6.2 8.8 6.39C8.76 6.58 8.7 6.77 8.63 6.94C8.55 7.12 8.46 7.29 8.35 7.45C8.24 7.61 8.12 7.76 7.98 7.9C7.84 8.03 7.69 8.16 7.53 8.26C7.36 8.37 7.19 8.46 7.01 8.53C6.83 8.61 6.65 8.66 6.46 8.7C6.26 8.74 6.07 8.76 5.88 8.75L2.97 8.75C1.33 8.75 0 7.44 0 5.82L0 2.94C0 1.32 1.33 0 2.97 3.81e-5L5.88 3.81e-5ZM2.97 1.58C2.79 1.58 2.61 1.61 2.44 1.68C2.27 1.74 2.11 1.84 1.98 1.97C1.72 2.23 1.57 2.58 1.57 2.94L1.57 5.82C1.56 6.19 1.71 6.54 1.97 6.81C2.24 7.07 2.6 7.21 2.97 7.2L5.88 7.2C6.25 7.2 6.6 7.05 6.86 6.79C7.11 6.53 7.25 6.18 7.25 5.82L7.25 2.94C7.25 2.9 7.25 2.85 7.24 2.81C7.24 2.76 7.23 2.72 7.22 2.68C7.21 2.63 7.2 2.59 7.19 2.55C7.17 2.5 7.16 2.46 7.14 2.42C7.12 2.38 7.1 2.34 7.08 2.3C7.06 2.26 7.04 2.22 7.01 2.19C6.99 2.15 6.96 2.11 6.93 2.08C6.9 2.04 6.87 2.01 6.84 1.98C6.81 1.95 6.78 1.92 6.74 1.89C6.71 1.86 6.67 1.84 6.64 1.81C6.6 1.79 6.56 1.76 6.52 1.74C6.48 1.72 6.44 1.7 6.4 1.69C6.36 1.67 6.32 1.65 6.27 1.64C6.23 1.63 6.19 1.62 6.14 1.61C6.1 1.6 6.05 1.59 6.01 1.59C5.97 1.58 5.92 1.58 5.88 1.58L2.97 1.58ZM14.88 3.81e-5C16.82 3.81e-5 18.56 1.15 19.28 2.9C19.99 4.65 19.53 6.65 18.12 7.93C16.7 9.22 14.62 9.54 12.86 8.74C12.81 8.72 12.77 8.7 12.73 8.67C12.69 8.64 12.66 8.61 12.62 8.57C12.59 8.54 12.56 8.5 12.53 8.46C12.51 8.42 12.49 8.37 12.47 8.33C12.45 8.28 12.44 8.23 12.43 8.19C12.42 8.14 12.42 8.09 12.42 8.04C12.43 7.99 12.43 7.94 12.45 7.89C12.46 7.85 12.47 7.8 12.49 7.76C12.52 7.71 12.54 7.67 12.57 7.63C12.6 7.59 12.64 7.56 12.68 7.52C12.71 7.49 12.75 7.46 12.8 7.44C12.84 7.41 12.88 7.39 12.93 7.37C12.98 7.36 13.03 7.35 13.08 7.34C13.12 7.33 13.17 7.33 13.22 7.33C13.27 7.34 13.32 7.34 13.37 7.35C13.42 7.37 13.47 7.38 13.51 7.4C14.87 8.02 16.49 7.64 17.41 6.49C17.47 6.42 17.52 6.35 17.57 6.28C17.62 6.21 17.66 6.13 17.71 6.05C17.75 5.98 17.79 5.9 17.82 5.82C17.86 5.74 17.89 5.66 17.92 5.57C17.95 5.49 17.97 5.41 17.99 5.32C18.02 5.23 18.03 5.15 18.05 5.06C18.06 4.97 18.07 4.89 18.08 4.8C18.08 4.71 18.09 4.62 18.08 4.54C18.08 4.45 18.08 4.36 18.07 4.27C18.06 4.18 18.05 4.1 18.03 4.01C18.01 3.92 17.99 3.84 17.97 3.75C17.94 3.67 17.92 3.59 17.88 3.5C17.85 3.42 17.82 3.34 17.78 3.26C17.74 3.18 17.7 3.11 17.65 3.03C17.61 2.95 17.56 2.88 17.51 2.81C17.46 2.74 17.4 2.67 17.35 2.6C16.39 1.48 14.75 1.16 13.41 1.82C12.08 2.48 11.39 3.96 11.77 5.37L11.78 5.4C11.79 5.44 11.8 5.49 11.8 5.54C11.81 5.59 11.8 5.64 11.8 5.69C11.79 5.74 11.78 5.79 11.76 5.83C11.75 5.88 11.73 5.92 11.7 5.96C11.68 6.01 11.65 6.05 11.61 6.08C11.58 6.12 11.54 6.15 11.5 6.18C11.46 6.21 11.42 6.24 11.38 6.26C11.33 6.28 11.29 6.29 11.24 6.31C11.19 6.32 11.14 6.33 11.09 6.33C11.04 6.33 10.99 6.33 10.95 6.33C10.9 6.32 10.85 6.31 10.8 6.29C10.75 6.28 10.71 6.26 10.66 6.23C10.62 6.21 10.58 6.18 10.54 6.15C10.51 6.12 10.47 6.08 10.44 6.04C10.41 6.01 10.38 5.96 10.36 5.92C10.34 5.88 10.32 5.83 10.3 5.78C10.26 5.61 10.22 5.44 10.19 5.27C10.17 5.09 10.15 4.92 10.14 4.74C10.14 4.56 10.14 4.39 10.16 4.21C10.17 4.04 10.2 3.86 10.23 3.69C10.27 3.52 10.31 3.35 10.37 3.18C10.42 3.01 10.49 2.85 10.56 2.69C10.64 2.53 10.72 2.38 10.81 2.23C10.91 2.08 11.01 1.93 11.12 1.79C11.23 1.65 11.35 1.52 11.48 1.39C11.6 1.27 11.74 1.15 11.88 1.03C12.02 0.92 12.17 0.82 12.32 0.72C12.47 0.63 12.63 0.54 12.79 0.46C12.95 0.39 13.12 0.32 13.29 0.26C13.46 0.2 13.63 0.15 13.81 0.11C13.98 0.07 14.16 0.04 14.34 0.02C14.52 0 14.7 -0.01 14.88 3.81e-5Z" fill="#1890FF" fill-opacity="1.000000" fill-rule="nonzero"/>
</svg>
