<?xml version="1.0" encoding="utf-8"?>
<svg version="1.1" xmlns:xlink="http://www.w3.org/1999/xlink" width="16px" height="14px" xmlns="http://www.w3.org/2000/svg">
  <g transform="matrix(1 0 0 1 -1824 -333 )">
    <path d="M 10.6010695187166 2.02210365853659  L 10.6010695187166 2.02103658536585  C 8.92489461447612 1.18992220202261  6.94291126782866 1.25161740286739  5.32192513368984 2.18536585365854  C 4.26235748782453 2.79560044291522  3.43218968225327 3.73518043247708  2.95828877005348 4.86051829268293  C 2.53048128342246 5.89771341463415  2.42352941176471 7.04161585365854  2.63957219251337 8.13323170731707  L 3.97326203208556 7.36493902439024  L 4.0427807486631 7.38307926829268  C 4.22780748663102 7.43003048780488  4.38609625668449 7.53246951219512  4.46096256684492 7.66265243902439  C 4.51996035470288 7.7671426396471  4.53496314149644 7.89072856498934  4.50267379679144 8.00625  L 3.78609625668449 10.6963414634146  C 3.74356464923483 10.8429791715821  3.64686319848154 10.968060395926  3.51550802139037 11.0463414634146  C 3.38187683878996 11.1211432865146  3.22475403749787 11.1425027937878  3.07593582887701 11.1060975609756  L 0.382887700534759 10.3794207317073  C -0.0834224598930486 10.2225609756098  0.0149732620320852 9.91524390243902  0.0673796791443847 9.73064024390244  L 0.099465240641711 9.61539634146341  L 1.38823529411765 8.87271341463414  C 0.989822668893432 7.42594560922004  1.07085697886242 5.88943996427841  1.6192513368984 4.49237804878048  C 1.89394980669696 3.77392538172932  2.29046119369934 3.10796668957105  2.79144385026738 2.52362804878049  C 3.30926087349617 1.91685523608725  3.92792365390092 1.40356466496695  4.62032085561497 1.00625  C 5.66935679210113 0.403408751723544  6.85579942184904 0.0790036153832918  8.06631016042781 0.0640243902439024  C 9.23434575224527 0.059161842769819  10.385078244323 0.345636945506253  11.4139037433155 0.897408536585366  L 11.5850267379679 0.991310975609756  L 10.7048128342246 2.0967987804878  L 10.6010695187166 2.02210365853659  Z M 15.8823529411765 3.36234756097561  C 15.9486631016043 3.47865853658536  15.9508021390374 3.65045731707317  15.9069518716578 3.85  L 15.8877005347594 3.91935975609756  L 14.6727272727273 4.61935975609756  C 15.2162624733323 6.11796312718092  15.2230647514984 7.75808813647351  14.6919786096257 9.26112804878049  C 14.136499168799 10.8388347988585  13.0332003474693 12.1659739930035  11.5818181818182 13.0022865853659  C 10.4640534016312 13.6522831348293  9.185012320763 13.974086412075  7.89197860962567 13.9306402439024  C 6.64066362953349 13.8930870845798  5.42229546760546 13.5216694073468  4.36363636363636 12.8550304878049  L 4.20641711229947 12.7525914634146  L 5.07272727272727 11.6545731707317  L 5.19893048128342 11.736737804878  C 6.93871579662726 12.8002002307125  9.1232397395435 12.8247906275809  10.8866310160428 11.800762195122  C 11.4635728243202 11.4687006364802  11.9761440106121 11.0360894839879  12.4 10.5234756097561  C 13.6009403280581 9.07064579250781  13.9899089865517 7.11301049272734  13.4352941176471 5.31295731707317  L 12.0128342245989 6.13246951219512  L 11.9358288770054 6.13780487804878  L 11.8898395721925 6.12606707317073  C 11.703743315508 6.0780487804878  11.3871657754011 6.00868902439024  11.4844919786096 5.52850609756097  L 12.2010695187166 2.83841463414634  C 12.2465062899858 2.69326611547827  12.3424839989991 2.56912103534148  12.4716577540107 2.48841463414634  C 12.6052889366111 2.41361281104633  12.7624117379032 2.39225330377318  12.9112299465241 2.42865853658537  L 15.6042780748663 3.15533536585366  C 15.7208089750262 3.18483464882221  15.8208298903721 3.2592949893722  15.8823529411765 3.36234756097561  Z " fill-rule="nonzero" fill="#4990e2" stroke="none" transform="matrix(1 0 0 1 1824 333 )" />
  </g>
</svg>