<?xml version="1.0" encoding="utf-8"?>
<svg version="1.1" xmlns:xlink="http://www.w3.org/1999/xlink" width="24px" height="24px" xmlns="http://www.w3.org/2000/svg">
  <defs>
    <filter x="129px" y="1003px" width="24px" height="24px" filterUnits="userSpaceOnUse" id="filter1936">
      <feOffset dx="0" dy="1" in="SourceAlpha" result="shadowOffsetInner" />
      <feGaussianBlur stdDeviation="3" in="shadowOffsetInner" result="shadowGaussian" />
      <feComposite in2="shadowGaussian" operator="atop" in="SourceAlpha" result="shadowComposite" />
      <feColorMatrix type="matrix" values="0 0 0 0 0  0 0 0 0 0  0 0 0 0 0  0 0 0 0.149019607843137 0  " in="shadowComposite" />
    </filter>
    <g id="widget1937">
      <path d="M 141 1009  C 143.8 1009  146 1011.2  146 1014  C 146 1016.8  143.8 1019  141 1019  C 138.2 1019  136 1016.8  136 1014  C 136 1011.2  138.2 1009  141 1009  Z " fill-rule="nonzero" fill="#3377ff" stroke="none" />
      <path d="M 141 1009  C 143.8 1009  146 1011.2  146 1014  C 146 1016.8  143.8 1019  141 1019  C 138.2 1019  136 1016.8  136 1014  C 136 1011.2  138.2 1009  141 1009  Z " stroke-width="2" stroke="#ffffff" fill="none" />
    </g>
  </defs>
  <g transform="matrix(1 0 0 1 -129 -1003 )">
    <use xlink:href="#widget1937" filter="url(#filter1936)" />
    <use xlink:href="#widget1937" />
  </g>
</svg>