<?xml version="1.0" encoding="utf-8"?>
<svg version="1.1" xmlns:xlink="http://www.w3.org/1999/xlink" width="12px" height="14px" xmlns="http://www.w3.org/2000/svg">
  <g transform="matrix(1 0 0 1 -124 -1237 )">
    <path d="M 8.19050047092188 1.08572912214193  C 8.54097678745313 1.08572912214193  8.87620441598438 1.15031296012044  9.19788667865625 1.27814007184245  C 9.53187178357889 1.40747478893732  9.83491032200645 1.60224232727786  10.0881500533125 1.85032606130859  C 10.3481076092344 2.10676884660156  10.5437449305937 2.39483326302409  10.6752242336953 2.71380960953776  C 10.8041891347734 3.02174597611979  10.8682660390547 3.34868687020182  10.8682660392187 3.69534200430664  C 10.8682660392187 4.04120856539713  10.8041891347734 4.36878031119141  10.6752242336953 4.67695325988607  C 10.5437449187813 4.99585074558919  10.3477831651406 5.28352088108724  10.0881500533125 5.53964823494141  L 5.14335997192969 10.358044143763  C 4.99225204085156 10.5051123424479  4.81275561332813 10.6209532022526  4.60616844210938 10.7053301297396  C 4.40452898458594 10.782057941097  4.20353840294531 10.8200669847721  4.00206114958594 10.8200669847721  C 3.8004216920625 10.8200669847721  3.59910666649219 10.782057941097  3.39738609515625 10.7053301297396  C 3.19006893358594 10.6209532024121  3.01130249608594 10.5050334931217  2.86027567898438 10.358044143763  C 2.70357115783594 10.2052193844043  2.58644831310937 10.0318918228548  2.50744717624219 9.83837687954752  C 2.42893269944531 9.65306305491536  2.38999989923437 9.4569458326237  2.38999988758594 9.24939436096028  C 2.38999988758594 9.03979260089518  2.42893268796094 8.84178281198242  2.50752827824219 8.65615355591146  C 2.58644831278125 8.46555632366536  2.70357114569531 8.29270189252604  2.86027567898438 8.13695943343099  L 7.42311875934375 3.69534200430664  C 7.52896731011719 3.59148740758463  7.65647223114844 3.53975725566732  7.80498464622656 3.53975725550781  C 7.95049598739844 3.53975725550781  8.07645981440625 3.59148740774414  8.18287613889844 3.69534200430664  C 8.28913023576563 3.79888116927083  8.34266283611719 3.92158258335612  8.34266283611719 4.0635250845638  C 8.34266283611719 4.20791215477864  8.28913023576563 4.33179641147786  8.18287613889844 4.43549328657877  L 3.62068193475 8.87797815000651  C 3.51686113774219 8.97836304476562  3.46503184739062 9.10256273322266  3.46503183541406 9.24970978107422  C 3.46503183541406 9.39433342207682  3.51678001195313 9.51703482483724  3.62068193458594 9.61797172214193  C 3.73228929157031 9.72174745805339  3.85955088248437 9.7736353317513  4.00238559351562 9.7736353315918  C 4.14465253066406 9.7736353315918  4.27199523555469 9.72174745789388  4.38425148039844 9.61789286149088  L 9.3287171176875 4.80004894357096  C 9.63944953000781 4.49755370622396  9.79477518508594 4.1293706259668  9.79477517310938 3.69534200430664  C 9.79477517310938 3.26210194449544  9.63944951803125 2.89360344412435  9.32871711752344 2.59110820677734  C 9.00971148515625 2.28593182947591  8.63052222841406 2.13294935998047  8.19155490503906 2.13294934849609  C 7.74901874552344 2.13294934849609  7.37137058264062 2.28593181815104  7.05788042636719 2.59110820677734  L 2.10084274335938 7.39704472210612  C 1.846023327707 7.64375004187823  1.64606192348868 7.93872892148832  1.51336300474219 8.26368254038086  C 1.38155925771094 8.57713889684896  1.31577904326562 8.90620892849935  1.31577904326562 9.24939436096028  C 1.31577904326562 9.58769065524739  1.38147814389844 9.91628754516276  1.51336300474219 10.2351061702148  C 1.64743783582031 10.5596024952897  1.84315627115625 10.847114920651  2.10084274335938 11.0978011451107  C 2.36704576523438 11.3540073596159  2.66366503748438 11.5464971584831  2.99061944596875 11.6745608411523  C 3.31733052466406 11.8027033729883  3.65458590696094 11.867050640179  4.00206114942188 11.8670506515039  C 4.34888751583594 11.8670506515039  4.686224000625 11.8027033843131  5.01317842108594 11.6745608411523  C 5.33997061359375 11.5465760194531  5.63691432977344 11.3540073594564  5.90279290788281 11.0978800057617  L 10.8389042108203 6.2882372178418  C 10.9451583076875 6.18454033125651  11.0725010125781 6.13241589825521  11.2208512120078 6.13241588693034  C 11.3666869971094 6.13241588693034  11.4925697101406 6.18446147060547  11.5989860346328 6.2882372178418  C 11.7054023592891 6.39169753347982  11.7585294018984 6.51439893624023  11.7585294018984 6.65618371582682  C 11.7585294018984 6.80128049840495  11.7054023474766 6.92500704528646  11.5989860346328 7.02901935198568  L 6.66287471971875 11.8386621512305  C 6.30193521307031 12.1898909805859  5.88640868376562 12.4588720201823  5.41621401815625 12.6440281233529  C 4.96808125675781 12.8242162503483  4.49683215719531 12.9142708778581  4.00198004758594 12.9142708778581  C 3.50948012385938 12.9142708778581  3.03823102429688 12.8242162505078  2.587664962875 12.6440281233529  C 2.11706473935937 12.4588720201823  1.70161931238281 12.1898909805859  1.34067981754687 11.8386621512305  C 0.985031575995022 11.4934081691787  0.705222854861038 11.0815173729201  0.518224411265625 10.6279714665104  C 0.334105124936135 10.1905907076903  0.239892968191411 9.72238116455985  0.24090931125 9.24978864204427  C 0.24090931125 8.76994412763346  0.333131382023437 8.31060242657878  0.518305513429687 7.87192123737305  C 0.705426284789062 7.41928236913737  0.979578082945312 7.01443082092448  1.34076091954687 6.65712999929688  L 1.34481642757031 6.65712999929688  L 6.29763638674219 1.85119348380859  C 6.55507952882813 1.6002706885612  6.85031993484375 1.40935802455729  7.18335759346875 1.27861321357747  C 7.51096088997656 1.15031296012044  7.84659407657812 1.08604455374023  8.19041936908594 1.08604455374023  Z " fill-rule="nonzero" fill="#999999" stroke="none" transform="matrix(1 0 0 1 124 1237 )" />
  </g>
</svg>