<svg xmlns="http://www.w3.org/2000/svg" xmlns:xlink="http://www.w3.org/1999/xlink" viewBox="0 0 819.2 819.2"><defs><style>.cls-1{fill:none;}.cls-2{clip-path:url(#clip-path);}.cls-3{fill:#37f;}.cls-4{fill:#fff;}</style><clipPath id="clip-path" transform="translate(0.12 -0.52)"><rect class="cls-1" width="819.84" height="820.72"/></clipPath></defs><g id="图层_2" data-name="图层 2"><g id="图层_1-2" data-name="图层 1"><g class="cls-2"><path class="cls-3" d="M-.12,410.12c0,226.22,183.38,409.6,409.6,409.6s409.6-183.38,409.6-409.6S635.7.52,409.48.52-.12,183.9-.12,410.12Z" transform="translate(0.12 -0.52)"/></g><path class="cls-4" d="M556.82,403.42V581.15H247.73V272.06H425.46l44.15-44.16h-266V625.31H601v-266Z" transform="translate(0.12 -0.52)"/><path class="cls-4" d="M498,262.6l-168,168.19-15.35,76.32L391,492l168.2-168.2Zm76.54,45.83-61.29-61.18,45.94-45.84,61.18,61.19Z" transform="translate(0.12 -0.52)"/></g></g></svg>