<?xml version="1.0" encoding="utf-8"?>
<svg version="1.1" xmlns:xlink="http://www.w3.org/1999/xlink" width="17px" height="17px" xmlns="http://www.w3.org/2000/svg">
  <g transform="matrix(1 0 0 1 -436 -999 )">
    <path d="M 16.7735104166667 14.0052729166667  C 17.104178125 14.6672458333333  17.0716833333333 15.3890375  16.68305625 16.0184447916667  C 16.2942875 16.6478697916667  15.6638354166667 16.9998052083333  14.9244770833333 17  L 3.20866145833333 17  C 2.469303125 16.9998052083333  1.838921875 16.6478697916667  1.45022395833333 16.0184447916667  C 1.06161458333333 15.3890197916667  1.02911979166667 14.6672458333333  1.35971666666667 14.0052729166667  L 7.21763333333333 2.27711458333333  C 7.5775375 1.55663333333333  8.262 1.133209375  9.066578125 1.133209375  C 9.87138645833333 1.133209375  10.5557604166667 1.556615625  10.9155229166667 2.27711458333333  L 16.7735104166667 14.0052729166667  Z M 11.3333333333333 8.5  C 11.3333333333333 8.187040625  11.0796260416667 7.93333333333333  10.7666666666667 7.93333333333333  L 7.36666666666667 7.93333333333333  C 7.05370729166667 7.93333333333333  6.8 8.187040625  6.8 8.5  C 6.8 8.812959375  7.05370729166667 9.06666666666667  7.36666666666667 9.06666666666667  L 10.7666666666667 9.06666666666667  C 11.0796260416667 9.06666666666667  11.3333333333333 8.812959375  11.3333333333333 8.5  Z M 11.9 10.7666666666667  C 11.9 10.4537072916667  11.6462927083333 10.2  11.3333333333333 10.2  L 6.8 10.2  C 6.487040625 10.2  6.23333333333333 10.4537072916667  6.23333333333333 10.7666666666667  C 6.23333333333333 11.0796260416667  6.487040625 11.3333333333333  6.8 11.3333333333333  L 11.3333333333333 11.3333333333333  C 11.6462927083333 11.3333333333333  11.9 11.0796260416667  11.9 10.7666666666667  Z M 12.4666666666667 13.0333333333333  C 12.4666666666667 12.7203739583333  12.212959375 12.4666666666667  11.9 12.4666666666667  L 6.23333333333333 12.4666666666667  C 5.92037395833333 12.4666666666667  5.66666666666667 12.7203739583333  5.66666666666667 13.0333333333333  C 5.66666666666667 13.3462927083333  5.92037395833333 13.6  6.23333333333333 13.6  L 11.9 13.6  C 12.212959375 13.6  12.4666666666667 13.3462927083333  12.4666666666667 13.0333333333333  Z " fill-rule="nonzero" fill="#0081ff" stroke="none" transform="matrix(1 0 0 1 436 999 )" />
  </g>
</svg>