<svg width="22.000000" height="22.000000" viewBox="0 0 22 22" fill="none" xmlns="http://www.w3.org/2000/svg" xmlns:xlink="http://www.w3.org/1999/xlink">
	<desc>
			Created with Pixso.
	</desc>
	<g id="搜索">
		<g id="形状">
			<path d="M19.5038 18.0654L15.4846 14.0461C16.39 12.8446 16.9231 11.3469 16.9231 9.73077C16.9231 5.7623 13.6992 2.53845 9.73076 2.53845C5.7623 2.53845 2.53845 5.7623 2.53845 9.73077C2.53845 13.6992 5.7623 16.9231 9.73076 16.9231C11.3469 16.9231 12.8446 16.39 14.0461 15.4846L18.0654 19.5038L19.5038 18.0654M4.56921 9.73077C4.56921 6.8877 6.88768 4.56921 9.73076 4.56921C12.5738 4.56921 14.8923 6.8877 14.8923 9.73077C14.8923 12.5739 12.5738 14.8923 9.73076 14.8923C6.88768 14.8923 4.56921 12.5739 4.56921 9.73077L4.56921 9.73077Z" clip-rule="evenodd" fill-rule="evenodd" fill="#1890FF" fill-opacity="1.000000"/>
		</g>
	</g>
	<defs/>
</svg>
