<?xml version="1.0" encoding="utf-8"?>
<svg version="1.1" xmlns:xlink="http://www.w3.org/1999/xlink" width="18px" height="11px" xmlns="http://www.w3.org/2000/svg">
  <g transform="matrix(1 0 0 1 -16 -582 )">
    <path d="M 9.0469507101086 6.50098162071846  L 14.8641604010025 0.580402394876079  C 15.2190228658065 0.21445047804697  15.6467588724899 0.0314745196324148  16.1473684210526 0.0314745196324148  C 16.6479779696154 0.0314745196324148  17.0757139762988 0.21445047804697  17.4305764411028 0.580402394876079  C 17.798112565364 0.94635431170519  17.9818806274947 1.38418964076859  17.9818806274947 1.89390838206628  C 17.9818806274947 2.40362712336397  17.798112565364 2.84146245242737  17.4305764411028 3.20741436925648  L 10.3206534855658 10.500313283208  C 10.1685695720783 10.6832892416226  9.97846468021906 10.810718926947  9.75033880998793 10.8826023391813  C 9.5222129397568 10.9544857514156  9.28141341006838 10.9838926018751  9.02794022092267 10.9708228905597  C 8.77446703177697 10.9577531792444  8.52416225749559 10.9022069061543  8.27702589807853 10.8041840712893  C 8.02988953866146 10.7061612364244  7.81760574275194 10.5656618397846  7.64017451034995 10.3826858813701  L 0.644314489928522 3.20741436925648  C 0.276778365667252 2.84146245242737  0.0930103035366166 2.40362712336397  0.0930103035366166 1.89390838206628  C 0.0930103035366166 1.38418964076859  0.276778365667252 0.946354311705192  0.644314489928522 0.580402394876081  C 0.821745722330515 0.397426436461527  1.02135585878276 0.260194467650611  1.24314489928525 0.168706488443333  C 1.46493393978774 0.0772185092360562  1.69305981001887 0.0314745196324169  1.92752250997865 0.0314745196324162  C 2.16198520993842 0.0314745196324155  2.39327949503388 0.0772185092360548  2.62140536526501 0.168706488443333  C 2.84953123549614 0.260194467650611  3.05230978681271 0.397426436461527  3.2297410192147 0.580402394876081  L 9.0469507101086 6.50098162071846  Z " fill-rule="nonzero" fill="#aaaec4" stroke="none" transform="matrix(1 0 0 1 16 582 )" />
  </g>
</svg>