<?xml version="1.0" encoding="utf-8"?>
<!-- Generator: Adobe Illustrator 24.0.1, SVG Export Plug-In . SVG Version: 6.00 Build 0)  -->
<svg version="1.1" id="图层_1" xmlns="http://www.w3.org/2000/svg" xmlns:xlink="http://www.w3.org/1999/xlink" x="0px" y="0px"
	 viewBox="0 0 56.7 62" style="enable-background:new 0 0 56.7 62;" xml:space="preserve">
<style type="text/css">
	.st0{fill:#FC6060;stroke:#FC6060;stroke-miterlimit:10;}
	.st1{fill:#FC6060;}
</style>
<g>
	<path class="st0" d="M43.3,35.7c-7,0-12.9,6-12.9,12.9c0,7,6,12.9,12.9,12.9s12.9-6,12.9-12.9C56.2,41.6,50.7,35.7,43.3,35.7
		L43.3,35.7z M54.2,48.6c0,2.5-1,4.5-2,6.5L37.3,40.1c2-1.5,4-2,6.5-2C49.3,38.2,54.2,43.1,54.2,48.6z M32.8,48.6c0-2.5,1-4.5,2-6.5
		l14.9,14.9c-2,1.5-4,2-6.5,2C37.8,59,32.8,54.6,32.8,48.6z"/>
	<g>
		<path class="st1" d="M39.3,2.7c-8-5-18.4-3-23.9,5c-5,8-3,18.4,5,23.9C8.5,35.5,0,47,0,59.9h4.5c0-14.4,11.4-25.9,25.9-25.9
			c9.5,0,16.9-7.5,16.9-16.9C47.3,11.7,44.3,6.2,39.3,2.7z M29.9,30.1c-7,0-12.9-6-12.9-12.9c0-7,6-12.9,12.9-12.9s12.9,6,12.9,12.9
			C42.8,24.6,37.3,30.1,29.9,30.1z"/>
	</g>
</g>
</svg>
