<?xml version="1.0" standalone="no"?><!DOCTYPE svg PUBLIC "-//W3C//DTD SVG 1.1//EN" "http://www.w3.org/Graphics/SVG/1.1/DTD/svg11.dtd"><svg t="1641870183824" class="icon" viewBox="0 0 1024 1024" version="1.1" xmlns="http://www.w3.org/2000/svg" p-id="15875" xmlns:xlink="http://www.w3.org/1999/xlink" width="512" height="512"><defs><style type="text/css"></style></defs><path d="M511.98 927c-218.2 0-395.21-165.48-395.21-369.76 0-204.23 176.95-369.76 395.21-369.76s395.26 165.53 395.26 369.76S730.29 927 511.98 927z m17.86-573.11c0-10.53-9.13-19.03-20.4-19.03-11.22 0-20.3 8.5-20.3 19.03v213l-93.85 87.88c-7.95 7.46-7.95 19.4 0 26.87 3.77 3.58 8.96 5.6 14.38 5.6 5.41 0 10.6-2.02 14.37-5.6l99.88-93.43c3.77-3.58 5.92-8.4 5.92-13.44V353.89zM326.46 190.38v-58.36S334.19 97 373.65 97h276.71c39.57 0 42.06 35.02 42.06 35.02v58.41c-61-25.37-118.94-39.94-182.98-39.94-64.04 0-121.99 14.57-182.98 39.89z" p-id="15876"></path></svg>