<svg width="16.000000" height="16.000000" viewBox="0 0 16 16" fill="none" xmlns="http://www.w3.org/2000/svg" xmlns:xlink="http://www.w3.org/1999/xlink">
	<desc>
			Created with Pixso.
	</desc>
	<defs>
		<clipPath id="clip29_345">
			<rect id="值班" width="16.000000" height="16.000000" fill="white"/>
		</clipPath>
	</defs>
	<g clip-path="url(#clip29_345)">
		<path id="path" d="M9.02197 10.071L8.9375 9.98686C8.81592 9.784 8.74268 9.56483 8.71875 9.32935C8.69482 9.09386 8.72217 8.8645 8.80078 8.64127C8.9375 8.26281 9.32666 8.07359 9.58936 7.78975C9.79199 7.45838 9.95312 7.10796 10.0728 6.7385C10.2373 6.63924 10.374 6.51069 10.4834 6.35284C10.5928 6.19498 10.665 6.02166 10.7002 5.83288C10.7354 5.64409 10.7305 5.45638 10.6851 5.26975C10.6401 5.08312 10.5586 4.91393 10.4409 4.76215C10.4717 4.12265 10.397 3.49572 10.2168 2.88135C10.0366 2.26698 9.76074 1.699 9.38965 1.1774C9.11816 0.901344 8.8125 0.671059 8.47217 0.486534C8.13184 0.302017 7.77246 0.171349 7.39307 0.0945435C7.01367 0.0177307 6.63135 -0.00186157 6.24609 0.0357742C5.86084 0.0734024 5.48926 0.166603 5.13232 0.315376C4.69531 0.521706 4.31934 0.808006 4.00439 1.17428C3.68945 1.54056 3.4624 1.95509 3.32422 2.41788C3.125 3.08673 3.02734 3.77004 3.02979 4.4678C3.02979 4.75165 2.84033 4.96189 2.78809 5.22471C2.7124 5.50836 2.72754 5.78694 2.83447 6.06045C2.94092 6.33395 3.11816 6.54945 3.36621 6.70697C3.54492 6.95927 3.56592 7.28516 3.72363 7.54797C3.92334 7.97897 4.41748 8.17871 4.60645 8.59921C4.71924 8.87211 4.74805 9.15361 4.69287 9.44372C4.6377 9.73383 4.50732 9.98495 4.30176 10.1971C3.36621 11.1012 1.90479 10.9645 0.916504 11.7845C0.614746 12.07 0.457031 12.4204 0.443359 12.8357C0.350586 13.4668 0.371582 14.0941 0.506836 14.7175C0.506836 14.8752 0.59082 15.0644 0.758789 15.138C1.10059 15.2625 1.45117 15.3536 1.81006 15.4113C3.0791 15.6678 4.35791 15.8535 5.64746 15.9685C6.73389 16.0213 7.81641 15.9792 8.89551 15.8423L9.62109 15.7687C9.14844 15.381 8.78076 14.9113 8.51758 14.3595C8.25439 13.8077 8.12109 13.2262 8.11768 12.615C8.12061 11.661 8.42188 10.813 9.02197 10.071Z" fill-rule="nonzero" fill="#7E7E7E"/>
		<path id="path" d="M12.2173 9.20892C11.9946 9.20892 11.7739 9.23064 11.5552 9.27409C11.3369 9.31753 11.1245 9.38185 10.9185 9.46706C10.7129 9.55228 10.5171 9.65674 10.332 9.78045C10.1465 9.90417 9.9751 10.0448 9.81738 10.2022C9.65967 10.3597 9.51904 10.531 9.39502 10.7162C9.27148 10.9014 9.1665 11.0968 9.08105 11.3026C8.99561 11.5084 8.93115 11.7205 8.8877 11.939C8.84375 12.1575 8.82178 12.3782 8.82178 12.601C8.82178 12.8238 8.84326 13.0445 8.88623 13.263C8.92969 13.4816 8.99365 13.6939 9.07861 13.8998C9.16357 14.1058 9.26807 14.3015 9.3916 14.4869C9.51465 14.6723 9.65527 14.844 9.8125 15.0017C9.96973 15.1595 10.1411 15.3005 10.3262 15.4246C10.5112 15.5487 10.7065 15.6535 10.9121 15.7392C11.1182 15.8248 11.3301 15.8896 11.5483 15.9335C11.7671 15.9773 11.9873 15.9995 12.2104 16C12.4331 16.0004 12.6538 15.9792 12.8726 15.9362C13.0913 15.8932 13.3032 15.8293 13.5093 15.7445C13.7153 15.6597 13.9111 15.5557 14.0967 15.4324C14.2822 15.309 14.4541 15.1688 14.6123 15.0116C14.77 14.8545 14.9111 14.6835 15.0356 14.4986C15.1597 14.3136 15.2646 14.1184 15.3506 13.9128C15.4365 13.7072 15.5015 13.4952 15.5454 13.2768C15.5898 13.0584 15.6123 12.8378 15.6128 12.615C15.6133 12.3916 15.5923 12.1703 15.5493 11.951C15.5063 11.7318 15.4424 11.5189 15.3574 11.3123C15.2725 11.1057 15.168 10.9095 15.0444 10.7235C14.9204 10.5375 14.7798 10.3654 14.6221 10.2072C14.4644 10.049 14.2925 9.90769 14.1069 9.78336C13.9214 9.65903 13.7256 9.55405 13.519 9.4684C13.313 9.38275 13.1001 9.31809 12.8809 9.27442C12.6621 9.23076 12.4409 9.20892 12.2173 9.20892ZM13.2686 13.498L12.2173 13.498C12.1475 13.498 12.0806 13.4847 12.0161 13.458C11.9517 13.4313 11.895 13.3933 11.8457 13.3441C11.7964 13.2948 11.7583 13.2379 11.7314 13.1735C11.7051 13.1091 11.6919 13.0421 11.6919 12.9724L11.6919 11.1012C11.6919 11.0315 11.7051 10.9644 11.7314 10.9C11.7583 10.8356 11.7964 10.7788 11.8457 10.7295C11.895 10.6802 11.9517 10.6422 12.0161 10.6156C12.0806 10.5889 12.1475 10.5755 12.2173 10.5755C12.2871 10.5755 12.354 10.5889 12.4185 10.6156C12.4829 10.6422 12.5396 10.6802 12.5889 10.7295C12.6382 10.7788 12.6763 10.8356 12.7031 10.9C12.7295 10.9644 12.7427 11.0315 12.7427 11.1012L12.7427 12.4468L13.2578 12.4468C13.3276 12.4468 13.395 12.4601 13.459 12.4868C13.5234 12.5135 13.5806 12.5514 13.6299 12.6007C13.6792 12.65 13.7168 12.7068 13.7437 12.7712C13.7705 12.8356 13.7837 12.9027 13.7837 12.9724C13.7837 13.0421 13.7705 13.1091 13.7437 13.1735C13.7168 13.2379 13.6792 13.2948 13.6299 13.3441C13.5806 13.3933 13.5234 13.4313 13.459 13.458C13.395 13.4847 13.3384 13.498 13.2686 13.498Z" fill-rule="nonzero" fill="#7E7E7E"/>
	</g>
</svg>
