<svg width="16.250732" height="20.000000" viewBox="0 0 16.2507 20" fill="none" xmlns="http://www.w3.org/2000/svg" xmlns:xlink="http://www.w3.org/1999/xlink">
	<desc>
			Created with Pixso.
	</desc>
	<defs/>
	<path id="path" d="M1.25 17.493C1.25 18.8737 2.3645 20 3.74536 20L12.4956 20C13.8765 20 15.0005 18.8737 15.0005 17.493L15.0005 7.5L1.25 7.5L1.25 17.493ZM10.6255 9.36804C10.6255 9.02319 10.9053 8.74304 11.2505 8.74304C11.5955 8.74304 11.8755 9.02319 11.8755 9.36804L11.8755 16.868C11.8755 17.2135 11.5955 17.493 11.2505 17.493C10.9053 17.493 10.6255 17.2135 10.6255 16.868L10.6255 9.36804ZM7.50024 9.36804C7.50024 9.02319 7.78027 8.74304 8.12524 8.74304C8.47046 8.74304 8.75024 9.02319 8.75024 9.36804L8.75024 16.868C8.75024 17.2135 8.47046 17.493 8.12524 17.493C7.78027 17.493 7.50024 17.2135 7.50024 16.868L7.50024 9.36804ZM4.37524 9.36804C4.37524 9.02319 4.65503 8.74304 5.00024 8.74304C5.34521 8.74304 5.62524 9.02319 5.62524 9.36804L5.62524 16.868C5.62524 17.2135 5.34521 17.493 5.00024 17.493C4.65503 17.493 4.37524 17.2135 4.37524 16.868L4.37524 9.36804ZM14.9958 2.5L11.2505 2.5L11.2505 1.24304C11.2505 0.552734 10.6858 0 9.99561 0L6.24536 0C5.55518 0 5.00024 0.552734 5.00024 1.24304L5.00024 2.5L1.24512 2.5C0.554932 2.5 0 3.05273 0 3.74304L0 4.99304C0 5.68335 0.554199 6.25 1.24438 6.25L14.9971 6.25C15.6868 6.25 16.2507 5.68335 16.2507 4.99304L16.2507 3.74304C16.2507 3.05273 15.686 2.5 14.9958 2.5ZM10.0005 2.5L6.25024 2.5L6.25024 1.86804C6.25024 1.52258 6.52515 1.25 6.87036 1.25L9.37061 1.25C9.71558 1.25 10.0005 1.52258 10.0005 1.86804L10.0005 2.5Z" fill-rule="nonzero"/>
</svg>
