<svg xmlns="http://www.w3.org/2000/svg" xmlns:xlink="http://www.w3.org/1999/xlink" viewBox="0 0 819.2 819.2"><defs><style>.cls-1{fill:none;}.cls-2{clip-path:url(#clip-path);}.cls-3{fill:#37f;}.cls-4{fill:#fff;}</style><clipPath id="clip-path" transform="translate(0.12 -0.52)"><rect class="cls-1" width="819.84" height="820.72"/></clipPath></defs><g id="图层_2" data-name="图层 2"><g id="图层_1-2" data-name="图层 1"><g class="cls-2"><path class="cls-3" d="M-.12,410.12c0,226.22,183.38,409.6,409.6,409.6s409.6-183.38,409.6-409.6S635.7.52,409.48.52-.12,183.9-.12,410.12Z" transform="translate(0.12 -0.52)"/></g><path class="cls-4" d="M348.74,193.12h120.6a47.1,47.1,0,0,1,47.13,46.93v38.5h90.15l.93,0a18.78,18.78,0,1,1,0,37.56c-.33,0-.65,0-1,0H588.89V578.72c0,43.91-35.92,79.73-80.08,79.73H309.27c-44.15,0-80.08-35.77-80.08-79.78V316.12H211.41a18.79,18.79,0,1,1,0-37.57h90.2v-38.5A47.07,47.07,0,0,1,348.74,193.12Zm202.43,123H266.91V578.67a42.37,42.37,0,0,0,42.41,42.22H508.77a42.36,42.36,0,0,0,42.4-42.22ZM339.05,406.63a17.45,17.45,0,0,1,34.89,0V540.17a17.5,17.5,0,0,1-34.89,0Zm105.09,0a17.45,17.45,0,0,1,34.89,0V540.17a17.5,17.5,0,0,1-34.89,0Zm25.2-176v0H348.74a9.43,9.43,0,0,0-9.45,9.41v38.46H478.75V240A9.44,9.44,0,0,0,469.34,230.59Z" transform="translate(0.12 -0.52)"/></g></g></svg>