<svg width="17.689209" height="19.000000" viewBox="0 0 17.6892 19" fill="none" xmlns="http://www.w3.org/2000/svg" xmlns:xlink="http://www.w3.org/1999/xlink">
	<desc>
			Created with Pixso.
	</desc>
	<defs/>
	<path id="path" d="M17.0566 14.5289L15.7932 14.5289L15.7932 8.21201C15.7932 4.60315 13.0049 1.61557 9.47632 1.2937L9.47632 0.631714C9.47632 0.284271 9.19189 0 8.84448 0C8.49707 0 8.21289 0.284271 8.21289 0.631683L8.21289 1.2937C4.68433 1.61557 1.896 4.60312 1.896 8.21198L1.896 14.5289L0.632568 14.5289C0.548828 14.5287 0.468018 14.5447 0.390625 14.5767C0.312988 14.6087 0.244629 14.6543 0.185303 14.7136C0.125977 14.7728 0.0803223 14.8412 0.0480957 14.9186C0.0161133 14.9961 0 15.0767 0 15.1606C0 15.2444 0.0161133 15.3251 0.0480957 15.4025C0.0803223 15.4799 0.125977 15.5483 0.185303 15.6075C0.244629 15.6668 0.312988 15.7124 0.390625 15.7444C0.468018 15.7764 0.548828 15.7924 0.632568 15.7923L17.0566 15.7923C17.1404 15.7924 17.2209 15.7764 17.2986 15.7444C17.376 15.7124 17.4446 15.6668 17.5037 15.6075C17.5632 15.5483 17.6089 15.4799 17.6409 15.4025C17.6731 15.3251 17.6892 15.2444 17.6892 15.1606C17.6892 15.0767 17.6731 14.9961 17.6409 14.9186C17.6089 14.8412 17.5632 14.7728 17.5037 14.7136C17.4446 14.6543 17.376 14.6087 17.2986 14.5767C17.2209 14.5447 17.1404 14.5287 17.0566 14.5289ZM8.84448 19C8.96973 19 9.09351 18.9879 9.21606 18.9635C9.33887 18.9391 9.45801 18.903 9.57349 18.8552C9.68896 18.8073 9.79883 18.7487 9.90283 18.6792C10.0068 18.6097 10.103 18.5307 10.1914 18.4423C10.2798 18.3539 10.3589 18.2576 10.4285 18.1536C10.4978 18.0496 10.5566 17.9398 10.6045 17.8242C10.6523 17.7087 10.6885 17.5895 10.7129 17.4668C10.7373 17.3441 10.7495 17.2202 10.7495 17.0952L6.9397 17.0952C6.9397 17.2202 6.9519 17.3441 6.97607 17.4667C7.00049 17.5894 7.03662 17.7085 7.08447 17.8241C7.13232 17.9396 7.19092 18.0494 7.2605 18.1534C7.33008 18.2574 7.40894 18.3536 7.49731 18.442C7.58594 18.5305 7.68213 18.6095 7.78613 18.679C7.89014 18.7484 7.99976 18.8071 8.11548 18.855C8.23096 18.9029 8.3501 18.939 8.4729 18.9634C8.59546 18.9878 8.71948 19 8.84448 19Z" fill-rule="nonzero" fill="#3377FF" fill-opacity="0.400000"/>
</svg>
