
<?xml version="1.0" encoding="utf-8"?>
<svg version="1.1" xmlns:xlink="http://www.w3.org/1999/xlink" width="16px" height="16px" xmlns="http://www.w3.org/2000/svg">
  <g transform="matrix(1 0 0 1 -463 -258 )">
    <path d="M 14.895 15.888  C 15.440105048083 15.888  15.8830005070997 15.4461055551827  15.8830005070997 14.9010005070996  L 15.883 2.06799999999998  C 15.8802567468134 1.5232553793943  15.43874905763 1.08264052679158  14.894 1.08100000000002  L 13.907 1.08100000000002  L 13.907 0.586999999999989  C 13.9070005593247 0.315113665011552  13.6868857756643 0.0945514935795018  13.415 0.0939999999999941  L 12.427 0.0939999999999941  C 12.1547236183334 0.0939999999999941  11.934 0.314723618333403  11.934 0.586999999999989  L 11.934 1.07999999999998  L 4.03500000000003 1.07999999999998  L 4.03500000000003 0.586999999999989  C 4.03500055932471 0.315113665011552  3.81488577566432 0.0945514935795018  3.54300000000001 0.0939999999999941  L 2.55500000000001 0.0939999999999941  C 2.28327590308322 0.0939999999999941  2.06299898373879 0.314275903082205  2.06299898373879 0.585999999998933  L 2.06299999999999 1.07999999999998  L 1.07499999999999 1.07999999999998  C 0.530447236666873 1.07999999999998  0.0869994908401281 1.52144520723425  0 2.06599797056742  L 0 14.9  C 0.0869999999999891 15.447  0.52800000000002 15.888  1.07499999999999 15.888  L 14.895 15.888  Z M 1.86700000000002 5  L 14.058 5  L 14.058 14  L 1.86700000000002 14  L 1.86700000000002 5  Z M 7.75099999999998 12.189  L 11.746 8.22500000000002  C 11.929 8.05700000000002  12.033 7.81999999999999  12.036 7.572  C 12.039 7.32400000000001  11.94 7.084  11.763 6.91000000000003  C 11.5890494930667 6.72801449814193  11.3482488862913 6.62507279803805  11.0965 6.62507279803805  C 10.8447511137087 6.62507279803805  10.6039505069334 6.72801449814193  10.43 6.91000000000003  L 7.09300000000002 10.231  L 5.536 8.68400000000003  C 5.36014821979541 8.50627887664973  5.12051729197395 8.40627753712056  4.87049999999999 8.40627753712056  C 4.35343861130269 8.40627753712056  3.93427753712058 8.82543861130267  3.93427753712058 9.34249999999997  C 3.93427753712058 9.5890868805451  4.03156102873294 9.82571733427756  4.20499999999998 10.001  L 6.41800000000001 12.189  C 6.5922372349221 12.3704619906137  6.83293078870662 12.4730361338325  7.08449999999999 12.4730361338325  C 7.33606921129336 12.4730361338325  7.57676276507789 12.3704619906137  7.75099999999998 12.189  Z " fill-rule="nonzero" fill="#3377ff" stroke="none" transform="matrix(1 0 0 1 463 258 )" />
  </g>
</svg>