<?xml version="1.0" encoding="utf-8"?>
<svg version="1.1" xmlns:xlink="http://www.w3.org/1999/xlink" width="14px" height="14px" xmlns="http://www.w3.org/2000/svg">
  <g>
    <path d="M 10.0413793103448 1.64137931034483  L 3.86206896551724 1.64137931034483  C 3.43547660702725 1.64137931034483  3.08965517241379 1.29555787573137  3.08965517241379 0.868965517241379  C 3.08965517241379 0.442373158751387  3.43547660702725 0.096551724137931  3.86206896551724 0.096551724137931  L 10.0413793103448 0.096551724137931  C 10.4679716688348 0.096551724137931  10.8137931034483 0.442373158751387  10.8137931034483 0.868965517241379  C 10.8137931034483 1.29555787573137  10.4679716688348 1.64137931034483  10.0413793103448 1.64137931034483  Z M 10.8137931034483 10.1379310344828  C 10.8137931034483 10.5645233929728  10.4679716688348 10.9103448275862  10.0413793103448 10.9103448275862  L 3.86206896551724 10.9103448275862  C 3.43547660702725 10.9103448275862  3.08965517241379 10.5645233929728  3.08965517241379 10.1379310344828  L 3.08965517241379 7.04827586206897  C 3.08965517241379 6.62168350357897  3.43547660702725 6.27586206896552  3.86206896551724 6.27586206896552  L 10.0413793103448 6.27586206896552  C 10.4679716688348 6.27586206896552  10.8137931034483 6.62168350357897  10.8137931034483 7.04827586206897  L 10.8137931034483 10.1379310344828  Z M 4.63448275862069 7.82068965517241  L 4.63448275862069 9.36551724137931  L 9.26896551724138 9.36551724137931  L 9.26896551724138 7.82068965517241  L 4.63448275862069 7.82068965517241  Z M 13.9034482758621 12.4551724137931  C 13.9034482758621 13.3083571307731  13.2118054066352 14  12.3586206896552 14  L 1.5448275862069 14  C 0.691642869226913 14  0 13.3083571307731  0 12.4551724137931  L 0 1.64137931034483  C 0 0.788194593364844  0.691642869226913 0.096551724137931  1.5448275862069 0.096551724137931  L 4.63448275862069 0.096551724137931  C 5.06107511711068 0.096551724137931  5.40689655172414 0.442373158751387  5.40689655172414 0.868965517241379  L 5.40689655172414 3.18620689655172  L 8.49655172413793 3.18620689655172  L 8.49655172413793 0.868965517241379  C 8.49655172413793 0.442373158751387  8.84237315875139 0.096551724137931  9.26896551724138 0.096551724137931  L 10.0413793103448 0.096551724137931  C 10.2466892019366 0.0953647104444169  10.4440240755164 0.175966278526308  10.5897931034483 0.320551724137931  L 13.6794482758621 3.41020689655172  C 13.8240337214737 3.55597592448363  13.9046352895556 3.75331079806343  13.9034482758621 3.95862068965517  L 13.9034482758621 12.4551724137931  Z M 3.86206896551724 1.64137931034483  L 1.5448275862069 1.64137931034483  L 1.5448275862069 12.4551724137931  L 12.3586206896552 12.4551724137931  L 12.3586206896552 4.27531034482759  L 10.0413793103448 1.95806896551724  L 10.0413793103448 3.95862068965517  C 10.0413793103448 4.38521304814516  9.69555787573137 4.73103448275862  9.26896551724138 4.73103448275862  L 4.63448275862069 4.73103448275862  C 4.2078904001307 4.73103448275862  3.86206896551724 4.38521304814516  3.86206896551724 3.95862068965517  L 3.86206896551724 1.64137931034483  Z " fill-rule="nonzero" fill="#c9d0db" stroke="none" />
  </g>
</svg>