<?xml version="1.0" encoding="utf-8"?>
<svg version="1.1" xmlns:xlink="http://www.w3.org/1999/xlink" width="19px" height="18px" xmlns="http://www.w3.org/2000/svg">
  <g transform="matrix(1 0 0 1 -275 -1408 )">
    <path d="M 8.27126736111111 14.6703125  L 3.35699652777778 14.6703125  C 3.35699652777778 14.6703125  2.74279513888889 16.9384375  1.51439236111111 17.505625  C 1.51439236111111 17.505625  7.04286458333333 16.9384375  8.27126736111111 14.6703125  Z M 18.7361111111111 2.195  C 18.7361111111111 1.2559375  17.8893576388889 0.5625  16.8717361111111 0.5625  L 2.12859375 0.5625  C 1.11064236111111 0.5625  0.263888888888889 1.2559375  0.263888888888889 2.195  L 0.263888888888889 13.5359375  C 0.263888888888889 14.4753125  1.11064236111111 15.25  2.12859375 15  L 16.8717361111111 15  C 17.8893576388889 15.25  18.7361111111111 14.4753125  18.7361111111111 13.5359375  L 18.7361111111111 2.195  Z M 5.81446180555556 7.8653125  C 5.81446180555556 8.491875  5.26425347222222 9  4.58572916666667 9  C 3.90720486111111 9  3.35699652777778 8.491875  3.35699652777778 7.8653125  C 3.35699652777778 7.2390625  3.906875 6.73125  4.58572916666667 6.73125  C 5.26458333333333 6.73125  5.81446180555556 7.2390625  5.81446180555556 7.8653125  Z M 10.7290625 7.8653125  C 10.7290625 8.491875  10.1791840277778 9  9.5 9  C 8.82147569444444 9  8.27126736111111 8.491875  8.27126736111111 7.8653125  C 8.27126736111111 7.2390625  8.82114583333333 6.73125  9.5 6.73125  C 10.1791840277778 6.73125  10.7290625 7.2390625  10.7290625 7.8653125  Z M 15.6426736111111 7.8653125  C 15.6426736111111 8.491875  15.093125 9  14.4139409722222 9  C 13.7354166666667 9  13.1852083333333 8.491875  13.1852083333333 7.8653125  C 13.1852083333333 7.2390625  13.7354166666667 6.73125  14.4139409722222 6.73125  C 15.093125 6.73125  15.6426736111111 7.2390625  15.6426736111111 7.8653125  Z " fill-rule="nonzero" fill="#3377ff" stroke="none" fill-opacity="0.4" transform="matrix(1 0 0 1 275 1408 )" />
  </g>
</svg>