<?xml version="1.0" encoding="utf-8"?>
<svg version="1.1" xmlns:xlink="http://www.w3.org/1999/xlink" width="16px" height="17px" xmlns="http://www.w3.org/2000/svg">
  <g transform="matrix(1 0 0 1 -15 -15 )">
    <path d="M 13.3025 12.4916193181818  C 16.225625 9.71885653409091  16.225625 5.22375710227273  13.300625 2.45099431818182  C 10.3775 -0.319957386363636  5.635625 -0.319957386363636  2.7125 2.45099431818182  C -0.2125 5.22375710227273  -0.2125 9.71885653409091  2.7125 12.4916193181818  L 8.0075 16.5991477272727  L 13.3025 12.4916193181818  Z M 11.215625 7.47130681818182  C 11.215625 9.15198863636364  9.779375 10.5139204545455  8.0075 10.5139204545455  C 6.235625 10.5139204545455  4.799375 9.15198863636364  4.799375 7.47130681818182  C 4.799375 5.790625  6.235625 4.42869318181818  8.0075 4.42869318181818  C 9.779375 4.42869318181818  11.215625 5.790625  11.215625 7.47130681818182  Z " fill-rule="nonzero" fill="#3377ff" stroke="none" transform="matrix(1 0 0 1 15 15 )" />
  </g>
</svg>