<?xml version="1.0" encoding="utf-8"?>
<svg version="1.1" xmlns:xlink="http://www.w3.org/1999/xlink" width="16px" height="18px" xmlns="http://www.w3.org/2000/svg">
  <g transform="matrix(1 0 0 1 -144 -543 )">
    <path d="M 11.8281481555556 17.9265306122449  L 11.0696296222222 17.2408163188775  L 8.88888888888889 14.8897959107143  C 11.7333333333333 14.4979591683673  14.0088888888889 12.0489795918367  14.0088888888889 9.11020408163265  C 14.0088888888889 6.2693877627551  11.9229629555556 3.82040816326531  9.17333333333333 3.33061225255102  L 7.18222222222222 1.27346939540816  L 8.03555555555555 1.27346939540816  C 12.3970370444444 1.27346939540816  15.9051851777778 4.80000000765306  15.9051851777778 9.11020408163265  C 15.9051851777778 12.0489795918367  14.1985185111111 14.6938775510204  11.8281481555556 15.9673469464286  L 11.8281481555556 17.9265306122449  Z M 7.0874074 14.8897959107143  L 8.98370371111111 16.8489795994898  C 8.69925926666667 16.8489795994898  8.32 16.9469387908163  7.94074073333333 16.9469387678571  C 3.57925924444445 16.9469387678571  0.0711111111111121 13.4204081556122  0.0711111111111121 9.11020408163265  C 0.0711111111111121 6.17142857142857  1.77777777777778 3.5265306122449  4.14814815555556 2.25306121683673  L 4.14814815555556 0  L 5.38074073333333 1.27346939540816  L 7.27703704444445 3.23265306122449  C 4.33777777777778 3.5265306122449  2.06222222222222 6.07346938010204  2.06222222222222 9.11020408163265  C 2.06222222222222 12.0489795918367  4.24296295555556 14.4979591913265  7.0874074 14.8897959107143  Z " fill-rule="nonzero" fill="#cecccc" stroke="none" transform="matrix(1 0 0 1 144 543 )" />
  </g>
</svg>