<?xml version="1.0" standalone="no"?><!DOCTYPE svg PUBLIC "-//W3C//DTD SVG 1.1//EN" "http://www.w3.org/Graphics/SVG/1.1/DTD/svg11.dtd"><svg t="1647238859393" class="icon" viewBox="0 0 1024 1024" version="1.1" xmlns="http://www.w3.org/2000/svg" p-id="25929" xmlns:xlink="http://www.w3.org/1999/xlink" width="48" height="48"><defs><style type="text/css"></style></defs><path d="M443.47392 173.98784c148.596053 0 269.48608 120.890027 269.48608 269.48608s-120.890027 269.48608-269.48608 269.48608c-148.596053 0-269.48608-120.890027-269.48608-269.48608s120.890027-269.48608 269.48608-269.48608m0-85.333333c-195.96288 0-354.819413 158.859947-354.819413 354.819413s158.859947 354.819413 354.819413 354.819413c195.96288 0 354.819413-158.859947 354.819413-354.819413S639.4368 88.654507 443.47392 88.654507z" p-id="25930"></path><path d="M741.676373 704.48128a37.12 37.12 0 0 0-26.330453 10.861227c-14.482773 14.482773-14.482773 38.181547 0 52.66432l155.050667 155.050666a37.126827 37.126827 0 0 0 26.330453 10.861227c9.54368 0 19.090773-3.621547 26.330453-10.861227 14.482773-14.482773 14.482773-38.181547 0-52.66432l-155.050666-155.050666a37.12 37.12 0 0 0-26.330454-10.861227z" p-id="25931"></path></svg>